G04 #@! TF.GenerationSoftware,KiCad,Pcbnew,5.1.5-52549c5~86~ubuntu18.04.1*
G04 #@! TF.CreationDate,2020-09-04T15:06:53-03:00*
G04 #@! TF.ProjectId,TPS54331,54505335-3433-4333-912e-6b696361645f,v1.0*
G04 #@! TF.SameCoordinates,Original*
G04 #@! TF.FileFunction,Legend,Top*
G04 #@! TF.FilePolarity,Positive*
%FSLAX46Y46*%
G04 Gerber Fmt 4.6, Leading zero omitted, Abs format (unit mm)*
G04 Created by KiCad (PCBNEW 5.1.5-52549c5~86~ubuntu18.04.1) date 2020-09-04 15:06:53*
%MOMM*%
%LPD*%
G04 APERTURE LIST*
%ADD10C,0.200000*%
%ADD11C,0.100000*%
%ADD12C,0.300000*%
%ADD13C,0.120000*%
%ADD14C,0.050000*%
%ADD15C,0.150000*%
%ADD16C,0.250000*%
%ADD17C,0.280000*%
G04 APERTURE END LIST*
D10*
X97416666Y-98552380D02*
X97416666Y-97552380D01*
X97416666Y-98028571D02*
X97988095Y-98028571D01*
X97988095Y-98552380D02*
X97988095Y-97552380D01*
X98845238Y-98504761D02*
X98750000Y-98552380D01*
X98559523Y-98552380D01*
X98464285Y-98504761D01*
X98416666Y-98409523D01*
X98416666Y-98028571D01*
X98464285Y-97933333D01*
X98559523Y-97885714D01*
X98750000Y-97885714D01*
X98845238Y-97933333D01*
X98892857Y-98028571D01*
X98892857Y-98123809D01*
X98416666Y-98219047D01*
X99321428Y-98552380D02*
X99321428Y-97885714D01*
X99321428Y-98076190D02*
X99369047Y-97980952D01*
X99416666Y-97933333D01*
X99511904Y-97885714D01*
X99607142Y-97885714D01*
X99940476Y-97885714D02*
X99940476Y-98552380D01*
X99940476Y-97980952D02*
X99988095Y-97933333D01*
X100083333Y-97885714D01*
X100226190Y-97885714D01*
X100321428Y-97933333D01*
X100369047Y-98028571D01*
X100369047Y-98552380D01*
X101273809Y-98552380D02*
X101273809Y-98028571D01*
X101226190Y-97933333D01*
X101130952Y-97885714D01*
X100940476Y-97885714D01*
X100845238Y-97933333D01*
X101273809Y-98504761D02*
X101178571Y-98552380D01*
X100940476Y-98552380D01*
X100845238Y-98504761D01*
X100797619Y-98409523D01*
X100797619Y-98314285D01*
X100845238Y-98219047D01*
X100940476Y-98171428D01*
X101178571Y-98171428D01*
X101273809Y-98123809D01*
X101750000Y-97885714D02*
X101750000Y-98552380D01*
X101750000Y-97980952D02*
X101797619Y-97933333D01*
X101892857Y-97885714D01*
X102035714Y-97885714D01*
X102130952Y-97933333D01*
X102178571Y-98028571D01*
X102178571Y-98552380D01*
X103416666Y-98552380D02*
X103416666Y-97552380D01*
X103750000Y-98266666D01*
X104083333Y-97552380D01*
X104083333Y-98552380D01*
X104559523Y-98457142D02*
X104607142Y-98504761D01*
X104559523Y-98552380D01*
X104511904Y-98504761D01*
X104559523Y-98457142D01*
X104559523Y-98552380D01*
X105654761Y-97552380D02*
X106226190Y-97552380D01*
X105940476Y-98552380D02*
X105940476Y-97552380D01*
X106559523Y-98552380D02*
X106559523Y-97885714D01*
X106559523Y-98076190D02*
X106607142Y-97980952D01*
X106654761Y-97933333D01*
X106750000Y-97885714D01*
X106845238Y-97885714D01*
X107607142Y-98552380D02*
X107607142Y-98028571D01*
X107559523Y-97933333D01*
X107464285Y-97885714D01*
X107273809Y-97885714D01*
X107178571Y-97933333D01*
X107607142Y-98504761D02*
X107511904Y-98552380D01*
X107273809Y-98552380D01*
X107178571Y-98504761D01*
X107130952Y-98409523D01*
X107130952Y-98314285D01*
X107178571Y-98219047D01*
X107273809Y-98171428D01*
X107511904Y-98171428D01*
X107607142Y-98123809D01*
X107988095Y-97885714D02*
X108226190Y-98552380D01*
X108464285Y-97885714D01*
X109273809Y-98552380D02*
X109273809Y-98028571D01*
X109226190Y-97933333D01*
X109130952Y-97885714D01*
X108940476Y-97885714D01*
X108845238Y-97933333D01*
X109273809Y-98504761D02*
X109178571Y-98552380D01*
X108940476Y-98552380D01*
X108845238Y-98504761D01*
X108797619Y-98409523D01*
X108797619Y-98314285D01*
X108845238Y-98219047D01*
X108940476Y-98171428D01*
X109178571Y-98171428D01*
X109273809Y-98123809D01*
X110178571Y-98552380D02*
X110178571Y-97552380D01*
X110178571Y-98504761D02*
X110083333Y-98552380D01*
X109892857Y-98552380D01*
X109797619Y-98504761D01*
X109750000Y-98457142D01*
X109702380Y-98361904D01*
X109702380Y-98076190D01*
X109750000Y-97980952D01*
X109797619Y-97933333D01*
X109892857Y-97885714D01*
X110083333Y-97885714D01*
X110178571Y-97933333D01*
X110797619Y-98552380D02*
X110702380Y-98504761D01*
X110654761Y-98457142D01*
X110607142Y-98361904D01*
X110607142Y-98076190D01*
X110654761Y-97980952D01*
X110702380Y-97933333D01*
X110797619Y-97885714D01*
X110940476Y-97885714D01*
X111035714Y-97933333D01*
X111083333Y-97980952D01*
X111130952Y-98076190D01*
X111130952Y-98361904D01*
X111083333Y-98457142D01*
X111035714Y-98504761D01*
X110940476Y-98552380D01*
X110797619Y-98552380D01*
X100821428Y-100252380D02*
X100250000Y-100252380D01*
X100535714Y-100252380D02*
X100535714Y-99252380D01*
X100440476Y-99395238D01*
X100345238Y-99490476D01*
X100250000Y-99538095D01*
X101154761Y-99252380D02*
X101773809Y-99252380D01*
X101440476Y-99633333D01*
X101583333Y-99633333D01*
X101678571Y-99680952D01*
X101726190Y-99728571D01*
X101773809Y-99823809D01*
X101773809Y-100061904D01*
X101726190Y-100157142D01*
X101678571Y-100204761D01*
X101583333Y-100252380D01*
X101297619Y-100252380D01*
X101202380Y-100204761D01*
X101154761Y-100157142D01*
X102726190Y-100252380D02*
X102154761Y-100252380D01*
X102440476Y-100252380D02*
X102440476Y-99252380D01*
X102345238Y-99395238D01*
X102250000Y-99490476D01*
X102154761Y-99538095D01*
X103154761Y-100157142D02*
X103202380Y-100204761D01*
X103154761Y-100252380D01*
X103107142Y-100204761D01*
X103154761Y-100157142D01*
X103154761Y-100252380D01*
X104059523Y-99585714D02*
X104059523Y-100252380D01*
X103821428Y-99204761D02*
X103583333Y-99919047D01*
X104202380Y-99919047D01*
X105059523Y-99252380D02*
X104583333Y-99252380D01*
X104535714Y-99728571D01*
X104583333Y-99680952D01*
X104678571Y-99633333D01*
X104916666Y-99633333D01*
X105011904Y-99680952D01*
X105059523Y-99728571D01*
X105107142Y-99823809D01*
X105107142Y-100061904D01*
X105059523Y-100157142D01*
X105011904Y-100204761D01*
X104916666Y-100252380D01*
X104678571Y-100252380D01*
X104583333Y-100204761D01*
X104535714Y-100157142D01*
X105440476Y-99252380D02*
X106059523Y-99252380D01*
X105726190Y-99633333D01*
X105869047Y-99633333D01*
X105964285Y-99680952D01*
X106011904Y-99728571D01*
X106059523Y-99823809D01*
X106059523Y-100061904D01*
X106011904Y-100157142D01*
X105964285Y-100204761D01*
X105869047Y-100252380D01*
X105583333Y-100252380D01*
X105488095Y-100204761D01*
X105440476Y-100157142D01*
X106488095Y-99871428D02*
X107250000Y-99871428D01*
X108250000Y-100252380D02*
X107678571Y-100252380D01*
X107964285Y-100252380D02*
X107964285Y-99252380D01*
X107869047Y-99395238D01*
X107773809Y-99490476D01*
X107678571Y-99538095D01*
X102654761Y-101952380D02*
X102321428Y-101476190D01*
X102083333Y-101952380D02*
X102083333Y-100952380D01*
X102464285Y-100952380D01*
X102559523Y-101000000D01*
X102607142Y-101047619D01*
X102654761Y-101142857D01*
X102654761Y-101285714D01*
X102607142Y-101380952D01*
X102559523Y-101428571D01*
X102464285Y-101476190D01*
X102083333Y-101476190D01*
X103607142Y-101952380D02*
X103035714Y-101952380D01*
X103321428Y-101952380D02*
X103321428Y-100952380D01*
X103226190Y-101095238D01*
X103130952Y-101190476D01*
X103035714Y-101238095D01*
X104226190Y-100952380D02*
X104321428Y-100952380D01*
X104416666Y-101000000D01*
X104464285Y-101047619D01*
X104511904Y-101142857D01*
X104559523Y-101333333D01*
X104559523Y-101571428D01*
X104511904Y-101761904D01*
X104464285Y-101857142D01*
X104416666Y-101904761D01*
X104321428Y-101952380D01*
X104226190Y-101952380D01*
X104130952Y-101904761D01*
X104083333Y-101857142D01*
X104035714Y-101761904D01*
X103988095Y-101571428D01*
X103988095Y-101333333D01*
X104035714Y-101142857D01*
X104083333Y-101047619D01*
X104130952Y-101000000D01*
X104226190Y-100952380D01*
X104892857Y-100952380D02*
X105511904Y-100952380D01*
X105178571Y-101333333D01*
X105321428Y-101333333D01*
X105416666Y-101380952D01*
X105464285Y-101428571D01*
X105511904Y-101523809D01*
X105511904Y-101761904D01*
X105464285Y-101857142D01*
X105416666Y-101904761D01*
X105321428Y-101952380D01*
X105035714Y-101952380D01*
X104940476Y-101904761D01*
X104892857Y-101857142D01*
X106464285Y-101952380D02*
X105892857Y-101952380D01*
X106178571Y-101952380D02*
X106178571Y-100952380D01*
X106083333Y-101095238D01*
X105988095Y-101190476D01*
X105892857Y-101238095D01*
X99988095Y-102652380D02*
X100559523Y-102652380D01*
X100273809Y-103652380D02*
X100273809Y-102652380D01*
X100892857Y-103652380D02*
X100892857Y-102652380D01*
X101273809Y-102652380D01*
X101369047Y-102700000D01*
X101416666Y-102747619D01*
X101464285Y-102842857D01*
X101464285Y-102985714D01*
X101416666Y-103080952D01*
X101369047Y-103128571D01*
X101273809Y-103176190D01*
X100892857Y-103176190D01*
X101845238Y-102747619D02*
X101892857Y-102700000D01*
X101988095Y-102652380D01*
X102226190Y-102652380D01*
X102321428Y-102700000D01*
X102369047Y-102747619D01*
X102416666Y-102842857D01*
X102416666Y-102938095D01*
X102369047Y-103080952D01*
X101797619Y-103652380D01*
X102416666Y-103652380D01*
X103607142Y-103271428D02*
X104369047Y-103271428D01*
X105464285Y-102652380D02*
X105797619Y-103652380D01*
X106130952Y-102652380D01*
X106988095Y-103652380D02*
X106416666Y-103652380D01*
X106702380Y-103652380D02*
X106702380Y-102652380D01*
X106607142Y-102795238D01*
X106511904Y-102890476D01*
X106416666Y-102938095D01*
X107416666Y-103557142D02*
X107464285Y-103604761D01*
X107416666Y-103652380D01*
X107369047Y-103604761D01*
X107416666Y-103557142D01*
X107416666Y-103652380D01*
X108083333Y-102652380D02*
X108178571Y-102652380D01*
X108273809Y-102700000D01*
X108321428Y-102747619D01*
X108369047Y-102842857D01*
X108416666Y-103033333D01*
X108416666Y-103271428D01*
X108369047Y-103461904D01*
X108321428Y-103557142D01*
X108273809Y-103604761D01*
X108178571Y-103652380D01*
X108083333Y-103652380D01*
X107988095Y-103604761D01*
X107940476Y-103557142D01*
X107892857Y-103461904D01*
X107845238Y-103271428D01*
X107845238Y-103033333D01*
X107892857Y-102842857D01*
X107940476Y-102747619D01*
X107988095Y-102700000D01*
X108083333Y-102652380D01*
X97988095Y-105304761D02*
X98130952Y-105352380D01*
X98369047Y-105352380D01*
X98464285Y-105304761D01*
X98511904Y-105257142D01*
X98559523Y-105161904D01*
X98559523Y-105066666D01*
X98511904Y-104971428D01*
X98464285Y-104923809D01*
X98369047Y-104876190D01*
X98178571Y-104828571D01*
X98083333Y-104780952D01*
X98035714Y-104733333D01*
X97988095Y-104638095D01*
X97988095Y-104542857D01*
X98035714Y-104447619D01*
X98083333Y-104400000D01*
X98178571Y-104352380D01*
X98416666Y-104352380D01*
X98559523Y-104400000D01*
X99369047Y-105304761D02*
X99273809Y-105352380D01*
X99083333Y-105352380D01*
X98988095Y-105304761D01*
X98940476Y-105209523D01*
X98940476Y-104828571D01*
X98988095Y-104733333D01*
X99083333Y-104685714D01*
X99273809Y-104685714D01*
X99369047Y-104733333D01*
X99416666Y-104828571D01*
X99416666Y-104923809D01*
X98940476Y-105019047D01*
X99845238Y-104685714D02*
X99845238Y-105685714D01*
X99845238Y-104733333D02*
X99940476Y-104685714D01*
X100130952Y-104685714D01*
X100226190Y-104733333D01*
X100273809Y-104780952D01*
X100321428Y-104876190D01*
X100321428Y-105161904D01*
X100273809Y-105257142D01*
X100226190Y-105304761D01*
X100130952Y-105352380D01*
X99940476Y-105352380D01*
X99845238Y-105304761D01*
X100607142Y-104685714D02*
X100988095Y-104685714D01*
X100750000Y-104352380D02*
X100750000Y-105209523D01*
X100797619Y-105304761D01*
X100892857Y-105352380D01*
X100988095Y-105352380D01*
X101321428Y-105352380D02*
X101321428Y-104685714D01*
X101321428Y-104352380D02*
X101273809Y-104400000D01*
X101321428Y-104447619D01*
X101369047Y-104400000D01*
X101321428Y-104352380D01*
X101321428Y-104447619D01*
X102178571Y-105304761D02*
X102083333Y-105352380D01*
X101892857Y-105352380D01*
X101797619Y-105304761D01*
X101750000Y-105209523D01*
X101750000Y-104828571D01*
X101797619Y-104733333D01*
X101892857Y-104685714D01*
X102083333Y-104685714D01*
X102178571Y-104733333D01*
X102226190Y-104828571D01*
X102226190Y-104923809D01*
X101750000Y-105019047D01*
X102654761Y-105352380D02*
X102654761Y-104685714D01*
X102654761Y-104780952D02*
X102702380Y-104733333D01*
X102797619Y-104685714D01*
X102940476Y-104685714D01*
X103035714Y-104733333D01*
X103083333Y-104828571D01*
X103083333Y-105352380D01*
X103083333Y-104828571D02*
X103130952Y-104733333D01*
X103226190Y-104685714D01*
X103369047Y-104685714D01*
X103464285Y-104733333D01*
X103511904Y-104828571D01*
X103511904Y-105352380D01*
X103988095Y-105352380D02*
X103988095Y-104352380D01*
X103988095Y-104733333D02*
X104083333Y-104685714D01*
X104273809Y-104685714D01*
X104369047Y-104733333D01*
X104416666Y-104780952D01*
X104464285Y-104876190D01*
X104464285Y-105161904D01*
X104416666Y-105257142D01*
X104369047Y-105304761D01*
X104273809Y-105352380D01*
X104083333Y-105352380D01*
X103988095Y-105304761D01*
X104892857Y-105352380D02*
X104892857Y-104685714D01*
X104892857Y-104876190D02*
X104940476Y-104780952D01*
X104988095Y-104733333D01*
X105083333Y-104685714D01*
X105178571Y-104685714D01*
X105892857Y-105304761D02*
X105797619Y-105352380D01*
X105607142Y-105352380D01*
X105511904Y-105304761D01*
X105464285Y-105209523D01*
X105464285Y-104828571D01*
X105511904Y-104733333D01*
X105607142Y-104685714D01*
X105797619Y-104685714D01*
X105892857Y-104733333D01*
X105940476Y-104828571D01*
X105940476Y-104923809D01*
X105464285Y-105019047D01*
X107083333Y-104447619D02*
X107130952Y-104400000D01*
X107226190Y-104352380D01*
X107464285Y-104352380D01*
X107559523Y-104400000D01*
X107607142Y-104447619D01*
X107654761Y-104542857D01*
X107654761Y-104638095D01*
X107607142Y-104780952D01*
X107035714Y-105352380D01*
X107654761Y-105352380D01*
X108273809Y-104352380D02*
X108369047Y-104352380D01*
X108464285Y-104400000D01*
X108511904Y-104447619D01*
X108559523Y-104542857D01*
X108607142Y-104733333D01*
X108607142Y-104971428D01*
X108559523Y-105161904D01*
X108511904Y-105257142D01*
X108464285Y-105304761D01*
X108369047Y-105352380D01*
X108273809Y-105352380D01*
X108178571Y-105304761D01*
X108130952Y-105257142D01*
X108083333Y-105161904D01*
X108035714Y-104971428D01*
X108035714Y-104733333D01*
X108083333Y-104542857D01*
X108130952Y-104447619D01*
X108178571Y-104400000D01*
X108273809Y-104352380D01*
X108988095Y-104447619D02*
X109035714Y-104400000D01*
X109130952Y-104352380D01*
X109369047Y-104352380D01*
X109464285Y-104400000D01*
X109511904Y-104447619D01*
X109559523Y-104542857D01*
X109559523Y-104638095D01*
X109511904Y-104780952D01*
X108940476Y-105352380D01*
X109559523Y-105352380D01*
X110178571Y-104352380D02*
X110273809Y-104352380D01*
X110369047Y-104400000D01*
X110416666Y-104447619D01*
X110464285Y-104542857D01*
X110511904Y-104733333D01*
X110511904Y-104971428D01*
X110464285Y-105161904D01*
X110416666Y-105257142D01*
X110369047Y-105304761D01*
X110273809Y-105352380D01*
X110178571Y-105352380D01*
X110083333Y-105304761D01*
X110035714Y-105257142D01*
X109988095Y-105161904D01*
X109940476Y-104971428D01*
X109940476Y-104733333D01*
X109988095Y-104542857D01*
X110035714Y-104447619D01*
X110083333Y-104400000D01*
X110178571Y-104352380D01*
X97070476Y-91166666D02*
X97546666Y-91166666D01*
X96975238Y-91452380D02*
X97308571Y-90452380D01*
X97641904Y-91452380D01*
X97927619Y-91404761D02*
X98022857Y-91452380D01*
X98213333Y-91452380D01*
X98308571Y-91404761D01*
X98356190Y-91309523D01*
X98356190Y-91261904D01*
X98308571Y-91166666D01*
X98213333Y-91119047D01*
X98070476Y-91119047D01*
X97975238Y-91071428D01*
X97927619Y-90976190D01*
X97927619Y-90928571D01*
X97975238Y-90833333D01*
X98070476Y-90785714D01*
X98213333Y-90785714D01*
X98308571Y-90833333D01*
X98737142Y-91404761D02*
X98832380Y-91452380D01*
X99022857Y-91452380D01*
X99118095Y-91404761D01*
X99165714Y-91309523D01*
X99165714Y-91261904D01*
X99118095Y-91166666D01*
X99022857Y-91119047D01*
X98880000Y-91119047D01*
X98784761Y-91071428D01*
X98737142Y-90976190D01*
X98737142Y-90928571D01*
X98784761Y-90833333D01*
X98880000Y-90785714D01*
X99022857Y-90785714D01*
X99118095Y-90833333D01*
X99499047Y-90785714D02*
X99737142Y-91452380D01*
X99975238Y-90785714D02*
X99737142Y-91452380D01*
X99641904Y-91690476D01*
X99594285Y-91738095D01*
X99499047Y-91785714D01*
X100356190Y-91357142D02*
X100403809Y-91404761D01*
X100356190Y-91452380D01*
X100308571Y-91404761D01*
X100356190Y-91357142D01*
X100356190Y-91452380D01*
X100356190Y-90833333D02*
X100403809Y-90880952D01*
X100356190Y-90928571D01*
X100308571Y-90880952D01*
X100356190Y-90833333D01*
X100356190Y-90928571D01*
D11*
G36*
X114750000Y-96000000D02*
G01*
X96750000Y-96000000D01*
X96750000Y-92000000D01*
X114750000Y-92000000D01*
X114750000Y-96000000D01*
G37*
X114750000Y-96000000D02*
X96750000Y-96000000D01*
X96750000Y-92000000D01*
X114750000Y-92000000D01*
X114750000Y-96000000D01*
D10*
X97070476Y-85404761D02*
X97213333Y-85452380D01*
X97451428Y-85452380D01*
X97546666Y-85404761D01*
X97594285Y-85357142D01*
X97641904Y-85261904D01*
X97641904Y-85166666D01*
X97594285Y-85071428D01*
X97546666Y-85023809D01*
X97451428Y-84976190D01*
X97260952Y-84928571D01*
X97165714Y-84880952D01*
X97118095Y-84833333D01*
X97070476Y-84738095D01*
X97070476Y-84642857D01*
X97118095Y-84547619D01*
X97165714Y-84500000D01*
X97260952Y-84452380D01*
X97499047Y-84452380D01*
X97641904Y-84500000D01*
X98784761Y-84404761D02*
X97927619Y-85690476D01*
X99118095Y-85452380D02*
X99118095Y-84452380D01*
X99689523Y-85452380D01*
X99689523Y-84452380D01*
X100165714Y-85357142D02*
X100213333Y-85404761D01*
X100165714Y-85452380D01*
X100118095Y-85404761D01*
X100165714Y-85357142D01*
X100165714Y-85452380D01*
X100165714Y-84833333D02*
X100213333Y-84880952D01*
X100165714Y-84928571D01*
X100118095Y-84880952D01*
X100165714Y-84833333D01*
X100165714Y-84928571D01*
D11*
G36*
X114750000Y-90000000D02*
G01*
X96750000Y-90000000D01*
X96750000Y-86000000D01*
X114750000Y-86000000D01*
X114750000Y-90000000D01*
G37*
X114750000Y-90000000D02*
X96750000Y-90000000D01*
X96750000Y-86000000D01*
X114750000Y-86000000D01*
X114750000Y-90000000D01*
D12*
X175392857Y-84678571D02*
X175392857Y-83178571D01*
X175964285Y-83178571D01*
X176107142Y-83250000D01*
X176178571Y-83321428D01*
X176250000Y-83464285D01*
X176250000Y-83678571D01*
X176178571Y-83821428D01*
X176107142Y-83892857D01*
X175964285Y-83964285D01*
X175392857Y-83964285D01*
X177107142Y-84678571D02*
X176964285Y-84607142D01*
X176892857Y-84535714D01*
X176821428Y-84392857D01*
X176821428Y-83964285D01*
X176892857Y-83821428D01*
X176964285Y-83750000D01*
X177107142Y-83678571D01*
X177321428Y-83678571D01*
X177464285Y-83750000D01*
X177535714Y-83821428D01*
X177607142Y-83964285D01*
X177607142Y-84392857D01*
X177535714Y-84535714D01*
X177464285Y-84607142D01*
X177321428Y-84678571D01*
X177107142Y-84678571D01*
X178107142Y-83678571D02*
X178392857Y-84678571D01*
X178678571Y-83964285D01*
X178964285Y-84678571D01*
X179250000Y-83678571D01*
X180392857Y-84607142D02*
X180250000Y-84678571D01*
X179964285Y-84678571D01*
X179821428Y-84607142D01*
X179750000Y-84464285D01*
X179750000Y-83892857D01*
X179821428Y-83750000D01*
X179964285Y-83678571D01*
X180250000Y-83678571D01*
X180392857Y-83750000D01*
X180464285Y-83892857D01*
X180464285Y-84035714D01*
X179750000Y-84178571D01*
X181107142Y-84678571D02*
X181107142Y-83678571D01*
X181107142Y-83964285D02*
X181178571Y-83821428D01*
X181250000Y-83750000D01*
X181392857Y-83678571D01*
X181535714Y-83678571D01*
X182035714Y-84107142D02*
X183178571Y-84107142D01*
X184178571Y-83178571D02*
X184464285Y-83178571D01*
X184607142Y-83250000D01*
X184750000Y-83392857D01*
X184821428Y-83678571D01*
X184821428Y-84178571D01*
X184750000Y-84464285D01*
X184607142Y-84607142D01*
X184464285Y-84678571D01*
X184178571Y-84678571D01*
X184035714Y-84607142D01*
X183892857Y-84464285D01*
X183821428Y-84178571D01*
X183821428Y-83678571D01*
X183892857Y-83392857D01*
X184035714Y-83250000D01*
X184178571Y-83178571D01*
X185464285Y-83678571D02*
X185464285Y-84678571D01*
X185464285Y-83821428D02*
X185535714Y-83750000D01*
X185678571Y-83678571D01*
X185892857Y-83678571D01*
X186035714Y-83750000D01*
X186107142Y-83892857D01*
X186107142Y-84678571D01*
X175357142Y-89357142D02*
X175571428Y-89428571D01*
X175928571Y-89428571D01*
X176071428Y-89357142D01*
X176142857Y-89285714D01*
X176214285Y-89142857D01*
X176214285Y-89000000D01*
X176142857Y-88857142D01*
X176071428Y-88785714D01*
X175928571Y-88714285D01*
X175642857Y-88642857D01*
X175500000Y-88571428D01*
X175428571Y-88500000D01*
X175357142Y-88357142D01*
X175357142Y-88214285D01*
X175428571Y-88071428D01*
X175500000Y-88000000D01*
X175642857Y-87928571D01*
X176000000Y-87928571D01*
X176214285Y-88000000D01*
X176642857Y-88428571D02*
X177214285Y-88428571D01*
X176857142Y-87928571D02*
X176857142Y-89214285D01*
X176928571Y-89357142D01*
X177071428Y-89428571D01*
X177214285Y-89428571D01*
X178357142Y-89428571D02*
X178357142Y-88642857D01*
X178285714Y-88500000D01*
X178142857Y-88428571D01*
X177857142Y-88428571D01*
X177714285Y-88500000D01*
X178357142Y-89357142D02*
X178214285Y-89428571D01*
X177857142Y-89428571D01*
X177714285Y-89357142D01*
X177642857Y-89214285D01*
X177642857Y-89071428D01*
X177714285Y-88928571D01*
X177857142Y-88857142D01*
X178214285Y-88857142D01*
X178357142Y-88785714D01*
X179071428Y-88428571D02*
X179071428Y-89428571D01*
X179071428Y-88571428D02*
X179142857Y-88500000D01*
X179285714Y-88428571D01*
X179500000Y-88428571D01*
X179642857Y-88500000D01*
X179714285Y-88642857D01*
X179714285Y-89428571D01*
X181071428Y-89428571D02*
X181071428Y-87928571D01*
X181071428Y-89357142D02*
X180928571Y-89428571D01*
X180642857Y-89428571D01*
X180500000Y-89357142D01*
X180428571Y-89285714D01*
X180357142Y-89142857D01*
X180357142Y-88714285D01*
X180428571Y-88571428D01*
X180500000Y-88500000D01*
X180642857Y-88428571D01*
X180928571Y-88428571D01*
X181071428Y-88500000D01*
X181785714Y-88857142D02*
X182928571Y-88857142D01*
X184142857Y-88642857D02*
X184357142Y-88714285D01*
X184428571Y-88785714D01*
X184500000Y-88928571D01*
X184500000Y-89142857D01*
X184428571Y-89285714D01*
X184357142Y-89357142D01*
X184214285Y-89428571D01*
X183642857Y-89428571D01*
X183642857Y-87928571D01*
X184142857Y-87928571D01*
X184285714Y-88000000D01*
X184357142Y-88071428D01*
X184428571Y-88214285D01*
X184428571Y-88357142D01*
X184357142Y-88500000D01*
X184285714Y-88571428D01*
X184142857Y-88642857D01*
X183642857Y-88642857D01*
X185000000Y-88428571D02*
X185357142Y-89428571D01*
X185714285Y-88428571D02*
X185357142Y-89428571D01*
X185214285Y-89785714D01*
X185142857Y-89857142D01*
X185000000Y-89928571D01*
D13*
X155250000Y-106750000D02*
X155000000Y-107250000D01*
X154750000Y-106750000D02*
X155250000Y-106750000D01*
X155000000Y-107250000D02*
X154750000Y-106750000D01*
X152800000Y-107700000D02*
X157200000Y-107700000D01*
X157880000Y-107700000D02*
X162180000Y-107700000D01*
X152800000Y-107500000D02*
X152800000Y-107700000D01*
X157200000Y-107700000D02*
X157200000Y-107500000D01*
X151250000Y-115500000D02*
X163250000Y-115500000D01*
X163250000Y-115500000D02*
X163250000Y-107500000D01*
X162180000Y-107500000D02*
X163250000Y-107500000D01*
X162180000Y-107700000D02*
X162180000Y-107500000D01*
X152800000Y-107500000D02*
X151250000Y-107500000D01*
X157200000Y-107500000D02*
X157880000Y-107500000D01*
X157880000Y-107500000D02*
X157880000Y-107700000D01*
X151250000Y-115500000D02*
X151250000Y-107500000D01*
X138250000Y-106750000D02*
X138000000Y-107250000D01*
X137750000Y-106750000D02*
X138250000Y-106750000D01*
X138000000Y-107250000D02*
X137750000Y-106750000D01*
X134250000Y-107500000D02*
X135800000Y-107500000D01*
X134250000Y-115500000D02*
X134250000Y-107500000D01*
X140200000Y-107500000D02*
X140880000Y-107500000D01*
X135800000Y-107700000D02*
X140200000Y-107700000D01*
X151250000Y-115500000D02*
X151250000Y-107500000D01*
X150160000Y-107700000D02*
X150160000Y-107500000D01*
X150160000Y-107500000D02*
X151250000Y-107500000D01*
X145860000Y-107700000D02*
X150160000Y-107700000D01*
X140200000Y-107700000D02*
X140200000Y-107500000D01*
X145860000Y-107500000D02*
X145860000Y-107700000D01*
X140880000Y-107500000D02*
X140880000Y-107700000D01*
X145180000Y-107700000D02*
X145180000Y-107500000D01*
X140880000Y-107700000D02*
X145180000Y-107700000D01*
X135800000Y-107500000D02*
X135800000Y-107700000D01*
X134250000Y-115500000D02*
X151250000Y-115500000D01*
X145200000Y-107500000D02*
X145860000Y-107500000D01*
X121250000Y-106750000D02*
X121000000Y-107250000D01*
X120750000Y-106750000D02*
X121250000Y-106750000D01*
X121000000Y-107250000D02*
X120750000Y-106750000D01*
X117250000Y-107500000D02*
X118800000Y-107500000D01*
X117250000Y-115500000D02*
X117250000Y-107500000D01*
X123200000Y-107500000D02*
X123880000Y-107500000D01*
X118800000Y-107700000D02*
X123200000Y-107700000D01*
X134250000Y-115500000D02*
X134250000Y-107500000D01*
X133160000Y-107700000D02*
X133160000Y-107500000D01*
X133160000Y-107500000D02*
X134250000Y-107500000D01*
X128860000Y-107700000D02*
X133160000Y-107700000D01*
X123200000Y-107700000D02*
X123200000Y-107500000D01*
X128860000Y-107500000D02*
X128860000Y-107700000D01*
X123880000Y-107500000D02*
X123880000Y-107700000D01*
X128180000Y-107700000D02*
X128180000Y-107500000D01*
X123880000Y-107700000D02*
X128180000Y-107700000D01*
X118800000Y-107500000D02*
X118800000Y-107700000D01*
X117250000Y-115500000D02*
X134250000Y-115500000D01*
X128200000Y-107500000D02*
X128860000Y-107500000D01*
X109250000Y-106750000D02*
X109000000Y-107250000D01*
X108750000Y-106750000D02*
X109250000Y-106750000D01*
X109000000Y-107250000D02*
X108750000Y-106750000D01*
X106800000Y-107700000D02*
X111200000Y-107700000D01*
X111880000Y-107700000D02*
X116180000Y-107700000D01*
X106800000Y-107500000D02*
X106800000Y-107700000D01*
X111200000Y-107700000D02*
X111200000Y-107500000D01*
X105250000Y-115500000D02*
X117250000Y-115500000D01*
X117250000Y-115500000D02*
X117250000Y-107500000D01*
X116180000Y-107500000D02*
X117250000Y-107500000D01*
X116180000Y-107700000D02*
X116180000Y-107500000D01*
X106800000Y-107500000D02*
X105250000Y-107500000D01*
X111200000Y-107500000D02*
X111880000Y-107500000D01*
X111880000Y-107500000D02*
X111880000Y-107700000D01*
X105250000Y-115500000D02*
X105250000Y-107500000D01*
D14*
X187375000Y-106875000D02*
X187375000Y-106800000D01*
X187150000Y-106875000D02*
X187375000Y-106875000D01*
X187150000Y-106800000D02*
X187150000Y-106875000D01*
D15*
X187300000Y-106800000D02*
X187300000Y-104900000D01*
X187200000Y-104900000D02*
X187200000Y-106800000D01*
D14*
X187950000Y-104675000D02*
X187950000Y-104800000D01*
X186550000Y-104700000D02*
X186550000Y-104800000D01*
D15*
X187925000Y-104825000D02*
X186575000Y-104825000D01*
X186575000Y-104675000D02*
X187925000Y-104675000D01*
D14*
X190275000Y-106750000D02*
G75*
G03X190275000Y-106750000I-25000J0D01*
G01*
D10*
X190325000Y-106750000D02*
G75*
G03X190325000Y-106750000I-75000J0D01*
G01*
D14*
X189775000Y-106850000D02*
X189775000Y-106775000D01*
X189525000Y-106850000D02*
X189775000Y-106850000D01*
X189525000Y-106775000D02*
X189525000Y-106850000D01*
X188575000Y-106850000D02*
X188575000Y-106775000D01*
X188325000Y-106850000D02*
X188575000Y-106850000D01*
X188325000Y-106750000D02*
X188325000Y-106850000D01*
X184975000Y-104650000D02*
X184975000Y-104725000D01*
X184725000Y-104650000D02*
X184975000Y-104650000D01*
X184725000Y-104725000D02*
X184725000Y-104650000D01*
X186175000Y-104650000D02*
X186175000Y-104725000D01*
X185925000Y-104650000D02*
X186175000Y-104650000D01*
X185925000Y-104750000D02*
X185925000Y-104650000D01*
D16*
X184850000Y-106150000D02*
X184850000Y-104750000D01*
X186050000Y-106150000D02*
G75*
G02X184850000Y-106150000I-600000J0D01*
G01*
X186050000Y-106150000D02*
X186050000Y-104750000D01*
X189650000Y-105350000D02*
X189650000Y-106750000D01*
X188450000Y-105350000D02*
G75*
G02X189650000Y-105350000I600000J0D01*
G01*
X188450000Y-105350000D02*
X188450000Y-106750000D01*
X192800000Y-106150000D02*
X193725000Y-106150000D01*
D14*
X193975000Y-106850000D02*
X193975000Y-106775000D01*
X193950000Y-106850000D02*
X193975000Y-106850000D01*
X193725000Y-106850000D02*
X193950000Y-106850000D01*
X193725000Y-106750000D02*
X193725000Y-106850000D01*
X192525000Y-106750000D02*
X192775000Y-106750000D01*
X192775000Y-106800000D02*
X192525000Y-106800000D01*
X192525000Y-106850000D02*
X192775000Y-106850000D01*
D16*
X193850000Y-105350000D02*
X193850000Y-106750000D01*
X192650000Y-105350000D02*
X192650000Y-106750000D01*
X192650000Y-105350000D02*
G75*
G02X193850000Y-105350000I600000J0D01*
G01*
X191475000Y-105700000D02*
X191000000Y-105700000D01*
X190875000Y-106750000D02*
X191500000Y-106750000D01*
X190875000Y-104750000D02*
X190875000Y-106750000D01*
X191475000Y-104750000D02*
X190875000Y-104750000D01*
X191475000Y-104750000D02*
G75*
G02X191475000Y-105700000I0J-475000D01*
G01*
D17*
X191525000Y-105700000D02*
G75*
G02X191525000Y-106750000I0J-525000D01*
G01*
D14*
X190750000Y-106850000D02*
X191750000Y-106850000D01*
X190750000Y-104675000D02*
X190750000Y-106875000D01*
X190725000Y-104650000D02*
X191700000Y-104650000D01*
X191000000Y-104900000D02*
X191000000Y-105550000D01*
X191475000Y-104900000D02*
G75*
G02X191475000Y-105550000I0J-325000D01*
G01*
X191525000Y-105850000D02*
G75*
G02X191525000Y-106600000I0J-375000D01*
G01*
X191000000Y-106600000D02*
X191525000Y-106600000D01*
X191525000Y-105550000D02*
G75*
G02X191525000Y-106900000I0J-675000D01*
G01*
X191475000Y-104600000D02*
G75*
G02X191475000Y-105850000I0J-625000D01*
G01*
X190700000Y-104600000D02*
X191475000Y-104600000D01*
X191000000Y-104900000D02*
X191475000Y-104900000D01*
X191000000Y-105550000D02*
X191525000Y-105550000D01*
X191000000Y-105850000D02*
X191525000Y-105850000D01*
X191000000Y-106900000D02*
X191525000Y-106900000D01*
X191000000Y-106600000D02*
X191000000Y-105850000D01*
X191000000Y-106900000D02*
X190700000Y-106900000D01*
X190700000Y-106900000D02*
X190700000Y-104600000D01*
X193700000Y-106000000D02*
X192800000Y-106000000D01*
X192800000Y-106300000D02*
X193700000Y-106300000D01*
X194000000Y-106900000D02*
X194000000Y-105350000D01*
X192500000Y-105350000D02*
G75*
G02X194000000Y-105350000I750000J0D01*
G01*
X192800000Y-106900000D02*
X192500000Y-106900000D01*
X192500000Y-106900000D02*
X192500000Y-105350000D01*
X193700000Y-106900000D02*
X193700000Y-105350000D01*
X194000000Y-106900000D02*
X193700000Y-106900000D01*
X192800000Y-106900000D02*
X192800000Y-105350000D01*
X192800000Y-105350000D02*
G75*
G02X193700000Y-105350000I450000J0D01*
G01*
X190400000Y-106750000D02*
G75*
G03X190400000Y-106750000I-150000J0D01*
G01*
X188300000Y-105350000D02*
G75*
G02X189800000Y-105350000I750000J0D01*
G01*
X189800000Y-106900000D02*
X189800000Y-105350000D01*
X189800000Y-106900000D02*
X189500000Y-106900000D01*
X188600000Y-106900000D02*
X188600000Y-105350000D01*
X188600000Y-106900000D02*
X188300000Y-106900000D01*
X188600000Y-105350000D02*
G75*
G02X189500000Y-105350000I450000J0D01*
G01*
X189500000Y-106900000D02*
X189500000Y-105350000D01*
X188300000Y-106900000D02*
X188300000Y-105350000D01*
X187400000Y-104900000D02*
X188000000Y-104900000D01*
X186500000Y-104900000D02*
X187100000Y-104900000D01*
X187400000Y-106900000D02*
X187400000Y-104900000D01*
X187100000Y-106900000D02*
X187400000Y-106900000D01*
X187100000Y-104900000D02*
X187100000Y-106900000D01*
X188000000Y-104600000D02*
X188000000Y-104900000D01*
X186500000Y-104600000D02*
X188000000Y-104600000D01*
X186500000Y-104600000D02*
X186500000Y-104900000D01*
X186200000Y-106150000D02*
G75*
G02X184700000Y-106150000I-750000J0D01*
G01*
X185900000Y-106150000D02*
G75*
G02X185000000Y-106150000I-450000J0D01*
G01*
X185900000Y-104600000D02*
X185900000Y-106150000D01*
X185900000Y-104600000D02*
X186200000Y-104600000D01*
X186200000Y-104600000D02*
X186200000Y-106150000D01*
X184700000Y-104600000D02*
X184700000Y-106150000D01*
X185000000Y-104600000D02*
X185000000Y-106150000D01*
X184700000Y-104600000D02*
X185000000Y-104600000D01*
D11*
X180700043Y-106849338D02*
G75*
G02X182299999Y-106850001I799957J-50662D01*
G01*
X180499980Y-106850432D02*
G75*
G02X182499999Y-106850001I1000020J-49568D01*
G01*
D16*
X180600036Y-106799691D02*
G75*
G02X182399999Y-106800001I899964J-100309D01*
G01*
D11*
X182500020Y-104649568D02*
G75*
G02X180500001Y-104649999I-1000020J49568D01*
G01*
X182299957Y-104650662D02*
G75*
G02X180700001Y-104649999I-799957J50662D01*
G01*
D16*
X182399964Y-104700309D02*
G75*
G02X180600001Y-104699999I-899964J100309D01*
G01*
X180600000Y-105750000D02*
X182400000Y-105750000D01*
D14*
X180600000Y-105600000D02*
X180600000Y-105900000D01*
X182400000Y-105600000D02*
X182400000Y-105900000D01*
X182450000Y-105600000D02*
X182450000Y-105900000D01*
X182500000Y-105600000D02*
X182500000Y-105900000D01*
X180550000Y-105900000D02*
X180550000Y-105600000D01*
X180500000Y-105600000D02*
X180500000Y-105900000D01*
D16*
X181500000Y-104700000D02*
X181500000Y-106800000D01*
D14*
X181375000Y-104700000D02*
X181625000Y-104700000D01*
X181375000Y-106800000D02*
X181625000Y-106800000D01*
X181375000Y-106850000D02*
X181625000Y-106850000D01*
X181375000Y-104650000D02*
X181625000Y-104650000D01*
X182250000Y-104600000D02*
G75*
G02X180750000Y-104600000I-750000J0D01*
G01*
X180450000Y-104600000D02*
X180750000Y-104600000D01*
X182550000Y-104600000D02*
X182250000Y-104600000D01*
X180450000Y-104600000D02*
G75*
G03X182550000Y-104600000I1050000J0D01*
G01*
X180750000Y-106900000D02*
G75*
G02X182250000Y-106900000I750000J0D01*
G01*
X182550000Y-106900000D02*
X182250000Y-106900000D01*
X180450000Y-106900000D02*
X180750000Y-106900000D01*
X181350000Y-105900000D02*
X181350000Y-106900000D01*
X181340000Y-105900000D02*
X181350000Y-105900000D01*
X180450000Y-105900000D02*
X181700000Y-105900000D01*
X180450000Y-105600000D02*
X180450000Y-105900000D01*
X182550000Y-105600000D02*
X180450000Y-105600000D01*
X182550000Y-105900000D02*
X182550000Y-105600000D01*
X181650000Y-105900000D02*
X182550000Y-105900000D01*
X181650000Y-106900000D02*
X181650000Y-105900000D01*
X181350000Y-106900000D02*
X181650000Y-106900000D01*
X181350000Y-104600000D02*
X181350000Y-105950000D01*
X181650000Y-104600000D02*
X181650000Y-106000000D01*
X181350000Y-104600000D02*
X181650000Y-104600000D01*
D13*
X183600000Y-105750000D02*
G75*
G03X183600000Y-105750000I-2100000J0D01*
G01*
X183950000Y-105750000D02*
G75*
G03X183950000Y-105750000I-2450000J0D01*
G01*
D14*
X182550000Y-106900000D02*
G75*
G03X180450000Y-106900000I-1050000J0D01*
G01*
D13*
X175250417Y-99500000D02*
G75*
G03X175250417Y-99500000I-3000417J0D01*
G01*
X166250000Y-104800000D02*
X166250000Y-102400000D01*
X178250000Y-104800000D02*
X178250000Y-102400000D01*
X178250000Y-104800000D02*
X166250000Y-104800000D01*
X178250000Y-92800000D02*
X178250000Y-96600000D01*
X166250000Y-92800000D02*
X166250000Y-96600000D01*
X172250000Y-98500000D02*
X172250000Y-100500000D01*
X171250000Y-99500000D02*
X173250000Y-99500000D01*
X166250000Y-92800000D02*
X178250000Y-92800000D01*
X147758578Y-104540000D02*
X147241422Y-104540000D01*
X147758578Y-105960000D02*
X147241422Y-105960000D01*
X135450000Y-98090000D02*
X132000000Y-98090000D01*
X135450000Y-98090000D02*
X137400000Y-98090000D01*
X135450000Y-103210000D02*
X133500000Y-103210000D01*
X135450000Y-103210000D02*
X137400000Y-103210000D01*
X185500000Y-101000000D02*
X185500000Y-103000000D01*
X187500000Y-101000000D02*
X185500000Y-101000000D01*
X187500000Y-103000000D02*
X187500000Y-101000000D01*
X185000000Y-96000000D02*
X185000000Y-103000000D01*
X192000000Y-96000000D02*
X185000000Y-96000000D01*
X192000000Y-103000000D02*
X192000000Y-96000000D01*
X185000000Y-103000000D02*
X192000000Y-103000000D01*
X164008578Y-73540000D02*
X163491422Y-73540000D01*
X164008578Y-74960000D02*
X163491422Y-74960000D01*
X164008578Y-71040000D02*
X163491422Y-71040000D01*
X164008578Y-72460000D02*
X163491422Y-72460000D01*
X147241422Y-103460000D02*
X147758578Y-103460000D01*
X147241422Y-102040000D02*
X147758578Y-102040000D01*
X147241422Y-100860000D02*
X147758578Y-100860000D01*
X147241422Y-99440000D02*
X147758578Y-99440000D01*
X129008578Y-104540000D02*
X128491422Y-104540000D01*
X129008578Y-105960000D02*
X128491422Y-105960000D01*
X128491422Y-103460000D02*
X129008578Y-103460000D01*
X128491422Y-102040000D02*
X129008578Y-102040000D01*
X150450000Y-85350000D02*
X153750000Y-85350000D01*
X153750000Y-97950000D02*
X150450000Y-97950000D01*
X153750000Y-85350000D02*
X153750000Y-97950000D01*
X141150000Y-85350000D02*
X144450000Y-85350000D01*
X141150000Y-97950000D02*
X141150000Y-85350000D01*
X144450000Y-97950000D02*
X141150000Y-97950000D01*
X106900000Y-66500000D02*
X106900000Y-75300000D01*
D11*
G36*
X107700000Y-76100000D02*
G01*
X108100000Y-76400000D01*
X107700000Y-76700000D01*
X107700000Y-76100000D01*
G37*
X107700000Y-76100000D02*
X108100000Y-76400000D01*
X107700000Y-76700000D01*
X107700000Y-76100000D01*
D13*
X159000000Y-66500000D02*
X106900000Y-66500000D01*
X159000000Y-75300000D02*
X157500000Y-75300000D01*
X106900000Y-75300000D02*
X108900000Y-75300000D01*
X155100000Y-75300000D02*
X153300000Y-75300000D01*
X150900000Y-75300000D02*
X149100000Y-75300000D01*
X146700000Y-75300000D02*
X144900000Y-75300000D01*
X142500000Y-75300000D02*
X140700000Y-75300000D01*
X138300000Y-75300000D02*
X136500000Y-75300000D01*
X134100000Y-75300000D02*
X132300000Y-75300000D01*
X129900000Y-75300000D02*
X128100000Y-75300000D01*
X125700000Y-75300000D02*
X123900000Y-75300000D01*
X121500000Y-75300000D02*
X119700000Y-75300000D01*
X117300000Y-75300000D02*
X115500000Y-75300000D01*
X113100000Y-75300000D02*
X111300000Y-75300000D01*
X159000000Y-75300000D02*
X159000000Y-66500000D01*
X107400000Y-66500000D02*
X107400000Y-75300000D01*
D11*
G36*
X173200000Y-77900000D02*
G01*
X173500000Y-77500000D01*
X173800000Y-77900000D01*
X173200000Y-77900000D01*
G37*
X173200000Y-77900000D02*
X173500000Y-77500000D01*
X173800000Y-77900000D01*
X173200000Y-77900000D01*
D13*
X169000000Y-76900000D02*
X171200000Y-76900000D01*
X169000000Y-76900000D02*
X169000000Y-75500000D01*
X178000000Y-66500000D02*
X169000000Y-66500000D01*
X175800000Y-76900000D02*
X178000000Y-76900000D01*
X169000000Y-66500000D02*
X169000000Y-70900000D01*
X178000000Y-76900000D02*
X178000000Y-66500000D01*
X190185000Y-87790000D02*
X187500000Y-87790000D01*
X190185000Y-89710000D02*
X190185000Y-87790000D01*
X187500000Y-89710000D02*
X190185000Y-89710000D01*
X190185000Y-83040000D02*
X187500000Y-83040000D01*
X190185000Y-84960000D02*
X190185000Y-83040000D01*
X187500000Y-84960000D02*
X190185000Y-84960000D01*
X139500000Y-96400000D02*
X133800000Y-96400000D01*
X139500000Y-92100000D02*
X133800000Y-92100000D01*
X139500000Y-96400000D02*
X139500000Y-92100000D01*
X155950000Y-85350000D02*
X161650000Y-85350000D01*
X155950000Y-89650000D02*
X161650000Y-89650000D01*
X155950000Y-85350000D02*
X155950000Y-89650000D01*
X155950000Y-92350000D02*
X161650000Y-92350000D01*
X155950000Y-96650000D02*
X161650000Y-96650000D01*
X155950000Y-92350000D02*
X155950000Y-96650000D01*
X139860000Y-85390000D02*
X131800000Y-85390000D01*
X139860000Y-89910000D02*
X139860000Y-85390000D01*
X131800000Y-89910000D02*
X139860000Y-89910000D01*
X143241422Y-103460000D02*
X143758578Y-103460000D01*
X143241422Y-102040000D02*
X143758578Y-102040000D01*
X143241422Y-100860000D02*
X143758578Y-100860000D01*
X143241422Y-99440000D02*
X143758578Y-99440000D01*
X128491422Y-96210000D02*
X129008578Y-96210000D01*
X128491422Y-94790000D02*
X129008578Y-94790000D01*
X133241422Y-105960000D02*
X133758578Y-105960000D01*
X133241422Y-104540000D02*
X133758578Y-104540000D01*
X129008578Y-99540000D02*
X128491422Y-99540000D01*
X129008578Y-100960000D02*
X128491422Y-100960000D01*
X124312500Y-99747500D02*
X124312500Y-99122500D01*
X124625000Y-99435000D02*
X124000000Y-99435000D01*
X123760000Y-96054437D02*
X122695563Y-94990000D01*
X123760000Y-99445563D02*
X122695563Y-100510000D01*
X123760000Y-99445563D02*
X123760000Y-98810000D01*
X123760000Y-96054437D02*
X123760000Y-96690000D01*
X122695563Y-94990000D02*
X118240000Y-94990000D01*
X122695563Y-100510000D02*
X118240000Y-100510000D01*
X118240000Y-100510000D02*
X118240000Y-98810000D01*
X118240000Y-94990000D02*
X118240000Y-96690000D01*
D15*
X157166666Y-106202380D02*
X157166666Y-106916666D01*
X157119047Y-107059523D01*
X157023809Y-107154761D01*
X156880952Y-107202380D01*
X156785714Y-107202380D01*
X158071428Y-106202380D02*
X157880952Y-106202380D01*
X157785714Y-106250000D01*
X157738095Y-106297619D01*
X157642857Y-106440476D01*
X157595238Y-106630952D01*
X157595238Y-107011904D01*
X157642857Y-107107142D01*
X157690476Y-107154761D01*
X157785714Y-107202380D01*
X157976190Y-107202380D01*
X158071428Y-107154761D01*
X158119047Y-107107142D01*
X158166666Y-107011904D01*
X158166666Y-106773809D01*
X158119047Y-106678571D01*
X158071428Y-106630952D01*
X157976190Y-106583333D01*
X157785714Y-106583333D01*
X157690476Y-106630952D01*
X157642857Y-106678571D01*
X157595238Y-106773809D01*
X142666666Y-106452380D02*
X142666666Y-107166666D01*
X142619047Y-107309523D01*
X142523809Y-107404761D01*
X142380952Y-107452380D01*
X142285714Y-107452380D01*
X143619047Y-106452380D02*
X143142857Y-106452380D01*
X143095238Y-106928571D01*
X143142857Y-106880952D01*
X143238095Y-106833333D01*
X143476190Y-106833333D01*
X143571428Y-106880952D01*
X143619047Y-106928571D01*
X143666666Y-107023809D01*
X143666666Y-107261904D01*
X143619047Y-107357142D01*
X143571428Y-107404761D01*
X143476190Y-107452380D01*
X143238095Y-107452380D01*
X143142857Y-107404761D01*
X143095238Y-107357142D01*
X125666666Y-106452380D02*
X125666666Y-107166666D01*
X125619047Y-107309523D01*
X125523809Y-107404761D01*
X125380952Y-107452380D01*
X125285714Y-107452380D01*
X126571428Y-106785714D02*
X126571428Y-107452380D01*
X126333333Y-106404761D02*
X126095238Y-107119047D01*
X126714285Y-107119047D01*
X111166666Y-106202380D02*
X111166666Y-106916666D01*
X111119047Y-107059523D01*
X111023809Y-107154761D01*
X110880952Y-107202380D01*
X110785714Y-107202380D01*
X111547619Y-106202380D02*
X112166666Y-106202380D01*
X111833333Y-106583333D01*
X111976190Y-106583333D01*
X112071428Y-106630952D01*
X112119047Y-106678571D01*
X112166666Y-106773809D01*
X112166666Y-107011904D01*
X112119047Y-107107142D01*
X112071428Y-107154761D01*
X111976190Y-107202380D01*
X111690476Y-107202380D01*
X111595238Y-107154761D01*
X111547619Y-107107142D01*
X167404761Y-92152380D02*
X167071428Y-91676190D01*
X166833333Y-92152380D02*
X166833333Y-91152380D01*
X167214285Y-91152380D01*
X167309523Y-91200000D01*
X167357142Y-91247619D01*
X167404761Y-91342857D01*
X167404761Y-91485714D01*
X167357142Y-91580952D01*
X167309523Y-91628571D01*
X167214285Y-91676190D01*
X166833333Y-91676190D01*
X167690476Y-91152380D02*
X168023809Y-92152380D01*
X168357142Y-91152380D01*
X169214285Y-92152380D02*
X168642857Y-92152380D01*
X168928571Y-92152380D02*
X168928571Y-91152380D01*
X168833333Y-91295238D01*
X168738095Y-91390476D01*
X168642857Y-91438095D01*
X150083333Y-105702380D02*
X149750000Y-105226190D01*
X149511904Y-105702380D02*
X149511904Y-104702380D01*
X149892857Y-104702380D01*
X149988095Y-104750000D01*
X150035714Y-104797619D01*
X150083333Y-104892857D01*
X150083333Y-105035714D01*
X150035714Y-105130952D01*
X149988095Y-105178571D01*
X149892857Y-105226190D01*
X149511904Y-105226190D01*
X150988095Y-104702380D02*
X150511904Y-104702380D01*
X150464285Y-105178571D01*
X150511904Y-105130952D01*
X150607142Y-105083333D01*
X150845238Y-105083333D01*
X150940476Y-105130952D01*
X150988095Y-105178571D01*
X151035714Y-105273809D01*
X151035714Y-105511904D01*
X150988095Y-105607142D01*
X150940476Y-105654761D01*
X150845238Y-105702380D01*
X150607142Y-105702380D01*
X150511904Y-105654761D01*
X150464285Y-105607142D01*
X136988095Y-96702380D02*
X136988095Y-97511904D01*
X137035714Y-97607142D01*
X137083333Y-97654761D01*
X137178571Y-97702380D01*
X137369047Y-97702380D01*
X137464285Y-97654761D01*
X137511904Y-97607142D01*
X137559523Y-97511904D01*
X137559523Y-96702380D01*
X138559523Y-97702380D02*
X137988095Y-97702380D01*
X138273809Y-97702380D02*
X138273809Y-96702380D01*
X138178571Y-96845238D01*
X138083333Y-96940476D01*
X137988095Y-96988095D01*
X185566666Y-95604761D02*
X185709523Y-95652380D01*
X185947619Y-95652380D01*
X186042857Y-95604761D01*
X186090476Y-95557142D01*
X186138095Y-95461904D01*
X186138095Y-95366666D01*
X186090476Y-95271428D01*
X186042857Y-95223809D01*
X185947619Y-95176190D01*
X185757142Y-95128571D01*
X185661904Y-95080952D01*
X185614285Y-95033333D01*
X185566666Y-94938095D01*
X185566666Y-94842857D01*
X185614285Y-94747619D01*
X185661904Y-94700000D01*
X185757142Y-94652380D01*
X185995238Y-94652380D01*
X186138095Y-94700000D01*
X186471428Y-94652380D02*
X186709523Y-95652380D01*
X186900000Y-94938095D01*
X187090476Y-95652380D01*
X187328571Y-94652380D01*
X188233333Y-95652380D02*
X187661904Y-95652380D01*
X187947619Y-95652380D02*
X187947619Y-94652380D01*
X187852380Y-94795238D01*
X187757142Y-94890476D01*
X187661904Y-94938095D01*
X160833333Y-74702380D02*
X160500000Y-74226190D01*
X160261904Y-74702380D02*
X160261904Y-73702380D01*
X160642857Y-73702380D01*
X160738095Y-73750000D01*
X160785714Y-73797619D01*
X160833333Y-73892857D01*
X160833333Y-74035714D01*
X160785714Y-74130952D01*
X160738095Y-74178571D01*
X160642857Y-74226190D01*
X160261904Y-74226190D01*
X161166666Y-73702380D02*
X161833333Y-73702380D01*
X161404761Y-74702380D01*
X160833333Y-72202380D02*
X160500000Y-71726190D01*
X160261904Y-72202380D02*
X160261904Y-71202380D01*
X160642857Y-71202380D01*
X160738095Y-71250000D01*
X160785714Y-71297619D01*
X160833333Y-71392857D01*
X160833333Y-71535714D01*
X160785714Y-71630952D01*
X160738095Y-71678571D01*
X160642857Y-71726190D01*
X160261904Y-71726190D01*
X161690476Y-71202380D02*
X161500000Y-71202380D01*
X161404761Y-71250000D01*
X161357142Y-71297619D01*
X161261904Y-71440476D01*
X161214285Y-71630952D01*
X161214285Y-72011904D01*
X161261904Y-72107142D01*
X161309523Y-72154761D01*
X161404761Y-72202380D01*
X161595238Y-72202380D01*
X161690476Y-72154761D01*
X161738095Y-72107142D01*
X161785714Y-72011904D01*
X161785714Y-71773809D01*
X161738095Y-71678571D01*
X161690476Y-71630952D01*
X161595238Y-71583333D01*
X161404761Y-71583333D01*
X161309523Y-71630952D01*
X161261904Y-71678571D01*
X161214285Y-71773809D01*
X150133333Y-103202380D02*
X149800000Y-102726190D01*
X149561904Y-103202380D02*
X149561904Y-102202380D01*
X149942857Y-102202380D01*
X150038095Y-102250000D01*
X150085714Y-102297619D01*
X150133333Y-102392857D01*
X150133333Y-102535714D01*
X150085714Y-102630952D01*
X150038095Y-102678571D01*
X149942857Y-102726190D01*
X149561904Y-102726190D01*
X150990476Y-102535714D02*
X150990476Y-103202380D01*
X150752380Y-102154761D02*
X150514285Y-102869047D01*
X151133333Y-102869047D01*
X150083333Y-100602380D02*
X149750000Y-100126190D01*
X149511904Y-100602380D02*
X149511904Y-99602380D01*
X149892857Y-99602380D01*
X149988095Y-99650000D01*
X150035714Y-99697619D01*
X150083333Y-99792857D01*
X150083333Y-99935714D01*
X150035714Y-100030952D01*
X149988095Y-100078571D01*
X149892857Y-100126190D01*
X149511904Y-100126190D01*
X150416666Y-99602380D02*
X151035714Y-99602380D01*
X150702380Y-99983333D01*
X150845238Y-99983333D01*
X150940476Y-100030952D01*
X150988095Y-100078571D01*
X151035714Y-100173809D01*
X151035714Y-100411904D01*
X150988095Y-100507142D01*
X150940476Y-100554761D01*
X150845238Y-100602380D01*
X150559523Y-100602380D01*
X150464285Y-100554761D01*
X150416666Y-100507142D01*
X125833333Y-105702380D02*
X125500000Y-105226190D01*
X125261904Y-105702380D02*
X125261904Y-104702380D01*
X125642857Y-104702380D01*
X125738095Y-104750000D01*
X125785714Y-104797619D01*
X125833333Y-104892857D01*
X125833333Y-105035714D01*
X125785714Y-105130952D01*
X125738095Y-105178571D01*
X125642857Y-105226190D01*
X125261904Y-105226190D01*
X126214285Y-104797619D02*
X126261904Y-104750000D01*
X126357142Y-104702380D01*
X126595238Y-104702380D01*
X126690476Y-104750000D01*
X126738095Y-104797619D01*
X126785714Y-104892857D01*
X126785714Y-104988095D01*
X126738095Y-105130952D01*
X126166666Y-105702380D01*
X126785714Y-105702380D01*
X125833333Y-103202380D02*
X125500000Y-102726190D01*
X125261904Y-103202380D02*
X125261904Y-102202380D01*
X125642857Y-102202380D01*
X125738095Y-102250000D01*
X125785714Y-102297619D01*
X125833333Y-102392857D01*
X125833333Y-102535714D01*
X125785714Y-102630952D01*
X125738095Y-102678571D01*
X125642857Y-102726190D01*
X125261904Y-102726190D01*
X126785714Y-103202380D02*
X126214285Y-103202380D01*
X126500000Y-103202380D02*
X126500000Y-102202380D01*
X126404761Y-102345238D01*
X126309523Y-102440476D01*
X126214285Y-102488095D01*
X142583333Y-84952380D02*
X142107142Y-84952380D01*
X142107142Y-83952380D01*
X143440476Y-84952380D02*
X142869047Y-84952380D01*
X143154761Y-84952380D02*
X143154761Y-83952380D01*
X143059523Y-84095238D01*
X142964285Y-84190476D01*
X142869047Y-84238095D01*
X105416666Y-74152380D02*
X105416666Y-74866666D01*
X105369047Y-75009523D01*
X105273809Y-75104761D01*
X105130952Y-75152380D01*
X105035714Y-75152380D01*
X105845238Y-74247619D02*
X105892857Y-74200000D01*
X105988095Y-74152380D01*
X106226190Y-74152380D01*
X106321428Y-74200000D01*
X106369047Y-74247619D01*
X106416666Y-74342857D01*
X106416666Y-74438095D01*
X106369047Y-74580952D01*
X105797619Y-75152380D01*
X106416666Y-75152380D01*
X167416666Y-75902380D02*
X167416666Y-76616666D01*
X167369047Y-76759523D01*
X167273809Y-76854761D01*
X167130952Y-76902380D01*
X167035714Y-76902380D01*
X168416666Y-76902380D02*
X167845238Y-76902380D01*
X168130952Y-76902380D02*
X168130952Y-75902380D01*
X168035714Y-76045238D01*
X167940476Y-76140476D01*
X167845238Y-76188095D01*
X190511904Y-89202380D02*
X190511904Y-88202380D01*
X190750000Y-88202380D01*
X190892857Y-88250000D01*
X190988095Y-88345238D01*
X191035714Y-88440476D01*
X191083333Y-88630952D01*
X191083333Y-88773809D01*
X191035714Y-88964285D01*
X190988095Y-89059523D01*
X190892857Y-89154761D01*
X190750000Y-89202380D01*
X190511904Y-89202380D01*
X191988095Y-88202380D02*
X191511904Y-88202380D01*
X191464285Y-88678571D01*
X191511904Y-88630952D01*
X191607142Y-88583333D01*
X191845238Y-88583333D01*
X191940476Y-88630952D01*
X191988095Y-88678571D01*
X192035714Y-88773809D01*
X192035714Y-89011904D01*
X191988095Y-89107142D01*
X191940476Y-89154761D01*
X191845238Y-89202380D01*
X191607142Y-89202380D01*
X191511904Y-89154761D01*
X191464285Y-89107142D01*
X190511904Y-84452380D02*
X190511904Y-83452380D01*
X190750000Y-83452380D01*
X190892857Y-83500000D01*
X190988095Y-83595238D01*
X191035714Y-83690476D01*
X191083333Y-83880952D01*
X191083333Y-84023809D01*
X191035714Y-84214285D01*
X190988095Y-84309523D01*
X190892857Y-84404761D01*
X190750000Y-84452380D01*
X190511904Y-84452380D01*
X191940476Y-83785714D02*
X191940476Y-84452380D01*
X191702380Y-83404761D02*
X191464285Y-84119047D01*
X192083333Y-84119047D01*
X135211904Y-91702380D02*
X135211904Y-90702380D01*
X135450000Y-90702380D01*
X135592857Y-90750000D01*
X135688095Y-90845238D01*
X135735714Y-90940476D01*
X135783333Y-91130952D01*
X135783333Y-91273809D01*
X135735714Y-91464285D01*
X135688095Y-91559523D01*
X135592857Y-91654761D01*
X135450000Y-91702380D01*
X135211904Y-91702380D01*
X136116666Y-90702380D02*
X136735714Y-90702380D01*
X136402380Y-91083333D01*
X136545238Y-91083333D01*
X136640476Y-91130952D01*
X136688095Y-91178571D01*
X136735714Y-91273809D01*
X136735714Y-91511904D01*
X136688095Y-91607142D01*
X136640476Y-91654761D01*
X136545238Y-91702380D01*
X136259523Y-91702380D01*
X136164285Y-91654761D01*
X136116666Y-91607142D01*
X158761904Y-84952380D02*
X158761904Y-83952380D01*
X159000000Y-83952380D01*
X159142857Y-84000000D01*
X159238095Y-84095238D01*
X159285714Y-84190476D01*
X159333333Y-84380952D01*
X159333333Y-84523809D01*
X159285714Y-84714285D01*
X159238095Y-84809523D01*
X159142857Y-84904761D01*
X159000000Y-84952380D01*
X158761904Y-84952380D01*
X160285714Y-84952380D02*
X159714285Y-84952380D01*
X160000000Y-84952380D02*
X160000000Y-83952380D01*
X159904761Y-84095238D01*
X159809523Y-84190476D01*
X159714285Y-84238095D01*
X158761904Y-91952380D02*
X158761904Y-90952380D01*
X159000000Y-90952380D01*
X159142857Y-91000000D01*
X159238095Y-91095238D01*
X159285714Y-91190476D01*
X159333333Y-91380952D01*
X159333333Y-91523809D01*
X159285714Y-91714285D01*
X159238095Y-91809523D01*
X159142857Y-91904761D01*
X159000000Y-91952380D01*
X158761904Y-91952380D01*
X159714285Y-91047619D02*
X159761904Y-91000000D01*
X159857142Y-90952380D01*
X160095238Y-90952380D01*
X160190476Y-91000000D01*
X160238095Y-91047619D01*
X160285714Y-91142857D01*
X160285714Y-91238095D01*
X160238095Y-91380952D01*
X159666666Y-91952380D01*
X160285714Y-91952380D01*
X135283333Y-85007142D02*
X135235714Y-85054761D01*
X135092857Y-85102380D01*
X134997619Y-85102380D01*
X134854761Y-85054761D01*
X134759523Y-84959523D01*
X134711904Y-84864285D01*
X134664285Y-84673809D01*
X134664285Y-84530952D01*
X134711904Y-84340476D01*
X134759523Y-84245238D01*
X134854761Y-84150000D01*
X134997619Y-84102380D01*
X135092857Y-84102380D01*
X135235714Y-84150000D01*
X135283333Y-84197619D01*
X135616666Y-84102380D02*
X136283333Y-84102380D01*
X135854761Y-85102380D01*
X140583333Y-103107142D02*
X140535714Y-103154761D01*
X140392857Y-103202380D01*
X140297619Y-103202380D01*
X140154761Y-103154761D01*
X140059523Y-103059523D01*
X140011904Y-102964285D01*
X139964285Y-102773809D01*
X139964285Y-102630952D01*
X140011904Y-102440476D01*
X140059523Y-102345238D01*
X140154761Y-102250000D01*
X140297619Y-102202380D01*
X140392857Y-102202380D01*
X140535714Y-102250000D01*
X140583333Y-102297619D01*
X141440476Y-102202380D02*
X141250000Y-102202380D01*
X141154761Y-102250000D01*
X141107142Y-102297619D01*
X141011904Y-102440476D01*
X140964285Y-102630952D01*
X140964285Y-103011904D01*
X141011904Y-103107142D01*
X141059523Y-103154761D01*
X141154761Y-103202380D01*
X141345238Y-103202380D01*
X141440476Y-103154761D01*
X141488095Y-103107142D01*
X141535714Y-103011904D01*
X141535714Y-102773809D01*
X141488095Y-102678571D01*
X141440476Y-102630952D01*
X141345238Y-102583333D01*
X141154761Y-102583333D01*
X141059523Y-102630952D01*
X141011904Y-102678571D01*
X140964285Y-102773809D01*
X140583333Y-100507142D02*
X140535714Y-100554761D01*
X140392857Y-100602380D01*
X140297619Y-100602380D01*
X140154761Y-100554761D01*
X140059523Y-100459523D01*
X140011904Y-100364285D01*
X139964285Y-100173809D01*
X139964285Y-100030952D01*
X140011904Y-99840476D01*
X140059523Y-99745238D01*
X140154761Y-99650000D01*
X140297619Y-99602380D01*
X140392857Y-99602380D01*
X140535714Y-99650000D01*
X140583333Y-99697619D01*
X141488095Y-99602380D02*
X141011904Y-99602380D01*
X140964285Y-100078571D01*
X141011904Y-100030952D01*
X141107142Y-99983333D01*
X141345238Y-99983333D01*
X141440476Y-100030952D01*
X141488095Y-100078571D01*
X141535714Y-100173809D01*
X141535714Y-100411904D01*
X141488095Y-100507142D01*
X141440476Y-100554761D01*
X141345238Y-100602380D01*
X141107142Y-100602380D01*
X141011904Y-100554761D01*
X140964285Y-100507142D01*
X125833333Y-95857142D02*
X125785714Y-95904761D01*
X125642857Y-95952380D01*
X125547619Y-95952380D01*
X125404761Y-95904761D01*
X125309523Y-95809523D01*
X125261904Y-95714285D01*
X125214285Y-95523809D01*
X125214285Y-95380952D01*
X125261904Y-95190476D01*
X125309523Y-95095238D01*
X125404761Y-95000000D01*
X125547619Y-94952380D01*
X125642857Y-94952380D01*
X125785714Y-95000000D01*
X125833333Y-95047619D01*
X126214285Y-95047619D02*
X126261904Y-95000000D01*
X126357142Y-94952380D01*
X126595238Y-94952380D01*
X126690476Y-95000000D01*
X126738095Y-95047619D01*
X126785714Y-95142857D01*
X126785714Y-95238095D01*
X126738095Y-95380952D01*
X126166666Y-95952380D01*
X126785714Y-95952380D01*
X136033333Y-105607142D02*
X135985714Y-105654761D01*
X135842857Y-105702380D01*
X135747619Y-105702380D01*
X135604761Y-105654761D01*
X135509523Y-105559523D01*
X135461904Y-105464285D01*
X135414285Y-105273809D01*
X135414285Y-105130952D01*
X135461904Y-104940476D01*
X135509523Y-104845238D01*
X135604761Y-104750000D01*
X135747619Y-104702380D01*
X135842857Y-104702380D01*
X135985714Y-104750000D01*
X136033333Y-104797619D01*
X136890476Y-105035714D02*
X136890476Y-105702380D01*
X136652380Y-104654761D02*
X136414285Y-105369047D01*
X137033333Y-105369047D01*
X125833333Y-100607142D02*
X125785714Y-100654761D01*
X125642857Y-100702380D01*
X125547619Y-100702380D01*
X125404761Y-100654761D01*
X125309523Y-100559523D01*
X125261904Y-100464285D01*
X125214285Y-100273809D01*
X125214285Y-100130952D01*
X125261904Y-99940476D01*
X125309523Y-99845238D01*
X125404761Y-99750000D01*
X125547619Y-99702380D01*
X125642857Y-99702380D01*
X125785714Y-99750000D01*
X125833333Y-99797619D01*
X126166666Y-99702380D02*
X126785714Y-99702380D01*
X126452380Y-100083333D01*
X126595238Y-100083333D01*
X126690476Y-100130952D01*
X126738095Y-100178571D01*
X126785714Y-100273809D01*
X126785714Y-100511904D01*
X126738095Y-100607142D01*
X126690476Y-100654761D01*
X126595238Y-100702380D01*
X126309523Y-100702380D01*
X126214285Y-100654761D01*
X126166666Y-100607142D01*
X120833333Y-94357142D02*
X120785714Y-94404761D01*
X120642857Y-94452380D01*
X120547619Y-94452380D01*
X120404761Y-94404761D01*
X120309523Y-94309523D01*
X120261904Y-94214285D01*
X120214285Y-94023809D01*
X120214285Y-93880952D01*
X120261904Y-93690476D01*
X120309523Y-93595238D01*
X120404761Y-93500000D01*
X120547619Y-93452380D01*
X120642857Y-93452380D01*
X120785714Y-93500000D01*
X120833333Y-93547619D01*
X121785714Y-94452380D02*
X121214285Y-94452380D01*
X121500000Y-94452380D02*
X121500000Y-93452380D01*
X121404761Y-93595238D01*
X121309523Y-93690476D01*
X121214285Y-93738095D01*
M02*
