G04 #@! TF.GenerationSoftware,KiCad,Pcbnew,5.1.5-52549c5~86~ubuntu18.04.1*
G04 #@! TF.CreationDate,2020-09-04T15:06:53-03:00*
G04 #@! TF.ProjectId,TPS54331,54505335-3433-4333-912e-6b696361645f,v1.0*
G04 #@! TF.SameCoordinates,Original*
G04 #@! TF.FileFunction,Paste,Top*
G04 #@! TF.FilePolarity,Positive*
%FSLAX46Y46*%
G04 Gerber Fmt 4.6, Leading zero omitted, Abs format (unit mm)*
G04 Created by KiCad (PCBNEW 5.1.5-52549c5~86~ubuntu18.04.1) date 2020-09-04 15:06:53*
%MOMM*%
%LPD*%
G04 APERTURE LIST*
%ADD10C,0.100000*%
%ADD11R,5.400000X2.900000*%
%ADD12R,2.500000X2.300000*%
G04 APERTURE END LIST*
D10*
G36*
X146830142Y-104551174D02*
G01*
X146853803Y-104554684D01*
X146877007Y-104560496D01*
X146899529Y-104568554D01*
X146921153Y-104578782D01*
X146941670Y-104591079D01*
X146960883Y-104605329D01*
X146978607Y-104621393D01*
X146994671Y-104639117D01*
X147008921Y-104658330D01*
X147021218Y-104678847D01*
X147031446Y-104700471D01*
X147039504Y-104722993D01*
X147045316Y-104746197D01*
X147048826Y-104769858D01*
X147050000Y-104793750D01*
X147050000Y-105706250D01*
X147048826Y-105730142D01*
X147045316Y-105753803D01*
X147039504Y-105777007D01*
X147031446Y-105799529D01*
X147021218Y-105821153D01*
X147008921Y-105841670D01*
X146994671Y-105860883D01*
X146978607Y-105878607D01*
X146960883Y-105894671D01*
X146941670Y-105908921D01*
X146921153Y-105921218D01*
X146899529Y-105931446D01*
X146877007Y-105939504D01*
X146853803Y-105945316D01*
X146830142Y-105948826D01*
X146806250Y-105950000D01*
X146318750Y-105950000D01*
X146294858Y-105948826D01*
X146271197Y-105945316D01*
X146247993Y-105939504D01*
X146225471Y-105931446D01*
X146203847Y-105921218D01*
X146183330Y-105908921D01*
X146164117Y-105894671D01*
X146146393Y-105878607D01*
X146130329Y-105860883D01*
X146116079Y-105841670D01*
X146103782Y-105821153D01*
X146093554Y-105799529D01*
X146085496Y-105777007D01*
X146079684Y-105753803D01*
X146076174Y-105730142D01*
X146075000Y-105706250D01*
X146075000Y-104793750D01*
X146076174Y-104769858D01*
X146079684Y-104746197D01*
X146085496Y-104722993D01*
X146093554Y-104700471D01*
X146103782Y-104678847D01*
X146116079Y-104658330D01*
X146130329Y-104639117D01*
X146146393Y-104621393D01*
X146164117Y-104605329D01*
X146183330Y-104591079D01*
X146203847Y-104578782D01*
X146225471Y-104568554D01*
X146247993Y-104560496D01*
X146271197Y-104554684D01*
X146294858Y-104551174D01*
X146318750Y-104550000D01*
X146806250Y-104550000D01*
X146830142Y-104551174D01*
G37*
G36*
X148705142Y-104551174D02*
G01*
X148728803Y-104554684D01*
X148752007Y-104560496D01*
X148774529Y-104568554D01*
X148796153Y-104578782D01*
X148816670Y-104591079D01*
X148835883Y-104605329D01*
X148853607Y-104621393D01*
X148869671Y-104639117D01*
X148883921Y-104658330D01*
X148896218Y-104678847D01*
X148906446Y-104700471D01*
X148914504Y-104722993D01*
X148920316Y-104746197D01*
X148923826Y-104769858D01*
X148925000Y-104793750D01*
X148925000Y-105706250D01*
X148923826Y-105730142D01*
X148920316Y-105753803D01*
X148914504Y-105777007D01*
X148906446Y-105799529D01*
X148896218Y-105821153D01*
X148883921Y-105841670D01*
X148869671Y-105860883D01*
X148853607Y-105878607D01*
X148835883Y-105894671D01*
X148816670Y-105908921D01*
X148796153Y-105921218D01*
X148774529Y-105931446D01*
X148752007Y-105939504D01*
X148728803Y-105945316D01*
X148705142Y-105948826D01*
X148681250Y-105950000D01*
X148193750Y-105950000D01*
X148169858Y-105948826D01*
X148146197Y-105945316D01*
X148122993Y-105939504D01*
X148100471Y-105931446D01*
X148078847Y-105921218D01*
X148058330Y-105908921D01*
X148039117Y-105894671D01*
X148021393Y-105878607D01*
X148005329Y-105860883D01*
X147991079Y-105841670D01*
X147978782Y-105821153D01*
X147968554Y-105799529D01*
X147960496Y-105777007D01*
X147954684Y-105753803D01*
X147951174Y-105730142D01*
X147950000Y-105706250D01*
X147950000Y-104793750D01*
X147951174Y-104769858D01*
X147954684Y-104746197D01*
X147960496Y-104722993D01*
X147968554Y-104700471D01*
X147978782Y-104678847D01*
X147991079Y-104658330D01*
X148005329Y-104639117D01*
X148021393Y-104621393D01*
X148039117Y-104605329D01*
X148058330Y-104591079D01*
X148078847Y-104578782D01*
X148100471Y-104568554D01*
X148122993Y-104560496D01*
X148146197Y-104554684D01*
X148169858Y-104551174D01*
X148193750Y-104550000D01*
X148681250Y-104550000D01*
X148705142Y-104551174D01*
G37*
G36*
X138764703Y-98445722D02*
G01*
X138779264Y-98447882D01*
X138793543Y-98451459D01*
X138807403Y-98456418D01*
X138820710Y-98462712D01*
X138833336Y-98470280D01*
X138845159Y-98479048D01*
X138856066Y-98488934D01*
X138865952Y-98499841D01*
X138874720Y-98511664D01*
X138882288Y-98524290D01*
X138888582Y-98537597D01*
X138893541Y-98551457D01*
X138897118Y-98565736D01*
X138899278Y-98580297D01*
X138900000Y-98595000D01*
X138900000Y-98895000D01*
X138899278Y-98909703D01*
X138897118Y-98924264D01*
X138893541Y-98938543D01*
X138888582Y-98952403D01*
X138882288Y-98965710D01*
X138874720Y-98978336D01*
X138865952Y-98990159D01*
X138856066Y-99001066D01*
X138845159Y-99010952D01*
X138833336Y-99019720D01*
X138820710Y-99027288D01*
X138807403Y-99033582D01*
X138793543Y-99038541D01*
X138779264Y-99042118D01*
X138764703Y-99044278D01*
X138750000Y-99045000D01*
X137100000Y-99045000D01*
X137085297Y-99044278D01*
X137070736Y-99042118D01*
X137056457Y-99038541D01*
X137042597Y-99033582D01*
X137029290Y-99027288D01*
X137016664Y-99019720D01*
X137004841Y-99010952D01*
X136993934Y-99001066D01*
X136984048Y-98990159D01*
X136975280Y-98978336D01*
X136967712Y-98965710D01*
X136961418Y-98952403D01*
X136956459Y-98938543D01*
X136952882Y-98924264D01*
X136950722Y-98909703D01*
X136950000Y-98895000D01*
X136950000Y-98595000D01*
X136950722Y-98580297D01*
X136952882Y-98565736D01*
X136956459Y-98551457D01*
X136961418Y-98537597D01*
X136967712Y-98524290D01*
X136975280Y-98511664D01*
X136984048Y-98499841D01*
X136993934Y-98488934D01*
X137004841Y-98479048D01*
X137016664Y-98470280D01*
X137029290Y-98462712D01*
X137042597Y-98456418D01*
X137056457Y-98451459D01*
X137070736Y-98447882D01*
X137085297Y-98445722D01*
X137100000Y-98445000D01*
X138750000Y-98445000D01*
X138764703Y-98445722D01*
G37*
G36*
X138764703Y-99715722D02*
G01*
X138779264Y-99717882D01*
X138793543Y-99721459D01*
X138807403Y-99726418D01*
X138820710Y-99732712D01*
X138833336Y-99740280D01*
X138845159Y-99749048D01*
X138856066Y-99758934D01*
X138865952Y-99769841D01*
X138874720Y-99781664D01*
X138882288Y-99794290D01*
X138888582Y-99807597D01*
X138893541Y-99821457D01*
X138897118Y-99835736D01*
X138899278Y-99850297D01*
X138900000Y-99865000D01*
X138900000Y-100165000D01*
X138899278Y-100179703D01*
X138897118Y-100194264D01*
X138893541Y-100208543D01*
X138888582Y-100222403D01*
X138882288Y-100235710D01*
X138874720Y-100248336D01*
X138865952Y-100260159D01*
X138856066Y-100271066D01*
X138845159Y-100280952D01*
X138833336Y-100289720D01*
X138820710Y-100297288D01*
X138807403Y-100303582D01*
X138793543Y-100308541D01*
X138779264Y-100312118D01*
X138764703Y-100314278D01*
X138750000Y-100315000D01*
X137100000Y-100315000D01*
X137085297Y-100314278D01*
X137070736Y-100312118D01*
X137056457Y-100308541D01*
X137042597Y-100303582D01*
X137029290Y-100297288D01*
X137016664Y-100289720D01*
X137004841Y-100280952D01*
X136993934Y-100271066D01*
X136984048Y-100260159D01*
X136975280Y-100248336D01*
X136967712Y-100235710D01*
X136961418Y-100222403D01*
X136956459Y-100208543D01*
X136952882Y-100194264D01*
X136950722Y-100179703D01*
X136950000Y-100165000D01*
X136950000Y-99865000D01*
X136950722Y-99850297D01*
X136952882Y-99835736D01*
X136956459Y-99821457D01*
X136961418Y-99807597D01*
X136967712Y-99794290D01*
X136975280Y-99781664D01*
X136984048Y-99769841D01*
X136993934Y-99758934D01*
X137004841Y-99749048D01*
X137016664Y-99740280D01*
X137029290Y-99732712D01*
X137042597Y-99726418D01*
X137056457Y-99721459D01*
X137070736Y-99717882D01*
X137085297Y-99715722D01*
X137100000Y-99715000D01*
X138750000Y-99715000D01*
X138764703Y-99715722D01*
G37*
G36*
X138764703Y-100985722D02*
G01*
X138779264Y-100987882D01*
X138793543Y-100991459D01*
X138807403Y-100996418D01*
X138820710Y-101002712D01*
X138833336Y-101010280D01*
X138845159Y-101019048D01*
X138856066Y-101028934D01*
X138865952Y-101039841D01*
X138874720Y-101051664D01*
X138882288Y-101064290D01*
X138888582Y-101077597D01*
X138893541Y-101091457D01*
X138897118Y-101105736D01*
X138899278Y-101120297D01*
X138900000Y-101135000D01*
X138900000Y-101435000D01*
X138899278Y-101449703D01*
X138897118Y-101464264D01*
X138893541Y-101478543D01*
X138888582Y-101492403D01*
X138882288Y-101505710D01*
X138874720Y-101518336D01*
X138865952Y-101530159D01*
X138856066Y-101541066D01*
X138845159Y-101550952D01*
X138833336Y-101559720D01*
X138820710Y-101567288D01*
X138807403Y-101573582D01*
X138793543Y-101578541D01*
X138779264Y-101582118D01*
X138764703Y-101584278D01*
X138750000Y-101585000D01*
X137100000Y-101585000D01*
X137085297Y-101584278D01*
X137070736Y-101582118D01*
X137056457Y-101578541D01*
X137042597Y-101573582D01*
X137029290Y-101567288D01*
X137016664Y-101559720D01*
X137004841Y-101550952D01*
X136993934Y-101541066D01*
X136984048Y-101530159D01*
X136975280Y-101518336D01*
X136967712Y-101505710D01*
X136961418Y-101492403D01*
X136956459Y-101478543D01*
X136952882Y-101464264D01*
X136950722Y-101449703D01*
X136950000Y-101435000D01*
X136950000Y-101135000D01*
X136950722Y-101120297D01*
X136952882Y-101105736D01*
X136956459Y-101091457D01*
X136961418Y-101077597D01*
X136967712Y-101064290D01*
X136975280Y-101051664D01*
X136984048Y-101039841D01*
X136993934Y-101028934D01*
X137004841Y-101019048D01*
X137016664Y-101010280D01*
X137029290Y-101002712D01*
X137042597Y-100996418D01*
X137056457Y-100991459D01*
X137070736Y-100987882D01*
X137085297Y-100985722D01*
X137100000Y-100985000D01*
X138750000Y-100985000D01*
X138764703Y-100985722D01*
G37*
G36*
X138764703Y-102255722D02*
G01*
X138779264Y-102257882D01*
X138793543Y-102261459D01*
X138807403Y-102266418D01*
X138820710Y-102272712D01*
X138833336Y-102280280D01*
X138845159Y-102289048D01*
X138856066Y-102298934D01*
X138865952Y-102309841D01*
X138874720Y-102321664D01*
X138882288Y-102334290D01*
X138888582Y-102347597D01*
X138893541Y-102361457D01*
X138897118Y-102375736D01*
X138899278Y-102390297D01*
X138900000Y-102405000D01*
X138900000Y-102705000D01*
X138899278Y-102719703D01*
X138897118Y-102734264D01*
X138893541Y-102748543D01*
X138888582Y-102762403D01*
X138882288Y-102775710D01*
X138874720Y-102788336D01*
X138865952Y-102800159D01*
X138856066Y-102811066D01*
X138845159Y-102820952D01*
X138833336Y-102829720D01*
X138820710Y-102837288D01*
X138807403Y-102843582D01*
X138793543Y-102848541D01*
X138779264Y-102852118D01*
X138764703Y-102854278D01*
X138750000Y-102855000D01*
X137100000Y-102855000D01*
X137085297Y-102854278D01*
X137070736Y-102852118D01*
X137056457Y-102848541D01*
X137042597Y-102843582D01*
X137029290Y-102837288D01*
X137016664Y-102829720D01*
X137004841Y-102820952D01*
X136993934Y-102811066D01*
X136984048Y-102800159D01*
X136975280Y-102788336D01*
X136967712Y-102775710D01*
X136961418Y-102762403D01*
X136956459Y-102748543D01*
X136952882Y-102734264D01*
X136950722Y-102719703D01*
X136950000Y-102705000D01*
X136950000Y-102405000D01*
X136950722Y-102390297D01*
X136952882Y-102375736D01*
X136956459Y-102361457D01*
X136961418Y-102347597D01*
X136967712Y-102334290D01*
X136975280Y-102321664D01*
X136984048Y-102309841D01*
X136993934Y-102298934D01*
X137004841Y-102289048D01*
X137016664Y-102280280D01*
X137029290Y-102272712D01*
X137042597Y-102266418D01*
X137056457Y-102261459D01*
X137070736Y-102257882D01*
X137085297Y-102255722D01*
X137100000Y-102255000D01*
X138750000Y-102255000D01*
X138764703Y-102255722D01*
G37*
G36*
X133814703Y-102255722D02*
G01*
X133829264Y-102257882D01*
X133843543Y-102261459D01*
X133857403Y-102266418D01*
X133870710Y-102272712D01*
X133883336Y-102280280D01*
X133895159Y-102289048D01*
X133906066Y-102298934D01*
X133915952Y-102309841D01*
X133924720Y-102321664D01*
X133932288Y-102334290D01*
X133938582Y-102347597D01*
X133943541Y-102361457D01*
X133947118Y-102375736D01*
X133949278Y-102390297D01*
X133950000Y-102405000D01*
X133950000Y-102705000D01*
X133949278Y-102719703D01*
X133947118Y-102734264D01*
X133943541Y-102748543D01*
X133938582Y-102762403D01*
X133932288Y-102775710D01*
X133924720Y-102788336D01*
X133915952Y-102800159D01*
X133906066Y-102811066D01*
X133895159Y-102820952D01*
X133883336Y-102829720D01*
X133870710Y-102837288D01*
X133857403Y-102843582D01*
X133843543Y-102848541D01*
X133829264Y-102852118D01*
X133814703Y-102854278D01*
X133800000Y-102855000D01*
X132150000Y-102855000D01*
X132135297Y-102854278D01*
X132120736Y-102852118D01*
X132106457Y-102848541D01*
X132092597Y-102843582D01*
X132079290Y-102837288D01*
X132066664Y-102829720D01*
X132054841Y-102820952D01*
X132043934Y-102811066D01*
X132034048Y-102800159D01*
X132025280Y-102788336D01*
X132017712Y-102775710D01*
X132011418Y-102762403D01*
X132006459Y-102748543D01*
X132002882Y-102734264D01*
X132000722Y-102719703D01*
X132000000Y-102705000D01*
X132000000Y-102405000D01*
X132000722Y-102390297D01*
X132002882Y-102375736D01*
X132006459Y-102361457D01*
X132011418Y-102347597D01*
X132017712Y-102334290D01*
X132025280Y-102321664D01*
X132034048Y-102309841D01*
X132043934Y-102298934D01*
X132054841Y-102289048D01*
X132066664Y-102280280D01*
X132079290Y-102272712D01*
X132092597Y-102266418D01*
X132106457Y-102261459D01*
X132120736Y-102257882D01*
X132135297Y-102255722D01*
X132150000Y-102255000D01*
X133800000Y-102255000D01*
X133814703Y-102255722D01*
G37*
G36*
X133814703Y-100985722D02*
G01*
X133829264Y-100987882D01*
X133843543Y-100991459D01*
X133857403Y-100996418D01*
X133870710Y-101002712D01*
X133883336Y-101010280D01*
X133895159Y-101019048D01*
X133906066Y-101028934D01*
X133915952Y-101039841D01*
X133924720Y-101051664D01*
X133932288Y-101064290D01*
X133938582Y-101077597D01*
X133943541Y-101091457D01*
X133947118Y-101105736D01*
X133949278Y-101120297D01*
X133950000Y-101135000D01*
X133950000Y-101435000D01*
X133949278Y-101449703D01*
X133947118Y-101464264D01*
X133943541Y-101478543D01*
X133938582Y-101492403D01*
X133932288Y-101505710D01*
X133924720Y-101518336D01*
X133915952Y-101530159D01*
X133906066Y-101541066D01*
X133895159Y-101550952D01*
X133883336Y-101559720D01*
X133870710Y-101567288D01*
X133857403Y-101573582D01*
X133843543Y-101578541D01*
X133829264Y-101582118D01*
X133814703Y-101584278D01*
X133800000Y-101585000D01*
X132150000Y-101585000D01*
X132135297Y-101584278D01*
X132120736Y-101582118D01*
X132106457Y-101578541D01*
X132092597Y-101573582D01*
X132079290Y-101567288D01*
X132066664Y-101559720D01*
X132054841Y-101550952D01*
X132043934Y-101541066D01*
X132034048Y-101530159D01*
X132025280Y-101518336D01*
X132017712Y-101505710D01*
X132011418Y-101492403D01*
X132006459Y-101478543D01*
X132002882Y-101464264D01*
X132000722Y-101449703D01*
X132000000Y-101435000D01*
X132000000Y-101135000D01*
X132000722Y-101120297D01*
X132002882Y-101105736D01*
X132006459Y-101091457D01*
X132011418Y-101077597D01*
X132017712Y-101064290D01*
X132025280Y-101051664D01*
X132034048Y-101039841D01*
X132043934Y-101028934D01*
X132054841Y-101019048D01*
X132066664Y-101010280D01*
X132079290Y-101002712D01*
X132092597Y-100996418D01*
X132106457Y-100991459D01*
X132120736Y-100987882D01*
X132135297Y-100985722D01*
X132150000Y-100985000D01*
X133800000Y-100985000D01*
X133814703Y-100985722D01*
G37*
G36*
X133814703Y-99715722D02*
G01*
X133829264Y-99717882D01*
X133843543Y-99721459D01*
X133857403Y-99726418D01*
X133870710Y-99732712D01*
X133883336Y-99740280D01*
X133895159Y-99749048D01*
X133906066Y-99758934D01*
X133915952Y-99769841D01*
X133924720Y-99781664D01*
X133932288Y-99794290D01*
X133938582Y-99807597D01*
X133943541Y-99821457D01*
X133947118Y-99835736D01*
X133949278Y-99850297D01*
X133950000Y-99865000D01*
X133950000Y-100165000D01*
X133949278Y-100179703D01*
X133947118Y-100194264D01*
X133943541Y-100208543D01*
X133938582Y-100222403D01*
X133932288Y-100235710D01*
X133924720Y-100248336D01*
X133915952Y-100260159D01*
X133906066Y-100271066D01*
X133895159Y-100280952D01*
X133883336Y-100289720D01*
X133870710Y-100297288D01*
X133857403Y-100303582D01*
X133843543Y-100308541D01*
X133829264Y-100312118D01*
X133814703Y-100314278D01*
X133800000Y-100315000D01*
X132150000Y-100315000D01*
X132135297Y-100314278D01*
X132120736Y-100312118D01*
X132106457Y-100308541D01*
X132092597Y-100303582D01*
X132079290Y-100297288D01*
X132066664Y-100289720D01*
X132054841Y-100280952D01*
X132043934Y-100271066D01*
X132034048Y-100260159D01*
X132025280Y-100248336D01*
X132017712Y-100235710D01*
X132011418Y-100222403D01*
X132006459Y-100208543D01*
X132002882Y-100194264D01*
X132000722Y-100179703D01*
X132000000Y-100165000D01*
X132000000Y-99865000D01*
X132000722Y-99850297D01*
X132002882Y-99835736D01*
X132006459Y-99821457D01*
X132011418Y-99807597D01*
X132017712Y-99794290D01*
X132025280Y-99781664D01*
X132034048Y-99769841D01*
X132043934Y-99758934D01*
X132054841Y-99749048D01*
X132066664Y-99740280D01*
X132079290Y-99732712D01*
X132092597Y-99726418D01*
X132106457Y-99721459D01*
X132120736Y-99717882D01*
X132135297Y-99715722D01*
X132150000Y-99715000D01*
X133800000Y-99715000D01*
X133814703Y-99715722D01*
G37*
G36*
X133814703Y-98445722D02*
G01*
X133829264Y-98447882D01*
X133843543Y-98451459D01*
X133857403Y-98456418D01*
X133870710Y-98462712D01*
X133883336Y-98470280D01*
X133895159Y-98479048D01*
X133906066Y-98488934D01*
X133915952Y-98499841D01*
X133924720Y-98511664D01*
X133932288Y-98524290D01*
X133938582Y-98537597D01*
X133943541Y-98551457D01*
X133947118Y-98565736D01*
X133949278Y-98580297D01*
X133950000Y-98595000D01*
X133950000Y-98895000D01*
X133949278Y-98909703D01*
X133947118Y-98924264D01*
X133943541Y-98938543D01*
X133938582Y-98952403D01*
X133932288Y-98965710D01*
X133924720Y-98978336D01*
X133915952Y-98990159D01*
X133906066Y-99001066D01*
X133895159Y-99010952D01*
X133883336Y-99019720D01*
X133870710Y-99027288D01*
X133857403Y-99033582D01*
X133843543Y-99038541D01*
X133829264Y-99042118D01*
X133814703Y-99044278D01*
X133800000Y-99045000D01*
X132150000Y-99045000D01*
X132135297Y-99044278D01*
X132120736Y-99042118D01*
X132106457Y-99038541D01*
X132092597Y-99033582D01*
X132079290Y-99027288D01*
X132066664Y-99019720D01*
X132054841Y-99010952D01*
X132043934Y-99001066D01*
X132034048Y-98990159D01*
X132025280Y-98978336D01*
X132017712Y-98965710D01*
X132011418Y-98952403D01*
X132006459Y-98938543D01*
X132002882Y-98924264D01*
X132000722Y-98909703D01*
X132000000Y-98895000D01*
X132000000Y-98595000D01*
X132000722Y-98580297D01*
X132002882Y-98565736D01*
X132006459Y-98551457D01*
X132011418Y-98537597D01*
X132017712Y-98524290D01*
X132025280Y-98511664D01*
X132034048Y-98499841D01*
X132043934Y-98488934D01*
X132054841Y-98479048D01*
X132066664Y-98470280D01*
X132079290Y-98462712D01*
X132092597Y-98456418D01*
X132106457Y-98451459D01*
X132120736Y-98447882D01*
X132135297Y-98445722D01*
X132150000Y-98445000D01*
X133800000Y-98445000D01*
X133814703Y-98445722D01*
G37*
G36*
X136272544Y-100796108D02*
G01*
X136294871Y-100799419D01*
X136316765Y-100804904D01*
X136338017Y-100812508D01*
X136358421Y-100822158D01*
X136377781Y-100833762D01*
X136395910Y-100847208D01*
X136412635Y-100862365D01*
X136427792Y-100879090D01*
X136441238Y-100897219D01*
X136452842Y-100916579D01*
X136462492Y-100936983D01*
X136470096Y-100958235D01*
X136475581Y-100980129D01*
X136478892Y-101002456D01*
X136480000Y-101025000D01*
X136480000Y-101775000D01*
X136478892Y-101797544D01*
X136475581Y-101819871D01*
X136470096Y-101841765D01*
X136462492Y-101863017D01*
X136452842Y-101883421D01*
X136441238Y-101902781D01*
X136427792Y-101920910D01*
X136412635Y-101937635D01*
X136395910Y-101952792D01*
X136377781Y-101966238D01*
X136358421Y-101977842D01*
X136338017Y-101987492D01*
X136316765Y-101995096D01*
X136294871Y-102000581D01*
X136272544Y-102003892D01*
X136250000Y-102005000D01*
X135790000Y-102005000D01*
X135767456Y-102003892D01*
X135745129Y-102000581D01*
X135723235Y-101995096D01*
X135701983Y-101987492D01*
X135681579Y-101977842D01*
X135662219Y-101966238D01*
X135644090Y-101952792D01*
X135627365Y-101937635D01*
X135612208Y-101920910D01*
X135598762Y-101902781D01*
X135587158Y-101883421D01*
X135577508Y-101863017D01*
X135569904Y-101841765D01*
X135564419Y-101819871D01*
X135561108Y-101797544D01*
X135560000Y-101775000D01*
X135560000Y-101025000D01*
X135561108Y-101002456D01*
X135564419Y-100980129D01*
X135569904Y-100958235D01*
X135577508Y-100936983D01*
X135587158Y-100916579D01*
X135598762Y-100897219D01*
X135612208Y-100879090D01*
X135627365Y-100862365D01*
X135644090Y-100847208D01*
X135662219Y-100833762D01*
X135681579Y-100822158D01*
X135701983Y-100812508D01*
X135723235Y-100804904D01*
X135745129Y-100799419D01*
X135767456Y-100796108D01*
X135790000Y-100795000D01*
X136250000Y-100795000D01*
X136272544Y-100796108D01*
G37*
G36*
X136272544Y-99296108D02*
G01*
X136294871Y-99299419D01*
X136316765Y-99304904D01*
X136338017Y-99312508D01*
X136358421Y-99322158D01*
X136377781Y-99333762D01*
X136395910Y-99347208D01*
X136412635Y-99362365D01*
X136427792Y-99379090D01*
X136441238Y-99397219D01*
X136452842Y-99416579D01*
X136462492Y-99436983D01*
X136470096Y-99458235D01*
X136475581Y-99480129D01*
X136478892Y-99502456D01*
X136480000Y-99525000D01*
X136480000Y-100275000D01*
X136478892Y-100297544D01*
X136475581Y-100319871D01*
X136470096Y-100341765D01*
X136462492Y-100363017D01*
X136452842Y-100383421D01*
X136441238Y-100402781D01*
X136427792Y-100420910D01*
X136412635Y-100437635D01*
X136395910Y-100452792D01*
X136377781Y-100466238D01*
X136358421Y-100477842D01*
X136338017Y-100487492D01*
X136316765Y-100495096D01*
X136294871Y-100500581D01*
X136272544Y-100503892D01*
X136250000Y-100505000D01*
X135790000Y-100505000D01*
X135767456Y-100503892D01*
X135745129Y-100500581D01*
X135723235Y-100495096D01*
X135701983Y-100487492D01*
X135681579Y-100477842D01*
X135662219Y-100466238D01*
X135644090Y-100452792D01*
X135627365Y-100437635D01*
X135612208Y-100420910D01*
X135598762Y-100402781D01*
X135587158Y-100383421D01*
X135577508Y-100363017D01*
X135569904Y-100341765D01*
X135564419Y-100319871D01*
X135561108Y-100297544D01*
X135560000Y-100275000D01*
X135560000Y-99525000D01*
X135561108Y-99502456D01*
X135564419Y-99480129D01*
X135569904Y-99458235D01*
X135577508Y-99436983D01*
X135587158Y-99416579D01*
X135598762Y-99397219D01*
X135612208Y-99379090D01*
X135627365Y-99362365D01*
X135644090Y-99347208D01*
X135662219Y-99333762D01*
X135681579Y-99322158D01*
X135701983Y-99312508D01*
X135723235Y-99304904D01*
X135745129Y-99299419D01*
X135767456Y-99296108D01*
X135790000Y-99295000D01*
X136250000Y-99295000D01*
X136272544Y-99296108D01*
G37*
G36*
X135132544Y-100796108D02*
G01*
X135154871Y-100799419D01*
X135176765Y-100804904D01*
X135198017Y-100812508D01*
X135218421Y-100822158D01*
X135237781Y-100833762D01*
X135255910Y-100847208D01*
X135272635Y-100862365D01*
X135287792Y-100879090D01*
X135301238Y-100897219D01*
X135312842Y-100916579D01*
X135322492Y-100936983D01*
X135330096Y-100958235D01*
X135335581Y-100980129D01*
X135338892Y-101002456D01*
X135340000Y-101025000D01*
X135340000Y-101775000D01*
X135338892Y-101797544D01*
X135335581Y-101819871D01*
X135330096Y-101841765D01*
X135322492Y-101863017D01*
X135312842Y-101883421D01*
X135301238Y-101902781D01*
X135287792Y-101920910D01*
X135272635Y-101937635D01*
X135255910Y-101952792D01*
X135237781Y-101966238D01*
X135218421Y-101977842D01*
X135198017Y-101987492D01*
X135176765Y-101995096D01*
X135154871Y-102000581D01*
X135132544Y-102003892D01*
X135110000Y-102005000D01*
X134650000Y-102005000D01*
X134627456Y-102003892D01*
X134605129Y-102000581D01*
X134583235Y-101995096D01*
X134561983Y-101987492D01*
X134541579Y-101977842D01*
X134522219Y-101966238D01*
X134504090Y-101952792D01*
X134487365Y-101937635D01*
X134472208Y-101920910D01*
X134458762Y-101902781D01*
X134447158Y-101883421D01*
X134437508Y-101863017D01*
X134429904Y-101841765D01*
X134424419Y-101819871D01*
X134421108Y-101797544D01*
X134420000Y-101775000D01*
X134420000Y-101025000D01*
X134421108Y-101002456D01*
X134424419Y-100980129D01*
X134429904Y-100958235D01*
X134437508Y-100936983D01*
X134447158Y-100916579D01*
X134458762Y-100897219D01*
X134472208Y-100879090D01*
X134487365Y-100862365D01*
X134504090Y-100847208D01*
X134522219Y-100833762D01*
X134541579Y-100822158D01*
X134561983Y-100812508D01*
X134583235Y-100804904D01*
X134605129Y-100799419D01*
X134627456Y-100796108D01*
X134650000Y-100795000D01*
X135110000Y-100795000D01*
X135132544Y-100796108D01*
G37*
G36*
X135132544Y-99296108D02*
G01*
X135154871Y-99299419D01*
X135176765Y-99304904D01*
X135198017Y-99312508D01*
X135218421Y-99322158D01*
X135237781Y-99333762D01*
X135255910Y-99347208D01*
X135272635Y-99362365D01*
X135287792Y-99379090D01*
X135301238Y-99397219D01*
X135312842Y-99416579D01*
X135322492Y-99436983D01*
X135330096Y-99458235D01*
X135335581Y-99480129D01*
X135338892Y-99502456D01*
X135340000Y-99525000D01*
X135340000Y-100275000D01*
X135338892Y-100297544D01*
X135335581Y-100319871D01*
X135330096Y-100341765D01*
X135322492Y-100363017D01*
X135312842Y-100383421D01*
X135301238Y-100402781D01*
X135287792Y-100420910D01*
X135272635Y-100437635D01*
X135255910Y-100452792D01*
X135237781Y-100466238D01*
X135218421Y-100477842D01*
X135198017Y-100487492D01*
X135176765Y-100495096D01*
X135154871Y-100500581D01*
X135132544Y-100503892D01*
X135110000Y-100505000D01*
X134650000Y-100505000D01*
X134627456Y-100503892D01*
X134605129Y-100500581D01*
X134583235Y-100495096D01*
X134561983Y-100487492D01*
X134541579Y-100477842D01*
X134522219Y-100466238D01*
X134504090Y-100452792D01*
X134487365Y-100437635D01*
X134472208Y-100420910D01*
X134458762Y-100402781D01*
X134447158Y-100383421D01*
X134437508Y-100363017D01*
X134429904Y-100341765D01*
X134424419Y-100319871D01*
X134421108Y-100297544D01*
X134420000Y-100275000D01*
X134420000Y-99525000D01*
X134421108Y-99502456D01*
X134424419Y-99480129D01*
X134429904Y-99458235D01*
X134437508Y-99436983D01*
X134447158Y-99416579D01*
X134458762Y-99397219D01*
X134472208Y-99379090D01*
X134487365Y-99362365D01*
X134504090Y-99347208D01*
X134522219Y-99333762D01*
X134541579Y-99322158D01*
X134561983Y-99312508D01*
X134583235Y-99304904D01*
X134605129Y-99299419D01*
X134627456Y-99296108D01*
X134650000Y-99295000D01*
X135110000Y-99295000D01*
X135132544Y-99296108D01*
G37*
G36*
X163080142Y-73551174D02*
G01*
X163103803Y-73554684D01*
X163127007Y-73560496D01*
X163149529Y-73568554D01*
X163171153Y-73578782D01*
X163191670Y-73591079D01*
X163210883Y-73605329D01*
X163228607Y-73621393D01*
X163244671Y-73639117D01*
X163258921Y-73658330D01*
X163271218Y-73678847D01*
X163281446Y-73700471D01*
X163289504Y-73722993D01*
X163295316Y-73746197D01*
X163298826Y-73769858D01*
X163300000Y-73793750D01*
X163300000Y-74706250D01*
X163298826Y-74730142D01*
X163295316Y-74753803D01*
X163289504Y-74777007D01*
X163281446Y-74799529D01*
X163271218Y-74821153D01*
X163258921Y-74841670D01*
X163244671Y-74860883D01*
X163228607Y-74878607D01*
X163210883Y-74894671D01*
X163191670Y-74908921D01*
X163171153Y-74921218D01*
X163149529Y-74931446D01*
X163127007Y-74939504D01*
X163103803Y-74945316D01*
X163080142Y-74948826D01*
X163056250Y-74950000D01*
X162568750Y-74950000D01*
X162544858Y-74948826D01*
X162521197Y-74945316D01*
X162497993Y-74939504D01*
X162475471Y-74931446D01*
X162453847Y-74921218D01*
X162433330Y-74908921D01*
X162414117Y-74894671D01*
X162396393Y-74878607D01*
X162380329Y-74860883D01*
X162366079Y-74841670D01*
X162353782Y-74821153D01*
X162343554Y-74799529D01*
X162335496Y-74777007D01*
X162329684Y-74753803D01*
X162326174Y-74730142D01*
X162325000Y-74706250D01*
X162325000Y-73793750D01*
X162326174Y-73769858D01*
X162329684Y-73746197D01*
X162335496Y-73722993D01*
X162343554Y-73700471D01*
X162353782Y-73678847D01*
X162366079Y-73658330D01*
X162380329Y-73639117D01*
X162396393Y-73621393D01*
X162414117Y-73605329D01*
X162433330Y-73591079D01*
X162453847Y-73578782D01*
X162475471Y-73568554D01*
X162497993Y-73560496D01*
X162521197Y-73554684D01*
X162544858Y-73551174D01*
X162568750Y-73550000D01*
X163056250Y-73550000D01*
X163080142Y-73551174D01*
G37*
G36*
X164955142Y-73551174D02*
G01*
X164978803Y-73554684D01*
X165002007Y-73560496D01*
X165024529Y-73568554D01*
X165046153Y-73578782D01*
X165066670Y-73591079D01*
X165085883Y-73605329D01*
X165103607Y-73621393D01*
X165119671Y-73639117D01*
X165133921Y-73658330D01*
X165146218Y-73678847D01*
X165156446Y-73700471D01*
X165164504Y-73722993D01*
X165170316Y-73746197D01*
X165173826Y-73769858D01*
X165175000Y-73793750D01*
X165175000Y-74706250D01*
X165173826Y-74730142D01*
X165170316Y-74753803D01*
X165164504Y-74777007D01*
X165156446Y-74799529D01*
X165146218Y-74821153D01*
X165133921Y-74841670D01*
X165119671Y-74860883D01*
X165103607Y-74878607D01*
X165085883Y-74894671D01*
X165066670Y-74908921D01*
X165046153Y-74921218D01*
X165024529Y-74931446D01*
X165002007Y-74939504D01*
X164978803Y-74945316D01*
X164955142Y-74948826D01*
X164931250Y-74950000D01*
X164443750Y-74950000D01*
X164419858Y-74948826D01*
X164396197Y-74945316D01*
X164372993Y-74939504D01*
X164350471Y-74931446D01*
X164328847Y-74921218D01*
X164308330Y-74908921D01*
X164289117Y-74894671D01*
X164271393Y-74878607D01*
X164255329Y-74860883D01*
X164241079Y-74841670D01*
X164228782Y-74821153D01*
X164218554Y-74799529D01*
X164210496Y-74777007D01*
X164204684Y-74753803D01*
X164201174Y-74730142D01*
X164200000Y-74706250D01*
X164200000Y-73793750D01*
X164201174Y-73769858D01*
X164204684Y-73746197D01*
X164210496Y-73722993D01*
X164218554Y-73700471D01*
X164228782Y-73678847D01*
X164241079Y-73658330D01*
X164255329Y-73639117D01*
X164271393Y-73621393D01*
X164289117Y-73605329D01*
X164308330Y-73591079D01*
X164328847Y-73578782D01*
X164350471Y-73568554D01*
X164372993Y-73560496D01*
X164396197Y-73554684D01*
X164419858Y-73551174D01*
X164443750Y-73550000D01*
X164931250Y-73550000D01*
X164955142Y-73551174D01*
G37*
G36*
X163080142Y-71051174D02*
G01*
X163103803Y-71054684D01*
X163127007Y-71060496D01*
X163149529Y-71068554D01*
X163171153Y-71078782D01*
X163191670Y-71091079D01*
X163210883Y-71105329D01*
X163228607Y-71121393D01*
X163244671Y-71139117D01*
X163258921Y-71158330D01*
X163271218Y-71178847D01*
X163281446Y-71200471D01*
X163289504Y-71222993D01*
X163295316Y-71246197D01*
X163298826Y-71269858D01*
X163300000Y-71293750D01*
X163300000Y-72206250D01*
X163298826Y-72230142D01*
X163295316Y-72253803D01*
X163289504Y-72277007D01*
X163281446Y-72299529D01*
X163271218Y-72321153D01*
X163258921Y-72341670D01*
X163244671Y-72360883D01*
X163228607Y-72378607D01*
X163210883Y-72394671D01*
X163191670Y-72408921D01*
X163171153Y-72421218D01*
X163149529Y-72431446D01*
X163127007Y-72439504D01*
X163103803Y-72445316D01*
X163080142Y-72448826D01*
X163056250Y-72450000D01*
X162568750Y-72450000D01*
X162544858Y-72448826D01*
X162521197Y-72445316D01*
X162497993Y-72439504D01*
X162475471Y-72431446D01*
X162453847Y-72421218D01*
X162433330Y-72408921D01*
X162414117Y-72394671D01*
X162396393Y-72378607D01*
X162380329Y-72360883D01*
X162366079Y-72341670D01*
X162353782Y-72321153D01*
X162343554Y-72299529D01*
X162335496Y-72277007D01*
X162329684Y-72253803D01*
X162326174Y-72230142D01*
X162325000Y-72206250D01*
X162325000Y-71293750D01*
X162326174Y-71269858D01*
X162329684Y-71246197D01*
X162335496Y-71222993D01*
X162343554Y-71200471D01*
X162353782Y-71178847D01*
X162366079Y-71158330D01*
X162380329Y-71139117D01*
X162396393Y-71121393D01*
X162414117Y-71105329D01*
X162433330Y-71091079D01*
X162453847Y-71078782D01*
X162475471Y-71068554D01*
X162497993Y-71060496D01*
X162521197Y-71054684D01*
X162544858Y-71051174D01*
X162568750Y-71050000D01*
X163056250Y-71050000D01*
X163080142Y-71051174D01*
G37*
G36*
X164955142Y-71051174D02*
G01*
X164978803Y-71054684D01*
X165002007Y-71060496D01*
X165024529Y-71068554D01*
X165046153Y-71078782D01*
X165066670Y-71091079D01*
X165085883Y-71105329D01*
X165103607Y-71121393D01*
X165119671Y-71139117D01*
X165133921Y-71158330D01*
X165146218Y-71178847D01*
X165156446Y-71200471D01*
X165164504Y-71222993D01*
X165170316Y-71246197D01*
X165173826Y-71269858D01*
X165175000Y-71293750D01*
X165175000Y-72206250D01*
X165173826Y-72230142D01*
X165170316Y-72253803D01*
X165164504Y-72277007D01*
X165156446Y-72299529D01*
X165146218Y-72321153D01*
X165133921Y-72341670D01*
X165119671Y-72360883D01*
X165103607Y-72378607D01*
X165085883Y-72394671D01*
X165066670Y-72408921D01*
X165046153Y-72421218D01*
X165024529Y-72431446D01*
X165002007Y-72439504D01*
X164978803Y-72445316D01*
X164955142Y-72448826D01*
X164931250Y-72450000D01*
X164443750Y-72450000D01*
X164419858Y-72448826D01*
X164396197Y-72445316D01*
X164372993Y-72439504D01*
X164350471Y-72431446D01*
X164328847Y-72421218D01*
X164308330Y-72408921D01*
X164289117Y-72394671D01*
X164271393Y-72378607D01*
X164255329Y-72360883D01*
X164241079Y-72341670D01*
X164228782Y-72321153D01*
X164218554Y-72299529D01*
X164210496Y-72277007D01*
X164204684Y-72253803D01*
X164201174Y-72230142D01*
X164200000Y-72206250D01*
X164200000Y-71293750D01*
X164201174Y-71269858D01*
X164204684Y-71246197D01*
X164210496Y-71222993D01*
X164218554Y-71200471D01*
X164228782Y-71178847D01*
X164241079Y-71158330D01*
X164255329Y-71139117D01*
X164271393Y-71121393D01*
X164289117Y-71105329D01*
X164308330Y-71091079D01*
X164328847Y-71078782D01*
X164350471Y-71068554D01*
X164372993Y-71060496D01*
X164396197Y-71054684D01*
X164419858Y-71051174D01*
X164443750Y-71050000D01*
X164931250Y-71050000D01*
X164955142Y-71051174D01*
G37*
G36*
X148705142Y-102051174D02*
G01*
X148728803Y-102054684D01*
X148752007Y-102060496D01*
X148774529Y-102068554D01*
X148796153Y-102078782D01*
X148816670Y-102091079D01*
X148835883Y-102105329D01*
X148853607Y-102121393D01*
X148869671Y-102139117D01*
X148883921Y-102158330D01*
X148896218Y-102178847D01*
X148906446Y-102200471D01*
X148914504Y-102222993D01*
X148920316Y-102246197D01*
X148923826Y-102269858D01*
X148925000Y-102293750D01*
X148925000Y-103206250D01*
X148923826Y-103230142D01*
X148920316Y-103253803D01*
X148914504Y-103277007D01*
X148906446Y-103299529D01*
X148896218Y-103321153D01*
X148883921Y-103341670D01*
X148869671Y-103360883D01*
X148853607Y-103378607D01*
X148835883Y-103394671D01*
X148816670Y-103408921D01*
X148796153Y-103421218D01*
X148774529Y-103431446D01*
X148752007Y-103439504D01*
X148728803Y-103445316D01*
X148705142Y-103448826D01*
X148681250Y-103450000D01*
X148193750Y-103450000D01*
X148169858Y-103448826D01*
X148146197Y-103445316D01*
X148122993Y-103439504D01*
X148100471Y-103431446D01*
X148078847Y-103421218D01*
X148058330Y-103408921D01*
X148039117Y-103394671D01*
X148021393Y-103378607D01*
X148005329Y-103360883D01*
X147991079Y-103341670D01*
X147978782Y-103321153D01*
X147968554Y-103299529D01*
X147960496Y-103277007D01*
X147954684Y-103253803D01*
X147951174Y-103230142D01*
X147950000Y-103206250D01*
X147950000Y-102293750D01*
X147951174Y-102269858D01*
X147954684Y-102246197D01*
X147960496Y-102222993D01*
X147968554Y-102200471D01*
X147978782Y-102178847D01*
X147991079Y-102158330D01*
X148005329Y-102139117D01*
X148021393Y-102121393D01*
X148039117Y-102105329D01*
X148058330Y-102091079D01*
X148078847Y-102078782D01*
X148100471Y-102068554D01*
X148122993Y-102060496D01*
X148146197Y-102054684D01*
X148169858Y-102051174D01*
X148193750Y-102050000D01*
X148681250Y-102050000D01*
X148705142Y-102051174D01*
G37*
G36*
X146830142Y-102051174D02*
G01*
X146853803Y-102054684D01*
X146877007Y-102060496D01*
X146899529Y-102068554D01*
X146921153Y-102078782D01*
X146941670Y-102091079D01*
X146960883Y-102105329D01*
X146978607Y-102121393D01*
X146994671Y-102139117D01*
X147008921Y-102158330D01*
X147021218Y-102178847D01*
X147031446Y-102200471D01*
X147039504Y-102222993D01*
X147045316Y-102246197D01*
X147048826Y-102269858D01*
X147050000Y-102293750D01*
X147050000Y-103206250D01*
X147048826Y-103230142D01*
X147045316Y-103253803D01*
X147039504Y-103277007D01*
X147031446Y-103299529D01*
X147021218Y-103321153D01*
X147008921Y-103341670D01*
X146994671Y-103360883D01*
X146978607Y-103378607D01*
X146960883Y-103394671D01*
X146941670Y-103408921D01*
X146921153Y-103421218D01*
X146899529Y-103431446D01*
X146877007Y-103439504D01*
X146853803Y-103445316D01*
X146830142Y-103448826D01*
X146806250Y-103450000D01*
X146318750Y-103450000D01*
X146294858Y-103448826D01*
X146271197Y-103445316D01*
X146247993Y-103439504D01*
X146225471Y-103431446D01*
X146203847Y-103421218D01*
X146183330Y-103408921D01*
X146164117Y-103394671D01*
X146146393Y-103378607D01*
X146130329Y-103360883D01*
X146116079Y-103341670D01*
X146103782Y-103321153D01*
X146093554Y-103299529D01*
X146085496Y-103277007D01*
X146079684Y-103253803D01*
X146076174Y-103230142D01*
X146075000Y-103206250D01*
X146075000Y-102293750D01*
X146076174Y-102269858D01*
X146079684Y-102246197D01*
X146085496Y-102222993D01*
X146093554Y-102200471D01*
X146103782Y-102178847D01*
X146116079Y-102158330D01*
X146130329Y-102139117D01*
X146146393Y-102121393D01*
X146164117Y-102105329D01*
X146183330Y-102091079D01*
X146203847Y-102078782D01*
X146225471Y-102068554D01*
X146247993Y-102060496D01*
X146271197Y-102054684D01*
X146294858Y-102051174D01*
X146318750Y-102050000D01*
X146806250Y-102050000D01*
X146830142Y-102051174D01*
G37*
G36*
X148705142Y-99451174D02*
G01*
X148728803Y-99454684D01*
X148752007Y-99460496D01*
X148774529Y-99468554D01*
X148796153Y-99478782D01*
X148816670Y-99491079D01*
X148835883Y-99505329D01*
X148853607Y-99521393D01*
X148869671Y-99539117D01*
X148883921Y-99558330D01*
X148896218Y-99578847D01*
X148906446Y-99600471D01*
X148914504Y-99622993D01*
X148920316Y-99646197D01*
X148923826Y-99669858D01*
X148925000Y-99693750D01*
X148925000Y-100606250D01*
X148923826Y-100630142D01*
X148920316Y-100653803D01*
X148914504Y-100677007D01*
X148906446Y-100699529D01*
X148896218Y-100721153D01*
X148883921Y-100741670D01*
X148869671Y-100760883D01*
X148853607Y-100778607D01*
X148835883Y-100794671D01*
X148816670Y-100808921D01*
X148796153Y-100821218D01*
X148774529Y-100831446D01*
X148752007Y-100839504D01*
X148728803Y-100845316D01*
X148705142Y-100848826D01*
X148681250Y-100850000D01*
X148193750Y-100850000D01*
X148169858Y-100848826D01*
X148146197Y-100845316D01*
X148122993Y-100839504D01*
X148100471Y-100831446D01*
X148078847Y-100821218D01*
X148058330Y-100808921D01*
X148039117Y-100794671D01*
X148021393Y-100778607D01*
X148005329Y-100760883D01*
X147991079Y-100741670D01*
X147978782Y-100721153D01*
X147968554Y-100699529D01*
X147960496Y-100677007D01*
X147954684Y-100653803D01*
X147951174Y-100630142D01*
X147950000Y-100606250D01*
X147950000Y-99693750D01*
X147951174Y-99669858D01*
X147954684Y-99646197D01*
X147960496Y-99622993D01*
X147968554Y-99600471D01*
X147978782Y-99578847D01*
X147991079Y-99558330D01*
X148005329Y-99539117D01*
X148021393Y-99521393D01*
X148039117Y-99505329D01*
X148058330Y-99491079D01*
X148078847Y-99478782D01*
X148100471Y-99468554D01*
X148122993Y-99460496D01*
X148146197Y-99454684D01*
X148169858Y-99451174D01*
X148193750Y-99450000D01*
X148681250Y-99450000D01*
X148705142Y-99451174D01*
G37*
G36*
X146830142Y-99451174D02*
G01*
X146853803Y-99454684D01*
X146877007Y-99460496D01*
X146899529Y-99468554D01*
X146921153Y-99478782D01*
X146941670Y-99491079D01*
X146960883Y-99505329D01*
X146978607Y-99521393D01*
X146994671Y-99539117D01*
X147008921Y-99558330D01*
X147021218Y-99578847D01*
X147031446Y-99600471D01*
X147039504Y-99622993D01*
X147045316Y-99646197D01*
X147048826Y-99669858D01*
X147050000Y-99693750D01*
X147050000Y-100606250D01*
X147048826Y-100630142D01*
X147045316Y-100653803D01*
X147039504Y-100677007D01*
X147031446Y-100699529D01*
X147021218Y-100721153D01*
X147008921Y-100741670D01*
X146994671Y-100760883D01*
X146978607Y-100778607D01*
X146960883Y-100794671D01*
X146941670Y-100808921D01*
X146921153Y-100821218D01*
X146899529Y-100831446D01*
X146877007Y-100839504D01*
X146853803Y-100845316D01*
X146830142Y-100848826D01*
X146806250Y-100850000D01*
X146318750Y-100850000D01*
X146294858Y-100848826D01*
X146271197Y-100845316D01*
X146247993Y-100839504D01*
X146225471Y-100831446D01*
X146203847Y-100821218D01*
X146183330Y-100808921D01*
X146164117Y-100794671D01*
X146146393Y-100778607D01*
X146130329Y-100760883D01*
X146116079Y-100741670D01*
X146103782Y-100721153D01*
X146093554Y-100699529D01*
X146085496Y-100677007D01*
X146079684Y-100653803D01*
X146076174Y-100630142D01*
X146075000Y-100606250D01*
X146075000Y-99693750D01*
X146076174Y-99669858D01*
X146079684Y-99646197D01*
X146085496Y-99622993D01*
X146093554Y-99600471D01*
X146103782Y-99578847D01*
X146116079Y-99558330D01*
X146130329Y-99539117D01*
X146146393Y-99521393D01*
X146164117Y-99505329D01*
X146183330Y-99491079D01*
X146203847Y-99478782D01*
X146225471Y-99468554D01*
X146247993Y-99460496D01*
X146271197Y-99454684D01*
X146294858Y-99451174D01*
X146318750Y-99450000D01*
X146806250Y-99450000D01*
X146830142Y-99451174D01*
G37*
G36*
X128080142Y-104551174D02*
G01*
X128103803Y-104554684D01*
X128127007Y-104560496D01*
X128149529Y-104568554D01*
X128171153Y-104578782D01*
X128191670Y-104591079D01*
X128210883Y-104605329D01*
X128228607Y-104621393D01*
X128244671Y-104639117D01*
X128258921Y-104658330D01*
X128271218Y-104678847D01*
X128281446Y-104700471D01*
X128289504Y-104722993D01*
X128295316Y-104746197D01*
X128298826Y-104769858D01*
X128300000Y-104793750D01*
X128300000Y-105706250D01*
X128298826Y-105730142D01*
X128295316Y-105753803D01*
X128289504Y-105777007D01*
X128281446Y-105799529D01*
X128271218Y-105821153D01*
X128258921Y-105841670D01*
X128244671Y-105860883D01*
X128228607Y-105878607D01*
X128210883Y-105894671D01*
X128191670Y-105908921D01*
X128171153Y-105921218D01*
X128149529Y-105931446D01*
X128127007Y-105939504D01*
X128103803Y-105945316D01*
X128080142Y-105948826D01*
X128056250Y-105950000D01*
X127568750Y-105950000D01*
X127544858Y-105948826D01*
X127521197Y-105945316D01*
X127497993Y-105939504D01*
X127475471Y-105931446D01*
X127453847Y-105921218D01*
X127433330Y-105908921D01*
X127414117Y-105894671D01*
X127396393Y-105878607D01*
X127380329Y-105860883D01*
X127366079Y-105841670D01*
X127353782Y-105821153D01*
X127343554Y-105799529D01*
X127335496Y-105777007D01*
X127329684Y-105753803D01*
X127326174Y-105730142D01*
X127325000Y-105706250D01*
X127325000Y-104793750D01*
X127326174Y-104769858D01*
X127329684Y-104746197D01*
X127335496Y-104722993D01*
X127343554Y-104700471D01*
X127353782Y-104678847D01*
X127366079Y-104658330D01*
X127380329Y-104639117D01*
X127396393Y-104621393D01*
X127414117Y-104605329D01*
X127433330Y-104591079D01*
X127453847Y-104578782D01*
X127475471Y-104568554D01*
X127497993Y-104560496D01*
X127521197Y-104554684D01*
X127544858Y-104551174D01*
X127568750Y-104550000D01*
X128056250Y-104550000D01*
X128080142Y-104551174D01*
G37*
G36*
X129955142Y-104551174D02*
G01*
X129978803Y-104554684D01*
X130002007Y-104560496D01*
X130024529Y-104568554D01*
X130046153Y-104578782D01*
X130066670Y-104591079D01*
X130085883Y-104605329D01*
X130103607Y-104621393D01*
X130119671Y-104639117D01*
X130133921Y-104658330D01*
X130146218Y-104678847D01*
X130156446Y-104700471D01*
X130164504Y-104722993D01*
X130170316Y-104746197D01*
X130173826Y-104769858D01*
X130175000Y-104793750D01*
X130175000Y-105706250D01*
X130173826Y-105730142D01*
X130170316Y-105753803D01*
X130164504Y-105777007D01*
X130156446Y-105799529D01*
X130146218Y-105821153D01*
X130133921Y-105841670D01*
X130119671Y-105860883D01*
X130103607Y-105878607D01*
X130085883Y-105894671D01*
X130066670Y-105908921D01*
X130046153Y-105921218D01*
X130024529Y-105931446D01*
X130002007Y-105939504D01*
X129978803Y-105945316D01*
X129955142Y-105948826D01*
X129931250Y-105950000D01*
X129443750Y-105950000D01*
X129419858Y-105948826D01*
X129396197Y-105945316D01*
X129372993Y-105939504D01*
X129350471Y-105931446D01*
X129328847Y-105921218D01*
X129308330Y-105908921D01*
X129289117Y-105894671D01*
X129271393Y-105878607D01*
X129255329Y-105860883D01*
X129241079Y-105841670D01*
X129228782Y-105821153D01*
X129218554Y-105799529D01*
X129210496Y-105777007D01*
X129204684Y-105753803D01*
X129201174Y-105730142D01*
X129200000Y-105706250D01*
X129200000Y-104793750D01*
X129201174Y-104769858D01*
X129204684Y-104746197D01*
X129210496Y-104722993D01*
X129218554Y-104700471D01*
X129228782Y-104678847D01*
X129241079Y-104658330D01*
X129255329Y-104639117D01*
X129271393Y-104621393D01*
X129289117Y-104605329D01*
X129308330Y-104591079D01*
X129328847Y-104578782D01*
X129350471Y-104568554D01*
X129372993Y-104560496D01*
X129396197Y-104554684D01*
X129419858Y-104551174D01*
X129443750Y-104550000D01*
X129931250Y-104550000D01*
X129955142Y-104551174D01*
G37*
G36*
X129955142Y-102051174D02*
G01*
X129978803Y-102054684D01*
X130002007Y-102060496D01*
X130024529Y-102068554D01*
X130046153Y-102078782D01*
X130066670Y-102091079D01*
X130085883Y-102105329D01*
X130103607Y-102121393D01*
X130119671Y-102139117D01*
X130133921Y-102158330D01*
X130146218Y-102178847D01*
X130156446Y-102200471D01*
X130164504Y-102222993D01*
X130170316Y-102246197D01*
X130173826Y-102269858D01*
X130175000Y-102293750D01*
X130175000Y-103206250D01*
X130173826Y-103230142D01*
X130170316Y-103253803D01*
X130164504Y-103277007D01*
X130156446Y-103299529D01*
X130146218Y-103321153D01*
X130133921Y-103341670D01*
X130119671Y-103360883D01*
X130103607Y-103378607D01*
X130085883Y-103394671D01*
X130066670Y-103408921D01*
X130046153Y-103421218D01*
X130024529Y-103431446D01*
X130002007Y-103439504D01*
X129978803Y-103445316D01*
X129955142Y-103448826D01*
X129931250Y-103450000D01*
X129443750Y-103450000D01*
X129419858Y-103448826D01*
X129396197Y-103445316D01*
X129372993Y-103439504D01*
X129350471Y-103431446D01*
X129328847Y-103421218D01*
X129308330Y-103408921D01*
X129289117Y-103394671D01*
X129271393Y-103378607D01*
X129255329Y-103360883D01*
X129241079Y-103341670D01*
X129228782Y-103321153D01*
X129218554Y-103299529D01*
X129210496Y-103277007D01*
X129204684Y-103253803D01*
X129201174Y-103230142D01*
X129200000Y-103206250D01*
X129200000Y-102293750D01*
X129201174Y-102269858D01*
X129204684Y-102246197D01*
X129210496Y-102222993D01*
X129218554Y-102200471D01*
X129228782Y-102178847D01*
X129241079Y-102158330D01*
X129255329Y-102139117D01*
X129271393Y-102121393D01*
X129289117Y-102105329D01*
X129308330Y-102091079D01*
X129328847Y-102078782D01*
X129350471Y-102068554D01*
X129372993Y-102060496D01*
X129396197Y-102054684D01*
X129419858Y-102051174D01*
X129443750Y-102050000D01*
X129931250Y-102050000D01*
X129955142Y-102051174D01*
G37*
G36*
X128080142Y-102051174D02*
G01*
X128103803Y-102054684D01*
X128127007Y-102060496D01*
X128149529Y-102068554D01*
X128171153Y-102078782D01*
X128191670Y-102091079D01*
X128210883Y-102105329D01*
X128228607Y-102121393D01*
X128244671Y-102139117D01*
X128258921Y-102158330D01*
X128271218Y-102178847D01*
X128281446Y-102200471D01*
X128289504Y-102222993D01*
X128295316Y-102246197D01*
X128298826Y-102269858D01*
X128300000Y-102293750D01*
X128300000Y-103206250D01*
X128298826Y-103230142D01*
X128295316Y-103253803D01*
X128289504Y-103277007D01*
X128281446Y-103299529D01*
X128271218Y-103321153D01*
X128258921Y-103341670D01*
X128244671Y-103360883D01*
X128228607Y-103378607D01*
X128210883Y-103394671D01*
X128191670Y-103408921D01*
X128171153Y-103421218D01*
X128149529Y-103431446D01*
X128127007Y-103439504D01*
X128103803Y-103445316D01*
X128080142Y-103448826D01*
X128056250Y-103450000D01*
X127568750Y-103450000D01*
X127544858Y-103448826D01*
X127521197Y-103445316D01*
X127497993Y-103439504D01*
X127475471Y-103431446D01*
X127453847Y-103421218D01*
X127433330Y-103408921D01*
X127414117Y-103394671D01*
X127396393Y-103378607D01*
X127380329Y-103360883D01*
X127366079Y-103341670D01*
X127353782Y-103321153D01*
X127343554Y-103299529D01*
X127335496Y-103277007D01*
X127329684Y-103253803D01*
X127326174Y-103230142D01*
X127325000Y-103206250D01*
X127325000Y-102293750D01*
X127326174Y-102269858D01*
X127329684Y-102246197D01*
X127335496Y-102222993D01*
X127343554Y-102200471D01*
X127353782Y-102178847D01*
X127366079Y-102158330D01*
X127380329Y-102139117D01*
X127396393Y-102121393D01*
X127414117Y-102105329D01*
X127433330Y-102091079D01*
X127453847Y-102078782D01*
X127475471Y-102068554D01*
X127497993Y-102060496D01*
X127521197Y-102054684D01*
X127544858Y-102051174D01*
X127568750Y-102050000D01*
X128056250Y-102050000D01*
X128080142Y-102051174D01*
G37*
D11*
X147450000Y-86800000D03*
X147450000Y-96500000D03*
D10*
G36*
X187830142Y-88051174D02*
G01*
X187853803Y-88054684D01*
X187877007Y-88060496D01*
X187899529Y-88068554D01*
X187921153Y-88078782D01*
X187941670Y-88091079D01*
X187960883Y-88105329D01*
X187978607Y-88121393D01*
X187994671Y-88139117D01*
X188008921Y-88158330D01*
X188021218Y-88178847D01*
X188031446Y-88200471D01*
X188039504Y-88222993D01*
X188045316Y-88246197D01*
X188048826Y-88269858D01*
X188050000Y-88293750D01*
X188050000Y-89206250D01*
X188048826Y-89230142D01*
X188045316Y-89253803D01*
X188039504Y-89277007D01*
X188031446Y-89299529D01*
X188021218Y-89321153D01*
X188008921Y-89341670D01*
X187994671Y-89360883D01*
X187978607Y-89378607D01*
X187960883Y-89394671D01*
X187941670Y-89408921D01*
X187921153Y-89421218D01*
X187899529Y-89431446D01*
X187877007Y-89439504D01*
X187853803Y-89445316D01*
X187830142Y-89448826D01*
X187806250Y-89450000D01*
X187318750Y-89450000D01*
X187294858Y-89448826D01*
X187271197Y-89445316D01*
X187247993Y-89439504D01*
X187225471Y-89431446D01*
X187203847Y-89421218D01*
X187183330Y-89408921D01*
X187164117Y-89394671D01*
X187146393Y-89378607D01*
X187130329Y-89360883D01*
X187116079Y-89341670D01*
X187103782Y-89321153D01*
X187093554Y-89299529D01*
X187085496Y-89277007D01*
X187079684Y-89253803D01*
X187076174Y-89230142D01*
X187075000Y-89206250D01*
X187075000Y-88293750D01*
X187076174Y-88269858D01*
X187079684Y-88246197D01*
X187085496Y-88222993D01*
X187093554Y-88200471D01*
X187103782Y-88178847D01*
X187116079Y-88158330D01*
X187130329Y-88139117D01*
X187146393Y-88121393D01*
X187164117Y-88105329D01*
X187183330Y-88091079D01*
X187203847Y-88078782D01*
X187225471Y-88068554D01*
X187247993Y-88060496D01*
X187271197Y-88054684D01*
X187294858Y-88051174D01*
X187318750Y-88050000D01*
X187806250Y-88050000D01*
X187830142Y-88051174D01*
G37*
G36*
X189705142Y-88051174D02*
G01*
X189728803Y-88054684D01*
X189752007Y-88060496D01*
X189774529Y-88068554D01*
X189796153Y-88078782D01*
X189816670Y-88091079D01*
X189835883Y-88105329D01*
X189853607Y-88121393D01*
X189869671Y-88139117D01*
X189883921Y-88158330D01*
X189896218Y-88178847D01*
X189906446Y-88200471D01*
X189914504Y-88222993D01*
X189920316Y-88246197D01*
X189923826Y-88269858D01*
X189925000Y-88293750D01*
X189925000Y-89206250D01*
X189923826Y-89230142D01*
X189920316Y-89253803D01*
X189914504Y-89277007D01*
X189906446Y-89299529D01*
X189896218Y-89321153D01*
X189883921Y-89341670D01*
X189869671Y-89360883D01*
X189853607Y-89378607D01*
X189835883Y-89394671D01*
X189816670Y-89408921D01*
X189796153Y-89421218D01*
X189774529Y-89431446D01*
X189752007Y-89439504D01*
X189728803Y-89445316D01*
X189705142Y-89448826D01*
X189681250Y-89450000D01*
X189193750Y-89450000D01*
X189169858Y-89448826D01*
X189146197Y-89445316D01*
X189122993Y-89439504D01*
X189100471Y-89431446D01*
X189078847Y-89421218D01*
X189058330Y-89408921D01*
X189039117Y-89394671D01*
X189021393Y-89378607D01*
X189005329Y-89360883D01*
X188991079Y-89341670D01*
X188978782Y-89321153D01*
X188968554Y-89299529D01*
X188960496Y-89277007D01*
X188954684Y-89253803D01*
X188951174Y-89230142D01*
X188950000Y-89206250D01*
X188950000Y-88293750D01*
X188951174Y-88269858D01*
X188954684Y-88246197D01*
X188960496Y-88222993D01*
X188968554Y-88200471D01*
X188978782Y-88178847D01*
X188991079Y-88158330D01*
X189005329Y-88139117D01*
X189021393Y-88121393D01*
X189039117Y-88105329D01*
X189058330Y-88091079D01*
X189078847Y-88078782D01*
X189100471Y-88068554D01*
X189122993Y-88060496D01*
X189146197Y-88054684D01*
X189169858Y-88051174D01*
X189193750Y-88050000D01*
X189681250Y-88050000D01*
X189705142Y-88051174D01*
G37*
G36*
X187830142Y-83301174D02*
G01*
X187853803Y-83304684D01*
X187877007Y-83310496D01*
X187899529Y-83318554D01*
X187921153Y-83328782D01*
X187941670Y-83341079D01*
X187960883Y-83355329D01*
X187978607Y-83371393D01*
X187994671Y-83389117D01*
X188008921Y-83408330D01*
X188021218Y-83428847D01*
X188031446Y-83450471D01*
X188039504Y-83472993D01*
X188045316Y-83496197D01*
X188048826Y-83519858D01*
X188050000Y-83543750D01*
X188050000Y-84456250D01*
X188048826Y-84480142D01*
X188045316Y-84503803D01*
X188039504Y-84527007D01*
X188031446Y-84549529D01*
X188021218Y-84571153D01*
X188008921Y-84591670D01*
X187994671Y-84610883D01*
X187978607Y-84628607D01*
X187960883Y-84644671D01*
X187941670Y-84658921D01*
X187921153Y-84671218D01*
X187899529Y-84681446D01*
X187877007Y-84689504D01*
X187853803Y-84695316D01*
X187830142Y-84698826D01*
X187806250Y-84700000D01*
X187318750Y-84700000D01*
X187294858Y-84698826D01*
X187271197Y-84695316D01*
X187247993Y-84689504D01*
X187225471Y-84681446D01*
X187203847Y-84671218D01*
X187183330Y-84658921D01*
X187164117Y-84644671D01*
X187146393Y-84628607D01*
X187130329Y-84610883D01*
X187116079Y-84591670D01*
X187103782Y-84571153D01*
X187093554Y-84549529D01*
X187085496Y-84527007D01*
X187079684Y-84503803D01*
X187076174Y-84480142D01*
X187075000Y-84456250D01*
X187075000Y-83543750D01*
X187076174Y-83519858D01*
X187079684Y-83496197D01*
X187085496Y-83472993D01*
X187093554Y-83450471D01*
X187103782Y-83428847D01*
X187116079Y-83408330D01*
X187130329Y-83389117D01*
X187146393Y-83371393D01*
X187164117Y-83355329D01*
X187183330Y-83341079D01*
X187203847Y-83328782D01*
X187225471Y-83318554D01*
X187247993Y-83310496D01*
X187271197Y-83304684D01*
X187294858Y-83301174D01*
X187318750Y-83300000D01*
X187806250Y-83300000D01*
X187830142Y-83301174D01*
G37*
G36*
X189705142Y-83301174D02*
G01*
X189728803Y-83304684D01*
X189752007Y-83310496D01*
X189774529Y-83318554D01*
X189796153Y-83328782D01*
X189816670Y-83341079D01*
X189835883Y-83355329D01*
X189853607Y-83371393D01*
X189869671Y-83389117D01*
X189883921Y-83408330D01*
X189896218Y-83428847D01*
X189906446Y-83450471D01*
X189914504Y-83472993D01*
X189920316Y-83496197D01*
X189923826Y-83519858D01*
X189925000Y-83543750D01*
X189925000Y-84456250D01*
X189923826Y-84480142D01*
X189920316Y-84503803D01*
X189914504Y-84527007D01*
X189906446Y-84549529D01*
X189896218Y-84571153D01*
X189883921Y-84591670D01*
X189869671Y-84610883D01*
X189853607Y-84628607D01*
X189835883Y-84644671D01*
X189816670Y-84658921D01*
X189796153Y-84671218D01*
X189774529Y-84681446D01*
X189752007Y-84689504D01*
X189728803Y-84695316D01*
X189705142Y-84698826D01*
X189681250Y-84700000D01*
X189193750Y-84700000D01*
X189169858Y-84698826D01*
X189146197Y-84695316D01*
X189122993Y-84689504D01*
X189100471Y-84681446D01*
X189078847Y-84671218D01*
X189058330Y-84658921D01*
X189039117Y-84644671D01*
X189021393Y-84628607D01*
X189005329Y-84610883D01*
X188991079Y-84591670D01*
X188978782Y-84571153D01*
X188968554Y-84549529D01*
X188960496Y-84527007D01*
X188954684Y-84503803D01*
X188951174Y-84480142D01*
X188950000Y-84456250D01*
X188950000Y-83543750D01*
X188951174Y-83519858D01*
X188954684Y-83496197D01*
X188960496Y-83472993D01*
X188968554Y-83450471D01*
X188978782Y-83428847D01*
X188991079Y-83408330D01*
X189005329Y-83389117D01*
X189021393Y-83371393D01*
X189039117Y-83355329D01*
X189058330Y-83341079D01*
X189078847Y-83328782D01*
X189100471Y-83318554D01*
X189122993Y-83310496D01*
X189146197Y-83304684D01*
X189169858Y-83301174D01*
X189193750Y-83300000D01*
X189681250Y-83300000D01*
X189705142Y-83301174D01*
G37*
D12*
X133800000Y-94250000D03*
X138100000Y-94250000D03*
X161650000Y-87500000D03*
X157350000Y-87500000D03*
X161650000Y-94500000D03*
X157350000Y-94500000D03*
D10*
G36*
X133149504Y-86376204D02*
G01*
X133173773Y-86379804D01*
X133197571Y-86385765D01*
X133220671Y-86394030D01*
X133242849Y-86404520D01*
X133263893Y-86417133D01*
X133283598Y-86431747D01*
X133301777Y-86448223D01*
X133318253Y-86466402D01*
X133332867Y-86486107D01*
X133345480Y-86507151D01*
X133355970Y-86529329D01*
X133364235Y-86552429D01*
X133370196Y-86576227D01*
X133373796Y-86600496D01*
X133375000Y-86625000D01*
X133375000Y-88675000D01*
X133373796Y-88699504D01*
X133370196Y-88723773D01*
X133364235Y-88747571D01*
X133355970Y-88770671D01*
X133345480Y-88792849D01*
X133332867Y-88813893D01*
X133318253Y-88833598D01*
X133301777Y-88851777D01*
X133283598Y-88868253D01*
X133263893Y-88882867D01*
X133242849Y-88895480D01*
X133220671Y-88905970D01*
X133197571Y-88914235D01*
X133173773Y-88920196D01*
X133149504Y-88923796D01*
X133125000Y-88925000D01*
X131550000Y-88925000D01*
X131525496Y-88923796D01*
X131501227Y-88920196D01*
X131477429Y-88914235D01*
X131454329Y-88905970D01*
X131432151Y-88895480D01*
X131411107Y-88882867D01*
X131391402Y-88868253D01*
X131373223Y-88851777D01*
X131356747Y-88833598D01*
X131342133Y-88813893D01*
X131329520Y-88792849D01*
X131319030Y-88770671D01*
X131310765Y-88747571D01*
X131304804Y-88723773D01*
X131301204Y-88699504D01*
X131300000Y-88675000D01*
X131300000Y-86625000D01*
X131301204Y-86600496D01*
X131304804Y-86576227D01*
X131310765Y-86552429D01*
X131319030Y-86529329D01*
X131329520Y-86507151D01*
X131342133Y-86486107D01*
X131356747Y-86466402D01*
X131373223Y-86448223D01*
X131391402Y-86431747D01*
X131411107Y-86417133D01*
X131432151Y-86404520D01*
X131454329Y-86394030D01*
X131477429Y-86385765D01*
X131501227Y-86379804D01*
X131525496Y-86376204D01*
X131550000Y-86375000D01*
X133125000Y-86375000D01*
X133149504Y-86376204D01*
G37*
G36*
X139374504Y-86376204D02*
G01*
X139398773Y-86379804D01*
X139422571Y-86385765D01*
X139445671Y-86394030D01*
X139467849Y-86404520D01*
X139488893Y-86417133D01*
X139508598Y-86431747D01*
X139526777Y-86448223D01*
X139543253Y-86466402D01*
X139557867Y-86486107D01*
X139570480Y-86507151D01*
X139580970Y-86529329D01*
X139589235Y-86552429D01*
X139595196Y-86576227D01*
X139598796Y-86600496D01*
X139600000Y-86625000D01*
X139600000Y-88675000D01*
X139598796Y-88699504D01*
X139595196Y-88723773D01*
X139589235Y-88747571D01*
X139580970Y-88770671D01*
X139570480Y-88792849D01*
X139557867Y-88813893D01*
X139543253Y-88833598D01*
X139526777Y-88851777D01*
X139508598Y-88868253D01*
X139488893Y-88882867D01*
X139467849Y-88895480D01*
X139445671Y-88905970D01*
X139422571Y-88914235D01*
X139398773Y-88920196D01*
X139374504Y-88923796D01*
X139350000Y-88925000D01*
X137775000Y-88925000D01*
X137750496Y-88923796D01*
X137726227Y-88920196D01*
X137702429Y-88914235D01*
X137679329Y-88905970D01*
X137657151Y-88895480D01*
X137636107Y-88882867D01*
X137616402Y-88868253D01*
X137598223Y-88851777D01*
X137581747Y-88833598D01*
X137567133Y-88813893D01*
X137554520Y-88792849D01*
X137544030Y-88770671D01*
X137535765Y-88747571D01*
X137529804Y-88723773D01*
X137526204Y-88699504D01*
X137525000Y-88675000D01*
X137525000Y-86625000D01*
X137526204Y-86600496D01*
X137529804Y-86576227D01*
X137535765Y-86552429D01*
X137544030Y-86529329D01*
X137554520Y-86507151D01*
X137567133Y-86486107D01*
X137581747Y-86466402D01*
X137598223Y-86448223D01*
X137616402Y-86431747D01*
X137636107Y-86417133D01*
X137657151Y-86404520D01*
X137679329Y-86394030D01*
X137702429Y-86385765D01*
X137726227Y-86379804D01*
X137750496Y-86376204D01*
X137775000Y-86375000D01*
X139350000Y-86375000D01*
X139374504Y-86376204D01*
G37*
G36*
X144705142Y-102051174D02*
G01*
X144728803Y-102054684D01*
X144752007Y-102060496D01*
X144774529Y-102068554D01*
X144796153Y-102078782D01*
X144816670Y-102091079D01*
X144835883Y-102105329D01*
X144853607Y-102121393D01*
X144869671Y-102139117D01*
X144883921Y-102158330D01*
X144896218Y-102178847D01*
X144906446Y-102200471D01*
X144914504Y-102222993D01*
X144920316Y-102246197D01*
X144923826Y-102269858D01*
X144925000Y-102293750D01*
X144925000Y-103206250D01*
X144923826Y-103230142D01*
X144920316Y-103253803D01*
X144914504Y-103277007D01*
X144906446Y-103299529D01*
X144896218Y-103321153D01*
X144883921Y-103341670D01*
X144869671Y-103360883D01*
X144853607Y-103378607D01*
X144835883Y-103394671D01*
X144816670Y-103408921D01*
X144796153Y-103421218D01*
X144774529Y-103431446D01*
X144752007Y-103439504D01*
X144728803Y-103445316D01*
X144705142Y-103448826D01*
X144681250Y-103450000D01*
X144193750Y-103450000D01*
X144169858Y-103448826D01*
X144146197Y-103445316D01*
X144122993Y-103439504D01*
X144100471Y-103431446D01*
X144078847Y-103421218D01*
X144058330Y-103408921D01*
X144039117Y-103394671D01*
X144021393Y-103378607D01*
X144005329Y-103360883D01*
X143991079Y-103341670D01*
X143978782Y-103321153D01*
X143968554Y-103299529D01*
X143960496Y-103277007D01*
X143954684Y-103253803D01*
X143951174Y-103230142D01*
X143950000Y-103206250D01*
X143950000Y-102293750D01*
X143951174Y-102269858D01*
X143954684Y-102246197D01*
X143960496Y-102222993D01*
X143968554Y-102200471D01*
X143978782Y-102178847D01*
X143991079Y-102158330D01*
X144005329Y-102139117D01*
X144021393Y-102121393D01*
X144039117Y-102105329D01*
X144058330Y-102091079D01*
X144078847Y-102078782D01*
X144100471Y-102068554D01*
X144122993Y-102060496D01*
X144146197Y-102054684D01*
X144169858Y-102051174D01*
X144193750Y-102050000D01*
X144681250Y-102050000D01*
X144705142Y-102051174D01*
G37*
G36*
X142830142Y-102051174D02*
G01*
X142853803Y-102054684D01*
X142877007Y-102060496D01*
X142899529Y-102068554D01*
X142921153Y-102078782D01*
X142941670Y-102091079D01*
X142960883Y-102105329D01*
X142978607Y-102121393D01*
X142994671Y-102139117D01*
X143008921Y-102158330D01*
X143021218Y-102178847D01*
X143031446Y-102200471D01*
X143039504Y-102222993D01*
X143045316Y-102246197D01*
X143048826Y-102269858D01*
X143050000Y-102293750D01*
X143050000Y-103206250D01*
X143048826Y-103230142D01*
X143045316Y-103253803D01*
X143039504Y-103277007D01*
X143031446Y-103299529D01*
X143021218Y-103321153D01*
X143008921Y-103341670D01*
X142994671Y-103360883D01*
X142978607Y-103378607D01*
X142960883Y-103394671D01*
X142941670Y-103408921D01*
X142921153Y-103421218D01*
X142899529Y-103431446D01*
X142877007Y-103439504D01*
X142853803Y-103445316D01*
X142830142Y-103448826D01*
X142806250Y-103450000D01*
X142318750Y-103450000D01*
X142294858Y-103448826D01*
X142271197Y-103445316D01*
X142247993Y-103439504D01*
X142225471Y-103431446D01*
X142203847Y-103421218D01*
X142183330Y-103408921D01*
X142164117Y-103394671D01*
X142146393Y-103378607D01*
X142130329Y-103360883D01*
X142116079Y-103341670D01*
X142103782Y-103321153D01*
X142093554Y-103299529D01*
X142085496Y-103277007D01*
X142079684Y-103253803D01*
X142076174Y-103230142D01*
X142075000Y-103206250D01*
X142075000Y-102293750D01*
X142076174Y-102269858D01*
X142079684Y-102246197D01*
X142085496Y-102222993D01*
X142093554Y-102200471D01*
X142103782Y-102178847D01*
X142116079Y-102158330D01*
X142130329Y-102139117D01*
X142146393Y-102121393D01*
X142164117Y-102105329D01*
X142183330Y-102091079D01*
X142203847Y-102078782D01*
X142225471Y-102068554D01*
X142247993Y-102060496D01*
X142271197Y-102054684D01*
X142294858Y-102051174D01*
X142318750Y-102050000D01*
X142806250Y-102050000D01*
X142830142Y-102051174D01*
G37*
G36*
X144705142Y-99451174D02*
G01*
X144728803Y-99454684D01*
X144752007Y-99460496D01*
X144774529Y-99468554D01*
X144796153Y-99478782D01*
X144816670Y-99491079D01*
X144835883Y-99505329D01*
X144853607Y-99521393D01*
X144869671Y-99539117D01*
X144883921Y-99558330D01*
X144896218Y-99578847D01*
X144906446Y-99600471D01*
X144914504Y-99622993D01*
X144920316Y-99646197D01*
X144923826Y-99669858D01*
X144925000Y-99693750D01*
X144925000Y-100606250D01*
X144923826Y-100630142D01*
X144920316Y-100653803D01*
X144914504Y-100677007D01*
X144906446Y-100699529D01*
X144896218Y-100721153D01*
X144883921Y-100741670D01*
X144869671Y-100760883D01*
X144853607Y-100778607D01*
X144835883Y-100794671D01*
X144816670Y-100808921D01*
X144796153Y-100821218D01*
X144774529Y-100831446D01*
X144752007Y-100839504D01*
X144728803Y-100845316D01*
X144705142Y-100848826D01*
X144681250Y-100850000D01*
X144193750Y-100850000D01*
X144169858Y-100848826D01*
X144146197Y-100845316D01*
X144122993Y-100839504D01*
X144100471Y-100831446D01*
X144078847Y-100821218D01*
X144058330Y-100808921D01*
X144039117Y-100794671D01*
X144021393Y-100778607D01*
X144005329Y-100760883D01*
X143991079Y-100741670D01*
X143978782Y-100721153D01*
X143968554Y-100699529D01*
X143960496Y-100677007D01*
X143954684Y-100653803D01*
X143951174Y-100630142D01*
X143950000Y-100606250D01*
X143950000Y-99693750D01*
X143951174Y-99669858D01*
X143954684Y-99646197D01*
X143960496Y-99622993D01*
X143968554Y-99600471D01*
X143978782Y-99578847D01*
X143991079Y-99558330D01*
X144005329Y-99539117D01*
X144021393Y-99521393D01*
X144039117Y-99505329D01*
X144058330Y-99491079D01*
X144078847Y-99478782D01*
X144100471Y-99468554D01*
X144122993Y-99460496D01*
X144146197Y-99454684D01*
X144169858Y-99451174D01*
X144193750Y-99450000D01*
X144681250Y-99450000D01*
X144705142Y-99451174D01*
G37*
G36*
X142830142Y-99451174D02*
G01*
X142853803Y-99454684D01*
X142877007Y-99460496D01*
X142899529Y-99468554D01*
X142921153Y-99478782D01*
X142941670Y-99491079D01*
X142960883Y-99505329D01*
X142978607Y-99521393D01*
X142994671Y-99539117D01*
X143008921Y-99558330D01*
X143021218Y-99578847D01*
X143031446Y-99600471D01*
X143039504Y-99622993D01*
X143045316Y-99646197D01*
X143048826Y-99669858D01*
X143050000Y-99693750D01*
X143050000Y-100606250D01*
X143048826Y-100630142D01*
X143045316Y-100653803D01*
X143039504Y-100677007D01*
X143031446Y-100699529D01*
X143021218Y-100721153D01*
X143008921Y-100741670D01*
X142994671Y-100760883D01*
X142978607Y-100778607D01*
X142960883Y-100794671D01*
X142941670Y-100808921D01*
X142921153Y-100821218D01*
X142899529Y-100831446D01*
X142877007Y-100839504D01*
X142853803Y-100845316D01*
X142830142Y-100848826D01*
X142806250Y-100850000D01*
X142318750Y-100850000D01*
X142294858Y-100848826D01*
X142271197Y-100845316D01*
X142247993Y-100839504D01*
X142225471Y-100831446D01*
X142203847Y-100821218D01*
X142183330Y-100808921D01*
X142164117Y-100794671D01*
X142146393Y-100778607D01*
X142130329Y-100760883D01*
X142116079Y-100741670D01*
X142103782Y-100721153D01*
X142093554Y-100699529D01*
X142085496Y-100677007D01*
X142079684Y-100653803D01*
X142076174Y-100630142D01*
X142075000Y-100606250D01*
X142075000Y-99693750D01*
X142076174Y-99669858D01*
X142079684Y-99646197D01*
X142085496Y-99622993D01*
X142093554Y-99600471D01*
X142103782Y-99578847D01*
X142116079Y-99558330D01*
X142130329Y-99539117D01*
X142146393Y-99521393D01*
X142164117Y-99505329D01*
X142183330Y-99491079D01*
X142203847Y-99478782D01*
X142225471Y-99468554D01*
X142247993Y-99460496D01*
X142271197Y-99454684D01*
X142294858Y-99451174D01*
X142318750Y-99450000D01*
X142806250Y-99450000D01*
X142830142Y-99451174D01*
G37*
G36*
X129955142Y-94801174D02*
G01*
X129978803Y-94804684D01*
X130002007Y-94810496D01*
X130024529Y-94818554D01*
X130046153Y-94828782D01*
X130066670Y-94841079D01*
X130085883Y-94855329D01*
X130103607Y-94871393D01*
X130119671Y-94889117D01*
X130133921Y-94908330D01*
X130146218Y-94928847D01*
X130156446Y-94950471D01*
X130164504Y-94972993D01*
X130170316Y-94996197D01*
X130173826Y-95019858D01*
X130175000Y-95043750D01*
X130175000Y-95956250D01*
X130173826Y-95980142D01*
X130170316Y-96003803D01*
X130164504Y-96027007D01*
X130156446Y-96049529D01*
X130146218Y-96071153D01*
X130133921Y-96091670D01*
X130119671Y-96110883D01*
X130103607Y-96128607D01*
X130085883Y-96144671D01*
X130066670Y-96158921D01*
X130046153Y-96171218D01*
X130024529Y-96181446D01*
X130002007Y-96189504D01*
X129978803Y-96195316D01*
X129955142Y-96198826D01*
X129931250Y-96200000D01*
X129443750Y-96200000D01*
X129419858Y-96198826D01*
X129396197Y-96195316D01*
X129372993Y-96189504D01*
X129350471Y-96181446D01*
X129328847Y-96171218D01*
X129308330Y-96158921D01*
X129289117Y-96144671D01*
X129271393Y-96128607D01*
X129255329Y-96110883D01*
X129241079Y-96091670D01*
X129228782Y-96071153D01*
X129218554Y-96049529D01*
X129210496Y-96027007D01*
X129204684Y-96003803D01*
X129201174Y-95980142D01*
X129200000Y-95956250D01*
X129200000Y-95043750D01*
X129201174Y-95019858D01*
X129204684Y-94996197D01*
X129210496Y-94972993D01*
X129218554Y-94950471D01*
X129228782Y-94928847D01*
X129241079Y-94908330D01*
X129255329Y-94889117D01*
X129271393Y-94871393D01*
X129289117Y-94855329D01*
X129308330Y-94841079D01*
X129328847Y-94828782D01*
X129350471Y-94818554D01*
X129372993Y-94810496D01*
X129396197Y-94804684D01*
X129419858Y-94801174D01*
X129443750Y-94800000D01*
X129931250Y-94800000D01*
X129955142Y-94801174D01*
G37*
G36*
X128080142Y-94801174D02*
G01*
X128103803Y-94804684D01*
X128127007Y-94810496D01*
X128149529Y-94818554D01*
X128171153Y-94828782D01*
X128191670Y-94841079D01*
X128210883Y-94855329D01*
X128228607Y-94871393D01*
X128244671Y-94889117D01*
X128258921Y-94908330D01*
X128271218Y-94928847D01*
X128281446Y-94950471D01*
X128289504Y-94972993D01*
X128295316Y-94996197D01*
X128298826Y-95019858D01*
X128300000Y-95043750D01*
X128300000Y-95956250D01*
X128298826Y-95980142D01*
X128295316Y-96003803D01*
X128289504Y-96027007D01*
X128281446Y-96049529D01*
X128271218Y-96071153D01*
X128258921Y-96091670D01*
X128244671Y-96110883D01*
X128228607Y-96128607D01*
X128210883Y-96144671D01*
X128191670Y-96158921D01*
X128171153Y-96171218D01*
X128149529Y-96181446D01*
X128127007Y-96189504D01*
X128103803Y-96195316D01*
X128080142Y-96198826D01*
X128056250Y-96200000D01*
X127568750Y-96200000D01*
X127544858Y-96198826D01*
X127521197Y-96195316D01*
X127497993Y-96189504D01*
X127475471Y-96181446D01*
X127453847Y-96171218D01*
X127433330Y-96158921D01*
X127414117Y-96144671D01*
X127396393Y-96128607D01*
X127380329Y-96110883D01*
X127366079Y-96091670D01*
X127353782Y-96071153D01*
X127343554Y-96049529D01*
X127335496Y-96027007D01*
X127329684Y-96003803D01*
X127326174Y-95980142D01*
X127325000Y-95956250D01*
X127325000Y-95043750D01*
X127326174Y-95019858D01*
X127329684Y-94996197D01*
X127335496Y-94972993D01*
X127343554Y-94950471D01*
X127353782Y-94928847D01*
X127366079Y-94908330D01*
X127380329Y-94889117D01*
X127396393Y-94871393D01*
X127414117Y-94855329D01*
X127433330Y-94841079D01*
X127453847Y-94828782D01*
X127475471Y-94818554D01*
X127497993Y-94810496D01*
X127521197Y-94804684D01*
X127544858Y-94801174D01*
X127568750Y-94800000D01*
X128056250Y-94800000D01*
X128080142Y-94801174D01*
G37*
G36*
X134705142Y-104551174D02*
G01*
X134728803Y-104554684D01*
X134752007Y-104560496D01*
X134774529Y-104568554D01*
X134796153Y-104578782D01*
X134816670Y-104591079D01*
X134835883Y-104605329D01*
X134853607Y-104621393D01*
X134869671Y-104639117D01*
X134883921Y-104658330D01*
X134896218Y-104678847D01*
X134906446Y-104700471D01*
X134914504Y-104722993D01*
X134920316Y-104746197D01*
X134923826Y-104769858D01*
X134925000Y-104793750D01*
X134925000Y-105706250D01*
X134923826Y-105730142D01*
X134920316Y-105753803D01*
X134914504Y-105777007D01*
X134906446Y-105799529D01*
X134896218Y-105821153D01*
X134883921Y-105841670D01*
X134869671Y-105860883D01*
X134853607Y-105878607D01*
X134835883Y-105894671D01*
X134816670Y-105908921D01*
X134796153Y-105921218D01*
X134774529Y-105931446D01*
X134752007Y-105939504D01*
X134728803Y-105945316D01*
X134705142Y-105948826D01*
X134681250Y-105950000D01*
X134193750Y-105950000D01*
X134169858Y-105948826D01*
X134146197Y-105945316D01*
X134122993Y-105939504D01*
X134100471Y-105931446D01*
X134078847Y-105921218D01*
X134058330Y-105908921D01*
X134039117Y-105894671D01*
X134021393Y-105878607D01*
X134005329Y-105860883D01*
X133991079Y-105841670D01*
X133978782Y-105821153D01*
X133968554Y-105799529D01*
X133960496Y-105777007D01*
X133954684Y-105753803D01*
X133951174Y-105730142D01*
X133950000Y-105706250D01*
X133950000Y-104793750D01*
X133951174Y-104769858D01*
X133954684Y-104746197D01*
X133960496Y-104722993D01*
X133968554Y-104700471D01*
X133978782Y-104678847D01*
X133991079Y-104658330D01*
X134005329Y-104639117D01*
X134021393Y-104621393D01*
X134039117Y-104605329D01*
X134058330Y-104591079D01*
X134078847Y-104578782D01*
X134100471Y-104568554D01*
X134122993Y-104560496D01*
X134146197Y-104554684D01*
X134169858Y-104551174D01*
X134193750Y-104550000D01*
X134681250Y-104550000D01*
X134705142Y-104551174D01*
G37*
G36*
X132830142Y-104551174D02*
G01*
X132853803Y-104554684D01*
X132877007Y-104560496D01*
X132899529Y-104568554D01*
X132921153Y-104578782D01*
X132941670Y-104591079D01*
X132960883Y-104605329D01*
X132978607Y-104621393D01*
X132994671Y-104639117D01*
X133008921Y-104658330D01*
X133021218Y-104678847D01*
X133031446Y-104700471D01*
X133039504Y-104722993D01*
X133045316Y-104746197D01*
X133048826Y-104769858D01*
X133050000Y-104793750D01*
X133050000Y-105706250D01*
X133048826Y-105730142D01*
X133045316Y-105753803D01*
X133039504Y-105777007D01*
X133031446Y-105799529D01*
X133021218Y-105821153D01*
X133008921Y-105841670D01*
X132994671Y-105860883D01*
X132978607Y-105878607D01*
X132960883Y-105894671D01*
X132941670Y-105908921D01*
X132921153Y-105921218D01*
X132899529Y-105931446D01*
X132877007Y-105939504D01*
X132853803Y-105945316D01*
X132830142Y-105948826D01*
X132806250Y-105950000D01*
X132318750Y-105950000D01*
X132294858Y-105948826D01*
X132271197Y-105945316D01*
X132247993Y-105939504D01*
X132225471Y-105931446D01*
X132203847Y-105921218D01*
X132183330Y-105908921D01*
X132164117Y-105894671D01*
X132146393Y-105878607D01*
X132130329Y-105860883D01*
X132116079Y-105841670D01*
X132103782Y-105821153D01*
X132093554Y-105799529D01*
X132085496Y-105777007D01*
X132079684Y-105753803D01*
X132076174Y-105730142D01*
X132075000Y-105706250D01*
X132075000Y-104793750D01*
X132076174Y-104769858D01*
X132079684Y-104746197D01*
X132085496Y-104722993D01*
X132093554Y-104700471D01*
X132103782Y-104678847D01*
X132116079Y-104658330D01*
X132130329Y-104639117D01*
X132146393Y-104621393D01*
X132164117Y-104605329D01*
X132183330Y-104591079D01*
X132203847Y-104578782D01*
X132225471Y-104568554D01*
X132247993Y-104560496D01*
X132271197Y-104554684D01*
X132294858Y-104551174D01*
X132318750Y-104550000D01*
X132806250Y-104550000D01*
X132830142Y-104551174D01*
G37*
G36*
X128080142Y-99551174D02*
G01*
X128103803Y-99554684D01*
X128127007Y-99560496D01*
X128149529Y-99568554D01*
X128171153Y-99578782D01*
X128191670Y-99591079D01*
X128210883Y-99605329D01*
X128228607Y-99621393D01*
X128244671Y-99639117D01*
X128258921Y-99658330D01*
X128271218Y-99678847D01*
X128281446Y-99700471D01*
X128289504Y-99722993D01*
X128295316Y-99746197D01*
X128298826Y-99769858D01*
X128300000Y-99793750D01*
X128300000Y-100706250D01*
X128298826Y-100730142D01*
X128295316Y-100753803D01*
X128289504Y-100777007D01*
X128281446Y-100799529D01*
X128271218Y-100821153D01*
X128258921Y-100841670D01*
X128244671Y-100860883D01*
X128228607Y-100878607D01*
X128210883Y-100894671D01*
X128191670Y-100908921D01*
X128171153Y-100921218D01*
X128149529Y-100931446D01*
X128127007Y-100939504D01*
X128103803Y-100945316D01*
X128080142Y-100948826D01*
X128056250Y-100950000D01*
X127568750Y-100950000D01*
X127544858Y-100948826D01*
X127521197Y-100945316D01*
X127497993Y-100939504D01*
X127475471Y-100931446D01*
X127453847Y-100921218D01*
X127433330Y-100908921D01*
X127414117Y-100894671D01*
X127396393Y-100878607D01*
X127380329Y-100860883D01*
X127366079Y-100841670D01*
X127353782Y-100821153D01*
X127343554Y-100799529D01*
X127335496Y-100777007D01*
X127329684Y-100753803D01*
X127326174Y-100730142D01*
X127325000Y-100706250D01*
X127325000Y-99793750D01*
X127326174Y-99769858D01*
X127329684Y-99746197D01*
X127335496Y-99722993D01*
X127343554Y-99700471D01*
X127353782Y-99678847D01*
X127366079Y-99658330D01*
X127380329Y-99639117D01*
X127396393Y-99621393D01*
X127414117Y-99605329D01*
X127433330Y-99591079D01*
X127453847Y-99578782D01*
X127475471Y-99568554D01*
X127497993Y-99560496D01*
X127521197Y-99554684D01*
X127544858Y-99551174D01*
X127568750Y-99550000D01*
X128056250Y-99550000D01*
X128080142Y-99551174D01*
G37*
G36*
X129955142Y-99551174D02*
G01*
X129978803Y-99554684D01*
X130002007Y-99560496D01*
X130024529Y-99568554D01*
X130046153Y-99578782D01*
X130066670Y-99591079D01*
X130085883Y-99605329D01*
X130103607Y-99621393D01*
X130119671Y-99639117D01*
X130133921Y-99658330D01*
X130146218Y-99678847D01*
X130156446Y-99700471D01*
X130164504Y-99722993D01*
X130170316Y-99746197D01*
X130173826Y-99769858D01*
X130175000Y-99793750D01*
X130175000Y-100706250D01*
X130173826Y-100730142D01*
X130170316Y-100753803D01*
X130164504Y-100777007D01*
X130156446Y-100799529D01*
X130146218Y-100821153D01*
X130133921Y-100841670D01*
X130119671Y-100860883D01*
X130103607Y-100878607D01*
X130085883Y-100894671D01*
X130066670Y-100908921D01*
X130046153Y-100921218D01*
X130024529Y-100931446D01*
X130002007Y-100939504D01*
X129978803Y-100945316D01*
X129955142Y-100948826D01*
X129931250Y-100950000D01*
X129443750Y-100950000D01*
X129419858Y-100948826D01*
X129396197Y-100945316D01*
X129372993Y-100939504D01*
X129350471Y-100931446D01*
X129328847Y-100921218D01*
X129308330Y-100908921D01*
X129289117Y-100894671D01*
X129271393Y-100878607D01*
X129255329Y-100860883D01*
X129241079Y-100841670D01*
X129228782Y-100821153D01*
X129218554Y-100799529D01*
X129210496Y-100777007D01*
X129204684Y-100753803D01*
X129201174Y-100730142D01*
X129200000Y-100706250D01*
X129200000Y-99793750D01*
X129201174Y-99769858D01*
X129204684Y-99746197D01*
X129210496Y-99722993D01*
X129218554Y-99700471D01*
X129228782Y-99678847D01*
X129241079Y-99658330D01*
X129255329Y-99639117D01*
X129271393Y-99621393D01*
X129289117Y-99605329D01*
X129308330Y-99591079D01*
X129328847Y-99578782D01*
X129350471Y-99568554D01*
X129372993Y-99560496D01*
X129396197Y-99554684D01*
X129419858Y-99551174D01*
X129443750Y-99550000D01*
X129931250Y-99550000D01*
X129955142Y-99551174D01*
G37*
G36*
X120074504Y-96951204D02*
G01*
X120098773Y-96954804D01*
X120122571Y-96960765D01*
X120145671Y-96969030D01*
X120167849Y-96979520D01*
X120188893Y-96992133D01*
X120208598Y-97006747D01*
X120226777Y-97023223D01*
X120243253Y-97041402D01*
X120257867Y-97061107D01*
X120270480Y-97082151D01*
X120280970Y-97104329D01*
X120289235Y-97127429D01*
X120295196Y-97151227D01*
X120298796Y-97175496D01*
X120300000Y-97200000D01*
X120300000Y-98300000D01*
X120298796Y-98324504D01*
X120295196Y-98348773D01*
X120289235Y-98372571D01*
X120280970Y-98395671D01*
X120270480Y-98417849D01*
X120257867Y-98438893D01*
X120243253Y-98458598D01*
X120226777Y-98476777D01*
X120208598Y-98493253D01*
X120188893Y-98507867D01*
X120167849Y-98520480D01*
X120145671Y-98530970D01*
X120122571Y-98539235D01*
X120098773Y-98545196D01*
X120074504Y-98548796D01*
X120050000Y-98550000D01*
X117550000Y-98550000D01*
X117525496Y-98548796D01*
X117501227Y-98545196D01*
X117477429Y-98539235D01*
X117454329Y-98530970D01*
X117432151Y-98520480D01*
X117411107Y-98507867D01*
X117391402Y-98493253D01*
X117373223Y-98476777D01*
X117356747Y-98458598D01*
X117342133Y-98438893D01*
X117329520Y-98417849D01*
X117319030Y-98395671D01*
X117310765Y-98372571D01*
X117304804Y-98348773D01*
X117301204Y-98324504D01*
X117300000Y-98300000D01*
X117300000Y-97200000D01*
X117301204Y-97175496D01*
X117304804Y-97151227D01*
X117310765Y-97127429D01*
X117319030Y-97104329D01*
X117329520Y-97082151D01*
X117342133Y-97061107D01*
X117356747Y-97041402D01*
X117373223Y-97023223D01*
X117391402Y-97006747D01*
X117411107Y-96992133D01*
X117432151Y-96979520D01*
X117454329Y-96969030D01*
X117477429Y-96960765D01*
X117501227Y-96954804D01*
X117525496Y-96951204D01*
X117550000Y-96950000D01*
X120050000Y-96950000D01*
X120074504Y-96951204D01*
G37*
G36*
X124474504Y-96951204D02*
G01*
X124498773Y-96954804D01*
X124522571Y-96960765D01*
X124545671Y-96969030D01*
X124567849Y-96979520D01*
X124588893Y-96992133D01*
X124608598Y-97006747D01*
X124626777Y-97023223D01*
X124643253Y-97041402D01*
X124657867Y-97061107D01*
X124670480Y-97082151D01*
X124680970Y-97104329D01*
X124689235Y-97127429D01*
X124695196Y-97151227D01*
X124698796Y-97175496D01*
X124700000Y-97200000D01*
X124700000Y-98300000D01*
X124698796Y-98324504D01*
X124695196Y-98348773D01*
X124689235Y-98372571D01*
X124680970Y-98395671D01*
X124670480Y-98417849D01*
X124657867Y-98438893D01*
X124643253Y-98458598D01*
X124626777Y-98476777D01*
X124608598Y-98493253D01*
X124588893Y-98507867D01*
X124567849Y-98520480D01*
X124545671Y-98530970D01*
X124522571Y-98539235D01*
X124498773Y-98545196D01*
X124474504Y-98548796D01*
X124450000Y-98550000D01*
X121950000Y-98550000D01*
X121925496Y-98548796D01*
X121901227Y-98545196D01*
X121877429Y-98539235D01*
X121854329Y-98530970D01*
X121832151Y-98520480D01*
X121811107Y-98507867D01*
X121791402Y-98493253D01*
X121773223Y-98476777D01*
X121756747Y-98458598D01*
X121742133Y-98438893D01*
X121729520Y-98417849D01*
X121719030Y-98395671D01*
X121710765Y-98372571D01*
X121704804Y-98348773D01*
X121701204Y-98324504D01*
X121700000Y-98300000D01*
X121700000Y-97200000D01*
X121701204Y-97175496D01*
X121704804Y-97151227D01*
X121710765Y-97127429D01*
X121719030Y-97104329D01*
X121729520Y-97082151D01*
X121742133Y-97061107D01*
X121756747Y-97041402D01*
X121773223Y-97023223D01*
X121791402Y-97006747D01*
X121811107Y-96992133D01*
X121832151Y-96979520D01*
X121854329Y-96969030D01*
X121877429Y-96960765D01*
X121901227Y-96954804D01*
X121925496Y-96951204D01*
X121950000Y-96950000D01*
X124450000Y-96950000D01*
X124474504Y-96951204D01*
G37*
M02*
