G04 #@! TF.GenerationSoftware,KiCad,Pcbnew,5.1.5-52549c5~86~ubuntu18.04.1*
G04 #@! TF.CreationDate,2020-09-04T15:06:53-03:00*
G04 #@! TF.ProjectId,TPS54331,54505335-3433-4333-912e-6b696361645f,v1.0*
G04 #@! TF.SameCoordinates,Original*
G04 #@! TF.FileFunction,Copper,L2,Bot*
G04 #@! TF.FilePolarity,Positive*
%FSLAX46Y46*%
G04 Gerber Fmt 4.6, Leading zero omitted, Abs format (unit mm)*
G04 Created by KiCad (PCBNEW 5.1.5-52549c5~86~ubuntu18.04.1) date 2020-09-04 15:06:53*
%MOMM*%
%LPD*%
G04 APERTURE LIST*
%ADD10C,3.000000*%
%ADD11R,3.000000X3.000000*%
%ADD12O,3.000000X5.000000*%
%ADD13C,2.000000*%
%ADD14R,2.000000X2.000000*%
%ADD15C,1.750000*%
%ADD16R,1.750000X1.750000*%
%ADD17C,2.800000*%
%ADD18O,2.000000X4.000000*%
%ADD19O,4.000000X2.000000*%
%ADD20O,4.500000X2.000000*%
%ADD21C,6.400000*%
%ADD22C,0.800000*%
%ADD23C,1.000000*%
%ADD24C,0.250000*%
%ADD25C,0.200000*%
G04 APERTURE END LIST*
D10*
X160000000Y-109500000D03*
D11*
X155000000Y-109500000D03*
X138000000Y-109500000D03*
D10*
X143000000Y-109500000D03*
X148000000Y-109500000D03*
D11*
X121000000Y-109500000D03*
D10*
X126000000Y-109500000D03*
X131000000Y-109500000D03*
X114000000Y-109500000D03*
D11*
X109000000Y-109500000D03*
D12*
X178050000Y-99500000D03*
X166450000Y-99500000D03*
D13*
X176000000Y-110500000D03*
X173500000Y-110500000D03*
X171000000Y-110500000D03*
D14*
X168500000Y-110500000D03*
D15*
X190500000Y-97000000D03*
X188500000Y-97000000D03*
X186500000Y-97000000D03*
X190500000Y-102000000D03*
X188500000Y-102000000D03*
D16*
X186500000Y-102000000D03*
D17*
X156300000Y-81900000D03*
X152100000Y-81900000D03*
X147900000Y-81900000D03*
X143700000Y-81900000D03*
X139500000Y-81900000D03*
X135300000Y-81900000D03*
X131100000Y-81900000D03*
X126900000Y-81900000D03*
X122700000Y-81900000D03*
X118500000Y-81900000D03*
X114300000Y-81900000D03*
X110100000Y-81900000D03*
X156300000Y-76400000D03*
X152100000Y-76400000D03*
X147900000Y-76400000D03*
X143700000Y-76400000D03*
X139500000Y-76400000D03*
X135300000Y-76400000D03*
X131100000Y-76400000D03*
X126900000Y-76400000D03*
X122700000Y-76400000D03*
X118500000Y-76400000D03*
X114300000Y-76400000D03*
X110100000Y-76400000D03*
D18*
X168800000Y-73200000D03*
D19*
X173500000Y-70200000D03*
D20*
X173500000Y-76200000D03*
D21*
X100000000Y-112000000D03*
X192000000Y-112000000D03*
X192000000Y-70000000D03*
X100000000Y-70000000D03*
D22*
X134800000Y-97300000D03*
X133500000Y-97300000D03*
X132300000Y-97300000D03*
X136100000Y-97300000D03*
X134800000Y-103800000D03*
X133500000Y-103800000D03*
X132300000Y-103800000D03*
X136100000Y-103800000D03*
X137400000Y-103800000D03*
X138700000Y-103800000D03*
X134800000Y-99700000D03*
X134800000Y-101700000D03*
X136100000Y-99700000D03*
X136100000Y-101700000D03*
X136100000Y-100700000D03*
X134800000Y-100700000D03*
X125750000Y-98400000D03*
X125750000Y-97150000D03*
X156750000Y-91000000D03*
X158000000Y-91000000D03*
X125750000Y-101500000D03*
X164250000Y-90500000D03*
X164250000Y-91750000D03*
X157500008Y-113500000D03*
X158749996Y-113500000D03*
X117000000Y-87250000D03*
X118250000Y-87250000D03*
X127750000Y-93750000D03*
X140250000Y-93500000D03*
X152000000Y-102750000D03*
D23*
X156750000Y-91000000D02*
X158000000Y-91000000D01*
X126500000Y-91000000D02*
X156750000Y-91000000D01*
X125750000Y-97150000D02*
X125750000Y-91750000D01*
X125750000Y-91750000D02*
X126500000Y-91000000D01*
X125750000Y-97150000D02*
X125750000Y-98400000D01*
D24*
X125750000Y-98400000D02*
X125750000Y-101500000D01*
D23*
X138875000Y-113500000D02*
X158184311Y-113500000D01*
X158184311Y-113500000D02*
X158749996Y-113500000D01*
X138000000Y-109500000D02*
X138000000Y-112625000D01*
X138000000Y-112625000D02*
X138875000Y-113500000D01*
X152100000Y-78850000D02*
X152100000Y-76400000D01*
X152500000Y-79250000D02*
X152100000Y-78850000D01*
X163000000Y-79250000D02*
X152500000Y-79250000D01*
X164250000Y-91750000D02*
X164250000Y-80500000D01*
X164250000Y-80500000D02*
X163000000Y-79250000D01*
X152100000Y-76400000D02*
X147900000Y-76400000D01*
X131100000Y-79250000D02*
X122750000Y-79250000D01*
X120600000Y-86650000D02*
X120000000Y-87250000D01*
X120600000Y-80150000D02*
X120600000Y-86650000D01*
X122750000Y-79250000D02*
X121500000Y-79250000D01*
X121500000Y-79250000D02*
X120600000Y-80150000D01*
X117000000Y-87250000D02*
X118250000Y-87250000D01*
X118250000Y-87250000D02*
X120000000Y-87250000D01*
X152100000Y-81900000D02*
X147900000Y-81900000D01*
X143000000Y-79250000D02*
X131100000Y-79250000D01*
X143700000Y-79950000D02*
X143000000Y-79250000D01*
X147900000Y-81900000D02*
X143700000Y-81900000D01*
X143700000Y-81900000D02*
X143700000Y-79950000D01*
X122700000Y-76400000D02*
X122700000Y-76450000D01*
X122750000Y-79250000D02*
X122700000Y-76400000D01*
X131100000Y-76400000D02*
X131100000Y-79250000D01*
X109000000Y-107000000D02*
X109000000Y-109500000D01*
X110100000Y-105900000D02*
X109000000Y-107000000D01*
X110100000Y-81900000D02*
X110100000Y-105900000D01*
X110100000Y-76400000D02*
X110100000Y-81900000D01*
X114300000Y-76400000D02*
X110100000Y-76400000D01*
X114300000Y-74000000D02*
X114300000Y-76400000D01*
X115050000Y-73250000D02*
X114300000Y-74000000D01*
X155079898Y-73250000D02*
X115050000Y-73250000D01*
X156300000Y-76400000D02*
X156300000Y-74470102D01*
X156300000Y-74470102D02*
X155079898Y-73250000D01*
D24*
X140250000Y-92250000D02*
X140250000Y-93500000D01*
X140000000Y-92000000D02*
X140250000Y-92250000D01*
X131250000Y-92250000D02*
X131500000Y-92000000D01*
X131250000Y-93500000D02*
X131250000Y-92250000D01*
X131500000Y-92000000D02*
X140000000Y-92000000D01*
X127750000Y-93750000D02*
X131000000Y-93750000D01*
X131000000Y-93750000D02*
X131250000Y-93500000D01*
X168500000Y-110500000D02*
X171000000Y-110500000D01*
X168500000Y-103250000D02*
X168500000Y-110500000D01*
X152000000Y-102750000D02*
X168000000Y-102750000D01*
X168000000Y-102750000D02*
X168500000Y-103250000D01*
D25*
G36*
X190759305Y-66709179D02*
G01*
X190141137Y-67014459D01*
X189953075Y-67140117D01*
X189583926Y-67548571D01*
X192000000Y-69964645D01*
X192014143Y-69950503D01*
X192049498Y-69985858D01*
X192035355Y-70000000D01*
X194451429Y-72416074D01*
X194859883Y-72046925D01*
X195204266Y-71449659D01*
X195400000Y-70871977D01*
X195400000Y-111165849D01*
X195290821Y-110759305D01*
X194985541Y-110141137D01*
X194859883Y-109953075D01*
X194451429Y-109583926D01*
X192035355Y-112000000D01*
X192049498Y-112014143D01*
X192014143Y-112049498D01*
X192000000Y-112035355D01*
X189583926Y-114451429D01*
X189953075Y-114859883D01*
X190550341Y-115204266D01*
X191128023Y-115400000D01*
X100834151Y-115400000D01*
X101240695Y-115290821D01*
X101858863Y-114985541D01*
X102046925Y-114859883D01*
X102416074Y-114451429D01*
X100000000Y-112035355D01*
X99985858Y-112049498D01*
X99950503Y-112014143D01*
X99964645Y-112000000D01*
X100035355Y-112000000D01*
X102451429Y-114416074D01*
X102859883Y-114046925D01*
X103204266Y-113449659D01*
X103425512Y-112796682D01*
X103515116Y-112113090D01*
X103469637Y-111425152D01*
X103290821Y-110759305D01*
X102985541Y-110141137D01*
X102859883Y-109953075D01*
X102451429Y-109583926D01*
X100035355Y-112000000D01*
X99964645Y-112000000D01*
X97548571Y-109583926D01*
X97140117Y-109953075D01*
X96795734Y-110550341D01*
X96600000Y-111128023D01*
X96600000Y-109548571D01*
X97583926Y-109548571D01*
X100000000Y-111964645D01*
X102416074Y-109548571D01*
X102046925Y-109140117D01*
X101449659Y-108795734D01*
X100796682Y-108574488D01*
X100113090Y-108484884D01*
X99425152Y-108530363D01*
X98759305Y-108709179D01*
X98141137Y-109014459D01*
X97953075Y-109140117D01*
X97583926Y-109548571D01*
X96600000Y-109548571D01*
X96600000Y-108000000D01*
X107198549Y-108000000D01*
X107198549Y-111000000D01*
X107204341Y-111058810D01*
X107221496Y-111115360D01*
X107249353Y-111167477D01*
X107286842Y-111213158D01*
X107332523Y-111250647D01*
X107384640Y-111278504D01*
X107441190Y-111295659D01*
X107500000Y-111301451D01*
X110500000Y-111301451D01*
X110558810Y-111295659D01*
X110615360Y-111278504D01*
X110667477Y-111250647D01*
X110713158Y-111213158D01*
X110750647Y-111167477D01*
X110778504Y-111115360D01*
X110795659Y-111058810D01*
X110801451Y-111000000D01*
X110801451Y-110743468D01*
X112791888Y-110743468D01*
X112957195Y-110977831D01*
X113265542Y-111152876D01*
X113602115Y-111264403D01*
X113953978Y-111308124D01*
X114307609Y-111282360D01*
X114649420Y-111188100D01*
X114966273Y-111028968D01*
X115042805Y-110977831D01*
X115208112Y-110743468D01*
X114000000Y-109535355D01*
X112791888Y-110743468D01*
X110801451Y-110743468D01*
X110801451Y-109453978D01*
X112191876Y-109453978D01*
X112217640Y-109807609D01*
X112311900Y-110149420D01*
X112471032Y-110466273D01*
X112522169Y-110542805D01*
X112756532Y-110708112D01*
X113964645Y-109500000D01*
X114035355Y-109500000D01*
X115243468Y-110708112D01*
X115477831Y-110542805D01*
X115652876Y-110234458D01*
X115764403Y-109897885D01*
X115808124Y-109546022D01*
X115782360Y-109192391D01*
X115688100Y-108850580D01*
X115528968Y-108533727D01*
X115477831Y-108457195D01*
X115243468Y-108291888D01*
X114035355Y-109500000D01*
X113964645Y-109500000D01*
X112756532Y-108291888D01*
X112522169Y-108457195D01*
X112347124Y-108765542D01*
X112235597Y-109102115D01*
X112191876Y-109453978D01*
X110801451Y-109453978D01*
X110801451Y-108256532D01*
X112791888Y-108256532D01*
X114000000Y-109464645D01*
X115208112Y-108256532D01*
X115042805Y-108022169D01*
X115003754Y-108000000D01*
X119198549Y-108000000D01*
X119198549Y-111000000D01*
X119204341Y-111058810D01*
X119221496Y-111115360D01*
X119249353Y-111167477D01*
X119286842Y-111213158D01*
X119332523Y-111250647D01*
X119384640Y-111278504D01*
X119441190Y-111295659D01*
X119500000Y-111301451D01*
X122500000Y-111301451D01*
X122558810Y-111295659D01*
X122615360Y-111278504D01*
X122667477Y-111250647D01*
X122713158Y-111213158D01*
X122750647Y-111167477D01*
X122778504Y-111115360D01*
X122795659Y-111058810D01*
X122801451Y-111000000D01*
X122801451Y-110743468D01*
X124791888Y-110743468D01*
X124957195Y-110977831D01*
X125265542Y-111152876D01*
X125602115Y-111264403D01*
X125953978Y-111308124D01*
X126307609Y-111282360D01*
X126649420Y-111188100D01*
X126966273Y-111028968D01*
X127042805Y-110977831D01*
X127208112Y-110743468D01*
X126000000Y-109535355D01*
X124791888Y-110743468D01*
X122801451Y-110743468D01*
X122801451Y-109453978D01*
X124191876Y-109453978D01*
X124217640Y-109807609D01*
X124311900Y-110149420D01*
X124471032Y-110466273D01*
X124522169Y-110542805D01*
X124756532Y-110708112D01*
X125964645Y-109500000D01*
X126035355Y-109500000D01*
X127243468Y-110708112D01*
X127477831Y-110542805D01*
X127652876Y-110234458D01*
X127764403Y-109897885D01*
X127808124Y-109546022D01*
X127791855Y-109322716D01*
X129200000Y-109322716D01*
X129200000Y-109677284D01*
X129269173Y-110025041D01*
X129404861Y-110352620D01*
X129601849Y-110647433D01*
X129852567Y-110898151D01*
X130147380Y-111095139D01*
X130474959Y-111230827D01*
X130822716Y-111300000D01*
X131177284Y-111300000D01*
X131525041Y-111230827D01*
X131852620Y-111095139D01*
X132147433Y-110898151D01*
X132398151Y-110647433D01*
X132595139Y-110352620D01*
X132730827Y-110025041D01*
X132800000Y-109677284D01*
X132800000Y-109322716D01*
X132730827Y-108974959D01*
X132595139Y-108647380D01*
X132398151Y-108352567D01*
X132147433Y-108101849D01*
X131995006Y-108000000D01*
X136198549Y-108000000D01*
X136198549Y-111000000D01*
X136204341Y-111058810D01*
X136221496Y-111115360D01*
X136249353Y-111167477D01*
X136286842Y-111213158D01*
X136332523Y-111250647D01*
X136384640Y-111278504D01*
X136441190Y-111295659D01*
X136500000Y-111301451D01*
X137200001Y-111301451D01*
X137200001Y-112585700D01*
X137196130Y-112625000D01*
X137211577Y-112781827D01*
X137257321Y-112932627D01*
X137331607Y-113071606D01*
X137406531Y-113162901D01*
X137431579Y-113193422D01*
X137462099Y-113218469D01*
X138281527Y-114037897D01*
X138306578Y-114068422D01*
X138368977Y-114119631D01*
X138428393Y-114168393D01*
X138492764Y-114202800D01*
X138567372Y-114242679D01*
X138718173Y-114288424D01*
X138835707Y-114300000D01*
X138835709Y-114300000D01*
X138875000Y-114303870D01*
X138914291Y-114300000D01*
X158789289Y-114300000D01*
X158906823Y-114288424D01*
X159057624Y-114242679D01*
X159196602Y-114168393D01*
X159318418Y-114068422D01*
X159418389Y-113946606D01*
X159492675Y-113807628D01*
X159538420Y-113656827D01*
X159553866Y-113500000D01*
X159538420Y-113343173D01*
X159492675Y-113192372D01*
X159418389Y-113053394D01*
X159318418Y-112931578D01*
X159196602Y-112831607D01*
X159057624Y-112757321D01*
X158906823Y-112711576D01*
X158789289Y-112700000D01*
X139206370Y-112700000D01*
X138800000Y-112293630D01*
X138800000Y-111886910D01*
X188484884Y-111886910D01*
X188530363Y-112574848D01*
X188709179Y-113240695D01*
X189014459Y-113858863D01*
X189140117Y-114046925D01*
X189548571Y-114416074D01*
X191964645Y-112000000D01*
X189548571Y-109583926D01*
X189140117Y-109953075D01*
X188795734Y-110550341D01*
X188574488Y-111203318D01*
X188484884Y-111886910D01*
X138800000Y-111886910D01*
X138800000Y-111301451D01*
X139500000Y-111301451D01*
X139558810Y-111295659D01*
X139615360Y-111278504D01*
X139667477Y-111250647D01*
X139713158Y-111213158D01*
X139750647Y-111167477D01*
X139778504Y-111115360D01*
X139795659Y-111058810D01*
X139801451Y-111000000D01*
X139801451Y-110743468D01*
X141791888Y-110743468D01*
X141957195Y-110977831D01*
X142265542Y-111152876D01*
X142602115Y-111264403D01*
X142953978Y-111308124D01*
X143307609Y-111282360D01*
X143649420Y-111188100D01*
X143966273Y-111028968D01*
X144042805Y-110977831D01*
X144208112Y-110743468D01*
X143000000Y-109535355D01*
X141791888Y-110743468D01*
X139801451Y-110743468D01*
X139801451Y-109453978D01*
X141191876Y-109453978D01*
X141217640Y-109807609D01*
X141311900Y-110149420D01*
X141471032Y-110466273D01*
X141522169Y-110542805D01*
X141756532Y-110708112D01*
X142964645Y-109500000D01*
X143035355Y-109500000D01*
X144243468Y-110708112D01*
X144477831Y-110542805D01*
X144652876Y-110234458D01*
X144764403Y-109897885D01*
X144808124Y-109546022D01*
X144791855Y-109322716D01*
X146200000Y-109322716D01*
X146200000Y-109677284D01*
X146269173Y-110025041D01*
X146404861Y-110352620D01*
X146601849Y-110647433D01*
X146852567Y-110898151D01*
X147147380Y-111095139D01*
X147474959Y-111230827D01*
X147822716Y-111300000D01*
X148177284Y-111300000D01*
X148525041Y-111230827D01*
X148852620Y-111095139D01*
X149147433Y-110898151D01*
X149398151Y-110647433D01*
X149595139Y-110352620D01*
X149730827Y-110025041D01*
X149800000Y-109677284D01*
X149800000Y-109322716D01*
X149730827Y-108974959D01*
X149595139Y-108647380D01*
X149398151Y-108352567D01*
X149147433Y-108101849D01*
X148995006Y-108000000D01*
X153198549Y-108000000D01*
X153198549Y-111000000D01*
X153204341Y-111058810D01*
X153221496Y-111115360D01*
X153249353Y-111167477D01*
X153286842Y-111213158D01*
X153332523Y-111250647D01*
X153384640Y-111278504D01*
X153441190Y-111295659D01*
X153500000Y-111301451D01*
X156500000Y-111301451D01*
X156558810Y-111295659D01*
X156615360Y-111278504D01*
X156667477Y-111250647D01*
X156713158Y-111213158D01*
X156750647Y-111167477D01*
X156778504Y-111115360D01*
X156795659Y-111058810D01*
X156801451Y-111000000D01*
X156801451Y-110743468D01*
X158791888Y-110743468D01*
X158957195Y-110977831D01*
X159265542Y-111152876D01*
X159602115Y-111264403D01*
X159953978Y-111308124D01*
X160307609Y-111282360D01*
X160649420Y-111188100D01*
X160966273Y-111028968D01*
X161042805Y-110977831D01*
X161208112Y-110743468D01*
X160000000Y-109535355D01*
X158791888Y-110743468D01*
X156801451Y-110743468D01*
X156801451Y-109453978D01*
X158191876Y-109453978D01*
X158217640Y-109807609D01*
X158311900Y-110149420D01*
X158471032Y-110466273D01*
X158522169Y-110542805D01*
X158756532Y-110708112D01*
X159964645Y-109500000D01*
X160035355Y-109500000D01*
X161243468Y-110708112D01*
X161477831Y-110542805D01*
X161652876Y-110234458D01*
X161764403Y-109897885D01*
X161808124Y-109546022D01*
X161782360Y-109192391D01*
X161688100Y-108850580D01*
X161528968Y-108533727D01*
X161477831Y-108457195D01*
X161243468Y-108291888D01*
X160035355Y-109500000D01*
X159964645Y-109500000D01*
X158756532Y-108291888D01*
X158522169Y-108457195D01*
X158347124Y-108765542D01*
X158235597Y-109102115D01*
X158191876Y-109453978D01*
X156801451Y-109453978D01*
X156801451Y-108256532D01*
X158791888Y-108256532D01*
X160000000Y-109464645D01*
X161208112Y-108256532D01*
X161042805Y-108022169D01*
X160734458Y-107847124D01*
X160397885Y-107735597D01*
X160046022Y-107691876D01*
X159692391Y-107717640D01*
X159350580Y-107811900D01*
X159033727Y-107971032D01*
X158957195Y-108022169D01*
X158791888Y-108256532D01*
X156801451Y-108256532D01*
X156801451Y-108000000D01*
X156795659Y-107941190D01*
X156778504Y-107884640D01*
X156750647Y-107832523D01*
X156713158Y-107786842D01*
X156667477Y-107749353D01*
X156615360Y-107721496D01*
X156558810Y-107704341D01*
X156500000Y-107698549D01*
X153500000Y-107698549D01*
X153441190Y-107704341D01*
X153384640Y-107721496D01*
X153332523Y-107749353D01*
X153286842Y-107786842D01*
X153249353Y-107832523D01*
X153221496Y-107884640D01*
X153204341Y-107941190D01*
X153198549Y-108000000D01*
X148995006Y-108000000D01*
X148852620Y-107904861D01*
X148525041Y-107769173D01*
X148177284Y-107700000D01*
X147822716Y-107700000D01*
X147474959Y-107769173D01*
X147147380Y-107904861D01*
X146852567Y-108101849D01*
X146601849Y-108352567D01*
X146404861Y-108647380D01*
X146269173Y-108974959D01*
X146200000Y-109322716D01*
X144791855Y-109322716D01*
X144782360Y-109192391D01*
X144688100Y-108850580D01*
X144528968Y-108533727D01*
X144477831Y-108457195D01*
X144243468Y-108291888D01*
X143035355Y-109500000D01*
X142964645Y-109500000D01*
X141756532Y-108291888D01*
X141522169Y-108457195D01*
X141347124Y-108765542D01*
X141235597Y-109102115D01*
X141191876Y-109453978D01*
X139801451Y-109453978D01*
X139801451Y-108256532D01*
X141791888Y-108256532D01*
X143000000Y-109464645D01*
X144208112Y-108256532D01*
X144042805Y-108022169D01*
X143734458Y-107847124D01*
X143397885Y-107735597D01*
X143046022Y-107691876D01*
X142692391Y-107717640D01*
X142350580Y-107811900D01*
X142033727Y-107971032D01*
X141957195Y-108022169D01*
X141791888Y-108256532D01*
X139801451Y-108256532D01*
X139801451Y-108000000D01*
X139795659Y-107941190D01*
X139778504Y-107884640D01*
X139750647Y-107832523D01*
X139713158Y-107786842D01*
X139667477Y-107749353D01*
X139615360Y-107721496D01*
X139558810Y-107704341D01*
X139500000Y-107698549D01*
X136500000Y-107698549D01*
X136441190Y-107704341D01*
X136384640Y-107721496D01*
X136332523Y-107749353D01*
X136286842Y-107786842D01*
X136249353Y-107832523D01*
X136221496Y-107884640D01*
X136204341Y-107941190D01*
X136198549Y-108000000D01*
X131995006Y-108000000D01*
X131852620Y-107904861D01*
X131525041Y-107769173D01*
X131177284Y-107700000D01*
X130822716Y-107700000D01*
X130474959Y-107769173D01*
X130147380Y-107904861D01*
X129852567Y-108101849D01*
X129601849Y-108352567D01*
X129404861Y-108647380D01*
X129269173Y-108974959D01*
X129200000Y-109322716D01*
X127791855Y-109322716D01*
X127782360Y-109192391D01*
X127688100Y-108850580D01*
X127528968Y-108533727D01*
X127477831Y-108457195D01*
X127243468Y-108291888D01*
X126035355Y-109500000D01*
X125964645Y-109500000D01*
X124756532Y-108291888D01*
X124522169Y-108457195D01*
X124347124Y-108765542D01*
X124235597Y-109102115D01*
X124191876Y-109453978D01*
X122801451Y-109453978D01*
X122801451Y-108256532D01*
X124791888Y-108256532D01*
X126000000Y-109464645D01*
X127208112Y-108256532D01*
X127042805Y-108022169D01*
X126734458Y-107847124D01*
X126397885Y-107735597D01*
X126046022Y-107691876D01*
X125692391Y-107717640D01*
X125350580Y-107811900D01*
X125033727Y-107971032D01*
X124957195Y-108022169D01*
X124791888Y-108256532D01*
X122801451Y-108256532D01*
X122801451Y-108000000D01*
X122795659Y-107941190D01*
X122778504Y-107884640D01*
X122750647Y-107832523D01*
X122713158Y-107786842D01*
X122667477Y-107749353D01*
X122615360Y-107721496D01*
X122558810Y-107704341D01*
X122500000Y-107698549D01*
X119500000Y-107698549D01*
X119441190Y-107704341D01*
X119384640Y-107721496D01*
X119332523Y-107749353D01*
X119286842Y-107786842D01*
X119249353Y-107832523D01*
X119221496Y-107884640D01*
X119204341Y-107941190D01*
X119198549Y-108000000D01*
X115003754Y-108000000D01*
X114734458Y-107847124D01*
X114397885Y-107735597D01*
X114046022Y-107691876D01*
X113692391Y-107717640D01*
X113350580Y-107811900D01*
X113033727Y-107971032D01*
X112957195Y-108022169D01*
X112791888Y-108256532D01*
X110801451Y-108256532D01*
X110801451Y-108000000D01*
X110795659Y-107941190D01*
X110778504Y-107884640D01*
X110750647Y-107832523D01*
X110713158Y-107786842D01*
X110667477Y-107749353D01*
X110615360Y-107721496D01*
X110558810Y-107704341D01*
X110500000Y-107698549D01*
X109800000Y-107698549D01*
X109800000Y-107331370D01*
X110637902Y-106493469D01*
X110668422Y-106468422D01*
X110698659Y-106431578D01*
X110768393Y-106346607D01*
X110842679Y-106207628D01*
X110846167Y-106196130D01*
X110888424Y-106056827D01*
X110900000Y-105939293D01*
X110900000Y-105939291D01*
X110903870Y-105900000D01*
X110900000Y-105860709D01*
X110900000Y-102681056D01*
X151300000Y-102681056D01*
X151300000Y-102818944D01*
X151326901Y-102954182D01*
X151379668Y-103081574D01*
X151456274Y-103196224D01*
X151553776Y-103293726D01*
X151668426Y-103370332D01*
X151795818Y-103423099D01*
X151931056Y-103450000D01*
X152068944Y-103450000D01*
X152204182Y-103423099D01*
X152331574Y-103370332D01*
X152446224Y-103293726D01*
X152543726Y-103196224D01*
X152557907Y-103175000D01*
X167823960Y-103175000D01*
X168075000Y-103426041D01*
X168075001Y-109198549D01*
X167500000Y-109198549D01*
X167441190Y-109204341D01*
X167384640Y-109221496D01*
X167332523Y-109249353D01*
X167286842Y-109286842D01*
X167249353Y-109332523D01*
X167221496Y-109384640D01*
X167204341Y-109441190D01*
X167198549Y-109500000D01*
X167198549Y-111500000D01*
X167204341Y-111558810D01*
X167221496Y-111615360D01*
X167249353Y-111667477D01*
X167286842Y-111713158D01*
X167332523Y-111750647D01*
X167384640Y-111778504D01*
X167441190Y-111795659D01*
X167500000Y-111801451D01*
X169500000Y-111801451D01*
X169558810Y-111795659D01*
X169615360Y-111778504D01*
X169667477Y-111750647D01*
X169713158Y-111713158D01*
X169750647Y-111667477D01*
X169778504Y-111615360D01*
X169795659Y-111558810D01*
X169801451Y-111500000D01*
X169801451Y-111003511D01*
X169847955Y-111115781D01*
X169990224Y-111328702D01*
X170171298Y-111509776D01*
X170384219Y-111652045D01*
X170620804Y-111750042D01*
X170871961Y-111800000D01*
X171128039Y-111800000D01*
X171379196Y-111750042D01*
X171615781Y-111652045D01*
X171828702Y-111509776D01*
X171950326Y-111388152D01*
X172647204Y-111388152D01*
X172752549Y-111571312D01*
X172975914Y-111696548D01*
X173219419Y-111775800D01*
X173473706Y-111806025D01*
X173729004Y-111786060D01*
X173975502Y-111716673D01*
X174203726Y-111600529D01*
X174247451Y-111571312D01*
X174352796Y-111388152D01*
X173500000Y-110535355D01*
X172647204Y-111388152D01*
X171950326Y-111388152D01*
X172009776Y-111328702D01*
X172152045Y-111115781D01*
X172250042Y-110879196D01*
X172252599Y-110866341D01*
X172283327Y-110975502D01*
X172399471Y-111203726D01*
X172428688Y-111247451D01*
X172611848Y-111352796D01*
X173464645Y-110500000D01*
X173535355Y-110500000D01*
X174388152Y-111352796D01*
X174571312Y-111247451D01*
X174696548Y-111024086D01*
X174747586Y-110867270D01*
X174749958Y-110879196D01*
X174847955Y-111115781D01*
X174990224Y-111328702D01*
X175171298Y-111509776D01*
X175384219Y-111652045D01*
X175620804Y-111750042D01*
X175871961Y-111800000D01*
X176128039Y-111800000D01*
X176379196Y-111750042D01*
X176615781Y-111652045D01*
X176828702Y-111509776D01*
X177009776Y-111328702D01*
X177152045Y-111115781D01*
X177250042Y-110879196D01*
X177300000Y-110628039D01*
X177300000Y-110371961D01*
X177250042Y-110120804D01*
X177152045Y-109884219D01*
X177009776Y-109671298D01*
X176887049Y-109548571D01*
X189583926Y-109548571D01*
X192000000Y-111964645D01*
X194416074Y-109548571D01*
X194046925Y-109140117D01*
X193449659Y-108795734D01*
X192796682Y-108574488D01*
X192113090Y-108484884D01*
X191425152Y-108530363D01*
X190759305Y-108709179D01*
X190141137Y-109014459D01*
X189953075Y-109140117D01*
X189583926Y-109548571D01*
X176887049Y-109548571D01*
X176828702Y-109490224D01*
X176615781Y-109347955D01*
X176379196Y-109249958D01*
X176128039Y-109200000D01*
X175871961Y-109200000D01*
X175620804Y-109249958D01*
X175384219Y-109347955D01*
X175171298Y-109490224D01*
X174990224Y-109671298D01*
X174847955Y-109884219D01*
X174749958Y-110120804D01*
X174747401Y-110133659D01*
X174716673Y-110024498D01*
X174600529Y-109796274D01*
X174571312Y-109752549D01*
X174388152Y-109647204D01*
X173535355Y-110500000D01*
X173464645Y-110500000D01*
X172611848Y-109647204D01*
X172428688Y-109752549D01*
X172303452Y-109975914D01*
X172252414Y-110132730D01*
X172250042Y-110120804D01*
X172152045Y-109884219D01*
X172009776Y-109671298D01*
X171950326Y-109611848D01*
X172647204Y-109611848D01*
X173500000Y-110464645D01*
X174352796Y-109611848D01*
X174247451Y-109428688D01*
X174024086Y-109303452D01*
X173780581Y-109224200D01*
X173526294Y-109193975D01*
X173270996Y-109213940D01*
X173024498Y-109283327D01*
X172796274Y-109399471D01*
X172752549Y-109428688D01*
X172647204Y-109611848D01*
X171950326Y-109611848D01*
X171828702Y-109490224D01*
X171615781Y-109347955D01*
X171379196Y-109249958D01*
X171128039Y-109200000D01*
X170871961Y-109200000D01*
X170620804Y-109249958D01*
X170384219Y-109347955D01*
X170171298Y-109490224D01*
X169990224Y-109671298D01*
X169847955Y-109884219D01*
X169801451Y-109996489D01*
X169801451Y-109500000D01*
X169795659Y-109441190D01*
X169778504Y-109384640D01*
X169750647Y-109332523D01*
X169713158Y-109286842D01*
X169667477Y-109249353D01*
X169615360Y-109221496D01*
X169558810Y-109204341D01*
X169500000Y-109198549D01*
X168925000Y-109198549D01*
X168925000Y-103270867D01*
X168927055Y-103250000D01*
X168925000Y-103229133D01*
X168925000Y-103229126D01*
X168918850Y-103166686D01*
X168912135Y-103144548D01*
X168894548Y-103086572D01*
X168876055Y-103051974D01*
X168855084Y-103012740D01*
X168801974Y-102948026D01*
X168785763Y-102934722D01*
X168315283Y-102464243D01*
X168301974Y-102448026D01*
X168237260Y-102394916D01*
X168163427Y-102355452D01*
X168083314Y-102331150D01*
X168020874Y-102325000D01*
X168020867Y-102325000D01*
X168000000Y-102322945D01*
X167979133Y-102325000D01*
X152557907Y-102325000D01*
X152543726Y-102303776D01*
X152446224Y-102206274D01*
X152331574Y-102129668D01*
X152204182Y-102076901D01*
X152068944Y-102050000D01*
X151931056Y-102050000D01*
X151795818Y-102076901D01*
X151668426Y-102129668D01*
X151553776Y-102206274D01*
X151456274Y-102303776D01*
X151379668Y-102418426D01*
X151326901Y-102545818D01*
X151300000Y-102681056D01*
X110900000Y-102681056D01*
X110900000Y-91750000D01*
X124946130Y-91750000D01*
X124950001Y-91789301D01*
X124950000Y-97110707D01*
X124950000Y-97110708D01*
X124950001Y-98439293D01*
X124961577Y-98556827D01*
X125007322Y-98707628D01*
X125081608Y-98846606D01*
X125181579Y-98968422D01*
X125303395Y-99068393D01*
X125325000Y-99079941D01*
X125325001Y-100942092D01*
X125303776Y-100956274D01*
X125206274Y-101053776D01*
X125129668Y-101168426D01*
X125076901Y-101295818D01*
X125050000Y-101431056D01*
X125050000Y-101568944D01*
X125076901Y-101704182D01*
X125129668Y-101831574D01*
X125206274Y-101946224D01*
X125303776Y-102043726D01*
X125418426Y-102120332D01*
X125545818Y-102173099D01*
X125681056Y-102200000D01*
X125818944Y-102200000D01*
X125954182Y-102173099D01*
X126081574Y-102120332D01*
X126196224Y-102043726D01*
X126293726Y-101946224D01*
X126370332Y-101831574D01*
X126423099Y-101704182D01*
X126450000Y-101568944D01*
X126450000Y-101431056D01*
X126423099Y-101295818D01*
X126370332Y-101168426D01*
X126293726Y-101053776D01*
X126196224Y-100956274D01*
X126175000Y-100942093D01*
X126175000Y-99079942D01*
X126196606Y-99068393D01*
X126318422Y-98968422D01*
X126418393Y-98846606D01*
X126492679Y-98707628D01*
X126538424Y-98556827D01*
X126550000Y-98439293D01*
X126550000Y-98411577D01*
X164650000Y-98411577D01*
X164650001Y-100588424D01*
X164676046Y-100852862D01*
X164778972Y-101192163D01*
X164946114Y-101504865D01*
X165171051Y-101778950D01*
X165445136Y-102003887D01*
X165757838Y-102171029D01*
X166097139Y-102273955D01*
X166450000Y-102308709D01*
X166802862Y-102273955D01*
X167142163Y-102171029D01*
X167454865Y-102003887D01*
X167728950Y-101778950D01*
X167953887Y-101504865D01*
X168121029Y-101192163D01*
X168223955Y-100852862D01*
X168250000Y-100588424D01*
X168250000Y-98411577D01*
X176250000Y-98411577D01*
X176250001Y-100588424D01*
X176276046Y-100852862D01*
X176378972Y-101192163D01*
X176546114Y-101504865D01*
X176771051Y-101778950D01*
X177045136Y-102003887D01*
X177357838Y-102171029D01*
X177697139Y-102273955D01*
X178050000Y-102308709D01*
X178402862Y-102273955D01*
X178742163Y-102171029D01*
X179054865Y-102003887D01*
X179328950Y-101778950D01*
X179553887Y-101504865D01*
X179721029Y-101192163D01*
X179741402Y-101125000D01*
X185323549Y-101125000D01*
X185323549Y-102875000D01*
X185329341Y-102933810D01*
X185346496Y-102990360D01*
X185374353Y-103042477D01*
X185411842Y-103088158D01*
X185457523Y-103125647D01*
X185509640Y-103153504D01*
X185566190Y-103170659D01*
X185625000Y-103176451D01*
X187375000Y-103176451D01*
X187433810Y-103170659D01*
X187490360Y-103153504D01*
X187542477Y-103125647D01*
X187588158Y-103088158D01*
X187625647Y-103042477D01*
X187653504Y-102990360D01*
X187670659Y-102933810D01*
X187676451Y-102875000D01*
X187676451Y-102838152D01*
X187750981Y-102912682D01*
X187943429Y-103041271D01*
X188157265Y-103129845D01*
X188384273Y-103175000D01*
X188615727Y-103175000D01*
X188842735Y-103129845D01*
X189056571Y-103041271D01*
X189249019Y-102912682D01*
X189412682Y-102749019D01*
X189500000Y-102618338D01*
X189587318Y-102749019D01*
X189750981Y-102912682D01*
X189943429Y-103041271D01*
X190157265Y-103129845D01*
X190384273Y-103175000D01*
X190615727Y-103175000D01*
X190842735Y-103129845D01*
X191056571Y-103041271D01*
X191249019Y-102912682D01*
X191412682Y-102749019D01*
X191541271Y-102556571D01*
X191629845Y-102342735D01*
X191675000Y-102115727D01*
X191675000Y-101884273D01*
X191629845Y-101657265D01*
X191541271Y-101443429D01*
X191412682Y-101250981D01*
X191249019Y-101087318D01*
X191056571Y-100958729D01*
X190842735Y-100870155D01*
X190615727Y-100825000D01*
X190384273Y-100825000D01*
X190157265Y-100870155D01*
X189943429Y-100958729D01*
X189750981Y-101087318D01*
X189587318Y-101250981D01*
X189500000Y-101381662D01*
X189412682Y-101250981D01*
X189249019Y-101087318D01*
X189056571Y-100958729D01*
X188842735Y-100870155D01*
X188615727Y-100825000D01*
X188384273Y-100825000D01*
X188157265Y-100870155D01*
X187943429Y-100958729D01*
X187750981Y-101087318D01*
X187676451Y-101161848D01*
X187676451Y-101125000D01*
X187670659Y-101066190D01*
X187653504Y-101009640D01*
X187625647Y-100957523D01*
X187588158Y-100911842D01*
X187542477Y-100874353D01*
X187490360Y-100846496D01*
X187433810Y-100829341D01*
X187375000Y-100823549D01*
X185625000Y-100823549D01*
X185566190Y-100829341D01*
X185509640Y-100846496D01*
X185457523Y-100874353D01*
X185411842Y-100911842D01*
X185374353Y-100957523D01*
X185346496Y-101009640D01*
X185329341Y-101066190D01*
X185323549Y-101125000D01*
X179741402Y-101125000D01*
X179823955Y-100852862D01*
X179850000Y-100588424D01*
X179850000Y-98411576D01*
X179823955Y-98147138D01*
X179721029Y-97807837D01*
X179553887Y-97495135D01*
X179328950Y-97221050D01*
X179054864Y-96996113D01*
X178845626Y-96884273D01*
X185325000Y-96884273D01*
X185325000Y-97115727D01*
X185370155Y-97342735D01*
X185458729Y-97556571D01*
X185587318Y-97749019D01*
X185750981Y-97912682D01*
X185943429Y-98041271D01*
X186157265Y-98129845D01*
X186384273Y-98175000D01*
X186615727Y-98175000D01*
X186842735Y-98129845D01*
X187056571Y-98041271D01*
X187249019Y-97912682D01*
X187412682Y-97749019D01*
X187500000Y-97618338D01*
X187587318Y-97749019D01*
X187750981Y-97912682D01*
X187943429Y-98041271D01*
X188157265Y-98129845D01*
X188384273Y-98175000D01*
X188615727Y-98175000D01*
X188842735Y-98129845D01*
X189056571Y-98041271D01*
X189249019Y-97912682D01*
X189362386Y-97799315D01*
X189736040Y-97799315D01*
X189826392Y-97969675D01*
X190028510Y-98082457D01*
X190248746Y-98153641D01*
X190478638Y-98180491D01*
X190709350Y-98161976D01*
X190932017Y-98098806D01*
X191138083Y-97993411D01*
X191173608Y-97969675D01*
X191263960Y-97799315D01*
X190500000Y-97035355D01*
X189736040Y-97799315D01*
X189362386Y-97799315D01*
X189412682Y-97749019D01*
X189498012Y-97621313D01*
X189506589Y-97638083D01*
X189530325Y-97673608D01*
X189700685Y-97763960D01*
X190464645Y-97000000D01*
X190535355Y-97000000D01*
X191299315Y-97763960D01*
X191469675Y-97673608D01*
X191582457Y-97471490D01*
X191653641Y-97251254D01*
X191680491Y-97021362D01*
X191661976Y-96790650D01*
X191598806Y-96567983D01*
X191493411Y-96361917D01*
X191469675Y-96326392D01*
X191299315Y-96236040D01*
X190535355Y-97000000D01*
X190464645Y-97000000D01*
X189700685Y-96236040D01*
X189530325Y-96326392D01*
X189499719Y-96381242D01*
X189412682Y-96250981D01*
X189362386Y-96200685D01*
X189736040Y-96200685D01*
X190500000Y-96964645D01*
X191263960Y-96200685D01*
X191173608Y-96030325D01*
X190971490Y-95917543D01*
X190751254Y-95846359D01*
X190521362Y-95819509D01*
X190290650Y-95838024D01*
X190067983Y-95901194D01*
X189861917Y-96006589D01*
X189826392Y-96030325D01*
X189736040Y-96200685D01*
X189362386Y-96200685D01*
X189249019Y-96087318D01*
X189056571Y-95958729D01*
X188842735Y-95870155D01*
X188615727Y-95825000D01*
X188384273Y-95825000D01*
X188157265Y-95870155D01*
X187943429Y-95958729D01*
X187750981Y-96087318D01*
X187587318Y-96250981D01*
X187500000Y-96381662D01*
X187412682Y-96250981D01*
X187249019Y-96087318D01*
X187056571Y-95958729D01*
X186842735Y-95870155D01*
X186615727Y-95825000D01*
X186384273Y-95825000D01*
X186157265Y-95870155D01*
X185943429Y-95958729D01*
X185750981Y-96087318D01*
X185587318Y-96250981D01*
X185458729Y-96443429D01*
X185370155Y-96657265D01*
X185325000Y-96884273D01*
X178845626Y-96884273D01*
X178742162Y-96828971D01*
X178402861Y-96726045D01*
X178050000Y-96691291D01*
X177697138Y-96726045D01*
X177357837Y-96828971D01*
X177045135Y-96996113D01*
X176771050Y-97221050D01*
X176546113Y-97495136D01*
X176378971Y-97807838D01*
X176276045Y-98147139D01*
X176250000Y-98411577D01*
X168250000Y-98411577D01*
X168250000Y-98411576D01*
X168223955Y-98147138D01*
X168121029Y-97807837D01*
X167953887Y-97495135D01*
X167728950Y-97221050D01*
X167454864Y-96996113D01*
X167142162Y-96828971D01*
X166802861Y-96726045D01*
X166450000Y-96691291D01*
X166097138Y-96726045D01*
X165757837Y-96828971D01*
X165445135Y-96996113D01*
X165171050Y-97221050D01*
X164946113Y-97495136D01*
X164778971Y-97807838D01*
X164676045Y-98147139D01*
X164650000Y-98411577D01*
X126550000Y-98411577D01*
X126550000Y-92081370D01*
X126831371Y-91800000D01*
X131098960Y-91800000D01*
X130964239Y-91934721D01*
X130948027Y-91948026D01*
X130894917Y-92012740D01*
X130870925Y-92057627D01*
X130855453Y-92086573D01*
X130831150Y-92166686D01*
X130822945Y-92250000D01*
X130825001Y-92270876D01*
X130825000Y-93323960D01*
X130823960Y-93325000D01*
X128307907Y-93325000D01*
X128293726Y-93303776D01*
X128196224Y-93206274D01*
X128081574Y-93129668D01*
X127954182Y-93076901D01*
X127818944Y-93050000D01*
X127681056Y-93050000D01*
X127545818Y-93076901D01*
X127418426Y-93129668D01*
X127303776Y-93206274D01*
X127206274Y-93303776D01*
X127129668Y-93418426D01*
X127076901Y-93545818D01*
X127050000Y-93681056D01*
X127050000Y-93818944D01*
X127076901Y-93954182D01*
X127129668Y-94081574D01*
X127206274Y-94196224D01*
X127303776Y-94293726D01*
X127418426Y-94370332D01*
X127545818Y-94423099D01*
X127681056Y-94450000D01*
X127818944Y-94450000D01*
X127954182Y-94423099D01*
X128081574Y-94370332D01*
X128196224Y-94293726D01*
X128293726Y-94196224D01*
X128307907Y-94175000D01*
X130979133Y-94175000D01*
X131000000Y-94177055D01*
X131020867Y-94175000D01*
X131020874Y-94175000D01*
X131083314Y-94168850D01*
X131163427Y-94144548D01*
X131237260Y-94105084D01*
X131301974Y-94051974D01*
X131315284Y-94035756D01*
X131535758Y-93815282D01*
X131551974Y-93801974D01*
X131605084Y-93737260D01*
X131644548Y-93663427D01*
X131661478Y-93607617D01*
X131668850Y-93583315D01*
X131672543Y-93545818D01*
X131675000Y-93520874D01*
X131675000Y-93520868D01*
X131677055Y-93500001D01*
X131675000Y-93479134D01*
X131675000Y-92426040D01*
X131676040Y-92425000D01*
X139823960Y-92425000D01*
X139825000Y-92426040D01*
X139825001Y-92942092D01*
X139803776Y-92956274D01*
X139706274Y-93053776D01*
X139629668Y-93168426D01*
X139576901Y-93295818D01*
X139550000Y-93431056D01*
X139550000Y-93568944D01*
X139576901Y-93704182D01*
X139629668Y-93831574D01*
X139706274Y-93946224D01*
X139803776Y-94043726D01*
X139918426Y-94120332D01*
X140045818Y-94173099D01*
X140181056Y-94200000D01*
X140318944Y-94200000D01*
X140454182Y-94173099D01*
X140581574Y-94120332D01*
X140696224Y-94043726D01*
X140793726Y-93946224D01*
X140870332Y-93831574D01*
X140923099Y-93704182D01*
X140950000Y-93568944D01*
X140950000Y-93431056D01*
X140923099Y-93295818D01*
X140870332Y-93168426D01*
X140793726Y-93053776D01*
X140696224Y-92956274D01*
X140675000Y-92942093D01*
X140675000Y-92270866D01*
X140677055Y-92249999D01*
X140675000Y-92229132D01*
X140675000Y-92229126D01*
X140668850Y-92166686D01*
X140667862Y-92163427D01*
X140644548Y-92086574D01*
X140644548Y-92086573D01*
X140605084Y-92012740D01*
X140551974Y-91948026D01*
X140535758Y-91934718D01*
X140401040Y-91800000D01*
X158039293Y-91800000D01*
X158156827Y-91788424D01*
X158307628Y-91742679D01*
X158446606Y-91668393D01*
X158568422Y-91568422D01*
X158668393Y-91446606D01*
X158742679Y-91307628D01*
X158788424Y-91156827D01*
X158803870Y-91000000D01*
X158788424Y-90843173D01*
X158742679Y-90692372D01*
X158668393Y-90553394D01*
X158568422Y-90431578D01*
X158446606Y-90331607D01*
X158307628Y-90257321D01*
X158156827Y-90211576D01*
X158039293Y-90200000D01*
X126539282Y-90200000D01*
X126499999Y-90196131D01*
X126460716Y-90200000D01*
X126460707Y-90200000D01*
X126343173Y-90211576D01*
X126192372Y-90257321D01*
X126053393Y-90331607D01*
X125994831Y-90379668D01*
X125931578Y-90431578D01*
X125906531Y-90462098D01*
X125212098Y-91156532D01*
X125181579Y-91181578D01*
X125156532Y-91212098D01*
X125156531Y-91212099D01*
X125081607Y-91303394D01*
X125007321Y-91442373D01*
X124961577Y-91593173D01*
X124946130Y-91750000D01*
X110900000Y-91750000D01*
X110900000Y-87250000D01*
X116196130Y-87250000D01*
X116211576Y-87406827D01*
X116257321Y-87557628D01*
X116331607Y-87696606D01*
X116431578Y-87818422D01*
X116553394Y-87918393D01*
X116692372Y-87992679D01*
X116843173Y-88038424D01*
X116960707Y-88050000D01*
X119960709Y-88050000D01*
X120000000Y-88053870D01*
X120039291Y-88050000D01*
X120039293Y-88050000D01*
X120156827Y-88038424D01*
X120307628Y-87992679D01*
X120446606Y-87918393D01*
X120568422Y-87818422D01*
X120593473Y-87787897D01*
X121137902Y-87243469D01*
X121168422Y-87218422D01*
X121199087Y-87181056D01*
X121268393Y-87096607D01*
X121342679Y-86957628D01*
X121388424Y-86806827D01*
X121400000Y-86689293D01*
X121400000Y-86689292D01*
X121403870Y-86650001D01*
X121400000Y-86610710D01*
X121400000Y-83004164D01*
X121616313Y-83220477D01*
X121894748Y-83406521D01*
X122204128Y-83534670D01*
X122532565Y-83600000D01*
X122867435Y-83600000D01*
X123195872Y-83534670D01*
X123505252Y-83406521D01*
X123783687Y-83220477D01*
X123931756Y-83072408D01*
X125762948Y-83072408D01*
X125916263Y-83296530D01*
X126207615Y-83461614D01*
X126525575Y-83566685D01*
X126857924Y-83607707D01*
X127191889Y-83583103D01*
X127514638Y-83493818D01*
X127813767Y-83343283D01*
X127883737Y-83296530D01*
X128037052Y-83072408D01*
X129962948Y-83072408D01*
X130116263Y-83296530D01*
X130407615Y-83461614D01*
X130725575Y-83566685D01*
X131057924Y-83607707D01*
X131391889Y-83583103D01*
X131714638Y-83493818D01*
X132013767Y-83343283D01*
X132083737Y-83296530D01*
X132237052Y-83072408D01*
X134162948Y-83072408D01*
X134316263Y-83296530D01*
X134607615Y-83461614D01*
X134925575Y-83566685D01*
X135257924Y-83607707D01*
X135591889Y-83583103D01*
X135914638Y-83493818D01*
X136213767Y-83343283D01*
X136283737Y-83296530D01*
X136437052Y-83072408D01*
X135300000Y-81935355D01*
X134162948Y-83072408D01*
X132237052Y-83072408D01*
X131100000Y-81935355D01*
X129962948Y-83072408D01*
X128037052Y-83072408D01*
X126900000Y-81935355D01*
X125762948Y-83072408D01*
X123931756Y-83072408D01*
X124020477Y-82983687D01*
X124206521Y-82705252D01*
X124334670Y-82395872D01*
X124400000Y-82067435D01*
X124400000Y-81857924D01*
X125192293Y-81857924D01*
X125216897Y-82191889D01*
X125306182Y-82514638D01*
X125456717Y-82813767D01*
X125503470Y-82883737D01*
X125727592Y-83037052D01*
X126864645Y-81900000D01*
X126935355Y-81900000D01*
X128072408Y-83037052D01*
X128296530Y-82883737D01*
X128461614Y-82592385D01*
X128566685Y-82274425D01*
X128607707Y-81942076D01*
X128601508Y-81857924D01*
X129392293Y-81857924D01*
X129416897Y-82191889D01*
X129506182Y-82514638D01*
X129656717Y-82813767D01*
X129703470Y-82883737D01*
X129927592Y-83037052D01*
X131064645Y-81900000D01*
X131135355Y-81900000D01*
X132272408Y-83037052D01*
X132496530Y-82883737D01*
X132661614Y-82592385D01*
X132766685Y-82274425D01*
X132807707Y-81942076D01*
X132801508Y-81857924D01*
X133592293Y-81857924D01*
X133616897Y-82191889D01*
X133706182Y-82514638D01*
X133856717Y-82813767D01*
X133903470Y-82883737D01*
X134127592Y-83037052D01*
X135264645Y-81900000D01*
X135335355Y-81900000D01*
X136472408Y-83037052D01*
X136696530Y-82883737D01*
X136861614Y-82592385D01*
X136966685Y-82274425D01*
X137007707Y-81942076D01*
X136992272Y-81732565D01*
X137800000Y-81732565D01*
X137800000Y-82067435D01*
X137865330Y-82395872D01*
X137993479Y-82705252D01*
X138179523Y-82983687D01*
X138416313Y-83220477D01*
X138694748Y-83406521D01*
X139004128Y-83534670D01*
X139332565Y-83600000D01*
X139667435Y-83600000D01*
X139995872Y-83534670D01*
X140305252Y-83406521D01*
X140583687Y-83220477D01*
X140820477Y-82983687D01*
X141006521Y-82705252D01*
X141134670Y-82395872D01*
X141200000Y-82067435D01*
X141200000Y-81732565D01*
X141134670Y-81404128D01*
X141006521Y-81094748D01*
X140820477Y-80816313D01*
X140583687Y-80579523D01*
X140305252Y-80393479D01*
X139995872Y-80265330D01*
X139667435Y-80200000D01*
X139332565Y-80200000D01*
X139004128Y-80265330D01*
X138694748Y-80393479D01*
X138416313Y-80579523D01*
X138179523Y-80816313D01*
X137993479Y-81094748D01*
X137865330Y-81404128D01*
X137800000Y-81732565D01*
X136992272Y-81732565D01*
X136983103Y-81608111D01*
X136893818Y-81285362D01*
X136743283Y-80986233D01*
X136696530Y-80916263D01*
X136472408Y-80762948D01*
X135335355Y-81900000D01*
X135264645Y-81900000D01*
X134127592Y-80762948D01*
X133903470Y-80916263D01*
X133738386Y-81207615D01*
X133633315Y-81525575D01*
X133592293Y-81857924D01*
X132801508Y-81857924D01*
X132783103Y-81608111D01*
X132693818Y-81285362D01*
X132543283Y-80986233D01*
X132496530Y-80916263D01*
X132272408Y-80762948D01*
X131135355Y-81900000D01*
X131064645Y-81900000D01*
X129927592Y-80762948D01*
X129703470Y-80916263D01*
X129538386Y-81207615D01*
X129433315Y-81525575D01*
X129392293Y-81857924D01*
X128601508Y-81857924D01*
X128583103Y-81608111D01*
X128493818Y-81285362D01*
X128343283Y-80986233D01*
X128296530Y-80916263D01*
X128072408Y-80762948D01*
X126935355Y-81900000D01*
X126864645Y-81900000D01*
X125727592Y-80762948D01*
X125503470Y-80916263D01*
X125338386Y-81207615D01*
X125233315Y-81525575D01*
X125192293Y-81857924D01*
X124400000Y-81857924D01*
X124400000Y-81732565D01*
X124334670Y-81404128D01*
X124206521Y-81094748D01*
X124020477Y-80816313D01*
X123931756Y-80727592D01*
X125762948Y-80727592D01*
X126900000Y-81864645D01*
X128037052Y-80727592D01*
X129962948Y-80727592D01*
X131100000Y-81864645D01*
X132237052Y-80727592D01*
X134162948Y-80727592D01*
X135300000Y-81864645D01*
X136437052Y-80727592D01*
X136283737Y-80503470D01*
X135992385Y-80338386D01*
X135674425Y-80233315D01*
X135342076Y-80192293D01*
X135008111Y-80216897D01*
X134685362Y-80306182D01*
X134386233Y-80456717D01*
X134316263Y-80503470D01*
X134162948Y-80727592D01*
X132237052Y-80727592D01*
X132083737Y-80503470D01*
X131792385Y-80338386D01*
X131474425Y-80233315D01*
X131142076Y-80192293D01*
X130808111Y-80216897D01*
X130485362Y-80306182D01*
X130186233Y-80456717D01*
X130116263Y-80503470D01*
X129962948Y-80727592D01*
X128037052Y-80727592D01*
X127883737Y-80503470D01*
X127592385Y-80338386D01*
X127274425Y-80233315D01*
X126942076Y-80192293D01*
X126608111Y-80216897D01*
X126285362Y-80306182D01*
X125986233Y-80456717D01*
X125916263Y-80503470D01*
X125762948Y-80727592D01*
X123931756Y-80727592D01*
X123783687Y-80579523D01*
X123505252Y-80393479D01*
X123195872Y-80265330D01*
X122867435Y-80200000D01*
X122532565Y-80200000D01*
X122204128Y-80265330D01*
X121894748Y-80393479D01*
X121616313Y-80579523D01*
X121400000Y-80795836D01*
X121400000Y-80481370D01*
X121831371Y-80050000D01*
X122717741Y-80050000D01*
X122764100Y-80053746D01*
X122796329Y-80050000D01*
X131060707Y-80050000D01*
X131100000Y-80053870D01*
X131139293Y-80050000D01*
X142668630Y-80050000D01*
X142900001Y-80281371D01*
X142900001Y-80391303D01*
X142894748Y-80393479D01*
X142616313Y-80579523D01*
X142379523Y-80816313D01*
X142193479Y-81094748D01*
X142065330Y-81404128D01*
X142000000Y-81732565D01*
X142000000Y-82067435D01*
X142065330Y-82395872D01*
X142193479Y-82705252D01*
X142379523Y-82983687D01*
X142616313Y-83220477D01*
X142894748Y-83406521D01*
X143204128Y-83534670D01*
X143532565Y-83600000D01*
X143867435Y-83600000D01*
X144195872Y-83534670D01*
X144505252Y-83406521D01*
X144783687Y-83220477D01*
X145020477Y-82983687D01*
X145206521Y-82705252D01*
X145208696Y-82700000D01*
X146391304Y-82700000D01*
X146393479Y-82705252D01*
X146579523Y-82983687D01*
X146816313Y-83220477D01*
X147094748Y-83406521D01*
X147404128Y-83534670D01*
X147732565Y-83600000D01*
X148067435Y-83600000D01*
X148395872Y-83534670D01*
X148705252Y-83406521D01*
X148983687Y-83220477D01*
X149220477Y-82983687D01*
X149406521Y-82705252D01*
X149408696Y-82700000D01*
X150591304Y-82700000D01*
X150593479Y-82705252D01*
X150779523Y-82983687D01*
X151016313Y-83220477D01*
X151294748Y-83406521D01*
X151604128Y-83534670D01*
X151932565Y-83600000D01*
X152267435Y-83600000D01*
X152595872Y-83534670D01*
X152905252Y-83406521D01*
X153183687Y-83220477D01*
X153331756Y-83072408D01*
X155162948Y-83072408D01*
X155316263Y-83296530D01*
X155607615Y-83461614D01*
X155925575Y-83566685D01*
X156257924Y-83607707D01*
X156591889Y-83583103D01*
X156914638Y-83493818D01*
X157213767Y-83343283D01*
X157283737Y-83296530D01*
X157437052Y-83072408D01*
X156300000Y-81935355D01*
X155162948Y-83072408D01*
X153331756Y-83072408D01*
X153420477Y-82983687D01*
X153606521Y-82705252D01*
X153734670Y-82395872D01*
X153800000Y-82067435D01*
X153800000Y-81857924D01*
X154592293Y-81857924D01*
X154616897Y-82191889D01*
X154706182Y-82514638D01*
X154856717Y-82813767D01*
X154903470Y-82883737D01*
X155127592Y-83037052D01*
X156264645Y-81900000D01*
X156335355Y-81900000D01*
X157472408Y-83037052D01*
X157696530Y-82883737D01*
X157861614Y-82592385D01*
X157966685Y-82274425D01*
X158007707Y-81942076D01*
X157983103Y-81608111D01*
X157893818Y-81285362D01*
X157743283Y-80986233D01*
X157696530Y-80916263D01*
X157472408Y-80762948D01*
X156335355Y-81900000D01*
X156264645Y-81900000D01*
X155127592Y-80762948D01*
X154903470Y-80916263D01*
X154738386Y-81207615D01*
X154633315Y-81525575D01*
X154592293Y-81857924D01*
X153800000Y-81857924D01*
X153800000Y-81732565D01*
X153734670Y-81404128D01*
X153606521Y-81094748D01*
X153420477Y-80816313D01*
X153331756Y-80727592D01*
X155162948Y-80727592D01*
X156300000Y-81864645D01*
X157437052Y-80727592D01*
X157283737Y-80503470D01*
X156992385Y-80338386D01*
X156674425Y-80233315D01*
X156342076Y-80192293D01*
X156008111Y-80216897D01*
X155685362Y-80306182D01*
X155386233Y-80456717D01*
X155316263Y-80503470D01*
X155162948Y-80727592D01*
X153331756Y-80727592D01*
X153183687Y-80579523D01*
X152905252Y-80393479D01*
X152595872Y-80265330D01*
X152267435Y-80200000D01*
X151932565Y-80200000D01*
X151604128Y-80265330D01*
X151294748Y-80393479D01*
X151016313Y-80579523D01*
X150779523Y-80816313D01*
X150593479Y-81094748D01*
X150591304Y-81100000D01*
X149408696Y-81100000D01*
X149406521Y-81094748D01*
X149220477Y-80816313D01*
X148983687Y-80579523D01*
X148705252Y-80393479D01*
X148395872Y-80265330D01*
X148067435Y-80200000D01*
X147732565Y-80200000D01*
X147404128Y-80265330D01*
X147094748Y-80393479D01*
X146816313Y-80579523D01*
X146579523Y-80816313D01*
X146393479Y-81094748D01*
X146391304Y-81100000D01*
X145208696Y-81100000D01*
X145206521Y-81094748D01*
X145020477Y-80816313D01*
X144783687Y-80579523D01*
X144505252Y-80393479D01*
X144500000Y-80391304D01*
X144500000Y-79989282D01*
X144503869Y-79949999D01*
X144500000Y-79910716D01*
X144500000Y-79910707D01*
X144488424Y-79793173D01*
X144442679Y-79642372D01*
X144390393Y-79544553D01*
X144368393Y-79503393D01*
X144293469Y-79412098D01*
X144268422Y-79381578D01*
X144237902Y-79356531D01*
X143593473Y-78712103D01*
X143568422Y-78681578D01*
X143446606Y-78581607D01*
X143307628Y-78507321D01*
X143156827Y-78461576D01*
X143039293Y-78450000D01*
X143039291Y-78450000D01*
X143000000Y-78446130D01*
X142960709Y-78450000D01*
X131900000Y-78450000D01*
X131900000Y-77908696D01*
X131905252Y-77906521D01*
X132183687Y-77720477D01*
X132331756Y-77572408D01*
X134162948Y-77572408D01*
X134316263Y-77796530D01*
X134607615Y-77961614D01*
X134925575Y-78066685D01*
X135257924Y-78107707D01*
X135591889Y-78083103D01*
X135914638Y-77993818D01*
X136213767Y-77843283D01*
X136283737Y-77796530D01*
X136437052Y-77572408D01*
X135300000Y-76435355D01*
X134162948Y-77572408D01*
X132331756Y-77572408D01*
X132420477Y-77483687D01*
X132606521Y-77205252D01*
X132734670Y-76895872D01*
X132800000Y-76567435D01*
X132800000Y-76357924D01*
X133592293Y-76357924D01*
X133616897Y-76691889D01*
X133706182Y-77014638D01*
X133856717Y-77313767D01*
X133903470Y-77383737D01*
X134127592Y-77537052D01*
X135264645Y-76400000D01*
X135335355Y-76400000D01*
X136472408Y-77537052D01*
X136696530Y-77383737D01*
X136861614Y-77092385D01*
X136966685Y-76774425D01*
X137007707Y-76442076D01*
X136992272Y-76232565D01*
X137800000Y-76232565D01*
X137800000Y-76567435D01*
X137865330Y-76895872D01*
X137993479Y-77205252D01*
X138179523Y-77483687D01*
X138416313Y-77720477D01*
X138694748Y-77906521D01*
X139004128Y-78034670D01*
X139332565Y-78100000D01*
X139667435Y-78100000D01*
X139995872Y-78034670D01*
X140305252Y-77906521D01*
X140583687Y-77720477D01*
X140820477Y-77483687D01*
X141006521Y-77205252D01*
X141134670Y-76895872D01*
X141200000Y-76567435D01*
X141200000Y-76232565D01*
X142000000Y-76232565D01*
X142000000Y-76567435D01*
X142065330Y-76895872D01*
X142193479Y-77205252D01*
X142379523Y-77483687D01*
X142616313Y-77720477D01*
X142894748Y-77906521D01*
X143204128Y-78034670D01*
X143532565Y-78100000D01*
X143867435Y-78100000D01*
X144195872Y-78034670D01*
X144505252Y-77906521D01*
X144783687Y-77720477D01*
X145020477Y-77483687D01*
X145206521Y-77205252D01*
X145334670Y-76895872D01*
X145400000Y-76567435D01*
X145400000Y-76232565D01*
X146200000Y-76232565D01*
X146200000Y-76567435D01*
X146265330Y-76895872D01*
X146393479Y-77205252D01*
X146579523Y-77483687D01*
X146816313Y-77720477D01*
X147094748Y-77906521D01*
X147404128Y-78034670D01*
X147732565Y-78100000D01*
X148067435Y-78100000D01*
X148395872Y-78034670D01*
X148705252Y-77906521D01*
X148983687Y-77720477D01*
X149220477Y-77483687D01*
X149406521Y-77205252D01*
X149408696Y-77200000D01*
X150591304Y-77200000D01*
X150593479Y-77205252D01*
X150779523Y-77483687D01*
X151016313Y-77720477D01*
X151294748Y-77906521D01*
X151300000Y-77908697D01*
X151300000Y-78810709D01*
X151296130Y-78850000D01*
X151300000Y-78889291D01*
X151300000Y-78889292D01*
X151311576Y-79006826D01*
X151353833Y-79146130D01*
X151357321Y-79157627D01*
X151431607Y-79296606D01*
X151472250Y-79346130D01*
X151531578Y-79418422D01*
X151562103Y-79443473D01*
X151906527Y-79787897D01*
X151931578Y-79818422D01*
X152053394Y-79918393D01*
X152192372Y-79992679D01*
X152343173Y-80038424D01*
X152460707Y-80050000D01*
X152460716Y-80050000D01*
X152499999Y-80053869D01*
X152539282Y-80050000D01*
X162668630Y-80050000D01*
X163450001Y-80831372D01*
X163450000Y-91789292D01*
X163461576Y-91906826D01*
X163507321Y-92057627D01*
X163581607Y-92196605D01*
X163681578Y-92318422D01*
X163803394Y-92418393D01*
X163942372Y-92492679D01*
X164093173Y-92538424D01*
X164250000Y-92553870D01*
X164406826Y-92538424D01*
X164557627Y-92492679D01*
X164696605Y-92418393D01*
X164818422Y-92318422D01*
X164918393Y-92196606D01*
X164992679Y-92057628D01*
X165038424Y-91906827D01*
X165050000Y-91789293D01*
X165050000Y-80539291D01*
X165053870Y-80500000D01*
X165050000Y-80460707D01*
X165038424Y-80343173D01*
X164992679Y-80192372D01*
X164992637Y-80192293D01*
X164918393Y-80053393D01*
X164843469Y-79962098D01*
X164818422Y-79931578D01*
X164787902Y-79906531D01*
X163593473Y-78712103D01*
X163568422Y-78681578D01*
X163446606Y-78581607D01*
X163307628Y-78507321D01*
X163156827Y-78461576D01*
X163039293Y-78450000D01*
X163039291Y-78450000D01*
X163000000Y-78446130D01*
X162960709Y-78450000D01*
X152900000Y-78450000D01*
X152900000Y-77908696D01*
X152905252Y-77906521D01*
X153183687Y-77720477D01*
X153420477Y-77483687D01*
X153606521Y-77205252D01*
X153734670Y-76895872D01*
X153800000Y-76567435D01*
X153800000Y-76232565D01*
X153734670Y-75904128D01*
X153606521Y-75594748D01*
X153420477Y-75316313D01*
X153183687Y-75079523D01*
X152905252Y-74893479D01*
X152595872Y-74765330D01*
X152267435Y-74700000D01*
X151932565Y-74700000D01*
X151604128Y-74765330D01*
X151294748Y-74893479D01*
X151016313Y-75079523D01*
X150779523Y-75316313D01*
X150593479Y-75594748D01*
X150591304Y-75600000D01*
X149408696Y-75600000D01*
X149406521Y-75594748D01*
X149220477Y-75316313D01*
X148983687Y-75079523D01*
X148705252Y-74893479D01*
X148395872Y-74765330D01*
X148067435Y-74700000D01*
X147732565Y-74700000D01*
X147404128Y-74765330D01*
X147094748Y-74893479D01*
X146816313Y-75079523D01*
X146579523Y-75316313D01*
X146393479Y-75594748D01*
X146265330Y-75904128D01*
X146200000Y-76232565D01*
X145400000Y-76232565D01*
X145334670Y-75904128D01*
X145206521Y-75594748D01*
X145020477Y-75316313D01*
X144783687Y-75079523D01*
X144505252Y-74893479D01*
X144195872Y-74765330D01*
X143867435Y-74700000D01*
X143532565Y-74700000D01*
X143204128Y-74765330D01*
X142894748Y-74893479D01*
X142616313Y-75079523D01*
X142379523Y-75316313D01*
X142193479Y-75594748D01*
X142065330Y-75904128D01*
X142000000Y-76232565D01*
X141200000Y-76232565D01*
X141134670Y-75904128D01*
X141006521Y-75594748D01*
X140820477Y-75316313D01*
X140583687Y-75079523D01*
X140305252Y-74893479D01*
X139995872Y-74765330D01*
X139667435Y-74700000D01*
X139332565Y-74700000D01*
X139004128Y-74765330D01*
X138694748Y-74893479D01*
X138416313Y-75079523D01*
X138179523Y-75316313D01*
X137993479Y-75594748D01*
X137865330Y-75904128D01*
X137800000Y-76232565D01*
X136992272Y-76232565D01*
X136983103Y-76108111D01*
X136893818Y-75785362D01*
X136743283Y-75486233D01*
X136696530Y-75416263D01*
X136472408Y-75262948D01*
X135335355Y-76400000D01*
X135264645Y-76400000D01*
X134127592Y-75262948D01*
X133903470Y-75416263D01*
X133738386Y-75707615D01*
X133633315Y-76025575D01*
X133592293Y-76357924D01*
X132800000Y-76357924D01*
X132800000Y-76232565D01*
X132734670Y-75904128D01*
X132606521Y-75594748D01*
X132420477Y-75316313D01*
X132331756Y-75227592D01*
X134162948Y-75227592D01*
X135300000Y-76364645D01*
X136437052Y-75227592D01*
X136283737Y-75003470D01*
X135992385Y-74838386D01*
X135674425Y-74733315D01*
X135342076Y-74692293D01*
X135008111Y-74716897D01*
X134685362Y-74806182D01*
X134386233Y-74956717D01*
X134316263Y-75003470D01*
X134162948Y-75227592D01*
X132331756Y-75227592D01*
X132183687Y-75079523D01*
X131905252Y-74893479D01*
X131595872Y-74765330D01*
X131267435Y-74700000D01*
X130932565Y-74700000D01*
X130604128Y-74765330D01*
X130294748Y-74893479D01*
X130016313Y-75079523D01*
X129779523Y-75316313D01*
X129593479Y-75594748D01*
X129465330Y-75904128D01*
X129400000Y-76232565D01*
X129400000Y-76567435D01*
X129465330Y-76895872D01*
X129593479Y-77205252D01*
X129779523Y-77483687D01*
X130016313Y-77720477D01*
X130294748Y-77906521D01*
X130300001Y-77908697D01*
X130300001Y-78450000D01*
X123536088Y-78450000D01*
X123526306Y-77892453D01*
X123783687Y-77720477D01*
X123931756Y-77572408D01*
X125762948Y-77572408D01*
X125916263Y-77796530D01*
X126207615Y-77961614D01*
X126525575Y-78066685D01*
X126857924Y-78107707D01*
X127191889Y-78083103D01*
X127514638Y-77993818D01*
X127813767Y-77843283D01*
X127883737Y-77796530D01*
X128037052Y-77572408D01*
X126900000Y-76435355D01*
X125762948Y-77572408D01*
X123931756Y-77572408D01*
X124020477Y-77483687D01*
X124206521Y-77205252D01*
X124334670Y-76895872D01*
X124400000Y-76567435D01*
X124400000Y-76357924D01*
X125192293Y-76357924D01*
X125216897Y-76691889D01*
X125306182Y-77014638D01*
X125456717Y-77313767D01*
X125503470Y-77383737D01*
X125727592Y-77537052D01*
X126864645Y-76400000D01*
X126935355Y-76400000D01*
X128072408Y-77537052D01*
X128296530Y-77383737D01*
X128461614Y-77092385D01*
X128566685Y-76774425D01*
X128607707Y-76442076D01*
X128583103Y-76108111D01*
X128493818Y-75785362D01*
X128343283Y-75486233D01*
X128296530Y-75416263D01*
X128072408Y-75262948D01*
X126935355Y-76400000D01*
X126864645Y-76400000D01*
X125727592Y-75262948D01*
X125503470Y-75416263D01*
X125338386Y-75707615D01*
X125233315Y-76025575D01*
X125192293Y-76357924D01*
X124400000Y-76357924D01*
X124400000Y-76232565D01*
X124334670Y-75904128D01*
X124206521Y-75594748D01*
X124020477Y-75316313D01*
X123931756Y-75227592D01*
X125762948Y-75227592D01*
X126900000Y-76364645D01*
X128037052Y-75227592D01*
X127883737Y-75003470D01*
X127592385Y-74838386D01*
X127274425Y-74733315D01*
X126942076Y-74692293D01*
X126608111Y-74716897D01*
X126285362Y-74806182D01*
X125986233Y-74956717D01*
X125916263Y-75003470D01*
X125762948Y-75227592D01*
X123931756Y-75227592D01*
X123783687Y-75079523D01*
X123505252Y-74893479D01*
X123195872Y-74765330D01*
X122867435Y-74700000D01*
X122532565Y-74700000D01*
X122204128Y-74765330D01*
X121894748Y-74893479D01*
X121616313Y-75079523D01*
X121379523Y-75316313D01*
X121193479Y-75594748D01*
X121065330Y-75904128D01*
X121000000Y-76232565D01*
X121000000Y-76567435D01*
X121065330Y-76895872D01*
X121193479Y-77205252D01*
X121379523Y-77483687D01*
X121616313Y-77720477D01*
X121894748Y-77906521D01*
X121926539Y-77919689D01*
X121935842Y-78450000D01*
X121539282Y-78450000D01*
X121499999Y-78446131D01*
X121460716Y-78450000D01*
X121460707Y-78450000D01*
X121343173Y-78461576D01*
X121192372Y-78507321D01*
X121053393Y-78581607D01*
X120962098Y-78656531D01*
X120931578Y-78681578D01*
X120906531Y-78712098D01*
X120062103Y-79556527D01*
X120031578Y-79581578D01*
X119977151Y-79647899D01*
X119931607Y-79703394D01*
X119883620Y-79793172D01*
X119857321Y-79842373D01*
X119811576Y-79993174D01*
X119800000Y-80110707D01*
X119796130Y-80150000D01*
X119800000Y-80189291D01*
X119800000Y-80850230D01*
X119672408Y-80762948D01*
X118535355Y-81900000D01*
X119672408Y-83037052D01*
X119800000Y-82949770D01*
X119800001Y-86318628D01*
X119668630Y-86450000D01*
X116960707Y-86450000D01*
X116843173Y-86461576D01*
X116692372Y-86507321D01*
X116553394Y-86581607D01*
X116431578Y-86681578D01*
X116331607Y-86803394D01*
X116257321Y-86942372D01*
X116211576Y-87093173D01*
X116196130Y-87250000D01*
X110900000Y-87250000D01*
X110900000Y-83408696D01*
X110905252Y-83406521D01*
X111183687Y-83220477D01*
X111420477Y-82983687D01*
X111606521Y-82705252D01*
X111734670Y-82395872D01*
X111800000Y-82067435D01*
X111800000Y-81732565D01*
X112600000Y-81732565D01*
X112600000Y-82067435D01*
X112665330Y-82395872D01*
X112793479Y-82705252D01*
X112979523Y-82983687D01*
X113216313Y-83220477D01*
X113494748Y-83406521D01*
X113804128Y-83534670D01*
X114132565Y-83600000D01*
X114467435Y-83600000D01*
X114795872Y-83534670D01*
X115105252Y-83406521D01*
X115383687Y-83220477D01*
X115531756Y-83072408D01*
X117362948Y-83072408D01*
X117516263Y-83296530D01*
X117807615Y-83461614D01*
X118125575Y-83566685D01*
X118457924Y-83607707D01*
X118791889Y-83583103D01*
X119114638Y-83493818D01*
X119413767Y-83343283D01*
X119483737Y-83296530D01*
X119637052Y-83072408D01*
X118500000Y-81935355D01*
X117362948Y-83072408D01*
X115531756Y-83072408D01*
X115620477Y-82983687D01*
X115806521Y-82705252D01*
X115934670Y-82395872D01*
X116000000Y-82067435D01*
X116000000Y-81857924D01*
X116792293Y-81857924D01*
X116816897Y-82191889D01*
X116906182Y-82514638D01*
X117056717Y-82813767D01*
X117103470Y-82883737D01*
X117327592Y-83037052D01*
X118464645Y-81900000D01*
X117327592Y-80762948D01*
X117103470Y-80916263D01*
X116938386Y-81207615D01*
X116833315Y-81525575D01*
X116792293Y-81857924D01*
X116000000Y-81857924D01*
X116000000Y-81732565D01*
X115934670Y-81404128D01*
X115806521Y-81094748D01*
X115620477Y-80816313D01*
X115531756Y-80727592D01*
X117362948Y-80727592D01*
X118500000Y-81864645D01*
X119637052Y-80727592D01*
X119483737Y-80503470D01*
X119192385Y-80338386D01*
X118874425Y-80233315D01*
X118542076Y-80192293D01*
X118208111Y-80216897D01*
X117885362Y-80306182D01*
X117586233Y-80456717D01*
X117516263Y-80503470D01*
X117362948Y-80727592D01*
X115531756Y-80727592D01*
X115383687Y-80579523D01*
X115105252Y-80393479D01*
X114795872Y-80265330D01*
X114467435Y-80200000D01*
X114132565Y-80200000D01*
X113804128Y-80265330D01*
X113494748Y-80393479D01*
X113216313Y-80579523D01*
X112979523Y-80816313D01*
X112793479Y-81094748D01*
X112665330Y-81404128D01*
X112600000Y-81732565D01*
X111800000Y-81732565D01*
X111734670Y-81404128D01*
X111606521Y-81094748D01*
X111420477Y-80816313D01*
X111183687Y-80579523D01*
X110905252Y-80393479D01*
X110900000Y-80391304D01*
X110900000Y-77908696D01*
X110905252Y-77906521D01*
X111183687Y-77720477D01*
X111420477Y-77483687D01*
X111606521Y-77205252D01*
X111608696Y-77200000D01*
X112791304Y-77200000D01*
X112793479Y-77205252D01*
X112979523Y-77483687D01*
X113216313Y-77720477D01*
X113494748Y-77906521D01*
X113804128Y-78034670D01*
X114132565Y-78100000D01*
X114467435Y-78100000D01*
X114795872Y-78034670D01*
X115105252Y-77906521D01*
X115383687Y-77720477D01*
X115531756Y-77572408D01*
X117362948Y-77572408D01*
X117516263Y-77796530D01*
X117807615Y-77961614D01*
X118125575Y-78066685D01*
X118457924Y-78107707D01*
X118791889Y-78083103D01*
X119114638Y-77993818D01*
X119413767Y-77843283D01*
X119483737Y-77796530D01*
X119637052Y-77572408D01*
X118500000Y-76435355D01*
X117362948Y-77572408D01*
X115531756Y-77572408D01*
X115620477Y-77483687D01*
X115806521Y-77205252D01*
X115934670Y-76895872D01*
X116000000Y-76567435D01*
X116000000Y-76357924D01*
X116792293Y-76357924D01*
X116816897Y-76691889D01*
X116906182Y-77014638D01*
X117056717Y-77313767D01*
X117103470Y-77383737D01*
X117327592Y-77537052D01*
X118464645Y-76400000D01*
X118535355Y-76400000D01*
X119672408Y-77537052D01*
X119896530Y-77383737D01*
X120061614Y-77092385D01*
X120166685Y-76774425D01*
X120207707Y-76442076D01*
X120183103Y-76108111D01*
X120093818Y-75785362D01*
X119943283Y-75486233D01*
X119896530Y-75416263D01*
X119672408Y-75262948D01*
X118535355Y-76400000D01*
X118464645Y-76400000D01*
X117327592Y-75262948D01*
X117103470Y-75416263D01*
X116938386Y-75707615D01*
X116833315Y-76025575D01*
X116792293Y-76357924D01*
X116000000Y-76357924D01*
X116000000Y-76232565D01*
X115934670Y-75904128D01*
X115806521Y-75594748D01*
X115620477Y-75316313D01*
X115531756Y-75227592D01*
X117362948Y-75227592D01*
X118500000Y-76364645D01*
X119637052Y-75227592D01*
X119483737Y-75003470D01*
X119192385Y-74838386D01*
X118874425Y-74733315D01*
X118542076Y-74692293D01*
X118208111Y-74716897D01*
X117885362Y-74806182D01*
X117586233Y-74956717D01*
X117516263Y-75003470D01*
X117362948Y-75227592D01*
X115531756Y-75227592D01*
X115383687Y-75079523D01*
X115105252Y-74893479D01*
X115100000Y-74891304D01*
X115100000Y-74331370D01*
X115381371Y-74050000D01*
X154748528Y-74050000D01*
X155500001Y-74801473D01*
X155500001Y-74891303D01*
X155494748Y-74893479D01*
X155216313Y-75079523D01*
X154979523Y-75316313D01*
X154793479Y-75594748D01*
X154665330Y-75904128D01*
X154600000Y-76232565D01*
X154600000Y-76567435D01*
X154665330Y-76895872D01*
X154793479Y-77205252D01*
X154979523Y-77483687D01*
X155216313Y-77720477D01*
X155494748Y-77906521D01*
X155804128Y-78034670D01*
X156132565Y-78100000D01*
X156467435Y-78100000D01*
X156795872Y-78034670D01*
X157105252Y-77906521D01*
X157383687Y-77720477D01*
X157620477Y-77483687D01*
X157806521Y-77205252D01*
X157934670Y-76895872D01*
X158000000Y-76567435D01*
X158000000Y-76232565D01*
X157993523Y-76200000D01*
X170943710Y-76200000D01*
X170968810Y-76454845D01*
X171043145Y-76699896D01*
X171163860Y-76925736D01*
X171326313Y-77123687D01*
X171524264Y-77286140D01*
X171750104Y-77406855D01*
X171995155Y-77481190D01*
X172186136Y-77500000D01*
X174813864Y-77500000D01*
X175004845Y-77481190D01*
X175249896Y-77406855D01*
X175475736Y-77286140D01*
X175673687Y-77123687D01*
X175836140Y-76925736D01*
X175956855Y-76699896D01*
X176031190Y-76454845D01*
X176056290Y-76200000D01*
X176031190Y-75945155D01*
X175956855Y-75700104D01*
X175836140Y-75474264D01*
X175673687Y-75276313D01*
X175475736Y-75113860D01*
X175249896Y-74993145D01*
X175004845Y-74918810D01*
X174813864Y-74900000D01*
X172186136Y-74900000D01*
X171995155Y-74918810D01*
X171750104Y-74993145D01*
X171524264Y-75113860D01*
X171326313Y-75276313D01*
X171163860Y-75474264D01*
X171043145Y-75700104D01*
X170968810Y-75945155D01*
X170943710Y-76200000D01*
X157993523Y-76200000D01*
X157934670Y-75904128D01*
X157806521Y-75594748D01*
X157620477Y-75316313D01*
X157383687Y-75079523D01*
X157105252Y-74893479D01*
X157100000Y-74891304D01*
X157100000Y-74509393D01*
X157103870Y-74470102D01*
X157100000Y-74430809D01*
X157088424Y-74313275D01*
X157042679Y-74162474D01*
X156982560Y-74050000D01*
X156968393Y-74023495D01*
X156928869Y-73975335D01*
X156868422Y-73901680D01*
X156837897Y-73876629D01*
X156186268Y-73225000D01*
X167500000Y-73225000D01*
X167500000Y-74225000D01*
X167529856Y-74478137D01*
X167608523Y-74720585D01*
X167732978Y-74943028D01*
X167898438Y-75136917D01*
X168098545Y-75294800D01*
X168325608Y-75410611D01*
X168571981Y-75479847D01*
X168775000Y-75424745D01*
X168775000Y-73225000D01*
X168825000Y-73225000D01*
X168825000Y-75424745D01*
X169028019Y-75479847D01*
X169274392Y-75410611D01*
X169501455Y-75294800D01*
X169701562Y-75136917D01*
X169867022Y-74943028D01*
X169991477Y-74720585D01*
X170070144Y-74478137D01*
X170100000Y-74225000D01*
X170100000Y-73225000D01*
X168825000Y-73225000D01*
X168775000Y-73225000D01*
X167500000Y-73225000D01*
X156186268Y-73225000D01*
X155673371Y-72712103D01*
X155648320Y-72681578D01*
X155526504Y-72581607D01*
X155387526Y-72507321D01*
X155236725Y-72461576D01*
X155119191Y-72450000D01*
X155119189Y-72450000D01*
X155079898Y-72446130D01*
X155040607Y-72450000D01*
X115089282Y-72450000D01*
X115049999Y-72446131D01*
X115010716Y-72450000D01*
X115010707Y-72450000D01*
X114893173Y-72461576D01*
X114742372Y-72507321D01*
X114603393Y-72581607D01*
X114512098Y-72656531D01*
X114481578Y-72681578D01*
X114456531Y-72712098D01*
X113762103Y-73406527D01*
X113731578Y-73431578D01*
X113677151Y-73497899D01*
X113631607Y-73553394D01*
X113629344Y-73557628D01*
X113557321Y-73692373D01*
X113511576Y-73843174D01*
X113505814Y-73901680D01*
X113496130Y-74000000D01*
X113500000Y-74039291D01*
X113500000Y-74891303D01*
X113494748Y-74893479D01*
X113216313Y-75079523D01*
X112979523Y-75316313D01*
X112793479Y-75594748D01*
X112791304Y-75600000D01*
X111608696Y-75600000D01*
X111606521Y-75594748D01*
X111420477Y-75316313D01*
X111183687Y-75079523D01*
X110905252Y-74893479D01*
X110595872Y-74765330D01*
X110267435Y-74700000D01*
X109932565Y-74700000D01*
X109604128Y-74765330D01*
X109294748Y-74893479D01*
X109016313Y-75079523D01*
X108779523Y-75316313D01*
X108593479Y-75594748D01*
X108465330Y-75904128D01*
X108400000Y-76232565D01*
X108400000Y-76567435D01*
X108465330Y-76895872D01*
X108593479Y-77205252D01*
X108779523Y-77483687D01*
X109016313Y-77720477D01*
X109294748Y-77906521D01*
X109300000Y-77908697D01*
X109300001Y-80391303D01*
X109294748Y-80393479D01*
X109016313Y-80579523D01*
X108779523Y-80816313D01*
X108593479Y-81094748D01*
X108465330Y-81404128D01*
X108400000Y-81732565D01*
X108400000Y-82067435D01*
X108465330Y-82395872D01*
X108593479Y-82705252D01*
X108779523Y-82983687D01*
X109016313Y-83220477D01*
X109294748Y-83406521D01*
X109300000Y-83408696D01*
X109300001Y-105568628D01*
X108462103Y-106406527D01*
X108431578Y-106431578D01*
X108377151Y-106497899D01*
X108331607Y-106553394D01*
X108323590Y-106568393D01*
X108257321Y-106692373D01*
X108211576Y-106843174D01*
X108200000Y-106960707D01*
X108196130Y-107000000D01*
X108200000Y-107039291D01*
X108200000Y-107698549D01*
X107500000Y-107698549D01*
X107441190Y-107704341D01*
X107384640Y-107721496D01*
X107332523Y-107749353D01*
X107286842Y-107786842D01*
X107249353Y-107832523D01*
X107221496Y-107884640D01*
X107204341Y-107941190D01*
X107198549Y-108000000D01*
X96600000Y-108000000D01*
X96600000Y-72451429D01*
X97583926Y-72451429D01*
X97953075Y-72859883D01*
X98550341Y-73204266D01*
X99203318Y-73425512D01*
X99886910Y-73515116D01*
X100574848Y-73469637D01*
X101240695Y-73290821D01*
X101858863Y-72985541D01*
X102046925Y-72859883D01*
X102416074Y-72451429D01*
X100000000Y-70035355D01*
X97583926Y-72451429D01*
X96600000Y-72451429D01*
X96600000Y-70834151D01*
X96709179Y-71240695D01*
X97014459Y-71858863D01*
X97140117Y-72046925D01*
X97548571Y-72416074D01*
X99964645Y-70000000D01*
X100035355Y-70000000D01*
X102451429Y-72416074D01*
X102718171Y-72175000D01*
X167500000Y-72175000D01*
X167500000Y-73175000D01*
X168775000Y-73175000D01*
X168775000Y-70975255D01*
X168825000Y-70975255D01*
X168825000Y-73175000D01*
X170100000Y-73175000D01*
X170100000Y-72451429D01*
X189583926Y-72451429D01*
X189953075Y-72859883D01*
X190550341Y-73204266D01*
X191203318Y-73425512D01*
X191886910Y-73515116D01*
X192574848Y-73469637D01*
X193240695Y-73290821D01*
X193858863Y-72985541D01*
X194046925Y-72859883D01*
X194416074Y-72451429D01*
X192000000Y-70035355D01*
X189583926Y-72451429D01*
X170100000Y-72451429D01*
X170100000Y-72175000D01*
X170070144Y-71921863D01*
X169991477Y-71679415D01*
X169867022Y-71456972D01*
X169701562Y-71263083D01*
X169501455Y-71105200D01*
X169274392Y-70989389D01*
X169028019Y-70920153D01*
X168825000Y-70975255D01*
X168775000Y-70975255D01*
X168571981Y-70920153D01*
X168325608Y-70989389D01*
X168098545Y-71105200D01*
X167898438Y-71263083D01*
X167732978Y-71456972D01*
X167608523Y-71679415D01*
X167529856Y-71921863D01*
X167500000Y-72175000D01*
X102718171Y-72175000D01*
X102859883Y-72046925D01*
X103204266Y-71449659D01*
X103425512Y-70796682D01*
X103515116Y-70113090D01*
X103469637Y-69425152D01*
X103334706Y-68922716D01*
X108300000Y-68922716D01*
X108300000Y-69277284D01*
X108369173Y-69625041D01*
X108504861Y-69952620D01*
X108701849Y-70247433D01*
X108952567Y-70498151D01*
X109247380Y-70695139D01*
X109574959Y-70830827D01*
X109922716Y-70900000D01*
X110277284Y-70900000D01*
X110625041Y-70830827D01*
X110952620Y-70695139D01*
X111247433Y-70498151D01*
X111498151Y-70247433D01*
X111695139Y-69952620D01*
X111830827Y-69625041D01*
X111900000Y-69277284D01*
X111900000Y-68922716D01*
X154500000Y-68922716D01*
X154500000Y-69277284D01*
X154569173Y-69625041D01*
X154704861Y-69952620D01*
X154901849Y-70247433D01*
X155152567Y-70498151D01*
X155447380Y-70695139D01*
X155774959Y-70830827D01*
X156122716Y-70900000D01*
X156477284Y-70900000D01*
X156825041Y-70830827D01*
X157152620Y-70695139D01*
X157447433Y-70498151D01*
X157517565Y-70428019D01*
X171220153Y-70428019D01*
X171289389Y-70674392D01*
X171405200Y-70901455D01*
X171563083Y-71101562D01*
X171756972Y-71267022D01*
X171979415Y-71391477D01*
X172221863Y-71470144D01*
X172475000Y-71500000D01*
X173475000Y-71500000D01*
X173475000Y-70225000D01*
X173525000Y-70225000D01*
X173525000Y-71500000D01*
X174525000Y-71500000D01*
X174778137Y-71470144D01*
X175020585Y-71391477D01*
X175243028Y-71267022D01*
X175436917Y-71101562D01*
X175594800Y-70901455D01*
X175710611Y-70674392D01*
X175779847Y-70428019D01*
X175724745Y-70225000D01*
X173525000Y-70225000D01*
X173475000Y-70225000D01*
X171275255Y-70225000D01*
X171220153Y-70428019D01*
X157517565Y-70428019D01*
X157698151Y-70247433D01*
X157882202Y-69971981D01*
X171220153Y-69971981D01*
X171275255Y-70175000D01*
X173475000Y-70175000D01*
X173475000Y-68900000D01*
X173525000Y-68900000D01*
X173525000Y-70175000D01*
X175724745Y-70175000D01*
X175779847Y-69971981D01*
X175755941Y-69886910D01*
X188484884Y-69886910D01*
X188530363Y-70574848D01*
X188709179Y-71240695D01*
X189014459Y-71858863D01*
X189140117Y-72046925D01*
X189548571Y-72416074D01*
X191964645Y-70000000D01*
X189548571Y-67583926D01*
X189140117Y-67953075D01*
X188795734Y-68550341D01*
X188574488Y-69203318D01*
X188484884Y-69886910D01*
X175755941Y-69886910D01*
X175710611Y-69725608D01*
X175594800Y-69498545D01*
X175436917Y-69298438D01*
X175243028Y-69132978D01*
X175020585Y-69008523D01*
X174778137Y-68929856D01*
X174525000Y-68900000D01*
X173525000Y-68900000D01*
X173475000Y-68900000D01*
X172475000Y-68900000D01*
X172221863Y-68929856D01*
X171979415Y-69008523D01*
X171756972Y-69132978D01*
X171563083Y-69298438D01*
X171405200Y-69498545D01*
X171289389Y-69725608D01*
X171220153Y-69971981D01*
X157882202Y-69971981D01*
X157895139Y-69952620D01*
X158030827Y-69625041D01*
X158100000Y-69277284D01*
X158100000Y-68922716D01*
X158030827Y-68574959D01*
X157895139Y-68247380D01*
X157698151Y-67952567D01*
X157447433Y-67701849D01*
X157152620Y-67504861D01*
X156825041Y-67369173D01*
X156477284Y-67300000D01*
X156122716Y-67300000D01*
X155774959Y-67369173D01*
X155447380Y-67504861D01*
X155152567Y-67701849D01*
X154901849Y-67952567D01*
X154704861Y-68247380D01*
X154569173Y-68574959D01*
X154500000Y-68922716D01*
X111900000Y-68922716D01*
X111830827Y-68574959D01*
X111695139Y-68247380D01*
X111498151Y-67952567D01*
X111247433Y-67701849D01*
X110952620Y-67504861D01*
X110625041Y-67369173D01*
X110277284Y-67300000D01*
X109922716Y-67300000D01*
X109574959Y-67369173D01*
X109247380Y-67504861D01*
X108952567Y-67701849D01*
X108701849Y-67952567D01*
X108504861Y-68247380D01*
X108369173Y-68574959D01*
X108300000Y-68922716D01*
X103334706Y-68922716D01*
X103290821Y-68759305D01*
X102985541Y-68141137D01*
X102859883Y-67953075D01*
X102451429Y-67583926D01*
X100035355Y-70000000D01*
X99964645Y-70000000D01*
X99950503Y-69985858D01*
X99985858Y-69950503D01*
X100000000Y-69964645D01*
X102416074Y-67548571D01*
X102046925Y-67140117D01*
X101449659Y-66795734D01*
X100871977Y-66600000D01*
X191165849Y-66600000D01*
X190759305Y-66709179D01*
G37*
X190759305Y-66709179D02*
X190141137Y-67014459D01*
X189953075Y-67140117D01*
X189583926Y-67548571D01*
X192000000Y-69964645D01*
X192014143Y-69950503D01*
X192049498Y-69985858D01*
X192035355Y-70000000D01*
X194451429Y-72416074D01*
X194859883Y-72046925D01*
X195204266Y-71449659D01*
X195400000Y-70871977D01*
X195400000Y-111165849D01*
X195290821Y-110759305D01*
X194985541Y-110141137D01*
X194859883Y-109953075D01*
X194451429Y-109583926D01*
X192035355Y-112000000D01*
X192049498Y-112014143D01*
X192014143Y-112049498D01*
X192000000Y-112035355D01*
X189583926Y-114451429D01*
X189953075Y-114859883D01*
X190550341Y-115204266D01*
X191128023Y-115400000D01*
X100834151Y-115400000D01*
X101240695Y-115290821D01*
X101858863Y-114985541D01*
X102046925Y-114859883D01*
X102416074Y-114451429D01*
X100000000Y-112035355D01*
X99985858Y-112049498D01*
X99950503Y-112014143D01*
X99964645Y-112000000D01*
X100035355Y-112000000D01*
X102451429Y-114416074D01*
X102859883Y-114046925D01*
X103204266Y-113449659D01*
X103425512Y-112796682D01*
X103515116Y-112113090D01*
X103469637Y-111425152D01*
X103290821Y-110759305D01*
X102985541Y-110141137D01*
X102859883Y-109953075D01*
X102451429Y-109583926D01*
X100035355Y-112000000D01*
X99964645Y-112000000D01*
X97548571Y-109583926D01*
X97140117Y-109953075D01*
X96795734Y-110550341D01*
X96600000Y-111128023D01*
X96600000Y-109548571D01*
X97583926Y-109548571D01*
X100000000Y-111964645D01*
X102416074Y-109548571D01*
X102046925Y-109140117D01*
X101449659Y-108795734D01*
X100796682Y-108574488D01*
X100113090Y-108484884D01*
X99425152Y-108530363D01*
X98759305Y-108709179D01*
X98141137Y-109014459D01*
X97953075Y-109140117D01*
X97583926Y-109548571D01*
X96600000Y-109548571D01*
X96600000Y-108000000D01*
X107198549Y-108000000D01*
X107198549Y-111000000D01*
X107204341Y-111058810D01*
X107221496Y-111115360D01*
X107249353Y-111167477D01*
X107286842Y-111213158D01*
X107332523Y-111250647D01*
X107384640Y-111278504D01*
X107441190Y-111295659D01*
X107500000Y-111301451D01*
X110500000Y-111301451D01*
X110558810Y-111295659D01*
X110615360Y-111278504D01*
X110667477Y-111250647D01*
X110713158Y-111213158D01*
X110750647Y-111167477D01*
X110778504Y-111115360D01*
X110795659Y-111058810D01*
X110801451Y-111000000D01*
X110801451Y-110743468D01*
X112791888Y-110743468D01*
X112957195Y-110977831D01*
X113265542Y-111152876D01*
X113602115Y-111264403D01*
X113953978Y-111308124D01*
X114307609Y-111282360D01*
X114649420Y-111188100D01*
X114966273Y-111028968D01*
X115042805Y-110977831D01*
X115208112Y-110743468D01*
X114000000Y-109535355D01*
X112791888Y-110743468D01*
X110801451Y-110743468D01*
X110801451Y-109453978D01*
X112191876Y-109453978D01*
X112217640Y-109807609D01*
X112311900Y-110149420D01*
X112471032Y-110466273D01*
X112522169Y-110542805D01*
X112756532Y-110708112D01*
X113964645Y-109500000D01*
X114035355Y-109500000D01*
X115243468Y-110708112D01*
X115477831Y-110542805D01*
X115652876Y-110234458D01*
X115764403Y-109897885D01*
X115808124Y-109546022D01*
X115782360Y-109192391D01*
X115688100Y-108850580D01*
X115528968Y-108533727D01*
X115477831Y-108457195D01*
X115243468Y-108291888D01*
X114035355Y-109500000D01*
X113964645Y-109500000D01*
X112756532Y-108291888D01*
X112522169Y-108457195D01*
X112347124Y-108765542D01*
X112235597Y-109102115D01*
X112191876Y-109453978D01*
X110801451Y-109453978D01*
X110801451Y-108256532D01*
X112791888Y-108256532D01*
X114000000Y-109464645D01*
X115208112Y-108256532D01*
X115042805Y-108022169D01*
X115003754Y-108000000D01*
X119198549Y-108000000D01*
X119198549Y-111000000D01*
X119204341Y-111058810D01*
X119221496Y-111115360D01*
X119249353Y-111167477D01*
X119286842Y-111213158D01*
X119332523Y-111250647D01*
X119384640Y-111278504D01*
X119441190Y-111295659D01*
X119500000Y-111301451D01*
X122500000Y-111301451D01*
X122558810Y-111295659D01*
X122615360Y-111278504D01*
X122667477Y-111250647D01*
X122713158Y-111213158D01*
X122750647Y-111167477D01*
X122778504Y-111115360D01*
X122795659Y-111058810D01*
X122801451Y-111000000D01*
X122801451Y-110743468D01*
X124791888Y-110743468D01*
X124957195Y-110977831D01*
X125265542Y-111152876D01*
X125602115Y-111264403D01*
X125953978Y-111308124D01*
X126307609Y-111282360D01*
X126649420Y-111188100D01*
X126966273Y-111028968D01*
X127042805Y-110977831D01*
X127208112Y-110743468D01*
X126000000Y-109535355D01*
X124791888Y-110743468D01*
X122801451Y-110743468D01*
X122801451Y-109453978D01*
X124191876Y-109453978D01*
X124217640Y-109807609D01*
X124311900Y-110149420D01*
X124471032Y-110466273D01*
X124522169Y-110542805D01*
X124756532Y-110708112D01*
X125964645Y-109500000D01*
X126035355Y-109500000D01*
X127243468Y-110708112D01*
X127477831Y-110542805D01*
X127652876Y-110234458D01*
X127764403Y-109897885D01*
X127808124Y-109546022D01*
X127791855Y-109322716D01*
X129200000Y-109322716D01*
X129200000Y-109677284D01*
X129269173Y-110025041D01*
X129404861Y-110352620D01*
X129601849Y-110647433D01*
X129852567Y-110898151D01*
X130147380Y-111095139D01*
X130474959Y-111230827D01*
X130822716Y-111300000D01*
X131177284Y-111300000D01*
X131525041Y-111230827D01*
X131852620Y-111095139D01*
X132147433Y-110898151D01*
X132398151Y-110647433D01*
X132595139Y-110352620D01*
X132730827Y-110025041D01*
X132800000Y-109677284D01*
X132800000Y-109322716D01*
X132730827Y-108974959D01*
X132595139Y-108647380D01*
X132398151Y-108352567D01*
X132147433Y-108101849D01*
X131995006Y-108000000D01*
X136198549Y-108000000D01*
X136198549Y-111000000D01*
X136204341Y-111058810D01*
X136221496Y-111115360D01*
X136249353Y-111167477D01*
X136286842Y-111213158D01*
X136332523Y-111250647D01*
X136384640Y-111278504D01*
X136441190Y-111295659D01*
X136500000Y-111301451D01*
X137200001Y-111301451D01*
X137200001Y-112585700D01*
X137196130Y-112625000D01*
X137211577Y-112781827D01*
X137257321Y-112932627D01*
X137331607Y-113071606D01*
X137406531Y-113162901D01*
X137431579Y-113193422D01*
X137462099Y-113218469D01*
X138281527Y-114037897D01*
X138306578Y-114068422D01*
X138368977Y-114119631D01*
X138428393Y-114168393D01*
X138492764Y-114202800D01*
X138567372Y-114242679D01*
X138718173Y-114288424D01*
X138835707Y-114300000D01*
X138835709Y-114300000D01*
X138875000Y-114303870D01*
X138914291Y-114300000D01*
X158789289Y-114300000D01*
X158906823Y-114288424D01*
X159057624Y-114242679D01*
X159196602Y-114168393D01*
X159318418Y-114068422D01*
X159418389Y-113946606D01*
X159492675Y-113807628D01*
X159538420Y-113656827D01*
X159553866Y-113500000D01*
X159538420Y-113343173D01*
X159492675Y-113192372D01*
X159418389Y-113053394D01*
X159318418Y-112931578D01*
X159196602Y-112831607D01*
X159057624Y-112757321D01*
X158906823Y-112711576D01*
X158789289Y-112700000D01*
X139206370Y-112700000D01*
X138800000Y-112293630D01*
X138800000Y-111886910D01*
X188484884Y-111886910D01*
X188530363Y-112574848D01*
X188709179Y-113240695D01*
X189014459Y-113858863D01*
X189140117Y-114046925D01*
X189548571Y-114416074D01*
X191964645Y-112000000D01*
X189548571Y-109583926D01*
X189140117Y-109953075D01*
X188795734Y-110550341D01*
X188574488Y-111203318D01*
X188484884Y-111886910D01*
X138800000Y-111886910D01*
X138800000Y-111301451D01*
X139500000Y-111301451D01*
X139558810Y-111295659D01*
X139615360Y-111278504D01*
X139667477Y-111250647D01*
X139713158Y-111213158D01*
X139750647Y-111167477D01*
X139778504Y-111115360D01*
X139795659Y-111058810D01*
X139801451Y-111000000D01*
X139801451Y-110743468D01*
X141791888Y-110743468D01*
X141957195Y-110977831D01*
X142265542Y-111152876D01*
X142602115Y-111264403D01*
X142953978Y-111308124D01*
X143307609Y-111282360D01*
X143649420Y-111188100D01*
X143966273Y-111028968D01*
X144042805Y-110977831D01*
X144208112Y-110743468D01*
X143000000Y-109535355D01*
X141791888Y-110743468D01*
X139801451Y-110743468D01*
X139801451Y-109453978D01*
X141191876Y-109453978D01*
X141217640Y-109807609D01*
X141311900Y-110149420D01*
X141471032Y-110466273D01*
X141522169Y-110542805D01*
X141756532Y-110708112D01*
X142964645Y-109500000D01*
X143035355Y-109500000D01*
X144243468Y-110708112D01*
X144477831Y-110542805D01*
X144652876Y-110234458D01*
X144764403Y-109897885D01*
X144808124Y-109546022D01*
X144791855Y-109322716D01*
X146200000Y-109322716D01*
X146200000Y-109677284D01*
X146269173Y-110025041D01*
X146404861Y-110352620D01*
X146601849Y-110647433D01*
X146852567Y-110898151D01*
X147147380Y-111095139D01*
X147474959Y-111230827D01*
X147822716Y-111300000D01*
X148177284Y-111300000D01*
X148525041Y-111230827D01*
X148852620Y-111095139D01*
X149147433Y-110898151D01*
X149398151Y-110647433D01*
X149595139Y-110352620D01*
X149730827Y-110025041D01*
X149800000Y-109677284D01*
X149800000Y-109322716D01*
X149730827Y-108974959D01*
X149595139Y-108647380D01*
X149398151Y-108352567D01*
X149147433Y-108101849D01*
X148995006Y-108000000D01*
X153198549Y-108000000D01*
X153198549Y-111000000D01*
X153204341Y-111058810D01*
X153221496Y-111115360D01*
X153249353Y-111167477D01*
X153286842Y-111213158D01*
X153332523Y-111250647D01*
X153384640Y-111278504D01*
X153441190Y-111295659D01*
X153500000Y-111301451D01*
X156500000Y-111301451D01*
X156558810Y-111295659D01*
X156615360Y-111278504D01*
X156667477Y-111250647D01*
X156713158Y-111213158D01*
X156750647Y-111167477D01*
X156778504Y-111115360D01*
X156795659Y-111058810D01*
X156801451Y-111000000D01*
X156801451Y-110743468D01*
X158791888Y-110743468D01*
X158957195Y-110977831D01*
X159265542Y-111152876D01*
X159602115Y-111264403D01*
X159953978Y-111308124D01*
X160307609Y-111282360D01*
X160649420Y-111188100D01*
X160966273Y-111028968D01*
X161042805Y-110977831D01*
X161208112Y-110743468D01*
X160000000Y-109535355D01*
X158791888Y-110743468D01*
X156801451Y-110743468D01*
X156801451Y-109453978D01*
X158191876Y-109453978D01*
X158217640Y-109807609D01*
X158311900Y-110149420D01*
X158471032Y-110466273D01*
X158522169Y-110542805D01*
X158756532Y-110708112D01*
X159964645Y-109500000D01*
X160035355Y-109500000D01*
X161243468Y-110708112D01*
X161477831Y-110542805D01*
X161652876Y-110234458D01*
X161764403Y-109897885D01*
X161808124Y-109546022D01*
X161782360Y-109192391D01*
X161688100Y-108850580D01*
X161528968Y-108533727D01*
X161477831Y-108457195D01*
X161243468Y-108291888D01*
X160035355Y-109500000D01*
X159964645Y-109500000D01*
X158756532Y-108291888D01*
X158522169Y-108457195D01*
X158347124Y-108765542D01*
X158235597Y-109102115D01*
X158191876Y-109453978D01*
X156801451Y-109453978D01*
X156801451Y-108256532D01*
X158791888Y-108256532D01*
X160000000Y-109464645D01*
X161208112Y-108256532D01*
X161042805Y-108022169D01*
X160734458Y-107847124D01*
X160397885Y-107735597D01*
X160046022Y-107691876D01*
X159692391Y-107717640D01*
X159350580Y-107811900D01*
X159033727Y-107971032D01*
X158957195Y-108022169D01*
X158791888Y-108256532D01*
X156801451Y-108256532D01*
X156801451Y-108000000D01*
X156795659Y-107941190D01*
X156778504Y-107884640D01*
X156750647Y-107832523D01*
X156713158Y-107786842D01*
X156667477Y-107749353D01*
X156615360Y-107721496D01*
X156558810Y-107704341D01*
X156500000Y-107698549D01*
X153500000Y-107698549D01*
X153441190Y-107704341D01*
X153384640Y-107721496D01*
X153332523Y-107749353D01*
X153286842Y-107786842D01*
X153249353Y-107832523D01*
X153221496Y-107884640D01*
X153204341Y-107941190D01*
X153198549Y-108000000D01*
X148995006Y-108000000D01*
X148852620Y-107904861D01*
X148525041Y-107769173D01*
X148177284Y-107700000D01*
X147822716Y-107700000D01*
X147474959Y-107769173D01*
X147147380Y-107904861D01*
X146852567Y-108101849D01*
X146601849Y-108352567D01*
X146404861Y-108647380D01*
X146269173Y-108974959D01*
X146200000Y-109322716D01*
X144791855Y-109322716D01*
X144782360Y-109192391D01*
X144688100Y-108850580D01*
X144528968Y-108533727D01*
X144477831Y-108457195D01*
X144243468Y-108291888D01*
X143035355Y-109500000D01*
X142964645Y-109500000D01*
X141756532Y-108291888D01*
X141522169Y-108457195D01*
X141347124Y-108765542D01*
X141235597Y-109102115D01*
X141191876Y-109453978D01*
X139801451Y-109453978D01*
X139801451Y-108256532D01*
X141791888Y-108256532D01*
X143000000Y-109464645D01*
X144208112Y-108256532D01*
X144042805Y-108022169D01*
X143734458Y-107847124D01*
X143397885Y-107735597D01*
X143046022Y-107691876D01*
X142692391Y-107717640D01*
X142350580Y-107811900D01*
X142033727Y-107971032D01*
X141957195Y-108022169D01*
X141791888Y-108256532D01*
X139801451Y-108256532D01*
X139801451Y-108000000D01*
X139795659Y-107941190D01*
X139778504Y-107884640D01*
X139750647Y-107832523D01*
X139713158Y-107786842D01*
X139667477Y-107749353D01*
X139615360Y-107721496D01*
X139558810Y-107704341D01*
X139500000Y-107698549D01*
X136500000Y-107698549D01*
X136441190Y-107704341D01*
X136384640Y-107721496D01*
X136332523Y-107749353D01*
X136286842Y-107786842D01*
X136249353Y-107832523D01*
X136221496Y-107884640D01*
X136204341Y-107941190D01*
X136198549Y-108000000D01*
X131995006Y-108000000D01*
X131852620Y-107904861D01*
X131525041Y-107769173D01*
X131177284Y-107700000D01*
X130822716Y-107700000D01*
X130474959Y-107769173D01*
X130147380Y-107904861D01*
X129852567Y-108101849D01*
X129601849Y-108352567D01*
X129404861Y-108647380D01*
X129269173Y-108974959D01*
X129200000Y-109322716D01*
X127791855Y-109322716D01*
X127782360Y-109192391D01*
X127688100Y-108850580D01*
X127528968Y-108533727D01*
X127477831Y-108457195D01*
X127243468Y-108291888D01*
X126035355Y-109500000D01*
X125964645Y-109500000D01*
X124756532Y-108291888D01*
X124522169Y-108457195D01*
X124347124Y-108765542D01*
X124235597Y-109102115D01*
X124191876Y-109453978D01*
X122801451Y-109453978D01*
X122801451Y-108256532D01*
X124791888Y-108256532D01*
X126000000Y-109464645D01*
X127208112Y-108256532D01*
X127042805Y-108022169D01*
X126734458Y-107847124D01*
X126397885Y-107735597D01*
X126046022Y-107691876D01*
X125692391Y-107717640D01*
X125350580Y-107811900D01*
X125033727Y-107971032D01*
X124957195Y-108022169D01*
X124791888Y-108256532D01*
X122801451Y-108256532D01*
X122801451Y-108000000D01*
X122795659Y-107941190D01*
X122778504Y-107884640D01*
X122750647Y-107832523D01*
X122713158Y-107786842D01*
X122667477Y-107749353D01*
X122615360Y-107721496D01*
X122558810Y-107704341D01*
X122500000Y-107698549D01*
X119500000Y-107698549D01*
X119441190Y-107704341D01*
X119384640Y-107721496D01*
X119332523Y-107749353D01*
X119286842Y-107786842D01*
X119249353Y-107832523D01*
X119221496Y-107884640D01*
X119204341Y-107941190D01*
X119198549Y-108000000D01*
X115003754Y-108000000D01*
X114734458Y-107847124D01*
X114397885Y-107735597D01*
X114046022Y-107691876D01*
X113692391Y-107717640D01*
X113350580Y-107811900D01*
X113033727Y-107971032D01*
X112957195Y-108022169D01*
X112791888Y-108256532D01*
X110801451Y-108256532D01*
X110801451Y-108000000D01*
X110795659Y-107941190D01*
X110778504Y-107884640D01*
X110750647Y-107832523D01*
X110713158Y-107786842D01*
X110667477Y-107749353D01*
X110615360Y-107721496D01*
X110558810Y-107704341D01*
X110500000Y-107698549D01*
X109800000Y-107698549D01*
X109800000Y-107331370D01*
X110637902Y-106493469D01*
X110668422Y-106468422D01*
X110698659Y-106431578D01*
X110768393Y-106346607D01*
X110842679Y-106207628D01*
X110846167Y-106196130D01*
X110888424Y-106056827D01*
X110900000Y-105939293D01*
X110900000Y-105939291D01*
X110903870Y-105900000D01*
X110900000Y-105860709D01*
X110900000Y-102681056D01*
X151300000Y-102681056D01*
X151300000Y-102818944D01*
X151326901Y-102954182D01*
X151379668Y-103081574D01*
X151456274Y-103196224D01*
X151553776Y-103293726D01*
X151668426Y-103370332D01*
X151795818Y-103423099D01*
X151931056Y-103450000D01*
X152068944Y-103450000D01*
X152204182Y-103423099D01*
X152331574Y-103370332D01*
X152446224Y-103293726D01*
X152543726Y-103196224D01*
X152557907Y-103175000D01*
X167823960Y-103175000D01*
X168075000Y-103426041D01*
X168075001Y-109198549D01*
X167500000Y-109198549D01*
X167441190Y-109204341D01*
X167384640Y-109221496D01*
X167332523Y-109249353D01*
X167286842Y-109286842D01*
X167249353Y-109332523D01*
X167221496Y-109384640D01*
X167204341Y-109441190D01*
X167198549Y-109500000D01*
X167198549Y-111500000D01*
X167204341Y-111558810D01*
X167221496Y-111615360D01*
X167249353Y-111667477D01*
X167286842Y-111713158D01*
X167332523Y-111750647D01*
X167384640Y-111778504D01*
X167441190Y-111795659D01*
X167500000Y-111801451D01*
X169500000Y-111801451D01*
X169558810Y-111795659D01*
X169615360Y-111778504D01*
X169667477Y-111750647D01*
X169713158Y-111713158D01*
X169750647Y-111667477D01*
X169778504Y-111615360D01*
X169795659Y-111558810D01*
X169801451Y-111500000D01*
X169801451Y-111003511D01*
X169847955Y-111115781D01*
X169990224Y-111328702D01*
X170171298Y-111509776D01*
X170384219Y-111652045D01*
X170620804Y-111750042D01*
X170871961Y-111800000D01*
X171128039Y-111800000D01*
X171379196Y-111750042D01*
X171615781Y-111652045D01*
X171828702Y-111509776D01*
X171950326Y-111388152D01*
X172647204Y-111388152D01*
X172752549Y-111571312D01*
X172975914Y-111696548D01*
X173219419Y-111775800D01*
X173473706Y-111806025D01*
X173729004Y-111786060D01*
X173975502Y-111716673D01*
X174203726Y-111600529D01*
X174247451Y-111571312D01*
X174352796Y-111388152D01*
X173500000Y-110535355D01*
X172647204Y-111388152D01*
X171950326Y-111388152D01*
X172009776Y-111328702D01*
X172152045Y-111115781D01*
X172250042Y-110879196D01*
X172252599Y-110866341D01*
X172283327Y-110975502D01*
X172399471Y-111203726D01*
X172428688Y-111247451D01*
X172611848Y-111352796D01*
X173464645Y-110500000D01*
X173535355Y-110500000D01*
X174388152Y-111352796D01*
X174571312Y-111247451D01*
X174696548Y-111024086D01*
X174747586Y-110867270D01*
X174749958Y-110879196D01*
X174847955Y-111115781D01*
X174990224Y-111328702D01*
X175171298Y-111509776D01*
X175384219Y-111652045D01*
X175620804Y-111750042D01*
X175871961Y-111800000D01*
X176128039Y-111800000D01*
X176379196Y-111750042D01*
X176615781Y-111652045D01*
X176828702Y-111509776D01*
X177009776Y-111328702D01*
X177152045Y-111115781D01*
X177250042Y-110879196D01*
X177300000Y-110628039D01*
X177300000Y-110371961D01*
X177250042Y-110120804D01*
X177152045Y-109884219D01*
X177009776Y-109671298D01*
X176887049Y-109548571D01*
X189583926Y-109548571D01*
X192000000Y-111964645D01*
X194416074Y-109548571D01*
X194046925Y-109140117D01*
X193449659Y-108795734D01*
X192796682Y-108574488D01*
X192113090Y-108484884D01*
X191425152Y-108530363D01*
X190759305Y-108709179D01*
X190141137Y-109014459D01*
X189953075Y-109140117D01*
X189583926Y-109548571D01*
X176887049Y-109548571D01*
X176828702Y-109490224D01*
X176615781Y-109347955D01*
X176379196Y-109249958D01*
X176128039Y-109200000D01*
X175871961Y-109200000D01*
X175620804Y-109249958D01*
X175384219Y-109347955D01*
X175171298Y-109490224D01*
X174990224Y-109671298D01*
X174847955Y-109884219D01*
X174749958Y-110120804D01*
X174747401Y-110133659D01*
X174716673Y-110024498D01*
X174600529Y-109796274D01*
X174571312Y-109752549D01*
X174388152Y-109647204D01*
X173535355Y-110500000D01*
X173464645Y-110500000D01*
X172611848Y-109647204D01*
X172428688Y-109752549D01*
X172303452Y-109975914D01*
X172252414Y-110132730D01*
X172250042Y-110120804D01*
X172152045Y-109884219D01*
X172009776Y-109671298D01*
X171950326Y-109611848D01*
X172647204Y-109611848D01*
X173500000Y-110464645D01*
X174352796Y-109611848D01*
X174247451Y-109428688D01*
X174024086Y-109303452D01*
X173780581Y-109224200D01*
X173526294Y-109193975D01*
X173270996Y-109213940D01*
X173024498Y-109283327D01*
X172796274Y-109399471D01*
X172752549Y-109428688D01*
X172647204Y-109611848D01*
X171950326Y-109611848D01*
X171828702Y-109490224D01*
X171615781Y-109347955D01*
X171379196Y-109249958D01*
X171128039Y-109200000D01*
X170871961Y-109200000D01*
X170620804Y-109249958D01*
X170384219Y-109347955D01*
X170171298Y-109490224D01*
X169990224Y-109671298D01*
X169847955Y-109884219D01*
X169801451Y-109996489D01*
X169801451Y-109500000D01*
X169795659Y-109441190D01*
X169778504Y-109384640D01*
X169750647Y-109332523D01*
X169713158Y-109286842D01*
X169667477Y-109249353D01*
X169615360Y-109221496D01*
X169558810Y-109204341D01*
X169500000Y-109198549D01*
X168925000Y-109198549D01*
X168925000Y-103270867D01*
X168927055Y-103250000D01*
X168925000Y-103229133D01*
X168925000Y-103229126D01*
X168918850Y-103166686D01*
X168912135Y-103144548D01*
X168894548Y-103086572D01*
X168876055Y-103051974D01*
X168855084Y-103012740D01*
X168801974Y-102948026D01*
X168785763Y-102934722D01*
X168315283Y-102464243D01*
X168301974Y-102448026D01*
X168237260Y-102394916D01*
X168163427Y-102355452D01*
X168083314Y-102331150D01*
X168020874Y-102325000D01*
X168020867Y-102325000D01*
X168000000Y-102322945D01*
X167979133Y-102325000D01*
X152557907Y-102325000D01*
X152543726Y-102303776D01*
X152446224Y-102206274D01*
X152331574Y-102129668D01*
X152204182Y-102076901D01*
X152068944Y-102050000D01*
X151931056Y-102050000D01*
X151795818Y-102076901D01*
X151668426Y-102129668D01*
X151553776Y-102206274D01*
X151456274Y-102303776D01*
X151379668Y-102418426D01*
X151326901Y-102545818D01*
X151300000Y-102681056D01*
X110900000Y-102681056D01*
X110900000Y-91750000D01*
X124946130Y-91750000D01*
X124950001Y-91789301D01*
X124950000Y-97110707D01*
X124950000Y-97110708D01*
X124950001Y-98439293D01*
X124961577Y-98556827D01*
X125007322Y-98707628D01*
X125081608Y-98846606D01*
X125181579Y-98968422D01*
X125303395Y-99068393D01*
X125325000Y-99079941D01*
X125325001Y-100942092D01*
X125303776Y-100956274D01*
X125206274Y-101053776D01*
X125129668Y-101168426D01*
X125076901Y-101295818D01*
X125050000Y-101431056D01*
X125050000Y-101568944D01*
X125076901Y-101704182D01*
X125129668Y-101831574D01*
X125206274Y-101946224D01*
X125303776Y-102043726D01*
X125418426Y-102120332D01*
X125545818Y-102173099D01*
X125681056Y-102200000D01*
X125818944Y-102200000D01*
X125954182Y-102173099D01*
X126081574Y-102120332D01*
X126196224Y-102043726D01*
X126293726Y-101946224D01*
X126370332Y-101831574D01*
X126423099Y-101704182D01*
X126450000Y-101568944D01*
X126450000Y-101431056D01*
X126423099Y-101295818D01*
X126370332Y-101168426D01*
X126293726Y-101053776D01*
X126196224Y-100956274D01*
X126175000Y-100942093D01*
X126175000Y-99079942D01*
X126196606Y-99068393D01*
X126318422Y-98968422D01*
X126418393Y-98846606D01*
X126492679Y-98707628D01*
X126538424Y-98556827D01*
X126550000Y-98439293D01*
X126550000Y-98411577D01*
X164650000Y-98411577D01*
X164650001Y-100588424D01*
X164676046Y-100852862D01*
X164778972Y-101192163D01*
X164946114Y-101504865D01*
X165171051Y-101778950D01*
X165445136Y-102003887D01*
X165757838Y-102171029D01*
X166097139Y-102273955D01*
X166450000Y-102308709D01*
X166802862Y-102273955D01*
X167142163Y-102171029D01*
X167454865Y-102003887D01*
X167728950Y-101778950D01*
X167953887Y-101504865D01*
X168121029Y-101192163D01*
X168223955Y-100852862D01*
X168250000Y-100588424D01*
X168250000Y-98411577D01*
X176250000Y-98411577D01*
X176250001Y-100588424D01*
X176276046Y-100852862D01*
X176378972Y-101192163D01*
X176546114Y-101504865D01*
X176771051Y-101778950D01*
X177045136Y-102003887D01*
X177357838Y-102171029D01*
X177697139Y-102273955D01*
X178050000Y-102308709D01*
X178402862Y-102273955D01*
X178742163Y-102171029D01*
X179054865Y-102003887D01*
X179328950Y-101778950D01*
X179553887Y-101504865D01*
X179721029Y-101192163D01*
X179741402Y-101125000D01*
X185323549Y-101125000D01*
X185323549Y-102875000D01*
X185329341Y-102933810D01*
X185346496Y-102990360D01*
X185374353Y-103042477D01*
X185411842Y-103088158D01*
X185457523Y-103125647D01*
X185509640Y-103153504D01*
X185566190Y-103170659D01*
X185625000Y-103176451D01*
X187375000Y-103176451D01*
X187433810Y-103170659D01*
X187490360Y-103153504D01*
X187542477Y-103125647D01*
X187588158Y-103088158D01*
X187625647Y-103042477D01*
X187653504Y-102990360D01*
X187670659Y-102933810D01*
X187676451Y-102875000D01*
X187676451Y-102838152D01*
X187750981Y-102912682D01*
X187943429Y-103041271D01*
X188157265Y-103129845D01*
X188384273Y-103175000D01*
X188615727Y-103175000D01*
X188842735Y-103129845D01*
X189056571Y-103041271D01*
X189249019Y-102912682D01*
X189412682Y-102749019D01*
X189500000Y-102618338D01*
X189587318Y-102749019D01*
X189750981Y-102912682D01*
X189943429Y-103041271D01*
X190157265Y-103129845D01*
X190384273Y-103175000D01*
X190615727Y-103175000D01*
X190842735Y-103129845D01*
X191056571Y-103041271D01*
X191249019Y-102912682D01*
X191412682Y-102749019D01*
X191541271Y-102556571D01*
X191629845Y-102342735D01*
X191675000Y-102115727D01*
X191675000Y-101884273D01*
X191629845Y-101657265D01*
X191541271Y-101443429D01*
X191412682Y-101250981D01*
X191249019Y-101087318D01*
X191056571Y-100958729D01*
X190842735Y-100870155D01*
X190615727Y-100825000D01*
X190384273Y-100825000D01*
X190157265Y-100870155D01*
X189943429Y-100958729D01*
X189750981Y-101087318D01*
X189587318Y-101250981D01*
X189500000Y-101381662D01*
X189412682Y-101250981D01*
X189249019Y-101087318D01*
X189056571Y-100958729D01*
X188842735Y-100870155D01*
X188615727Y-100825000D01*
X188384273Y-100825000D01*
X188157265Y-100870155D01*
X187943429Y-100958729D01*
X187750981Y-101087318D01*
X187676451Y-101161848D01*
X187676451Y-101125000D01*
X187670659Y-101066190D01*
X187653504Y-101009640D01*
X187625647Y-100957523D01*
X187588158Y-100911842D01*
X187542477Y-100874353D01*
X187490360Y-100846496D01*
X187433810Y-100829341D01*
X187375000Y-100823549D01*
X185625000Y-100823549D01*
X185566190Y-100829341D01*
X185509640Y-100846496D01*
X185457523Y-100874353D01*
X185411842Y-100911842D01*
X185374353Y-100957523D01*
X185346496Y-101009640D01*
X185329341Y-101066190D01*
X185323549Y-101125000D01*
X179741402Y-101125000D01*
X179823955Y-100852862D01*
X179850000Y-100588424D01*
X179850000Y-98411576D01*
X179823955Y-98147138D01*
X179721029Y-97807837D01*
X179553887Y-97495135D01*
X179328950Y-97221050D01*
X179054864Y-96996113D01*
X178845626Y-96884273D01*
X185325000Y-96884273D01*
X185325000Y-97115727D01*
X185370155Y-97342735D01*
X185458729Y-97556571D01*
X185587318Y-97749019D01*
X185750981Y-97912682D01*
X185943429Y-98041271D01*
X186157265Y-98129845D01*
X186384273Y-98175000D01*
X186615727Y-98175000D01*
X186842735Y-98129845D01*
X187056571Y-98041271D01*
X187249019Y-97912682D01*
X187412682Y-97749019D01*
X187500000Y-97618338D01*
X187587318Y-97749019D01*
X187750981Y-97912682D01*
X187943429Y-98041271D01*
X188157265Y-98129845D01*
X188384273Y-98175000D01*
X188615727Y-98175000D01*
X188842735Y-98129845D01*
X189056571Y-98041271D01*
X189249019Y-97912682D01*
X189362386Y-97799315D01*
X189736040Y-97799315D01*
X189826392Y-97969675D01*
X190028510Y-98082457D01*
X190248746Y-98153641D01*
X190478638Y-98180491D01*
X190709350Y-98161976D01*
X190932017Y-98098806D01*
X191138083Y-97993411D01*
X191173608Y-97969675D01*
X191263960Y-97799315D01*
X190500000Y-97035355D01*
X189736040Y-97799315D01*
X189362386Y-97799315D01*
X189412682Y-97749019D01*
X189498012Y-97621313D01*
X189506589Y-97638083D01*
X189530325Y-97673608D01*
X189700685Y-97763960D01*
X190464645Y-97000000D01*
X190535355Y-97000000D01*
X191299315Y-97763960D01*
X191469675Y-97673608D01*
X191582457Y-97471490D01*
X191653641Y-97251254D01*
X191680491Y-97021362D01*
X191661976Y-96790650D01*
X191598806Y-96567983D01*
X191493411Y-96361917D01*
X191469675Y-96326392D01*
X191299315Y-96236040D01*
X190535355Y-97000000D01*
X190464645Y-97000000D01*
X189700685Y-96236040D01*
X189530325Y-96326392D01*
X189499719Y-96381242D01*
X189412682Y-96250981D01*
X189362386Y-96200685D01*
X189736040Y-96200685D01*
X190500000Y-96964645D01*
X191263960Y-96200685D01*
X191173608Y-96030325D01*
X190971490Y-95917543D01*
X190751254Y-95846359D01*
X190521362Y-95819509D01*
X190290650Y-95838024D01*
X190067983Y-95901194D01*
X189861917Y-96006589D01*
X189826392Y-96030325D01*
X189736040Y-96200685D01*
X189362386Y-96200685D01*
X189249019Y-96087318D01*
X189056571Y-95958729D01*
X188842735Y-95870155D01*
X188615727Y-95825000D01*
X188384273Y-95825000D01*
X188157265Y-95870155D01*
X187943429Y-95958729D01*
X187750981Y-96087318D01*
X187587318Y-96250981D01*
X187500000Y-96381662D01*
X187412682Y-96250981D01*
X187249019Y-96087318D01*
X187056571Y-95958729D01*
X186842735Y-95870155D01*
X186615727Y-95825000D01*
X186384273Y-95825000D01*
X186157265Y-95870155D01*
X185943429Y-95958729D01*
X185750981Y-96087318D01*
X185587318Y-96250981D01*
X185458729Y-96443429D01*
X185370155Y-96657265D01*
X185325000Y-96884273D01*
X178845626Y-96884273D01*
X178742162Y-96828971D01*
X178402861Y-96726045D01*
X178050000Y-96691291D01*
X177697138Y-96726045D01*
X177357837Y-96828971D01*
X177045135Y-96996113D01*
X176771050Y-97221050D01*
X176546113Y-97495136D01*
X176378971Y-97807838D01*
X176276045Y-98147139D01*
X176250000Y-98411577D01*
X168250000Y-98411577D01*
X168250000Y-98411576D01*
X168223955Y-98147138D01*
X168121029Y-97807837D01*
X167953887Y-97495135D01*
X167728950Y-97221050D01*
X167454864Y-96996113D01*
X167142162Y-96828971D01*
X166802861Y-96726045D01*
X166450000Y-96691291D01*
X166097138Y-96726045D01*
X165757837Y-96828971D01*
X165445135Y-96996113D01*
X165171050Y-97221050D01*
X164946113Y-97495136D01*
X164778971Y-97807838D01*
X164676045Y-98147139D01*
X164650000Y-98411577D01*
X126550000Y-98411577D01*
X126550000Y-92081370D01*
X126831371Y-91800000D01*
X131098960Y-91800000D01*
X130964239Y-91934721D01*
X130948027Y-91948026D01*
X130894917Y-92012740D01*
X130870925Y-92057627D01*
X130855453Y-92086573D01*
X130831150Y-92166686D01*
X130822945Y-92250000D01*
X130825001Y-92270876D01*
X130825000Y-93323960D01*
X130823960Y-93325000D01*
X128307907Y-93325000D01*
X128293726Y-93303776D01*
X128196224Y-93206274D01*
X128081574Y-93129668D01*
X127954182Y-93076901D01*
X127818944Y-93050000D01*
X127681056Y-93050000D01*
X127545818Y-93076901D01*
X127418426Y-93129668D01*
X127303776Y-93206274D01*
X127206274Y-93303776D01*
X127129668Y-93418426D01*
X127076901Y-93545818D01*
X127050000Y-93681056D01*
X127050000Y-93818944D01*
X127076901Y-93954182D01*
X127129668Y-94081574D01*
X127206274Y-94196224D01*
X127303776Y-94293726D01*
X127418426Y-94370332D01*
X127545818Y-94423099D01*
X127681056Y-94450000D01*
X127818944Y-94450000D01*
X127954182Y-94423099D01*
X128081574Y-94370332D01*
X128196224Y-94293726D01*
X128293726Y-94196224D01*
X128307907Y-94175000D01*
X130979133Y-94175000D01*
X131000000Y-94177055D01*
X131020867Y-94175000D01*
X131020874Y-94175000D01*
X131083314Y-94168850D01*
X131163427Y-94144548D01*
X131237260Y-94105084D01*
X131301974Y-94051974D01*
X131315284Y-94035756D01*
X131535758Y-93815282D01*
X131551974Y-93801974D01*
X131605084Y-93737260D01*
X131644548Y-93663427D01*
X131661478Y-93607617D01*
X131668850Y-93583315D01*
X131672543Y-93545818D01*
X131675000Y-93520874D01*
X131675000Y-93520868D01*
X131677055Y-93500001D01*
X131675000Y-93479134D01*
X131675000Y-92426040D01*
X131676040Y-92425000D01*
X139823960Y-92425000D01*
X139825000Y-92426040D01*
X139825001Y-92942092D01*
X139803776Y-92956274D01*
X139706274Y-93053776D01*
X139629668Y-93168426D01*
X139576901Y-93295818D01*
X139550000Y-93431056D01*
X139550000Y-93568944D01*
X139576901Y-93704182D01*
X139629668Y-93831574D01*
X139706274Y-93946224D01*
X139803776Y-94043726D01*
X139918426Y-94120332D01*
X140045818Y-94173099D01*
X140181056Y-94200000D01*
X140318944Y-94200000D01*
X140454182Y-94173099D01*
X140581574Y-94120332D01*
X140696224Y-94043726D01*
X140793726Y-93946224D01*
X140870332Y-93831574D01*
X140923099Y-93704182D01*
X140950000Y-93568944D01*
X140950000Y-93431056D01*
X140923099Y-93295818D01*
X140870332Y-93168426D01*
X140793726Y-93053776D01*
X140696224Y-92956274D01*
X140675000Y-92942093D01*
X140675000Y-92270866D01*
X140677055Y-92249999D01*
X140675000Y-92229132D01*
X140675000Y-92229126D01*
X140668850Y-92166686D01*
X140667862Y-92163427D01*
X140644548Y-92086574D01*
X140644548Y-92086573D01*
X140605084Y-92012740D01*
X140551974Y-91948026D01*
X140535758Y-91934718D01*
X140401040Y-91800000D01*
X158039293Y-91800000D01*
X158156827Y-91788424D01*
X158307628Y-91742679D01*
X158446606Y-91668393D01*
X158568422Y-91568422D01*
X158668393Y-91446606D01*
X158742679Y-91307628D01*
X158788424Y-91156827D01*
X158803870Y-91000000D01*
X158788424Y-90843173D01*
X158742679Y-90692372D01*
X158668393Y-90553394D01*
X158568422Y-90431578D01*
X158446606Y-90331607D01*
X158307628Y-90257321D01*
X158156827Y-90211576D01*
X158039293Y-90200000D01*
X126539282Y-90200000D01*
X126499999Y-90196131D01*
X126460716Y-90200000D01*
X126460707Y-90200000D01*
X126343173Y-90211576D01*
X126192372Y-90257321D01*
X126053393Y-90331607D01*
X125994831Y-90379668D01*
X125931578Y-90431578D01*
X125906531Y-90462098D01*
X125212098Y-91156532D01*
X125181579Y-91181578D01*
X125156532Y-91212098D01*
X125156531Y-91212099D01*
X125081607Y-91303394D01*
X125007321Y-91442373D01*
X124961577Y-91593173D01*
X124946130Y-91750000D01*
X110900000Y-91750000D01*
X110900000Y-87250000D01*
X116196130Y-87250000D01*
X116211576Y-87406827D01*
X116257321Y-87557628D01*
X116331607Y-87696606D01*
X116431578Y-87818422D01*
X116553394Y-87918393D01*
X116692372Y-87992679D01*
X116843173Y-88038424D01*
X116960707Y-88050000D01*
X119960709Y-88050000D01*
X120000000Y-88053870D01*
X120039291Y-88050000D01*
X120039293Y-88050000D01*
X120156827Y-88038424D01*
X120307628Y-87992679D01*
X120446606Y-87918393D01*
X120568422Y-87818422D01*
X120593473Y-87787897D01*
X121137902Y-87243469D01*
X121168422Y-87218422D01*
X121199087Y-87181056D01*
X121268393Y-87096607D01*
X121342679Y-86957628D01*
X121388424Y-86806827D01*
X121400000Y-86689293D01*
X121400000Y-86689292D01*
X121403870Y-86650001D01*
X121400000Y-86610710D01*
X121400000Y-83004164D01*
X121616313Y-83220477D01*
X121894748Y-83406521D01*
X122204128Y-83534670D01*
X122532565Y-83600000D01*
X122867435Y-83600000D01*
X123195872Y-83534670D01*
X123505252Y-83406521D01*
X123783687Y-83220477D01*
X123931756Y-83072408D01*
X125762948Y-83072408D01*
X125916263Y-83296530D01*
X126207615Y-83461614D01*
X126525575Y-83566685D01*
X126857924Y-83607707D01*
X127191889Y-83583103D01*
X127514638Y-83493818D01*
X127813767Y-83343283D01*
X127883737Y-83296530D01*
X128037052Y-83072408D01*
X129962948Y-83072408D01*
X130116263Y-83296530D01*
X130407615Y-83461614D01*
X130725575Y-83566685D01*
X131057924Y-83607707D01*
X131391889Y-83583103D01*
X131714638Y-83493818D01*
X132013767Y-83343283D01*
X132083737Y-83296530D01*
X132237052Y-83072408D01*
X134162948Y-83072408D01*
X134316263Y-83296530D01*
X134607615Y-83461614D01*
X134925575Y-83566685D01*
X135257924Y-83607707D01*
X135591889Y-83583103D01*
X135914638Y-83493818D01*
X136213767Y-83343283D01*
X136283737Y-83296530D01*
X136437052Y-83072408D01*
X135300000Y-81935355D01*
X134162948Y-83072408D01*
X132237052Y-83072408D01*
X131100000Y-81935355D01*
X129962948Y-83072408D01*
X128037052Y-83072408D01*
X126900000Y-81935355D01*
X125762948Y-83072408D01*
X123931756Y-83072408D01*
X124020477Y-82983687D01*
X124206521Y-82705252D01*
X124334670Y-82395872D01*
X124400000Y-82067435D01*
X124400000Y-81857924D01*
X125192293Y-81857924D01*
X125216897Y-82191889D01*
X125306182Y-82514638D01*
X125456717Y-82813767D01*
X125503470Y-82883737D01*
X125727592Y-83037052D01*
X126864645Y-81900000D01*
X126935355Y-81900000D01*
X128072408Y-83037052D01*
X128296530Y-82883737D01*
X128461614Y-82592385D01*
X128566685Y-82274425D01*
X128607707Y-81942076D01*
X128601508Y-81857924D01*
X129392293Y-81857924D01*
X129416897Y-82191889D01*
X129506182Y-82514638D01*
X129656717Y-82813767D01*
X129703470Y-82883737D01*
X129927592Y-83037052D01*
X131064645Y-81900000D01*
X131135355Y-81900000D01*
X132272408Y-83037052D01*
X132496530Y-82883737D01*
X132661614Y-82592385D01*
X132766685Y-82274425D01*
X132807707Y-81942076D01*
X132801508Y-81857924D01*
X133592293Y-81857924D01*
X133616897Y-82191889D01*
X133706182Y-82514638D01*
X133856717Y-82813767D01*
X133903470Y-82883737D01*
X134127592Y-83037052D01*
X135264645Y-81900000D01*
X135335355Y-81900000D01*
X136472408Y-83037052D01*
X136696530Y-82883737D01*
X136861614Y-82592385D01*
X136966685Y-82274425D01*
X137007707Y-81942076D01*
X136992272Y-81732565D01*
X137800000Y-81732565D01*
X137800000Y-82067435D01*
X137865330Y-82395872D01*
X137993479Y-82705252D01*
X138179523Y-82983687D01*
X138416313Y-83220477D01*
X138694748Y-83406521D01*
X139004128Y-83534670D01*
X139332565Y-83600000D01*
X139667435Y-83600000D01*
X139995872Y-83534670D01*
X140305252Y-83406521D01*
X140583687Y-83220477D01*
X140820477Y-82983687D01*
X141006521Y-82705252D01*
X141134670Y-82395872D01*
X141200000Y-82067435D01*
X141200000Y-81732565D01*
X141134670Y-81404128D01*
X141006521Y-81094748D01*
X140820477Y-80816313D01*
X140583687Y-80579523D01*
X140305252Y-80393479D01*
X139995872Y-80265330D01*
X139667435Y-80200000D01*
X139332565Y-80200000D01*
X139004128Y-80265330D01*
X138694748Y-80393479D01*
X138416313Y-80579523D01*
X138179523Y-80816313D01*
X137993479Y-81094748D01*
X137865330Y-81404128D01*
X137800000Y-81732565D01*
X136992272Y-81732565D01*
X136983103Y-81608111D01*
X136893818Y-81285362D01*
X136743283Y-80986233D01*
X136696530Y-80916263D01*
X136472408Y-80762948D01*
X135335355Y-81900000D01*
X135264645Y-81900000D01*
X134127592Y-80762948D01*
X133903470Y-80916263D01*
X133738386Y-81207615D01*
X133633315Y-81525575D01*
X133592293Y-81857924D01*
X132801508Y-81857924D01*
X132783103Y-81608111D01*
X132693818Y-81285362D01*
X132543283Y-80986233D01*
X132496530Y-80916263D01*
X132272408Y-80762948D01*
X131135355Y-81900000D01*
X131064645Y-81900000D01*
X129927592Y-80762948D01*
X129703470Y-80916263D01*
X129538386Y-81207615D01*
X129433315Y-81525575D01*
X129392293Y-81857924D01*
X128601508Y-81857924D01*
X128583103Y-81608111D01*
X128493818Y-81285362D01*
X128343283Y-80986233D01*
X128296530Y-80916263D01*
X128072408Y-80762948D01*
X126935355Y-81900000D01*
X126864645Y-81900000D01*
X125727592Y-80762948D01*
X125503470Y-80916263D01*
X125338386Y-81207615D01*
X125233315Y-81525575D01*
X125192293Y-81857924D01*
X124400000Y-81857924D01*
X124400000Y-81732565D01*
X124334670Y-81404128D01*
X124206521Y-81094748D01*
X124020477Y-80816313D01*
X123931756Y-80727592D01*
X125762948Y-80727592D01*
X126900000Y-81864645D01*
X128037052Y-80727592D01*
X129962948Y-80727592D01*
X131100000Y-81864645D01*
X132237052Y-80727592D01*
X134162948Y-80727592D01*
X135300000Y-81864645D01*
X136437052Y-80727592D01*
X136283737Y-80503470D01*
X135992385Y-80338386D01*
X135674425Y-80233315D01*
X135342076Y-80192293D01*
X135008111Y-80216897D01*
X134685362Y-80306182D01*
X134386233Y-80456717D01*
X134316263Y-80503470D01*
X134162948Y-80727592D01*
X132237052Y-80727592D01*
X132083737Y-80503470D01*
X131792385Y-80338386D01*
X131474425Y-80233315D01*
X131142076Y-80192293D01*
X130808111Y-80216897D01*
X130485362Y-80306182D01*
X130186233Y-80456717D01*
X130116263Y-80503470D01*
X129962948Y-80727592D01*
X128037052Y-80727592D01*
X127883737Y-80503470D01*
X127592385Y-80338386D01*
X127274425Y-80233315D01*
X126942076Y-80192293D01*
X126608111Y-80216897D01*
X126285362Y-80306182D01*
X125986233Y-80456717D01*
X125916263Y-80503470D01*
X125762948Y-80727592D01*
X123931756Y-80727592D01*
X123783687Y-80579523D01*
X123505252Y-80393479D01*
X123195872Y-80265330D01*
X122867435Y-80200000D01*
X122532565Y-80200000D01*
X122204128Y-80265330D01*
X121894748Y-80393479D01*
X121616313Y-80579523D01*
X121400000Y-80795836D01*
X121400000Y-80481370D01*
X121831371Y-80050000D01*
X122717741Y-80050000D01*
X122764100Y-80053746D01*
X122796329Y-80050000D01*
X131060707Y-80050000D01*
X131100000Y-80053870D01*
X131139293Y-80050000D01*
X142668630Y-80050000D01*
X142900001Y-80281371D01*
X142900001Y-80391303D01*
X142894748Y-80393479D01*
X142616313Y-80579523D01*
X142379523Y-80816313D01*
X142193479Y-81094748D01*
X142065330Y-81404128D01*
X142000000Y-81732565D01*
X142000000Y-82067435D01*
X142065330Y-82395872D01*
X142193479Y-82705252D01*
X142379523Y-82983687D01*
X142616313Y-83220477D01*
X142894748Y-83406521D01*
X143204128Y-83534670D01*
X143532565Y-83600000D01*
X143867435Y-83600000D01*
X144195872Y-83534670D01*
X144505252Y-83406521D01*
X144783687Y-83220477D01*
X145020477Y-82983687D01*
X145206521Y-82705252D01*
X145208696Y-82700000D01*
X146391304Y-82700000D01*
X146393479Y-82705252D01*
X146579523Y-82983687D01*
X146816313Y-83220477D01*
X147094748Y-83406521D01*
X147404128Y-83534670D01*
X147732565Y-83600000D01*
X148067435Y-83600000D01*
X148395872Y-83534670D01*
X148705252Y-83406521D01*
X148983687Y-83220477D01*
X149220477Y-82983687D01*
X149406521Y-82705252D01*
X149408696Y-82700000D01*
X150591304Y-82700000D01*
X150593479Y-82705252D01*
X150779523Y-82983687D01*
X151016313Y-83220477D01*
X151294748Y-83406521D01*
X151604128Y-83534670D01*
X151932565Y-83600000D01*
X152267435Y-83600000D01*
X152595872Y-83534670D01*
X152905252Y-83406521D01*
X153183687Y-83220477D01*
X153331756Y-83072408D01*
X155162948Y-83072408D01*
X155316263Y-83296530D01*
X155607615Y-83461614D01*
X155925575Y-83566685D01*
X156257924Y-83607707D01*
X156591889Y-83583103D01*
X156914638Y-83493818D01*
X157213767Y-83343283D01*
X157283737Y-83296530D01*
X157437052Y-83072408D01*
X156300000Y-81935355D01*
X155162948Y-83072408D01*
X153331756Y-83072408D01*
X153420477Y-82983687D01*
X153606521Y-82705252D01*
X153734670Y-82395872D01*
X153800000Y-82067435D01*
X153800000Y-81857924D01*
X154592293Y-81857924D01*
X154616897Y-82191889D01*
X154706182Y-82514638D01*
X154856717Y-82813767D01*
X154903470Y-82883737D01*
X155127592Y-83037052D01*
X156264645Y-81900000D01*
X156335355Y-81900000D01*
X157472408Y-83037052D01*
X157696530Y-82883737D01*
X157861614Y-82592385D01*
X157966685Y-82274425D01*
X158007707Y-81942076D01*
X157983103Y-81608111D01*
X157893818Y-81285362D01*
X157743283Y-80986233D01*
X157696530Y-80916263D01*
X157472408Y-80762948D01*
X156335355Y-81900000D01*
X156264645Y-81900000D01*
X155127592Y-80762948D01*
X154903470Y-80916263D01*
X154738386Y-81207615D01*
X154633315Y-81525575D01*
X154592293Y-81857924D01*
X153800000Y-81857924D01*
X153800000Y-81732565D01*
X153734670Y-81404128D01*
X153606521Y-81094748D01*
X153420477Y-80816313D01*
X153331756Y-80727592D01*
X155162948Y-80727592D01*
X156300000Y-81864645D01*
X157437052Y-80727592D01*
X157283737Y-80503470D01*
X156992385Y-80338386D01*
X156674425Y-80233315D01*
X156342076Y-80192293D01*
X156008111Y-80216897D01*
X155685362Y-80306182D01*
X155386233Y-80456717D01*
X155316263Y-80503470D01*
X155162948Y-80727592D01*
X153331756Y-80727592D01*
X153183687Y-80579523D01*
X152905252Y-80393479D01*
X152595872Y-80265330D01*
X152267435Y-80200000D01*
X151932565Y-80200000D01*
X151604128Y-80265330D01*
X151294748Y-80393479D01*
X151016313Y-80579523D01*
X150779523Y-80816313D01*
X150593479Y-81094748D01*
X150591304Y-81100000D01*
X149408696Y-81100000D01*
X149406521Y-81094748D01*
X149220477Y-80816313D01*
X148983687Y-80579523D01*
X148705252Y-80393479D01*
X148395872Y-80265330D01*
X148067435Y-80200000D01*
X147732565Y-80200000D01*
X147404128Y-80265330D01*
X147094748Y-80393479D01*
X146816313Y-80579523D01*
X146579523Y-80816313D01*
X146393479Y-81094748D01*
X146391304Y-81100000D01*
X145208696Y-81100000D01*
X145206521Y-81094748D01*
X145020477Y-80816313D01*
X144783687Y-80579523D01*
X144505252Y-80393479D01*
X144500000Y-80391304D01*
X144500000Y-79989282D01*
X144503869Y-79949999D01*
X144500000Y-79910716D01*
X144500000Y-79910707D01*
X144488424Y-79793173D01*
X144442679Y-79642372D01*
X144390393Y-79544553D01*
X144368393Y-79503393D01*
X144293469Y-79412098D01*
X144268422Y-79381578D01*
X144237902Y-79356531D01*
X143593473Y-78712103D01*
X143568422Y-78681578D01*
X143446606Y-78581607D01*
X143307628Y-78507321D01*
X143156827Y-78461576D01*
X143039293Y-78450000D01*
X143039291Y-78450000D01*
X143000000Y-78446130D01*
X142960709Y-78450000D01*
X131900000Y-78450000D01*
X131900000Y-77908696D01*
X131905252Y-77906521D01*
X132183687Y-77720477D01*
X132331756Y-77572408D01*
X134162948Y-77572408D01*
X134316263Y-77796530D01*
X134607615Y-77961614D01*
X134925575Y-78066685D01*
X135257924Y-78107707D01*
X135591889Y-78083103D01*
X135914638Y-77993818D01*
X136213767Y-77843283D01*
X136283737Y-77796530D01*
X136437052Y-77572408D01*
X135300000Y-76435355D01*
X134162948Y-77572408D01*
X132331756Y-77572408D01*
X132420477Y-77483687D01*
X132606521Y-77205252D01*
X132734670Y-76895872D01*
X132800000Y-76567435D01*
X132800000Y-76357924D01*
X133592293Y-76357924D01*
X133616897Y-76691889D01*
X133706182Y-77014638D01*
X133856717Y-77313767D01*
X133903470Y-77383737D01*
X134127592Y-77537052D01*
X135264645Y-76400000D01*
X135335355Y-76400000D01*
X136472408Y-77537052D01*
X136696530Y-77383737D01*
X136861614Y-77092385D01*
X136966685Y-76774425D01*
X137007707Y-76442076D01*
X136992272Y-76232565D01*
X137800000Y-76232565D01*
X137800000Y-76567435D01*
X137865330Y-76895872D01*
X137993479Y-77205252D01*
X138179523Y-77483687D01*
X138416313Y-77720477D01*
X138694748Y-77906521D01*
X139004128Y-78034670D01*
X139332565Y-78100000D01*
X139667435Y-78100000D01*
X139995872Y-78034670D01*
X140305252Y-77906521D01*
X140583687Y-77720477D01*
X140820477Y-77483687D01*
X141006521Y-77205252D01*
X141134670Y-76895872D01*
X141200000Y-76567435D01*
X141200000Y-76232565D01*
X142000000Y-76232565D01*
X142000000Y-76567435D01*
X142065330Y-76895872D01*
X142193479Y-77205252D01*
X142379523Y-77483687D01*
X142616313Y-77720477D01*
X142894748Y-77906521D01*
X143204128Y-78034670D01*
X143532565Y-78100000D01*
X143867435Y-78100000D01*
X144195872Y-78034670D01*
X144505252Y-77906521D01*
X144783687Y-77720477D01*
X145020477Y-77483687D01*
X145206521Y-77205252D01*
X145334670Y-76895872D01*
X145400000Y-76567435D01*
X145400000Y-76232565D01*
X146200000Y-76232565D01*
X146200000Y-76567435D01*
X146265330Y-76895872D01*
X146393479Y-77205252D01*
X146579523Y-77483687D01*
X146816313Y-77720477D01*
X147094748Y-77906521D01*
X147404128Y-78034670D01*
X147732565Y-78100000D01*
X148067435Y-78100000D01*
X148395872Y-78034670D01*
X148705252Y-77906521D01*
X148983687Y-77720477D01*
X149220477Y-77483687D01*
X149406521Y-77205252D01*
X149408696Y-77200000D01*
X150591304Y-77200000D01*
X150593479Y-77205252D01*
X150779523Y-77483687D01*
X151016313Y-77720477D01*
X151294748Y-77906521D01*
X151300000Y-77908697D01*
X151300000Y-78810709D01*
X151296130Y-78850000D01*
X151300000Y-78889291D01*
X151300000Y-78889292D01*
X151311576Y-79006826D01*
X151353833Y-79146130D01*
X151357321Y-79157627D01*
X151431607Y-79296606D01*
X151472250Y-79346130D01*
X151531578Y-79418422D01*
X151562103Y-79443473D01*
X151906527Y-79787897D01*
X151931578Y-79818422D01*
X152053394Y-79918393D01*
X152192372Y-79992679D01*
X152343173Y-80038424D01*
X152460707Y-80050000D01*
X152460716Y-80050000D01*
X152499999Y-80053869D01*
X152539282Y-80050000D01*
X162668630Y-80050000D01*
X163450001Y-80831372D01*
X163450000Y-91789292D01*
X163461576Y-91906826D01*
X163507321Y-92057627D01*
X163581607Y-92196605D01*
X163681578Y-92318422D01*
X163803394Y-92418393D01*
X163942372Y-92492679D01*
X164093173Y-92538424D01*
X164250000Y-92553870D01*
X164406826Y-92538424D01*
X164557627Y-92492679D01*
X164696605Y-92418393D01*
X164818422Y-92318422D01*
X164918393Y-92196606D01*
X164992679Y-92057628D01*
X165038424Y-91906827D01*
X165050000Y-91789293D01*
X165050000Y-80539291D01*
X165053870Y-80500000D01*
X165050000Y-80460707D01*
X165038424Y-80343173D01*
X164992679Y-80192372D01*
X164992637Y-80192293D01*
X164918393Y-80053393D01*
X164843469Y-79962098D01*
X164818422Y-79931578D01*
X164787902Y-79906531D01*
X163593473Y-78712103D01*
X163568422Y-78681578D01*
X163446606Y-78581607D01*
X163307628Y-78507321D01*
X163156827Y-78461576D01*
X163039293Y-78450000D01*
X163039291Y-78450000D01*
X163000000Y-78446130D01*
X162960709Y-78450000D01*
X152900000Y-78450000D01*
X152900000Y-77908696D01*
X152905252Y-77906521D01*
X153183687Y-77720477D01*
X153420477Y-77483687D01*
X153606521Y-77205252D01*
X153734670Y-76895872D01*
X153800000Y-76567435D01*
X153800000Y-76232565D01*
X153734670Y-75904128D01*
X153606521Y-75594748D01*
X153420477Y-75316313D01*
X153183687Y-75079523D01*
X152905252Y-74893479D01*
X152595872Y-74765330D01*
X152267435Y-74700000D01*
X151932565Y-74700000D01*
X151604128Y-74765330D01*
X151294748Y-74893479D01*
X151016313Y-75079523D01*
X150779523Y-75316313D01*
X150593479Y-75594748D01*
X150591304Y-75600000D01*
X149408696Y-75600000D01*
X149406521Y-75594748D01*
X149220477Y-75316313D01*
X148983687Y-75079523D01*
X148705252Y-74893479D01*
X148395872Y-74765330D01*
X148067435Y-74700000D01*
X147732565Y-74700000D01*
X147404128Y-74765330D01*
X147094748Y-74893479D01*
X146816313Y-75079523D01*
X146579523Y-75316313D01*
X146393479Y-75594748D01*
X146265330Y-75904128D01*
X146200000Y-76232565D01*
X145400000Y-76232565D01*
X145334670Y-75904128D01*
X145206521Y-75594748D01*
X145020477Y-75316313D01*
X144783687Y-75079523D01*
X144505252Y-74893479D01*
X144195872Y-74765330D01*
X143867435Y-74700000D01*
X143532565Y-74700000D01*
X143204128Y-74765330D01*
X142894748Y-74893479D01*
X142616313Y-75079523D01*
X142379523Y-75316313D01*
X142193479Y-75594748D01*
X142065330Y-75904128D01*
X142000000Y-76232565D01*
X141200000Y-76232565D01*
X141134670Y-75904128D01*
X141006521Y-75594748D01*
X140820477Y-75316313D01*
X140583687Y-75079523D01*
X140305252Y-74893479D01*
X139995872Y-74765330D01*
X139667435Y-74700000D01*
X139332565Y-74700000D01*
X139004128Y-74765330D01*
X138694748Y-74893479D01*
X138416313Y-75079523D01*
X138179523Y-75316313D01*
X137993479Y-75594748D01*
X137865330Y-75904128D01*
X137800000Y-76232565D01*
X136992272Y-76232565D01*
X136983103Y-76108111D01*
X136893818Y-75785362D01*
X136743283Y-75486233D01*
X136696530Y-75416263D01*
X136472408Y-75262948D01*
X135335355Y-76400000D01*
X135264645Y-76400000D01*
X134127592Y-75262948D01*
X133903470Y-75416263D01*
X133738386Y-75707615D01*
X133633315Y-76025575D01*
X133592293Y-76357924D01*
X132800000Y-76357924D01*
X132800000Y-76232565D01*
X132734670Y-75904128D01*
X132606521Y-75594748D01*
X132420477Y-75316313D01*
X132331756Y-75227592D01*
X134162948Y-75227592D01*
X135300000Y-76364645D01*
X136437052Y-75227592D01*
X136283737Y-75003470D01*
X135992385Y-74838386D01*
X135674425Y-74733315D01*
X135342076Y-74692293D01*
X135008111Y-74716897D01*
X134685362Y-74806182D01*
X134386233Y-74956717D01*
X134316263Y-75003470D01*
X134162948Y-75227592D01*
X132331756Y-75227592D01*
X132183687Y-75079523D01*
X131905252Y-74893479D01*
X131595872Y-74765330D01*
X131267435Y-74700000D01*
X130932565Y-74700000D01*
X130604128Y-74765330D01*
X130294748Y-74893479D01*
X130016313Y-75079523D01*
X129779523Y-75316313D01*
X129593479Y-75594748D01*
X129465330Y-75904128D01*
X129400000Y-76232565D01*
X129400000Y-76567435D01*
X129465330Y-76895872D01*
X129593479Y-77205252D01*
X129779523Y-77483687D01*
X130016313Y-77720477D01*
X130294748Y-77906521D01*
X130300001Y-77908697D01*
X130300001Y-78450000D01*
X123536088Y-78450000D01*
X123526306Y-77892453D01*
X123783687Y-77720477D01*
X123931756Y-77572408D01*
X125762948Y-77572408D01*
X125916263Y-77796530D01*
X126207615Y-77961614D01*
X126525575Y-78066685D01*
X126857924Y-78107707D01*
X127191889Y-78083103D01*
X127514638Y-77993818D01*
X127813767Y-77843283D01*
X127883737Y-77796530D01*
X128037052Y-77572408D01*
X126900000Y-76435355D01*
X125762948Y-77572408D01*
X123931756Y-77572408D01*
X124020477Y-77483687D01*
X124206521Y-77205252D01*
X124334670Y-76895872D01*
X124400000Y-76567435D01*
X124400000Y-76357924D01*
X125192293Y-76357924D01*
X125216897Y-76691889D01*
X125306182Y-77014638D01*
X125456717Y-77313767D01*
X125503470Y-77383737D01*
X125727592Y-77537052D01*
X126864645Y-76400000D01*
X126935355Y-76400000D01*
X128072408Y-77537052D01*
X128296530Y-77383737D01*
X128461614Y-77092385D01*
X128566685Y-76774425D01*
X128607707Y-76442076D01*
X128583103Y-76108111D01*
X128493818Y-75785362D01*
X128343283Y-75486233D01*
X128296530Y-75416263D01*
X128072408Y-75262948D01*
X126935355Y-76400000D01*
X126864645Y-76400000D01*
X125727592Y-75262948D01*
X125503470Y-75416263D01*
X125338386Y-75707615D01*
X125233315Y-76025575D01*
X125192293Y-76357924D01*
X124400000Y-76357924D01*
X124400000Y-76232565D01*
X124334670Y-75904128D01*
X124206521Y-75594748D01*
X124020477Y-75316313D01*
X123931756Y-75227592D01*
X125762948Y-75227592D01*
X126900000Y-76364645D01*
X128037052Y-75227592D01*
X127883737Y-75003470D01*
X127592385Y-74838386D01*
X127274425Y-74733315D01*
X126942076Y-74692293D01*
X126608111Y-74716897D01*
X126285362Y-74806182D01*
X125986233Y-74956717D01*
X125916263Y-75003470D01*
X125762948Y-75227592D01*
X123931756Y-75227592D01*
X123783687Y-75079523D01*
X123505252Y-74893479D01*
X123195872Y-74765330D01*
X122867435Y-74700000D01*
X122532565Y-74700000D01*
X122204128Y-74765330D01*
X121894748Y-74893479D01*
X121616313Y-75079523D01*
X121379523Y-75316313D01*
X121193479Y-75594748D01*
X121065330Y-75904128D01*
X121000000Y-76232565D01*
X121000000Y-76567435D01*
X121065330Y-76895872D01*
X121193479Y-77205252D01*
X121379523Y-77483687D01*
X121616313Y-77720477D01*
X121894748Y-77906521D01*
X121926539Y-77919689D01*
X121935842Y-78450000D01*
X121539282Y-78450000D01*
X121499999Y-78446131D01*
X121460716Y-78450000D01*
X121460707Y-78450000D01*
X121343173Y-78461576D01*
X121192372Y-78507321D01*
X121053393Y-78581607D01*
X120962098Y-78656531D01*
X120931578Y-78681578D01*
X120906531Y-78712098D01*
X120062103Y-79556527D01*
X120031578Y-79581578D01*
X119977151Y-79647899D01*
X119931607Y-79703394D01*
X119883620Y-79793172D01*
X119857321Y-79842373D01*
X119811576Y-79993174D01*
X119800000Y-80110707D01*
X119796130Y-80150000D01*
X119800000Y-80189291D01*
X119800000Y-80850230D01*
X119672408Y-80762948D01*
X118535355Y-81900000D01*
X119672408Y-83037052D01*
X119800000Y-82949770D01*
X119800001Y-86318628D01*
X119668630Y-86450000D01*
X116960707Y-86450000D01*
X116843173Y-86461576D01*
X116692372Y-86507321D01*
X116553394Y-86581607D01*
X116431578Y-86681578D01*
X116331607Y-86803394D01*
X116257321Y-86942372D01*
X116211576Y-87093173D01*
X116196130Y-87250000D01*
X110900000Y-87250000D01*
X110900000Y-83408696D01*
X110905252Y-83406521D01*
X111183687Y-83220477D01*
X111420477Y-82983687D01*
X111606521Y-82705252D01*
X111734670Y-82395872D01*
X111800000Y-82067435D01*
X111800000Y-81732565D01*
X112600000Y-81732565D01*
X112600000Y-82067435D01*
X112665330Y-82395872D01*
X112793479Y-82705252D01*
X112979523Y-82983687D01*
X113216313Y-83220477D01*
X113494748Y-83406521D01*
X113804128Y-83534670D01*
X114132565Y-83600000D01*
X114467435Y-83600000D01*
X114795872Y-83534670D01*
X115105252Y-83406521D01*
X115383687Y-83220477D01*
X115531756Y-83072408D01*
X117362948Y-83072408D01*
X117516263Y-83296530D01*
X117807615Y-83461614D01*
X118125575Y-83566685D01*
X118457924Y-83607707D01*
X118791889Y-83583103D01*
X119114638Y-83493818D01*
X119413767Y-83343283D01*
X119483737Y-83296530D01*
X119637052Y-83072408D01*
X118500000Y-81935355D01*
X117362948Y-83072408D01*
X115531756Y-83072408D01*
X115620477Y-82983687D01*
X115806521Y-82705252D01*
X115934670Y-82395872D01*
X116000000Y-82067435D01*
X116000000Y-81857924D01*
X116792293Y-81857924D01*
X116816897Y-82191889D01*
X116906182Y-82514638D01*
X117056717Y-82813767D01*
X117103470Y-82883737D01*
X117327592Y-83037052D01*
X118464645Y-81900000D01*
X117327592Y-80762948D01*
X117103470Y-80916263D01*
X116938386Y-81207615D01*
X116833315Y-81525575D01*
X116792293Y-81857924D01*
X116000000Y-81857924D01*
X116000000Y-81732565D01*
X115934670Y-81404128D01*
X115806521Y-81094748D01*
X115620477Y-80816313D01*
X115531756Y-80727592D01*
X117362948Y-80727592D01*
X118500000Y-81864645D01*
X119637052Y-80727592D01*
X119483737Y-80503470D01*
X119192385Y-80338386D01*
X118874425Y-80233315D01*
X118542076Y-80192293D01*
X118208111Y-80216897D01*
X117885362Y-80306182D01*
X117586233Y-80456717D01*
X117516263Y-80503470D01*
X117362948Y-80727592D01*
X115531756Y-80727592D01*
X115383687Y-80579523D01*
X115105252Y-80393479D01*
X114795872Y-80265330D01*
X114467435Y-80200000D01*
X114132565Y-80200000D01*
X113804128Y-80265330D01*
X113494748Y-80393479D01*
X113216313Y-80579523D01*
X112979523Y-80816313D01*
X112793479Y-81094748D01*
X112665330Y-81404128D01*
X112600000Y-81732565D01*
X111800000Y-81732565D01*
X111734670Y-81404128D01*
X111606521Y-81094748D01*
X111420477Y-80816313D01*
X111183687Y-80579523D01*
X110905252Y-80393479D01*
X110900000Y-80391304D01*
X110900000Y-77908696D01*
X110905252Y-77906521D01*
X111183687Y-77720477D01*
X111420477Y-77483687D01*
X111606521Y-77205252D01*
X111608696Y-77200000D01*
X112791304Y-77200000D01*
X112793479Y-77205252D01*
X112979523Y-77483687D01*
X113216313Y-77720477D01*
X113494748Y-77906521D01*
X113804128Y-78034670D01*
X114132565Y-78100000D01*
X114467435Y-78100000D01*
X114795872Y-78034670D01*
X115105252Y-77906521D01*
X115383687Y-77720477D01*
X115531756Y-77572408D01*
X117362948Y-77572408D01*
X117516263Y-77796530D01*
X117807615Y-77961614D01*
X118125575Y-78066685D01*
X118457924Y-78107707D01*
X118791889Y-78083103D01*
X119114638Y-77993818D01*
X119413767Y-77843283D01*
X119483737Y-77796530D01*
X119637052Y-77572408D01*
X118500000Y-76435355D01*
X117362948Y-77572408D01*
X115531756Y-77572408D01*
X115620477Y-77483687D01*
X115806521Y-77205252D01*
X115934670Y-76895872D01*
X116000000Y-76567435D01*
X116000000Y-76357924D01*
X116792293Y-76357924D01*
X116816897Y-76691889D01*
X116906182Y-77014638D01*
X117056717Y-77313767D01*
X117103470Y-77383737D01*
X117327592Y-77537052D01*
X118464645Y-76400000D01*
X118535355Y-76400000D01*
X119672408Y-77537052D01*
X119896530Y-77383737D01*
X120061614Y-77092385D01*
X120166685Y-76774425D01*
X120207707Y-76442076D01*
X120183103Y-76108111D01*
X120093818Y-75785362D01*
X119943283Y-75486233D01*
X119896530Y-75416263D01*
X119672408Y-75262948D01*
X118535355Y-76400000D01*
X118464645Y-76400000D01*
X117327592Y-75262948D01*
X117103470Y-75416263D01*
X116938386Y-75707615D01*
X116833315Y-76025575D01*
X116792293Y-76357924D01*
X116000000Y-76357924D01*
X116000000Y-76232565D01*
X115934670Y-75904128D01*
X115806521Y-75594748D01*
X115620477Y-75316313D01*
X115531756Y-75227592D01*
X117362948Y-75227592D01*
X118500000Y-76364645D01*
X119637052Y-75227592D01*
X119483737Y-75003470D01*
X119192385Y-74838386D01*
X118874425Y-74733315D01*
X118542076Y-74692293D01*
X118208111Y-74716897D01*
X117885362Y-74806182D01*
X117586233Y-74956717D01*
X117516263Y-75003470D01*
X117362948Y-75227592D01*
X115531756Y-75227592D01*
X115383687Y-75079523D01*
X115105252Y-74893479D01*
X115100000Y-74891304D01*
X115100000Y-74331370D01*
X115381371Y-74050000D01*
X154748528Y-74050000D01*
X155500001Y-74801473D01*
X155500001Y-74891303D01*
X155494748Y-74893479D01*
X155216313Y-75079523D01*
X154979523Y-75316313D01*
X154793479Y-75594748D01*
X154665330Y-75904128D01*
X154600000Y-76232565D01*
X154600000Y-76567435D01*
X154665330Y-76895872D01*
X154793479Y-77205252D01*
X154979523Y-77483687D01*
X155216313Y-77720477D01*
X155494748Y-77906521D01*
X155804128Y-78034670D01*
X156132565Y-78100000D01*
X156467435Y-78100000D01*
X156795872Y-78034670D01*
X157105252Y-77906521D01*
X157383687Y-77720477D01*
X157620477Y-77483687D01*
X157806521Y-77205252D01*
X157934670Y-76895872D01*
X158000000Y-76567435D01*
X158000000Y-76232565D01*
X157993523Y-76200000D01*
X170943710Y-76200000D01*
X170968810Y-76454845D01*
X171043145Y-76699896D01*
X171163860Y-76925736D01*
X171326313Y-77123687D01*
X171524264Y-77286140D01*
X171750104Y-77406855D01*
X171995155Y-77481190D01*
X172186136Y-77500000D01*
X174813864Y-77500000D01*
X175004845Y-77481190D01*
X175249896Y-77406855D01*
X175475736Y-77286140D01*
X175673687Y-77123687D01*
X175836140Y-76925736D01*
X175956855Y-76699896D01*
X176031190Y-76454845D01*
X176056290Y-76200000D01*
X176031190Y-75945155D01*
X175956855Y-75700104D01*
X175836140Y-75474264D01*
X175673687Y-75276313D01*
X175475736Y-75113860D01*
X175249896Y-74993145D01*
X175004845Y-74918810D01*
X174813864Y-74900000D01*
X172186136Y-74900000D01*
X171995155Y-74918810D01*
X171750104Y-74993145D01*
X171524264Y-75113860D01*
X171326313Y-75276313D01*
X171163860Y-75474264D01*
X171043145Y-75700104D01*
X170968810Y-75945155D01*
X170943710Y-76200000D01*
X157993523Y-76200000D01*
X157934670Y-75904128D01*
X157806521Y-75594748D01*
X157620477Y-75316313D01*
X157383687Y-75079523D01*
X157105252Y-74893479D01*
X157100000Y-74891304D01*
X157100000Y-74509393D01*
X157103870Y-74470102D01*
X157100000Y-74430809D01*
X157088424Y-74313275D01*
X157042679Y-74162474D01*
X156982560Y-74050000D01*
X156968393Y-74023495D01*
X156928869Y-73975335D01*
X156868422Y-73901680D01*
X156837897Y-73876629D01*
X156186268Y-73225000D01*
X167500000Y-73225000D01*
X167500000Y-74225000D01*
X167529856Y-74478137D01*
X167608523Y-74720585D01*
X167732978Y-74943028D01*
X167898438Y-75136917D01*
X168098545Y-75294800D01*
X168325608Y-75410611D01*
X168571981Y-75479847D01*
X168775000Y-75424745D01*
X168775000Y-73225000D01*
X168825000Y-73225000D01*
X168825000Y-75424745D01*
X169028019Y-75479847D01*
X169274392Y-75410611D01*
X169501455Y-75294800D01*
X169701562Y-75136917D01*
X169867022Y-74943028D01*
X169991477Y-74720585D01*
X170070144Y-74478137D01*
X170100000Y-74225000D01*
X170100000Y-73225000D01*
X168825000Y-73225000D01*
X168775000Y-73225000D01*
X167500000Y-73225000D01*
X156186268Y-73225000D01*
X155673371Y-72712103D01*
X155648320Y-72681578D01*
X155526504Y-72581607D01*
X155387526Y-72507321D01*
X155236725Y-72461576D01*
X155119191Y-72450000D01*
X155119189Y-72450000D01*
X155079898Y-72446130D01*
X155040607Y-72450000D01*
X115089282Y-72450000D01*
X115049999Y-72446131D01*
X115010716Y-72450000D01*
X115010707Y-72450000D01*
X114893173Y-72461576D01*
X114742372Y-72507321D01*
X114603393Y-72581607D01*
X114512098Y-72656531D01*
X114481578Y-72681578D01*
X114456531Y-72712098D01*
X113762103Y-73406527D01*
X113731578Y-73431578D01*
X113677151Y-73497899D01*
X113631607Y-73553394D01*
X113629344Y-73557628D01*
X113557321Y-73692373D01*
X113511576Y-73843174D01*
X113505814Y-73901680D01*
X113496130Y-74000000D01*
X113500000Y-74039291D01*
X113500000Y-74891303D01*
X113494748Y-74893479D01*
X113216313Y-75079523D01*
X112979523Y-75316313D01*
X112793479Y-75594748D01*
X112791304Y-75600000D01*
X111608696Y-75600000D01*
X111606521Y-75594748D01*
X111420477Y-75316313D01*
X111183687Y-75079523D01*
X110905252Y-74893479D01*
X110595872Y-74765330D01*
X110267435Y-74700000D01*
X109932565Y-74700000D01*
X109604128Y-74765330D01*
X109294748Y-74893479D01*
X109016313Y-75079523D01*
X108779523Y-75316313D01*
X108593479Y-75594748D01*
X108465330Y-75904128D01*
X108400000Y-76232565D01*
X108400000Y-76567435D01*
X108465330Y-76895872D01*
X108593479Y-77205252D01*
X108779523Y-77483687D01*
X109016313Y-77720477D01*
X109294748Y-77906521D01*
X109300000Y-77908697D01*
X109300001Y-80391303D01*
X109294748Y-80393479D01*
X109016313Y-80579523D01*
X108779523Y-80816313D01*
X108593479Y-81094748D01*
X108465330Y-81404128D01*
X108400000Y-81732565D01*
X108400000Y-82067435D01*
X108465330Y-82395872D01*
X108593479Y-82705252D01*
X108779523Y-82983687D01*
X109016313Y-83220477D01*
X109294748Y-83406521D01*
X109300000Y-83408696D01*
X109300001Y-105568628D01*
X108462103Y-106406527D01*
X108431578Y-106431578D01*
X108377151Y-106497899D01*
X108331607Y-106553394D01*
X108323590Y-106568393D01*
X108257321Y-106692373D01*
X108211576Y-106843174D01*
X108200000Y-106960707D01*
X108196130Y-107000000D01*
X108200000Y-107039291D01*
X108200000Y-107698549D01*
X107500000Y-107698549D01*
X107441190Y-107704341D01*
X107384640Y-107721496D01*
X107332523Y-107749353D01*
X107286842Y-107786842D01*
X107249353Y-107832523D01*
X107221496Y-107884640D01*
X107204341Y-107941190D01*
X107198549Y-108000000D01*
X96600000Y-108000000D01*
X96600000Y-72451429D01*
X97583926Y-72451429D01*
X97953075Y-72859883D01*
X98550341Y-73204266D01*
X99203318Y-73425512D01*
X99886910Y-73515116D01*
X100574848Y-73469637D01*
X101240695Y-73290821D01*
X101858863Y-72985541D01*
X102046925Y-72859883D01*
X102416074Y-72451429D01*
X100000000Y-70035355D01*
X97583926Y-72451429D01*
X96600000Y-72451429D01*
X96600000Y-70834151D01*
X96709179Y-71240695D01*
X97014459Y-71858863D01*
X97140117Y-72046925D01*
X97548571Y-72416074D01*
X99964645Y-70000000D01*
X100035355Y-70000000D01*
X102451429Y-72416074D01*
X102718171Y-72175000D01*
X167500000Y-72175000D01*
X167500000Y-73175000D01*
X168775000Y-73175000D01*
X168775000Y-70975255D01*
X168825000Y-70975255D01*
X168825000Y-73175000D01*
X170100000Y-73175000D01*
X170100000Y-72451429D01*
X189583926Y-72451429D01*
X189953075Y-72859883D01*
X190550341Y-73204266D01*
X191203318Y-73425512D01*
X191886910Y-73515116D01*
X192574848Y-73469637D01*
X193240695Y-73290821D01*
X193858863Y-72985541D01*
X194046925Y-72859883D01*
X194416074Y-72451429D01*
X192000000Y-70035355D01*
X189583926Y-72451429D01*
X170100000Y-72451429D01*
X170100000Y-72175000D01*
X170070144Y-71921863D01*
X169991477Y-71679415D01*
X169867022Y-71456972D01*
X169701562Y-71263083D01*
X169501455Y-71105200D01*
X169274392Y-70989389D01*
X169028019Y-70920153D01*
X168825000Y-70975255D01*
X168775000Y-70975255D01*
X168571981Y-70920153D01*
X168325608Y-70989389D01*
X168098545Y-71105200D01*
X167898438Y-71263083D01*
X167732978Y-71456972D01*
X167608523Y-71679415D01*
X167529856Y-71921863D01*
X167500000Y-72175000D01*
X102718171Y-72175000D01*
X102859883Y-72046925D01*
X103204266Y-71449659D01*
X103425512Y-70796682D01*
X103515116Y-70113090D01*
X103469637Y-69425152D01*
X103334706Y-68922716D01*
X108300000Y-68922716D01*
X108300000Y-69277284D01*
X108369173Y-69625041D01*
X108504861Y-69952620D01*
X108701849Y-70247433D01*
X108952567Y-70498151D01*
X109247380Y-70695139D01*
X109574959Y-70830827D01*
X109922716Y-70900000D01*
X110277284Y-70900000D01*
X110625041Y-70830827D01*
X110952620Y-70695139D01*
X111247433Y-70498151D01*
X111498151Y-70247433D01*
X111695139Y-69952620D01*
X111830827Y-69625041D01*
X111900000Y-69277284D01*
X111900000Y-68922716D01*
X154500000Y-68922716D01*
X154500000Y-69277284D01*
X154569173Y-69625041D01*
X154704861Y-69952620D01*
X154901849Y-70247433D01*
X155152567Y-70498151D01*
X155447380Y-70695139D01*
X155774959Y-70830827D01*
X156122716Y-70900000D01*
X156477284Y-70900000D01*
X156825041Y-70830827D01*
X157152620Y-70695139D01*
X157447433Y-70498151D01*
X157517565Y-70428019D01*
X171220153Y-70428019D01*
X171289389Y-70674392D01*
X171405200Y-70901455D01*
X171563083Y-71101562D01*
X171756972Y-71267022D01*
X171979415Y-71391477D01*
X172221863Y-71470144D01*
X172475000Y-71500000D01*
X173475000Y-71500000D01*
X173475000Y-70225000D01*
X173525000Y-70225000D01*
X173525000Y-71500000D01*
X174525000Y-71500000D01*
X174778137Y-71470144D01*
X175020585Y-71391477D01*
X175243028Y-71267022D01*
X175436917Y-71101562D01*
X175594800Y-70901455D01*
X175710611Y-70674392D01*
X175779847Y-70428019D01*
X175724745Y-70225000D01*
X173525000Y-70225000D01*
X173475000Y-70225000D01*
X171275255Y-70225000D01*
X171220153Y-70428019D01*
X157517565Y-70428019D01*
X157698151Y-70247433D01*
X157882202Y-69971981D01*
X171220153Y-69971981D01*
X171275255Y-70175000D01*
X173475000Y-70175000D01*
X173475000Y-68900000D01*
X173525000Y-68900000D01*
X173525000Y-70175000D01*
X175724745Y-70175000D01*
X175779847Y-69971981D01*
X175755941Y-69886910D01*
X188484884Y-69886910D01*
X188530363Y-70574848D01*
X188709179Y-71240695D01*
X189014459Y-71858863D01*
X189140117Y-72046925D01*
X189548571Y-72416074D01*
X191964645Y-70000000D01*
X189548571Y-67583926D01*
X189140117Y-67953075D01*
X188795734Y-68550341D01*
X188574488Y-69203318D01*
X188484884Y-69886910D01*
X175755941Y-69886910D01*
X175710611Y-69725608D01*
X175594800Y-69498545D01*
X175436917Y-69298438D01*
X175243028Y-69132978D01*
X175020585Y-69008523D01*
X174778137Y-68929856D01*
X174525000Y-68900000D01*
X173525000Y-68900000D01*
X173475000Y-68900000D01*
X172475000Y-68900000D01*
X172221863Y-68929856D01*
X171979415Y-69008523D01*
X171756972Y-69132978D01*
X171563083Y-69298438D01*
X171405200Y-69498545D01*
X171289389Y-69725608D01*
X171220153Y-69971981D01*
X157882202Y-69971981D01*
X157895139Y-69952620D01*
X158030827Y-69625041D01*
X158100000Y-69277284D01*
X158100000Y-68922716D01*
X158030827Y-68574959D01*
X157895139Y-68247380D01*
X157698151Y-67952567D01*
X157447433Y-67701849D01*
X157152620Y-67504861D01*
X156825041Y-67369173D01*
X156477284Y-67300000D01*
X156122716Y-67300000D01*
X155774959Y-67369173D01*
X155447380Y-67504861D01*
X155152567Y-67701849D01*
X154901849Y-67952567D01*
X154704861Y-68247380D01*
X154569173Y-68574959D01*
X154500000Y-68922716D01*
X111900000Y-68922716D01*
X111830827Y-68574959D01*
X111695139Y-68247380D01*
X111498151Y-67952567D01*
X111247433Y-67701849D01*
X110952620Y-67504861D01*
X110625041Y-67369173D01*
X110277284Y-67300000D01*
X109922716Y-67300000D01*
X109574959Y-67369173D01*
X109247380Y-67504861D01*
X108952567Y-67701849D01*
X108701849Y-67952567D01*
X108504861Y-68247380D01*
X108369173Y-68574959D01*
X108300000Y-68922716D01*
X103334706Y-68922716D01*
X103290821Y-68759305D01*
X102985541Y-68141137D01*
X102859883Y-67953075D01*
X102451429Y-67583926D01*
X100035355Y-70000000D01*
X99964645Y-70000000D01*
X99950503Y-69985858D01*
X99985858Y-69950503D01*
X100000000Y-69964645D01*
X102416074Y-67548571D01*
X102046925Y-67140117D01*
X101449659Y-66795734D01*
X100871977Y-66600000D01*
X191165849Y-66600000D01*
X190759305Y-66709179D01*
M02*
