M48
; DRILL file {KiCad 5.1.5-52549c5~86~ubuntu18.04.1} date vie 04 sep 2020 15:07:01 -03
; FORMAT={-:-/ absolute / inch / decimal}
; #@! TF.CreationDate,2020-09-04T15:07:01-03:00
; #@! TF.GenerationSoftware,Kicad,Pcbnew,5.1.5-52549c5~86~ubuntu18.04.1
; #@! TF.FileFunction,Plated,1,2,PTH
FMAT,2
INCH
T1C0.0157
T2C0.0315
T3C0.0394
T4C0.0551
T5C0.0709
T6C0.0787
T7C0.1260
%
G90
G05
T1
X4.6063Y-3.435
X4.6555Y-3.435
X4.9508Y-3.8248
X4.9508Y-3.874
X4.9508Y-3.9961
X5.0295Y-3.6909
X5.2087Y-3.8307
X5.2087Y-4.0866
X5.2559Y-3.8307
X5.2559Y-4.0866
X5.3071Y-3.8307
X5.3071Y-3.9252
X5.3071Y-3.9646
X5.3071Y-4.0039
X5.3071Y-4.0866
X5.3583Y-3.8307
X5.3583Y-3.9252
X5.3583Y-3.9646
X5.3583Y-4.0039
X5.3583Y-4.0866
X5.4094Y-4.0866
X5.4606Y-4.0866
X5.5217Y-3.6811
X5.9843Y-4.0453
X6.1713Y-3.5827
X6.2008Y-4.4685
X6.2205Y-3.5827
X6.25Y-4.4685
X6.4665Y-3.563
X6.4665Y-3.6122
T2
X7.3425Y-3.8189
X7.3425Y-4.0157
X7.4213Y-3.8189
X7.4213Y-4.0157
X7.5Y-3.8189
X7.5Y-4.0157
T3
X6.6339Y-4.3504
X6.7323Y-4.3504
X6.8307Y-4.3504
X6.9291Y-4.3504
T4
X4.2913Y-4.311
X4.4882Y-4.311
X6.1024Y-4.311
X6.2992Y-4.311
X4.7638Y-4.311
X4.9606Y-4.311
X5.1575Y-4.311
X5.4331Y-4.311
X5.6299Y-4.311
X5.8268Y-4.311
T5
X4.3346Y-3.0079
X4.3346Y-3.2244
X4.5Y-3.0079
X4.5Y-3.2244
X4.6654Y-3.0079
X4.6654Y-3.2244
X4.8307Y-3.0079
X4.8307Y-3.2244
X4.9961Y-3.0079
X4.9961Y-3.2244
X5.1614Y-3.0079
X5.1614Y-3.2244
X5.3268Y-3.0079
X5.3268Y-3.2244
X5.4921Y-3.0079
X5.4921Y-3.2244
X5.6575Y-3.0079
X5.6575Y-3.2244
X5.8228Y-3.0079
X5.8228Y-3.2244
X5.9882Y-3.0079
X5.9882Y-3.2244
X6.1535Y-3.0079
X6.1535Y-3.2244
T7
X3.937Y-4.4094
X3.937Y-2.7559
X7.5591Y-4.4094
X7.5591Y-2.7559
T3
G00X6.6457Y-2.8425
M15
G01X6.6457Y-2.9213
M16
G05
G00X6.8701Y-2.7638
M15
G01X6.7913Y-2.7638
M16
G05
G00X6.8799Y-3.0
M15
G01X6.7815Y-3.0
M16
G05
T6
G00X6.5531Y-3.878
M15
G01X6.5531Y-3.9567
M16
G05
G00X7.0098Y-3.878
M15
G01X7.0098Y-3.9567
M16
G05
T0
M30
