G04 #@! TF.GenerationSoftware,KiCad,Pcbnew,5.1.5-52549c5~86~ubuntu18.04.1*
G04 #@! TF.CreationDate,2020-09-04T15:06:53-03:00*
G04 #@! TF.ProjectId,TPS54331,54505335-3433-4333-912e-6b696361645f,v1.0*
G04 #@! TF.SameCoordinates,Original*
G04 #@! TF.FileFunction,Soldermask,Top*
G04 #@! TF.FilePolarity,Negative*
%FSLAX46Y46*%
G04 Gerber Fmt 4.6, Leading zero omitted, Abs format (unit mm)*
G04 Created by KiCad (PCBNEW 5.1.5-52549c5~86~ubuntu18.04.1) date 2020-09-04 15:06:53*
%MOMM*%
%LPD*%
G04 APERTURE LIST*
%ADD10C,0.100000*%
G04 APERTURE END LIST*
D10*
G36*
X192947989Y-108874895D02*
G01*
X193539450Y-109119887D01*
X193539452Y-109119888D01*
X194071754Y-109475560D01*
X194524440Y-109928246D01*
X194880112Y-110460548D01*
X194880113Y-110460550D01*
X195125105Y-111052011D01*
X195250000Y-111679902D01*
X195250000Y-112320098D01*
X195125105Y-112947989D01*
X194880113Y-113539450D01*
X194880112Y-113539452D01*
X194524440Y-114071754D01*
X194071754Y-114524440D01*
X193539452Y-114880112D01*
X193539451Y-114880113D01*
X193539450Y-114880113D01*
X192947989Y-115125105D01*
X192320098Y-115250000D01*
X191679902Y-115250000D01*
X191052011Y-115125105D01*
X190460550Y-114880113D01*
X190460549Y-114880113D01*
X190460548Y-114880112D01*
X189928246Y-114524440D01*
X189475560Y-114071754D01*
X189119888Y-113539452D01*
X189119887Y-113539450D01*
X188874895Y-112947989D01*
X188750000Y-112320098D01*
X188750000Y-111679902D01*
X188874895Y-111052011D01*
X189119887Y-110460550D01*
X189119888Y-110460548D01*
X189475560Y-109928246D01*
X189928246Y-109475560D01*
X190460548Y-109119888D01*
X190460550Y-109119887D01*
X191052011Y-108874895D01*
X191679902Y-108750000D01*
X192320098Y-108750000D01*
X192947989Y-108874895D01*
G37*
G36*
X100947989Y-108874895D02*
G01*
X101539450Y-109119887D01*
X101539452Y-109119888D01*
X102071754Y-109475560D01*
X102524440Y-109928246D01*
X102880112Y-110460548D01*
X102880113Y-110460550D01*
X103125105Y-111052011D01*
X103250000Y-111679902D01*
X103250000Y-112320098D01*
X103125105Y-112947989D01*
X102880113Y-113539450D01*
X102880112Y-113539452D01*
X102524440Y-114071754D01*
X102071754Y-114524440D01*
X101539452Y-114880112D01*
X101539451Y-114880113D01*
X101539450Y-114880113D01*
X100947989Y-115125105D01*
X100320098Y-115250000D01*
X99679902Y-115250000D01*
X99052011Y-115125105D01*
X98460550Y-114880113D01*
X98460549Y-114880113D01*
X98460548Y-114880112D01*
X97928246Y-114524440D01*
X97475560Y-114071754D01*
X97119888Y-113539452D01*
X97119887Y-113539450D01*
X96874895Y-112947989D01*
X96750000Y-112320098D01*
X96750000Y-111679902D01*
X96874895Y-111052011D01*
X97119887Y-110460550D01*
X97119888Y-110460548D01*
X97475560Y-109928246D01*
X97928246Y-109475560D01*
X98460548Y-109119888D01*
X98460550Y-109119887D01*
X99052011Y-108874895D01*
X99679902Y-108750000D01*
X100320098Y-108750000D01*
X100947989Y-108874895D01*
G37*
G36*
X173628687Y-109455027D02*
G01*
X173806274Y-109490350D01*
X173997362Y-109569502D01*
X174169336Y-109684411D01*
X174315589Y-109830664D01*
X174430498Y-110002638D01*
X174509650Y-110193726D01*
X174550000Y-110396584D01*
X174550000Y-110603416D01*
X174509650Y-110806274D01*
X174430498Y-110997362D01*
X174315589Y-111169336D01*
X174169336Y-111315589D01*
X173997362Y-111430498D01*
X173806274Y-111509650D01*
X173628687Y-111544973D01*
X173603417Y-111550000D01*
X173396583Y-111550000D01*
X173371313Y-111544973D01*
X173193726Y-111509650D01*
X173002638Y-111430498D01*
X172830664Y-111315589D01*
X172684411Y-111169336D01*
X172569502Y-110997362D01*
X172490350Y-110806274D01*
X172450000Y-110603416D01*
X172450000Y-110396584D01*
X172490350Y-110193726D01*
X172569502Y-110002638D01*
X172684411Y-109830664D01*
X172830664Y-109684411D01*
X173002638Y-109569502D01*
X173193726Y-109490350D01*
X173371313Y-109455027D01*
X173396583Y-109450000D01*
X173603417Y-109450000D01*
X173628687Y-109455027D01*
G37*
G36*
X176128687Y-109455027D02*
G01*
X176306274Y-109490350D01*
X176497362Y-109569502D01*
X176669336Y-109684411D01*
X176815589Y-109830664D01*
X176930498Y-110002638D01*
X177009650Y-110193726D01*
X177050000Y-110396584D01*
X177050000Y-110603416D01*
X177009650Y-110806274D01*
X176930498Y-110997362D01*
X176815589Y-111169336D01*
X176669336Y-111315589D01*
X176497362Y-111430498D01*
X176306274Y-111509650D01*
X176128687Y-111544973D01*
X176103417Y-111550000D01*
X175896583Y-111550000D01*
X175871313Y-111544973D01*
X175693726Y-111509650D01*
X175502638Y-111430498D01*
X175330664Y-111315589D01*
X175184411Y-111169336D01*
X175069502Y-110997362D01*
X174990350Y-110806274D01*
X174950000Y-110603416D01*
X174950000Y-110396584D01*
X174990350Y-110193726D01*
X175069502Y-110002638D01*
X175184411Y-109830664D01*
X175330664Y-109684411D01*
X175502638Y-109569502D01*
X175693726Y-109490350D01*
X175871313Y-109455027D01*
X175896583Y-109450000D01*
X176103417Y-109450000D01*
X176128687Y-109455027D01*
G37*
G36*
X171128687Y-109455027D02*
G01*
X171306274Y-109490350D01*
X171497362Y-109569502D01*
X171669336Y-109684411D01*
X171815589Y-109830664D01*
X171930498Y-110002638D01*
X172009650Y-110193726D01*
X172050000Y-110396584D01*
X172050000Y-110603416D01*
X172009650Y-110806274D01*
X171930498Y-110997362D01*
X171815589Y-111169336D01*
X171669336Y-111315589D01*
X171497362Y-111430498D01*
X171306274Y-111509650D01*
X171128687Y-111544973D01*
X171103417Y-111550000D01*
X170896583Y-111550000D01*
X170871313Y-111544973D01*
X170693726Y-111509650D01*
X170502638Y-111430498D01*
X170330664Y-111315589D01*
X170184411Y-111169336D01*
X170069502Y-110997362D01*
X169990350Y-110806274D01*
X169950000Y-110603416D01*
X169950000Y-110396584D01*
X169990350Y-110193726D01*
X170069502Y-110002638D01*
X170184411Y-109830664D01*
X170330664Y-109684411D01*
X170502638Y-109569502D01*
X170693726Y-109490350D01*
X170871313Y-109455027D01*
X170896583Y-109450000D01*
X171103417Y-109450000D01*
X171128687Y-109455027D01*
G37*
G36*
X169550000Y-111550000D02*
G01*
X167450000Y-111550000D01*
X167450000Y-109450000D01*
X169550000Y-109450000D01*
X169550000Y-111550000D01*
G37*
G36*
X110550000Y-111050000D02*
G01*
X107450000Y-111050000D01*
X107450000Y-107950000D01*
X110550000Y-107950000D01*
X110550000Y-111050000D01*
G37*
G36*
X160302390Y-107979782D02*
G01*
X160452118Y-108009565D01*
X160568960Y-108057963D01*
X160734199Y-108126407D01*
X160734200Y-108126408D01*
X160988068Y-108296036D01*
X161203964Y-108511932D01*
X161317306Y-108681561D01*
X161373593Y-108765801D01*
X161442037Y-108931040D01*
X161490435Y-109047882D01*
X161504758Y-109119888D01*
X161550000Y-109347337D01*
X161550000Y-109652663D01*
X161490435Y-109952117D01*
X161373593Y-110234199D01*
X161373592Y-110234200D01*
X161203964Y-110488068D01*
X160988068Y-110703964D01*
X160834952Y-110806272D01*
X160734199Y-110873593D01*
X160568960Y-110942037D01*
X160452118Y-110990435D01*
X160417303Y-110997360D01*
X160152663Y-111050000D01*
X159847337Y-111050000D01*
X159582697Y-110997360D01*
X159547882Y-110990435D01*
X159431040Y-110942037D01*
X159265801Y-110873593D01*
X159165048Y-110806272D01*
X159011932Y-110703964D01*
X158796036Y-110488068D01*
X158626408Y-110234200D01*
X158626407Y-110234199D01*
X158509565Y-109952117D01*
X158450000Y-109652663D01*
X158450000Y-109347337D01*
X158495242Y-109119888D01*
X158509565Y-109047882D01*
X158557963Y-108931040D01*
X158626407Y-108765801D01*
X158682694Y-108681561D01*
X158796036Y-108511932D01*
X159011932Y-108296036D01*
X159265800Y-108126408D01*
X159265801Y-108126407D01*
X159431040Y-108057963D01*
X159547882Y-108009565D01*
X159697610Y-107979782D01*
X159847337Y-107950000D01*
X160152663Y-107950000D01*
X160302390Y-107979782D01*
G37*
G36*
X156550000Y-111050000D02*
G01*
X153450000Y-111050000D01*
X153450000Y-107950000D01*
X156550000Y-107950000D01*
X156550000Y-111050000D01*
G37*
G36*
X139550000Y-111050000D02*
G01*
X136450000Y-111050000D01*
X136450000Y-107950000D01*
X139550000Y-107950000D01*
X139550000Y-111050000D01*
G37*
G36*
X143302390Y-107979782D02*
G01*
X143452118Y-108009565D01*
X143568960Y-108057963D01*
X143734199Y-108126407D01*
X143734200Y-108126408D01*
X143988068Y-108296036D01*
X144203964Y-108511932D01*
X144317306Y-108681561D01*
X144373593Y-108765801D01*
X144442037Y-108931040D01*
X144490435Y-109047882D01*
X144504758Y-109119888D01*
X144550000Y-109347337D01*
X144550000Y-109652663D01*
X144490435Y-109952117D01*
X144373593Y-110234199D01*
X144373592Y-110234200D01*
X144203964Y-110488068D01*
X143988068Y-110703964D01*
X143834952Y-110806272D01*
X143734199Y-110873593D01*
X143568960Y-110942037D01*
X143452118Y-110990435D01*
X143417303Y-110997360D01*
X143152663Y-111050000D01*
X142847337Y-111050000D01*
X142582697Y-110997360D01*
X142547882Y-110990435D01*
X142431040Y-110942037D01*
X142265801Y-110873593D01*
X142165048Y-110806272D01*
X142011932Y-110703964D01*
X141796036Y-110488068D01*
X141626408Y-110234200D01*
X141626407Y-110234199D01*
X141509565Y-109952117D01*
X141450000Y-109652663D01*
X141450000Y-109347337D01*
X141495242Y-109119888D01*
X141509565Y-109047882D01*
X141557963Y-108931040D01*
X141626407Y-108765801D01*
X141682694Y-108681561D01*
X141796036Y-108511932D01*
X142011932Y-108296036D01*
X142265800Y-108126408D01*
X142265801Y-108126407D01*
X142431040Y-108057963D01*
X142547882Y-108009565D01*
X142697610Y-107979782D01*
X142847337Y-107950000D01*
X143152663Y-107950000D01*
X143302390Y-107979782D01*
G37*
G36*
X148302390Y-107979782D02*
G01*
X148452118Y-108009565D01*
X148568960Y-108057963D01*
X148734199Y-108126407D01*
X148734200Y-108126408D01*
X148988068Y-108296036D01*
X149203964Y-108511932D01*
X149317306Y-108681561D01*
X149373593Y-108765801D01*
X149442037Y-108931040D01*
X149490435Y-109047882D01*
X149504758Y-109119888D01*
X149550000Y-109347337D01*
X149550000Y-109652663D01*
X149490435Y-109952117D01*
X149373593Y-110234199D01*
X149373592Y-110234200D01*
X149203964Y-110488068D01*
X148988068Y-110703964D01*
X148834952Y-110806272D01*
X148734199Y-110873593D01*
X148568960Y-110942037D01*
X148452118Y-110990435D01*
X148417303Y-110997360D01*
X148152663Y-111050000D01*
X147847337Y-111050000D01*
X147582697Y-110997360D01*
X147547882Y-110990435D01*
X147431040Y-110942037D01*
X147265801Y-110873593D01*
X147165048Y-110806272D01*
X147011932Y-110703964D01*
X146796036Y-110488068D01*
X146626408Y-110234200D01*
X146626407Y-110234199D01*
X146509565Y-109952117D01*
X146450000Y-109652663D01*
X146450000Y-109347337D01*
X146495242Y-109119888D01*
X146509565Y-109047882D01*
X146557963Y-108931040D01*
X146626407Y-108765801D01*
X146682694Y-108681561D01*
X146796036Y-108511932D01*
X147011932Y-108296036D01*
X147265800Y-108126408D01*
X147265801Y-108126407D01*
X147431040Y-108057963D01*
X147547882Y-108009565D01*
X147697610Y-107979782D01*
X147847337Y-107950000D01*
X148152663Y-107950000D01*
X148302390Y-107979782D01*
G37*
G36*
X114302390Y-107979782D02*
G01*
X114452118Y-108009565D01*
X114568960Y-108057963D01*
X114734199Y-108126407D01*
X114734200Y-108126408D01*
X114988068Y-108296036D01*
X115203964Y-108511932D01*
X115317306Y-108681561D01*
X115373593Y-108765801D01*
X115442037Y-108931040D01*
X115490435Y-109047882D01*
X115504758Y-109119888D01*
X115550000Y-109347337D01*
X115550000Y-109652663D01*
X115490435Y-109952117D01*
X115373593Y-110234199D01*
X115373592Y-110234200D01*
X115203964Y-110488068D01*
X114988068Y-110703964D01*
X114834952Y-110806272D01*
X114734199Y-110873593D01*
X114568960Y-110942037D01*
X114452118Y-110990435D01*
X114417303Y-110997360D01*
X114152663Y-111050000D01*
X113847337Y-111050000D01*
X113582697Y-110997360D01*
X113547882Y-110990435D01*
X113431040Y-110942037D01*
X113265801Y-110873593D01*
X113165048Y-110806272D01*
X113011932Y-110703964D01*
X112796036Y-110488068D01*
X112626408Y-110234200D01*
X112626407Y-110234199D01*
X112509565Y-109952117D01*
X112450000Y-109652663D01*
X112450000Y-109347337D01*
X112495242Y-109119888D01*
X112509565Y-109047882D01*
X112557963Y-108931040D01*
X112626407Y-108765801D01*
X112682694Y-108681561D01*
X112796036Y-108511932D01*
X113011932Y-108296036D01*
X113265800Y-108126408D01*
X113265801Y-108126407D01*
X113431040Y-108057963D01*
X113547882Y-108009565D01*
X113697610Y-107979782D01*
X113847337Y-107950000D01*
X114152663Y-107950000D01*
X114302390Y-107979782D01*
G37*
G36*
X131302390Y-107979782D02*
G01*
X131452118Y-108009565D01*
X131568960Y-108057963D01*
X131734199Y-108126407D01*
X131734200Y-108126408D01*
X131988068Y-108296036D01*
X132203964Y-108511932D01*
X132317306Y-108681561D01*
X132373593Y-108765801D01*
X132442037Y-108931040D01*
X132490435Y-109047882D01*
X132504758Y-109119888D01*
X132550000Y-109347337D01*
X132550000Y-109652663D01*
X132490435Y-109952117D01*
X132373593Y-110234199D01*
X132373592Y-110234200D01*
X132203964Y-110488068D01*
X131988068Y-110703964D01*
X131834952Y-110806272D01*
X131734199Y-110873593D01*
X131568960Y-110942037D01*
X131452118Y-110990435D01*
X131417303Y-110997360D01*
X131152663Y-111050000D01*
X130847337Y-111050000D01*
X130582697Y-110997360D01*
X130547882Y-110990435D01*
X130431040Y-110942037D01*
X130265801Y-110873593D01*
X130165048Y-110806272D01*
X130011932Y-110703964D01*
X129796036Y-110488068D01*
X129626408Y-110234200D01*
X129626407Y-110234199D01*
X129509565Y-109952117D01*
X129450000Y-109652663D01*
X129450000Y-109347337D01*
X129495242Y-109119888D01*
X129509565Y-109047882D01*
X129557963Y-108931040D01*
X129626407Y-108765801D01*
X129682694Y-108681561D01*
X129796036Y-108511932D01*
X130011932Y-108296036D01*
X130265800Y-108126408D01*
X130265801Y-108126407D01*
X130431040Y-108057963D01*
X130547882Y-108009565D01*
X130697610Y-107979782D01*
X130847337Y-107950000D01*
X131152663Y-107950000D01*
X131302390Y-107979782D01*
G37*
G36*
X126302390Y-107979782D02*
G01*
X126452118Y-108009565D01*
X126568960Y-108057963D01*
X126734199Y-108126407D01*
X126734200Y-108126408D01*
X126988068Y-108296036D01*
X127203964Y-108511932D01*
X127317306Y-108681561D01*
X127373593Y-108765801D01*
X127442037Y-108931040D01*
X127490435Y-109047882D01*
X127504758Y-109119888D01*
X127550000Y-109347337D01*
X127550000Y-109652663D01*
X127490435Y-109952117D01*
X127373593Y-110234199D01*
X127373592Y-110234200D01*
X127203964Y-110488068D01*
X126988068Y-110703964D01*
X126834952Y-110806272D01*
X126734199Y-110873593D01*
X126568960Y-110942037D01*
X126452118Y-110990435D01*
X126417303Y-110997360D01*
X126152663Y-111050000D01*
X125847337Y-111050000D01*
X125582697Y-110997360D01*
X125547882Y-110990435D01*
X125431040Y-110942037D01*
X125265801Y-110873593D01*
X125165048Y-110806272D01*
X125011932Y-110703964D01*
X124796036Y-110488068D01*
X124626408Y-110234200D01*
X124626407Y-110234199D01*
X124509565Y-109952117D01*
X124450000Y-109652663D01*
X124450000Y-109347337D01*
X124495242Y-109119888D01*
X124509565Y-109047882D01*
X124557963Y-108931040D01*
X124626407Y-108765801D01*
X124682694Y-108681561D01*
X124796036Y-108511932D01*
X125011932Y-108296036D01*
X125265800Y-108126408D01*
X125265801Y-108126407D01*
X125431040Y-108057963D01*
X125547882Y-108009565D01*
X125697610Y-107979782D01*
X125847337Y-107950000D01*
X126152663Y-107950000D01*
X126302390Y-107979782D01*
G37*
G36*
X122550000Y-111050000D02*
G01*
X119450000Y-111050000D01*
X119450000Y-107950000D01*
X122550000Y-107950000D01*
X122550000Y-111050000D01*
G37*
G36*
X128183867Y-104504556D02*
G01*
X128222448Y-104516259D01*
X128258001Y-104535263D01*
X128289163Y-104560837D01*
X128314737Y-104591999D01*
X128333741Y-104627552D01*
X128345444Y-104666133D01*
X128350000Y-104712390D01*
X128350000Y-105787610D01*
X128345444Y-105833867D01*
X128333741Y-105872448D01*
X128314737Y-105908001D01*
X128289163Y-105939163D01*
X128258001Y-105964737D01*
X128222448Y-105983741D01*
X128183867Y-105995444D01*
X128137610Y-106000000D01*
X127487390Y-106000000D01*
X127441133Y-105995444D01*
X127402552Y-105983741D01*
X127366999Y-105964737D01*
X127335837Y-105939163D01*
X127310263Y-105908001D01*
X127291259Y-105872448D01*
X127279556Y-105833867D01*
X127275000Y-105787610D01*
X127275000Y-104712390D01*
X127279556Y-104666133D01*
X127291259Y-104627552D01*
X127310263Y-104591999D01*
X127335837Y-104560837D01*
X127366999Y-104535263D01*
X127402552Y-104516259D01*
X127441133Y-104504556D01*
X127487390Y-104500000D01*
X128137610Y-104500000D01*
X128183867Y-104504556D01*
G37*
G36*
X146933867Y-104504556D02*
G01*
X146972448Y-104516259D01*
X147008001Y-104535263D01*
X147039163Y-104560837D01*
X147064737Y-104591999D01*
X147083741Y-104627552D01*
X147095444Y-104666133D01*
X147100000Y-104712390D01*
X147100000Y-105787610D01*
X147095444Y-105833867D01*
X147083741Y-105872448D01*
X147064737Y-105908001D01*
X147039163Y-105939163D01*
X147008001Y-105964737D01*
X146972448Y-105983741D01*
X146933867Y-105995444D01*
X146887610Y-106000000D01*
X146237390Y-106000000D01*
X146191133Y-105995444D01*
X146152552Y-105983741D01*
X146116999Y-105964737D01*
X146085837Y-105939163D01*
X146060263Y-105908001D01*
X146041259Y-105872448D01*
X146029556Y-105833867D01*
X146025000Y-105787610D01*
X146025000Y-104712390D01*
X146029556Y-104666133D01*
X146041259Y-104627552D01*
X146060263Y-104591999D01*
X146085837Y-104560837D01*
X146116999Y-104535263D01*
X146152552Y-104516259D01*
X146191133Y-104504556D01*
X146237390Y-104500000D01*
X146887610Y-104500000D01*
X146933867Y-104504556D01*
G37*
G36*
X148808867Y-104504556D02*
G01*
X148847448Y-104516259D01*
X148883001Y-104535263D01*
X148914163Y-104560837D01*
X148939737Y-104591999D01*
X148958741Y-104627552D01*
X148970444Y-104666133D01*
X148975000Y-104712390D01*
X148975000Y-105787610D01*
X148970444Y-105833867D01*
X148958741Y-105872448D01*
X148939737Y-105908001D01*
X148914163Y-105939163D01*
X148883001Y-105964737D01*
X148847448Y-105983741D01*
X148808867Y-105995444D01*
X148762610Y-106000000D01*
X148112390Y-106000000D01*
X148066133Y-105995444D01*
X148027552Y-105983741D01*
X147991999Y-105964737D01*
X147960837Y-105939163D01*
X147935263Y-105908001D01*
X147916259Y-105872448D01*
X147904556Y-105833867D01*
X147900000Y-105787610D01*
X147900000Y-104712390D01*
X147904556Y-104666133D01*
X147916259Y-104627552D01*
X147935263Y-104591999D01*
X147960837Y-104560837D01*
X147991999Y-104535263D01*
X148027552Y-104516259D01*
X148066133Y-104504556D01*
X148112390Y-104500000D01*
X148762610Y-104500000D01*
X148808867Y-104504556D01*
G37*
G36*
X130058867Y-104504556D02*
G01*
X130097448Y-104516259D01*
X130133001Y-104535263D01*
X130164163Y-104560837D01*
X130189737Y-104591999D01*
X130208741Y-104627552D01*
X130220444Y-104666133D01*
X130225000Y-104712390D01*
X130225000Y-105787610D01*
X130220444Y-105833867D01*
X130208741Y-105872448D01*
X130189737Y-105908001D01*
X130164163Y-105939163D01*
X130133001Y-105964737D01*
X130097448Y-105983741D01*
X130058867Y-105995444D01*
X130012610Y-106000000D01*
X129362390Y-106000000D01*
X129316133Y-105995444D01*
X129277552Y-105983741D01*
X129241999Y-105964737D01*
X129210837Y-105939163D01*
X129185263Y-105908001D01*
X129166259Y-105872448D01*
X129154556Y-105833867D01*
X129150000Y-105787610D01*
X129150000Y-104712390D01*
X129154556Y-104666133D01*
X129166259Y-104627552D01*
X129185263Y-104591999D01*
X129210837Y-104560837D01*
X129241999Y-104535263D01*
X129277552Y-104516259D01*
X129316133Y-104504556D01*
X129362390Y-104500000D01*
X130012610Y-104500000D01*
X130058867Y-104504556D01*
G37*
G36*
X134808867Y-104504556D02*
G01*
X134847448Y-104516259D01*
X134883001Y-104535263D01*
X134914163Y-104560837D01*
X134939737Y-104591999D01*
X134958741Y-104627552D01*
X134970444Y-104666133D01*
X134975000Y-104712390D01*
X134975000Y-105787610D01*
X134970444Y-105833867D01*
X134958741Y-105872448D01*
X134939737Y-105908001D01*
X134914163Y-105939163D01*
X134883001Y-105964737D01*
X134847448Y-105983741D01*
X134808867Y-105995444D01*
X134762610Y-106000000D01*
X134112390Y-106000000D01*
X134066133Y-105995444D01*
X134027552Y-105983741D01*
X133991999Y-105964737D01*
X133960837Y-105939163D01*
X133935263Y-105908001D01*
X133916259Y-105872448D01*
X133904556Y-105833867D01*
X133900000Y-105787610D01*
X133900000Y-104712390D01*
X133904556Y-104666133D01*
X133916259Y-104627552D01*
X133935263Y-104591999D01*
X133960837Y-104560837D01*
X133991999Y-104535263D01*
X134027552Y-104516259D01*
X134066133Y-104504556D01*
X134112390Y-104500000D01*
X134762610Y-104500000D01*
X134808867Y-104504556D01*
G37*
G36*
X132933867Y-104504556D02*
G01*
X132972448Y-104516259D01*
X133008001Y-104535263D01*
X133039163Y-104560837D01*
X133064737Y-104591999D01*
X133083741Y-104627552D01*
X133095444Y-104666133D01*
X133100000Y-104712390D01*
X133100000Y-105787610D01*
X133095444Y-105833867D01*
X133083741Y-105872448D01*
X133064737Y-105908001D01*
X133039163Y-105939163D01*
X133008001Y-105964737D01*
X132972448Y-105983741D01*
X132933867Y-105995444D01*
X132887610Y-106000000D01*
X132237390Y-106000000D01*
X132191133Y-105995444D01*
X132152552Y-105983741D01*
X132116999Y-105964737D01*
X132085837Y-105939163D01*
X132060263Y-105908001D01*
X132041259Y-105872448D01*
X132029556Y-105833867D01*
X132025000Y-105787610D01*
X132025000Y-104712390D01*
X132029556Y-104666133D01*
X132041259Y-104627552D01*
X132060263Y-104591999D01*
X132085837Y-104560837D01*
X132116999Y-104535263D01*
X132152552Y-104516259D01*
X132191133Y-104504556D01*
X132237390Y-104500000D01*
X132887610Y-104500000D01*
X132933867Y-104504556D01*
G37*
G36*
X148808867Y-102004556D02*
G01*
X148847448Y-102016259D01*
X148883001Y-102035263D01*
X148914163Y-102060837D01*
X148939737Y-102091999D01*
X148958741Y-102127552D01*
X148970444Y-102166133D01*
X148975000Y-102212390D01*
X148975000Y-103287610D01*
X148970444Y-103333867D01*
X148958741Y-103372448D01*
X148939737Y-103408001D01*
X148914163Y-103439163D01*
X148883001Y-103464737D01*
X148847448Y-103483741D01*
X148808867Y-103495444D01*
X148762610Y-103500000D01*
X148112390Y-103500000D01*
X148066133Y-103495444D01*
X148027552Y-103483741D01*
X147991999Y-103464737D01*
X147960837Y-103439163D01*
X147935263Y-103408001D01*
X147916259Y-103372448D01*
X147904556Y-103333867D01*
X147900000Y-103287610D01*
X147900000Y-102212390D01*
X147904556Y-102166133D01*
X147916259Y-102127552D01*
X147935263Y-102091999D01*
X147960837Y-102060837D01*
X147991999Y-102035263D01*
X148027552Y-102016259D01*
X148066133Y-102004556D01*
X148112390Y-102000000D01*
X148762610Y-102000000D01*
X148808867Y-102004556D01*
G37*
G36*
X146933867Y-102004556D02*
G01*
X146972448Y-102016259D01*
X147008001Y-102035263D01*
X147039163Y-102060837D01*
X147064737Y-102091999D01*
X147083741Y-102127552D01*
X147095444Y-102166133D01*
X147100000Y-102212390D01*
X147100000Y-103287610D01*
X147095444Y-103333867D01*
X147083741Y-103372448D01*
X147064737Y-103408001D01*
X147039163Y-103439163D01*
X147008001Y-103464737D01*
X146972448Y-103483741D01*
X146933867Y-103495444D01*
X146887610Y-103500000D01*
X146237390Y-103500000D01*
X146191133Y-103495444D01*
X146152552Y-103483741D01*
X146116999Y-103464737D01*
X146085837Y-103439163D01*
X146060263Y-103408001D01*
X146041259Y-103372448D01*
X146029556Y-103333867D01*
X146025000Y-103287610D01*
X146025000Y-102212390D01*
X146029556Y-102166133D01*
X146041259Y-102127552D01*
X146060263Y-102091999D01*
X146085837Y-102060837D01*
X146116999Y-102035263D01*
X146152552Y-102016259D01*
X146191133Y-102004556D01*
X146237390Y-102000000D01*
X146887610Y-102000000D01*
X146933867Y-102004556D01*
G37*
G36*
X130058867Y-102004556D02*
G01*
X130097448Y-102016259D01*
X130133001Y-102035263D01*
X130164163Y-102060837D01*
X130189737Y-102091999D01*
X130208741Y-102127552D01*
X130220444Y-102166133D01*
X130225000Y-102212390D01*
X130225000Y-103287610D01*
X130220444Y-103333867D01*
X130208741Y-103372448D01*
X130189737Y-103408001D01*
X130164163Y-103439163D01*
X130133001Y-103464737D01*
X130097448Y-103483741D01*
X130058867Y-103495444D01*
X130012610Y-103500000D01*
X129362390Y-103500000D01*
X129316133Y-103495444D01*
X129277552Y-103483741D01*
X129241999Y-103464737D01*
X129210837Y-103439163D01*
X129185263Y-103408001D01*
X129166259Y-103372448D01*
X129154556Y-103333867D01*
X129150000Y-103287610D01*
X129150000Y-102212390D01*
X129154556Y-102166133D01*
X129166259Y-102127552D01*
X129185263Y-102091999D01*
X129210837Y-102060837D01*
X129241999Y-102035263D01*
X129277552Y-102016259D01*
X129316133Y-102004556D01*
X129362390Y-102000000D01*
X130012610Y-102000000D01*
X130058867Y-102004556D01*
G37*
G36*
X128183867Y-102004556D02*
G01*
X128222448Y-102016259D01*
X128258001Y-102035263D01*
X128289163Y-102060837D01*
X128314737Y-102091999D01*
X128333741Y-102127552D01*
X128345444Y-102166133D01*
X128350000Y-102212390D01*
X128350000Y-103287610D01*
X128345444Y-103333867D01*
X128333741Y-103372448D01*
X128314737Y-103408001D01*
X128289163Y-103439163D01*
X128258001Y-103464737D01*
X128222448Y-103483741D01*
X128183867Y-103495444D01*
X128137610Y-103500000D01*
X127487390Y-103500000D01*
X127441133Y-103495444D01*
X127402552Y-103483741D01*
X127366999Y-103464737D01*
X127335837Y-103439163D01*
X127310263Y-103408001D01*
X127291259Y-103372448D01*
X127279556Y-103333867D01*
X127275000Y-103287610D01*
X127275000Y-102212390D01*
X127279556Y-102166133D01*
X127291259Y-102127552D01*
X127310263Y-102091999D01*
X127335837Y-102060837D01*
X127366999Y-102035263D01*
X127402552Y-102016259D01*
X127441133Y-102004556D01*
X127487390Y-102000000D01*
X128137610Y-102000000D01*
X128183867Y-102004556D01*
G37*
G36*
X144808867Y-102004556D02*
G01*
X144847448Y-102016259D01*
X144883001Y-102035263D01*
X144914163Y-102060837D01*
X144939737Y-102091999D01*
X144958741Y-102127552D01*
X144970444Y-102166133D01*
X144975000Y-102212390D01*
X144975000Y-103287610D01*
X144970444Y-103333867D01*
X144958741Y-103372448D01*
X144939737Y-103408001D01*
X144914163Y-103439163D01*
X144883001Y-103464737D01*
X144847448Y-103483741D01*
X144808867Y-103495444D01*
X144762610Y-103500000D01*
X144112390Y-103500000D01*
X144066133Y-103495444D01*
X144027552Y-103483741D01*
X143991999Y-103464737D01*
X143960837Y-103439163D01*
X143935263Y-103408001D01*
X143916259Y-103372448D01*
X143904556Y-103333867D01*
X143900000Y-103287610D01*
X143900000Y-102212390D01*
X143904556Y-102166133D01*
X143916259Y-102127552D01*
X143935263Y-102091999D01*
X143960837Y-102060837D01*
X143991999Y-102035263D01*
X144027552Y-102016259D01*
X144066133Y-102004556D01*
X144112390Y-102000000D01*
X144762610Y-102000000D01*
X144808867Y-102004556D01*
G37*
G36*
X142933867Y-102004556D02*
G01*
X142972448Y-102016259D01*
X143008001Y-102035263D01*
X143039163Y-102060837D01*
X143064737Y-102091999D01*
X143083741Y-102127552D01*
X143095444Y-102166133D01*
X143100000Y-102212390D01*
X143100000Y-103287610D01*
X143095444Y-103333867D01*
X143083741Y-103372448D01*
X143064737Y-103408001D01*
X143039163Y-103439163D01*
X143008001Y-103464737D01*
X142972448Y-103483741D01*
X142933867Y-103495444D01*
X142887610Y-103500000D01*
X142237390Y-103500000D01*
X142191133Y-103495444D01*
X142152552Y-103483741D01*
X142116999Y-103464737D01*
X142085837Y-103439163D01*
X142060263Y-103408001D01*
X142041259Y-103372448D01*
X142029556Y-103333867D01*
X142025000Y-103287610D01*
X142025000Y-102212390D01*
X142029556Y-102166133D01*
X142041259Y-102127552D01*
X142060263Y-102091999D01*
X142085837Y-102060837D01*
X142116999Y-102035263D01*
X142152552Y-102016259D01*
X142191133Y-102004556D01*
X142237390Y-102000000D01*
X142887610Y-102000000D01*
X142933867Y-102004556D01*
G37*
G36*
X187425000Y-101549726D02*
G01*
X187427402Y-101574112D01*
X187434515Y-101597561D01*
X187446066Y-101619172D01*
X187461611Y-101638114D01*
X187480553Y-101653659D01*
X187502164Y-101665210D01*
X187525613Y-101672323D01*
X187549999Y-101674725D01*
X187574385Y-101672323D01*
X187597834Y-101665210D01*
X187619445Y-101653659D01*
X187638387Y-101638114D01*
X187653932Y-101619172D01*
X187665480Y-101597567D01*
X187680275Y-101561848D01*
X187781505Y-101410347D01*
X187910347Y-101281505D01*
X188061848Y-101180275D01*
X188230187Y-101110547D01*
X188404576Y-101075859D01*
X188408894Y-101075000D01*
X188591106Y-101075000D01*
X188595424Y-101075859D01*
X188769813Y-101110547D01*
X188938152Y-101180275D01*
X189089653Y-101281505D01*
X189218495Y-101410347D01*
X189319725Y-101561848D01*
X189384520Y-101718277D01*
X189396067Y-101739881D01*
X189411612Y-101758822D01*
X189430554Y-101774368D01*
X189452165Y-101785919D01*
X189475614Y-101793032D01*
X189500000Y-101795434D01*
X189524386Y-101793032D01*
X189547835Y-101785919D01*
X189569446Y-101774368D01*
X189588387Y-101758823D01*
X189603933Y-101739881D01*
X189615480Y-101718277D01*
X189680275Y-101561848D01*
X189781505Y-101410347D01*
X189910347Y-101281505D01*
X190061848Y-101180275D01*
X190230187Y-101110547D01*
X190404576Y-101075859D01*
X190408894Y-101075000D01*
X190591106Y-101075000D01*
X190595424Y-101075859D01*
X190769813Y-101110547D01*
X190938152Y-101180275D01*
X191089653Y-101281505D01*
X191218495Y-101410347D01*
X191319725Y-101561848D01*
X191389453Y-101730187D01*
X191425000Y-101908895D01*
X191425000Y-102091105D01*
X191389453Y-102269813D01*
X191319725Y-102438152D01*
X191218495Y-102589653D01*
X191089653Y-102718495D01*
X190938152Y-102819725D01*
X190769813Y-102889453D01*
X190691652Y-102905000D01*
X190591106Y-102925000D01*
X190408894Y-102925000D01*
X190308348Y-102905000D01*
X190230187Y-102889453D01*
X190061848Y-102819725D01*
X189910347Y-102718495D01*
X189781505Y-102589653D01*
X189680275Y-102438152D01*
X189615480Y-102281723D01*
X189603933Y-102260119D01*
X189588388Y-102241178D01*
X189569446Y-102225632D01*
X189547835Y-102214081D01*
X189524386Y-102206968D01*
X189500000Y-102204566D01*
X189475614Y-102206968D01*
X189452165Y-102214081D01*
X189430554Y-102225632D01*
X189411613Y-102241177D01*
X189396067Y-102260119D01*
X189384520Y-102281723D01*
X189319725Y-102438152D01*
X189218495Y-102589653D01*
X189089653Y-102718495D01*
X188938152Y-102819725D01*
X188769813Y-102889453D01*
X188691652Y-102905000D01*
X188591106Y-102925000D01*
X188408894Y-102925000D01*
X188308348Y-102905000D01*
X188230187Y-102889453D01*
X188061848Y-102819725D01*
X187910347Y-102718495D01*
X187781505Y-102589653D01*
X187680275Y-102438152D01*
X187665480Y-102402433D01*
X187653932Y-102380828D01*
X187638387Y-102361886D01*
X187619445Y-102346341D01*
X187597834Y-102334790D01*
X187574385Y-102327677D01*
X187549999Y-102325275D01*
X187525613Y-102327677D01*
X187502164Y-102334790D01*
X187480553Y-102346341D01*
X187461611Y-102361886D01*
X187446066Y-102380828D01*
X187434515Y-102402439D01*
X187427402Y-102425888D01*
X187425000Y-102450274D01*
X187425000Y-102925000D01*
X185575000Y-102925000D01*
X185575000Y-101075000D01*
X187425000Y-101075000D01*
X187425000Y-101549726D01*
G37*
G36*
X138859327Y-102207754D02*
G01*
X138880322Y-102214123D01*
X138899664Y-102224462D01*
X138916622Y-102238378D01*
X138930538Y-102255336D01*
X138940877Y-102274678D01*
X138947246Y-102295673D01*
X138950000Y-102323638D01*
X138950000Y-102786362D01*
X138947246Y-102814327D01*
X138940877Y-102835322D01*
X138930538Y-102854664D01*
X138916622Y-102871622D01*
X138899664Y-102885538D01*
X138880322Y-102895877D01*
X138859327Y-102902246D01*
X138831362Y-102905000D01*
X137018638Y-102905000D01*
X136990673Y-102902246D01*
X136969678Y-102895877D01*
X136950336Y-102885538D01*
X136933378Y-102871622D01*
X136919462Y-102854664D01*
X136909123Y-102835322D01*
X136902754Y-102814327D01*
X136900000Y-102786362D01*
X136900000Y-102323638D01*
X136902754Y-102295673D01*
X136909123Y-102274678D01*
X136919462Y-102255336D01*
X136933378Y-102238378D01*
X136950336Y-102224462D01*
X136969678Y-102214123D01*
X136990673Y-102207754D01*
X137018638Y-102205000D01*
X138831362Y-102205000D01*
X138859327Y-102207754D01*
G37*
G36*
X133909327Y-102207754D02*
G01*
X133930322Y-102214123D01*
X133949664Y-102224462D01*
X133966622Y-102238378D01*
X133980538Y-102255336D01*
X133990877Y-102274678D01*
X133997246Y-102295673D01*
X134000000Y-102323638D01*
X134000000Y-102786362D01*
X133997246Y-102814327D01*
X133990877Y-102835322D01*
X133980538Y-102854664D01*
X133966622Y-102871622D01*
X133949664Y-102885538D01*
X133930322Y-102895877D01*
X133909327Y-102902246D01*
X133881362Y-102905000D01*
X132068638Y-102905000D01*
X132040673Y-102902246D01*
X132019678Y-102895877D01*
X132000336Y-102885538D01*
X131983378Y-102871622D01*
X131969462Y-102854664D01*
X131959123Y-102835322D01*
X131952754Y-102814327D01*
X131950000Y-102786362D01*
X131950000Y-102323638D01*
X131952754Y-102295673D01*
X131959123Y-102274678D01*
X131969462Y-102255336D01*
X131983378Y-102238378D01*
X132000336Y-102224462D01*
X132019678Y-102214123D01*
X132040673Y-102207754D01*
X132068638Y-102205000D01*
X133881362Y-102205000D01*
X133909327Y-102207754D01*
G37*
G36*
X136513515Y-99103729D02*
G01*
X136544014Y-99112982D01*
X136572130Y-99128010D01*
X136596770Y-99148230D01*
X136616990Y-99172870D01*
X136632018Y-99200986D01*
X136641271Y-99231485D01*
X136645000Y-99269349D01*
X136645000Y-102030651D01*
X136641271Y-102068515D01*
X136632018Y-102099014D01*
X136616990Y-102127130D01*
X136596770Y-102151770D01*
X136572130Y-102171990D01*
X136544014Y-102187018D01*
X136513515Y-102196271D01*
X136475651Y-102200000D01*
X134424349Y-102200000D01*
X134386485Y-102196271D01*
X134355986Y-102187018D01*
X134327870Y-102171990D01*
X134303230Y-102151770D01*
X134283010Y-102127130D01*
X134267982Y-102099014D01*
X134258729Y-102068515D01*
X134255000Y-102030651D01*
X134255000Y-99269349D01*
X134258729Y-99231485D01*
X134267982Y-99200986D01*
X134283010Y-99172870D01*
X134303230Y-99148230D01*
X134327870Y-99128010D01*
X134355986Y-99112982D01*
X134386485Y-99103729D01*
X134424349Y-99100000D01*
X136475651Y-99100000D01*
X136513515Y-99103729D01*
G37*
G36*
X166753848Y-96972427D02*
G01*
X166753851Y-96972428D01*
X166753852Y-96972428D01*
X167046028Y-97061059D01*
X167046030Y-97061060D01*
X167046033Y-97061061D01*
X167315298Y-97204986D01*
X167551319Y-97398681D01*
X167745014Y-97634701D01*
X167888939Y-97903966D01*
X167977573Y-98196151D01*
X168000000Y-98423858D01*
X168000000Y-100576142D01*
X167977573Y-100803849D01*
X167977572Y-100803852D01*
X167977572Y-100803853D01*
X167895060Y-101075859D01*
X167888939Y-101096034D01*
X167745014Y-101365299D01*
X167551319Y-101601319D01*
X167315299Y-101795014D01*
X167046034Y-101938939D01*
X167046031Y-101938940D01*
X167046029Y-101938941D01*
X166753853Y-102027572D01*
X166753852Y-102027572D01*
X166753849Y-102027573D01*
X166450000Y-102057499D01*
X166146152Y-102027573D01*
X166146149Y-102027572D01*
X166146148Y-102027572D01*
X165853972Y-101938941D01*
X165853970Y-101938940D01*
X165853967Y-101938939D01*
X165584702Y-101795014D01*
X165348682Y-101601319D01*
X165154987Y-101365299D01*
X165011062Y-101096034D01*
X165004942Y-101075859D01*
X164922429Y-100803853D01*
X164922429Y-100803852D01*
X164922428Y-100803849D01*
X164900001Y-100576142D01*
X164900000Y-98423859D01*
X164922427Y-98196152D01*
X164922428Y-98196148D01*
X165011059Y-97903972D01*
X165011060Y-97903970D01*
X165011061Y-97903967D01*
X165154986Y-97634702D01*
X165348681Y-97398681D01*
X165584701Y-97204986D01*
X165853966Y-97061061D01*
X165853969Y-97061060D01*
X165853971Y-97061059D01*
X166146147Y-96972428D01*
X166146148Y-96972428D01*
X166146151Y-96972427D01*
X166450000Y-96942501D01*
X166753848Y-96972427D01*
G37*
G36*
X178353848Y-96972427D02*
G01*
X178353851Y-96972428D01*
X178353852Y-96972428D01*
X178646028Y-97061059D01*
X178646030Y-97061060D01*
X178646033Y-97061061D01*
X178915298Y-97204986D01*
X179151319Y-97398681D01*
X179345014Y-97634701D01*
X179488939Y-97903966D01*
X179577573Y-98196151D01*
X179600000Y-98423858D01*
X179600000Y-100576142D01*
X179577573Y-100803849D01*
X179577572Y-100803852D01*
X179577572Y-100803853D01*
X179495060Y-101075859D01*
X179488939Y-101096034D01*
X179345014Y-101365299D01*
X179151319Y-101601319D01*
X178915299Y-101795014D01*
X178646034Y-101938939D01*
X178646031Y-101938940D01*
X178646029Y-101938941D01*
X178353853Y-102027572D01*
X178353852Y-102027572D01*
X178353849Y-102027573D01*
X178050000Y-102057499D01*
X177746152Y-102027573D01*
X177746149Y-102027572D01*
X177746148Y-102027572D01*
X177453972Y-101938941D01*
X177453970Y-101938940D01*
X177453967Y-101938939D01*
X177184702Y-101795014D01*
X176948682Y-101601319D01*
X176754987Y-101365299D01*
X176611062Y-101096034D01*
X176604942Y-101075859D01*
X176522429Y-100803853D01*
X176522429Y-100803852D01*
X176522428Y-100803849D01*
X176500001Y-100576142D01*
X176500000Y-98423859D01*
X176522427Y-98196152D01*
X176522428Y-98196148D01*
X176611059Y-97903972D01*
X176611060Y-97903970D01*
X176611061Y-97903967D01*
X176754986Y-97634702D01*
X176948681Y-97398681D01*
X177184701Y-97204986D01*
X177453966Y-97061061D01*
X177453969Y-97061060D01*
X177453971Y-97061059D01*
X177746147Y-96972428D01*
X177746148Y-96972428D01*
X177746151Y-96972427D01*
X178050000Y-96942501D01*
X178353848Y-96972427D01*
G37*
G36*
X133909327Y-100937754D02*
G01*
X133930322Y-100944123D01*
X133949664Y-100954462D01*
X133966622Y-100968378D01*
X133980538Y-100985336D01*
X133990877Y-101004678D01*
X133997246Y-101025673D01*
X134000000Y-101053638D01*
X134000000Y-101516362D01*
X133997246Y-101544327D01*
X133990877Y-101565322D01*
X133980538Y-101584664D01*
X133966622Y-101601622D01*
X133949664Y-101615538D01*
X133930322Y-101625877D01*
X133909327Y-101632246D01*
X133881362Y-101635000D01*
X132068638Y-101635000D01*
X132040673Y-101632246D01*
X132019678Y-101625877D01*
X132000336Y-101615538D01*
X131983378Y-101601622D01*
X131969462Y-101584664D01*
X131959123Y-101565322D01*
X131952754Y-101544327D01*
X131950000Y-101516362D01*
X131950000Y-101053638D01*
X131952754Y-101025673D01*
X131959123Y-101004678D01*
X131969462Y-100985336D01*
X131983378Y-100968378D01*
X132000336Y-100954462D01*
X132019678Y-100944123D01*
X132040673Y-100937754D01*
X132068638Y-100935000D01*
X133881362Y-100935000D01*
X133909327Y-100937754D01*
G37*
G36*
X138859327Y-100937754D02*
G01*
X138880322Y-100944123D01*
X138899664Y-100954462D01*
X138916622Y-100968378D01*
X138930538Y-100985336D01*
X138940877Y-101004678D01*
X138947246Y-101025673D01*
X138950000Y-101053638D01*
X138950000Y-101516362D01*
X138947246Y-101544327D01*
X138940877Y-101565322D01*
X138930538Y-101584664D01*
X138916622Y-101601622D01*
X138899664Y-101615538D01*
X138880322Y-101625877D01*
X138859327Y-101632246D01*
X138831362Y-101635000D01*
X137018638Y-101635000D01*
X136990673Y-101632246D01*
X136969678Y-101625877D01*
X136950336Y-101615538D01*
X136933378Y-101601622D01*
X136919462Y-101584664D01*
X136909123Y-101565322D01*
X136902754Y-101544327D01*
X136900000Y-101516362D01*
X136900000Y-101053638D01*
X136902754Y-101025673D01*
X136909123Y-101004678D01*
X136919462Y-100985336D01*
X136933378Y-100968378D01*
X136950336Y-100954462D01*
X136969678Y-100944123D01*
X136990673Y-100937754D01*
X137018638Y-100935000D01*
X138831362Y-100935000D01*
X138859327Y-100937754D01*
G37*
G36*
X130058867Y-99504556D02*
G01*
X130097448Y-99516259D01*
X130133001Y-99535263D01*
X130164163Y-99560837D01*
X130189737Y-99591999D01*
X130208741Y-99627552D01*
X130220444Y-99666133D01*
X130225000Y-99712390D01*
X130225000Y-100787610D01*
X130220444Y-100833867D01*
X130208741Y-100872448D01*
X130189737Y-100908001D01*
X130164163Y-100939163D01*
X130133001Y-100964737D01*
X130097448Y-100983741D01*
X130058867Y-100995444D01*
X130012610Y-101000000D01*
X129362390Y-101000000D01*
X129316133Y-100995444D01*
X129277552Y-100983741D01*
X129241999Y-100964737D01*
X129210837Y-100939163D01*
X129185263Y-100908001D01*
X129166259Y-100872448D01*
X129154556Y-100833867D01*
X129150000Y-100787610D01*
X129150000Y-99712390D01*
X129154556Y-99666133D01*
X129166259Y-99627552D01*
X129185263Y-99591999D01*
X129210837Y-99560837D01*
X129241999Y-99535263D01*
X129277552Y-99516259D01*
X129316133Y-99504556D01*
X129362390Y-99500000D01*
X130012610Y-99500000D01*
X130058867Y-99504556D01*
G37*
G36*
X128183867Y-99504556D02*
G01*
X128222448Y-99516259D01*
X128258001Y-99535263D01*
X128289163Y-99560837D01*
X128314737Y-99591999D01*
X128333741Y-99627552D01*
X128345444Y-99666133D01*
X128350000Y-99712390D01*
X128350000Y-100787610D01*
X128345444Y-100833867D01*
X128333741Y-100872448D01*
X128314737Y-100908001D01*
X128289163Y-100939163D01*
X128258001Y-100964737D01*
X128222448Y-100983741D01*
X128183867Y-100995444D01*
X128137610Y-101000000D01*
X127487390Y-101000000D01*
X127441133Y-100995444D01*
X127402552Y-100983741D01*
X127366999Y-100964737D01*
X127335837Y-100939163D01*
X127310263Y-100908001D01*
X127291259Y-100872448D01*
X127279556Y-100833867D01*
X127275000Y-100787610D01*
X127275000Y-99712390D01*
X127279556Y-99666133D01*
X127291259Y-99627552D01*
X127310263Y-99591999D01*
X127335837Y-99560837D01*
X127366999Y-99535263D01*
X127402552Y-99516259D01*
X127441133Y-99504556D01*
X127487390Y-99500000D01*
X128137610Y-99500000D01*
X128183867Y-99504556D01*
G37*
G36*
X142933867Y-99404556D02*
G01*
X142972448Y-99416259D01*
X143008001Y-99435263D01*
X143039163Y-99460837D01*
X143064737Y-99491999D01*
X143083741Y-99527552D01*
X143095444Y-99566133D01*
X143100000Y-99612390D01*
X143100000Y-100687610D01*
X143095444Y-100733867D01*
X143083741Y-100772448D01*
X143064737Y-100808001D01*
X143039163Y-100839163D01*
X143008001Y-100864737D01*
X142972448Y-100883741D01*
X142933867Y-100895444D01*
X142887610Y-100900000D01*
X142237390Y-100900000D01*
X142191133Y-100895444D01*
X142152552Y-100883741D01*
X142116999Y-100864737D01*
X142085837Y-100839163D01*
X142060263Y-100808001D01*
X142041259Y-100772448D01*
X142029556Y-100733867D01*
X142025000Y-100687610D01*
X142025000Y-99612390D01*
X142029556Y-99566133D01*
X142041259Y-99527552D01*
X142060263Y-99491999D01*
X142085837Y-99460837D01*
X142116999Y-99435263D01*
X142152552Y-99416259D01*
X142191133Y-99404556D01*
X142237390Y-99400000D01*
X142887610Y-99400000D01*
X142933867Y-99404556D01*
G37*
G36*
X146933867Y-99404556D02*
G01*
X146972448Y-99416259D01*
X147008001Y-99435263D01*
X147039163Y-99460837D01*
X147064737Y-99491999D01*
X147083741Y-99527552D01*
X147095444Y-99566133D01*
X147100000Y-99612390D01*
X147100000Y-100687610D01*
X147095444Y-100733867D01*
X147083741Y-100772448D01*
X147064737Y-100808001D01*
X147039163Y-100839163D01*
X147008001Y-100864737D01*
X146972448Y-100883741D01*
X146933867Y-100895444D01*
X146887610Y-100900000D01*
X146237390Y-100900000D01*
X146191133Y-100895444D01*
X146152552Y-100883741D01*
X146116999Y-100864737D01*
X146085837Y-100839163D01*
X146060263Y-100808001D01*
X146041259Y-100772448D01*
X146029556Y-100733867D01*
X146025000Y-100687610D01*
X146025000Y-99612390D01*
X146029556Y-99566133D01*
X146041259Y-99527552D01*
X146060263Y-99491999D01*
X146085837Y-99460837D01*
X146116999Y-99435263D01*
X146152552Y-99416259D01*
X146191133Y-99404556D01*
X146237390Y-99400000D01*
X146887610Y-99400000D01*
X146933867Y-99404556D01*
G37*
G36*
X148808867Y-99404556D02*
G01*
X148847448Y-99416259D01*
X148883001Y-99435263D01*
X148914163Y-99460837D01*
X148939737Y-99491999D01*
X148958741Y-99527552D01*
X148970444Y-99566133D01*
X148975000Y-99612390D01*
X148975000Y-100687610D01*
X148970444Y-100733867D01*
X148958741Y-100772448D01*
X148939737Y-100808001D01*
X148914163Y-100839163D01*
X148883001Y-100864737D01*
X148847448Y-100883741D01*
X148808867Y-100895444D01*
X148762610Y-100900000D01*
X148112390Y-100900000D01*
X148066133Y-100895444D01*
X148027552Y-100883741D01*
X147991999Y-100864737D01*
X147960837Y-100839163D01*
X147935263Y-100808001D01*
X147916259Y-100772448D01*
X147904556Y-100733867D01*
X147900000Y-100687610D01*
X147900000Y-99612390D01*
X147904556Y-99566133D01*
X147916259Y-99527552D01*
X147935263Y-99491999D01*
X147960837Y-99460837D01*
X147991999Y-99435263D01*
X148027552Y-99416259D01*
X148066133Y-99404556D01*
X148112390Y-99400000D01*
X148762610Y-99400000D01*
X148808867Y-99404556D01*
G37*
G36*
X144808867Y-99404556D02*
G01*
X144847448Y-99416259D01*
X144883001Y-99435263D01*
X144914163Y-99460837D01*
X144939737Y-99491999D01*
X144958741Y-99527552D01*
X144970444Y-99566133D01*
X144975000Y-99612390D01*
X144975000Y-100687610D01*
X144970444Y-100733867D01*
X144958741Y-100772448D01*
X144939737Y-100808001D01*
X144914163Y-100839163D01*
X144883001Y-100864737D01*
X144847448Y-100883741D01*
X144808867Y-100895444D01*
X144762610Y-100900000D01*
X144112390Y-100900000D01*
X144066133Y-100895444D01*
X144027552Y-100883741D01*
X143991999Y-100864737D01*
X143960837Y-100839163D01*
X143935263Y-100808001D01*
X143916259Y-100772448D01*
X143904556Y-100733867D01*
X143900000Y-100687610D01*
X143900000Y-99612390D01*
X143904556Y-99566133D01*
X143916259Y-99527552D01*
X143935263Y-99491999D01*
X143960837Y-99460837D01*
X143991999Y-99435263D01*
X144027552Y-99416259D01*
X144066133Y-99404556D01*
X144112390Y-99400000D01*
X144762610Y-99400000D01*
X144808867Y-99404556D01*
G37*
G36*
X138859327Y-99667754D02*
G01*
X138880322Y-99674123D01*
X138899664Y-99684462D01*
X138916622Y-99698378D01*
X138930538Y-99715336D01*
X138940877Y-99734678D01*
X138947246Y-99755673D01*
X138950000Y-99783638D01*
X138950000Y-100246362D01*
X138947246Y-100274327D01*
X138940877Y-100295322D01*
X138930538Y-100314664D01*
X138916622Y-100331622D01*
X138899664Y-100345538D01*
X138880322Y-100355877D01*
X138859327Y-100362246D01*
X138831362Y-100365000D01*
X137018638Y-100365000D01*
X136990673Y-100362246D01*
X136969678Y-100355877D01*
X136950336Y-100345538D01*
X136933378Y-100331622D01*
X136919462Y-100314664D01*
X136909123Y-100295322D01*
X136902754Y-100274327D01*
X136900000Y-100246362D01*
X136900000Y-99783638D01*
X136902754Y-99755673D01*
X136909123Y-99734678D01*
X136919462Y-99715336D01*
X136933378Y-99698378D01*
X136950336Y-99684462D01*
X136969678Y-99674123D01*
X136990673Y-99667754D01*
X137018638Y-99665000D01*
X138831362Y-99665000D01*
X138859327Y-99667754D01*
G37*
G36*
X133909327Y-99667754D02*
G01*
X133930322Y-99674123D01*
X133949664Y-99684462D01*
X133966622Y-99698378D01*
X133980538Y-99715336D01*
X133990877Y-99734678D01*
X133997246Y-99755673D01*
X134000000Y-99783638D01*
X134000000Y-100246362D01*
X133997246Y-100274327D01*
X133990877Y-100295322D01*
X133980538Y-100314664D01*
X133966622Y-100331622D01*
X133949664Y-100345538D01*
X133930322Y-100355877D01*
X133909327Y-100362246D01*
X133881362Y-100365000D01*
X132068638Y-100365000D01*
X132040673Y-100362246D01*
X132019678Y-100355877D01*
X132000336Y-100345538D01*
X131983378Y-100331622D01*
X131969462Y-100314664D01*
X131959123Y-100295322D01*
X131952754Y-100274327D01*
X131950000Y-100246362D01*
X131950000Y-99783638D01*
X131952754Y-99755673D01*
X131959123Y-99734678D01*
X131969462Y-99715336D01*
X131983378Y-99698378D01*
X132000336Y-99684462D01*
X132019678Y-99674123D01*
X132040673Y-99667754D01*
X132068638Y-99665000D01*
X133881362Y-99665000D01*
X133909327Y-99667754D01*
G37*
G36*
X133909327Y-98397754D02*
G01*
X133930322Y-98404123D01*
X133949664Y-98414462D01*
X133966622Y-98428378D01*
X133980538Y-98445336D01*
X133990877Y-98464678D01*
X133997246Y-98485673D01*
X134000000Y-98513638D01*
X134000000Y-98976362D01*
X133997246Y-99004327D01*
X133990877Y-99025322D01*
X133980538Y-99044664D01*
X133966622Y-99061622D01*
X133949664Y-99075538D01*
X133930322Y-99085877D01*
X133909327Y-99092246D01*
X133881362Y-99095000D01*
X132068638Y-99095000D01*
X132040673Y-99092246D01*
X132019678Y-99085877D01*
X132000336Y-99075538D01*
X131983378Y-99061622D01*
X131969462Y-99044664D01*
X131959123Y-99025322D01*
X131952754Y-99004327D01*
X131950000Y-98976362D01*
X131950000Y-98513638D01*
X131952754Y-98485673D01*
X131959123Y-98464678D01*
X131969462Y-98445336D01*
X131983378Y-98428378D01*
X132000336Y-98414462D01*
X132019678Y-98404123D01*
X132040673Y-98397754D01*
X132068638Y-98395000D01*
X133881362Y-98395000D01*
X133909327Y-98397754D01*
G37*
G36*
X138859327Y-98397754D02*
G01*
X138880322Y-98404123D01*
X138899664Y-98414462D01*
X138916622Y-98428378D01*
X138930538Y-98445336D01*
X138940877Y-98464678D01*
X138947246Y-98485673D01*
X138950000Y-98513638D01*
X138950000Y-98976362D01*
X138947246Y-99004327D01*
X138940877Y-99025322D01*
X138930538Y-99044664D01*
X138916622Y-99061622D01*
X138899664Y-99075538D01*
X138880322Y-99085877D01*
X138859327Y-99092246D01*
X138831362Y-99095000D01*
X137018638Y-99095000D01*
X136990673Y-99092246D01*
X136969678Y-99085877D01*
X136950336Y-99075538D01*
X136933378Y-99061622D01*
X136919462Y-99044664D01*
X136909123Y-99025322D01*
X136902754Y-99004327D01*
X136900000Y-98976362D01*
X136900000Y-98513638D01*
X136902754Y-98485673D01*
X136909123Y-98464678D01*
X136919462Y-98445336D01*
X136933378Y-98428378D01*
X136950336Y-98414462D01*
X136969678Y-98404123D01*
X136990673Y-98397754D01*
X137018638Y-98395000D01*
X138831362Y-98395000D01*
X138859327Y-98397754D01*
G37*
G36*
X124605250Y-96904045D02*
G01*
X124638844Y-96914236D01*
X124669804Y-96930785D01*
X124696943Y-96953057D01*
X124719215Y-96980196D01*
X124735764Y-97011156D01*
X124745955Y-97044750D01*
X124750000Y-97085826D01*
X124750000Y-98414174D01*
X124745955Y-98455250D01*
X124735764Y-98488844D01*
X124719215Y-98519804D01*
X124696943Y-98546943D01*
X124669804Y-98569215D01*
X124638844Y-98585764D01*
X124605250Y-98595955D01*
X124564174Y-98600000D01*
X121835826Y-98600000D01*
X121794750Y-98595955D01*
X121761156Y-98585764D01*
X121730196Y-98569215D01*
X121703057Y-98546943D01*
X121680785Y-98519804D01*
X121664236Y-98488844D01*
X121654045Y-98455250D01*
X121650000Y-98414174D01*
X121650000Y-97085826D01*
X121654045Y-97044750D01*
X121664236Y-97011156D01*
X121680785Y-96980196D01*
X121703057Y-96953057D01*
X121730196Y-96930785D01*
X121761156Y-96914236D01*
X121794750Y-96904045D01*
X121835826Y-96900000D01*
X124564174Y-96900000D01*
X124605250Y-96904045D01*
G37*
G36*
X120205250Y-96904045D02*
G01*
X120238844Y-96914236D01*
X120269804Y-96930785D01*
X120296943Y-96953057D01*
X120319215Y-96980196D01*
X120335764Y-97011156D01*
X120345955Y-97044750D01*
X120350000Y-97085826D01*
X120350000Y-98414174D01*
X120345955Y-98455250D01*
X120335764Y-98488844D01*
X120319215Y-98519804D01*
X120296943Y-98546943D01*
X120269804Y-98569215D01*
X120238844Y-98585764D01*
X120205250Y-98595955D01*
X120164174Y-98600000D01*
X117435826Y-98600000D01*
X117394750Y-98595955D01*
X117361156Y-98585764D01*
X117330196Y-98569215D01*
X117303057Y-98546943D01*
X117280785Y-98519804D01*
X117264236Y-98488844D01*
X117254045Y-98455250D01*
X117250000Y-98414174D01*
X117250000Y-97085826D01*
X117254045Y-97044750D01*
X117264236Y-97011156D01*
X117280785Y-96980196D01*
X117303057Y-96953057D01*
X117330196Y-96930785D01*
X117361156Y-96914236D01*
X117394750Y-96904045D01*
X117435826Y-96900000D01*
X120164174Y-96900000D01*
X120205250Y-96904045D01*
G37*
G36*
X150200000Y-98000000D02*
G01*
X144700000Y-98000000D01*
X144700000Y-95000000D01*
X150200000Y-95000000D01*
X150200000Y-98000000D01*
G37*
G36*
X186635683Y-96083867D02*
G01*
X186769813Y-96110547D01*
X186938152Y-96180275D01*
X187089653Y-96281505D01*
X187218495Y-96410347D01*
X187319725Y-96561848D01*
X187384520Y-96718277D01*
X187396067Y-96739881D01*
X187411612Y-96758822D01*
X187430554Y-96774368D01*
X187452165Y-96785919D01*
X187475614Y-96793032D01*
X187500000Y-96795434D01*
X187524386Y-96793032D01*
X187547835Y-96785919D01*
X187569446Y-96774368D01*
X187588387Y-96758823D01*
X187603933Y-96739881D01*
X187615480Y-96718277D01*
X187680275Y-96561848D01*
X187781505Y-96410347D01*
X187910347Y-96281505D01*
X188061848Y-96180275D01*
X188230187Y-96110547D01*
X188364317Y-96083867D01*
X188408894Y-96075000D01*
X188591106Y-96075000D01*
X188635683Y-96083867D01*
X188769813Y-96110547D01*
X188938152Y-96180275D01*
X189089653Y-96281505D01*
X189218495Y-96410347D01*
X189319725Y-96561848D01*
X189384520Y-96718277D01*
X189396067Y-96739881D01*
X189411612Y-96758822D01*
X189430554Y-96774368D01*
X189452165Y-96785919D01*
X189475614Y-96793032D01*
X189500000Y-96795434D01*
X189524386Y-96793032D01*
X189547835Y-96785919D01*
X189569446Y-96774368D01*
X189588387Y-96758823D01*
X189603933Y-96739881D01*
X189615480Y-96718277D01*
X189680275Y-96561848D01*
X189781505Y-96410347D01*
X189910347Y-96281505D01*
X190061848Y-96180275D01*
X190230187Y-96110547D01*
X190364317Y-96083867D01*
X190408894Y-96075000D01*
X190591106Y-96075000D01*
X190635683Y-96083867D01*
X190769813Y-96110547D01*
X190938152Y-96180275D01*
X191089653Y-96281505D01*
X191218495Y-96410347D01*
X191319725Y-96561848D01*
X191389453Y-96730187D01*
X191425000Y-96908895D01*
X191425000Y-97091105D01*
X191389453Y-97269813D01*
X191319725Y-97438152D01*
X191218495Y-97589653D01*
X191089653Y-97718495D01*
X190938152Y-97819725D01*
X190769813Y-97889453D01*
X190650674Y-97913151D01*
X190591106Y-97925000D01*
X190408894Y-97925000D01*
X190349326Y-97913151D01*
X190230187Y-97889453D01*
X190061848Y-97819725D01*
X189910347Y-97718495D01*
X189781505Y-97589653D01*
X189680275Y-97438152D01*
X189615480Y-97281723D01*
X189603933Y-97260119D01*
X189588388Y-97241178D01*
X189569446Y-97225632D01*
X189547835Y-97214081D01*
X189524386Y-97206968D01*
X189500000Y-97204566D01*
X189475614Y-97206968D01*
X189452165Y-97214081D01*
X189430554Y-97225632D01*
X189411613Y-97241177D01*
X189396067Y-97260119D01*
X189384520Y-97281723D01*
X189319725Y-97438152D01*
X189218495Y-97589653D01*
X189089653Y-97718495D01*
X188938152Y-97819725D01*
X188769813Y-97889453D01*
X188650674Y-97913151D01*
X188591106Y-97925000D01*
X188408894Y-97925000D01*
X188349326Y-97913151D01*
X188230187Y-97889453D01*
X188061848Y-97819725D01*
X187910347Y-97718495D01*
X187781505Y-97589653D01*
X187680275Y-97438152D01*
X187615480Y-97281723D01*
X187603933Y-97260119D01*
X187588388Y-97241178D01*
X187569446Y-97225632D01*
X187547835Y-97214081D01*
X187524386Y-97206968D01*
X187500000Y-97204566D01*
X187475614Y-97206968D01*
X187452165Y-97214081D01*
X187430554Y-97225632D01*
X187411613Y-97241177D01*
X187396067Y-97260119D01*
X187384520Y-97281723D01*
X187319725Y-97438152D01*
X187218495Y-97589653D01*
X187089653Y-97718495D01*
X186938152Y-97819725D01*
X186769813Y-97889453D01*
X186650674Y-97913151D01*
X186591106Y-97925000D01*
X186408894Y-97925000D01*
X186349326Y-97913151D01*
X186230187Y-97889453D01*
X186061848Y-97819725D01*
X185910347Y-97718495D01*
X185781505Y-97589653D01*
X185680275Y-97438152D01*
X185610547Y-97269813D01*
X185575000Y-97091105D01*
X185575000Y-96908895D01*
X185610547Y-96730187D01*
X185680275Y-96561848D01*
X185781505Y-96410347D01*
X185910347Y-96281505D01*
X186061848Y-96180275D01*
X186230187Y-96110547D01*
X186364317Y-96083867D01*
X186408894Y-96075000D01*
X186591106Y-96075000D01*
X186635683Y-96083867D01*
G37*
G36*
X128183867Y-94754556D02*
G01*
X128222448Y-94766259D01*
X128258001Y-94785263D01*
X128289163Y-94810837D01*
X128314737Y-94841999D01*
X128333741Y-94877552D01*
X128345444Y-94916133D01*
X128350000Y-94962390D01*
X128350000Y-96037610D01*
X128345444Y-96083867D01*
X128333741Y-96122448D01*
X128314737Y-96158001D01*
X128289163Y-96189163D01*
X128258001Y-96214737D01*
X128222448Y-96233741D01*
X128183867Y-96245444D01*
X128137610Y-96250000D01*
X127487390Y-96250000D01*
X127441133Y-96245444D01*
X127402552Y-96233741D01*
X127366999Y-96214737D01*
X127335837Y-96189163D01*
X127310263Y-96158001D01*
X127291259Y-96122448D01*
X127279556Y-96083867D01*
X127275000Y-96037610D01*
X127275000Y-94962390D01*
X127279556Y-94916133D01*
X127291259Y-94877552D01*
X127310263Y-94841999D01*
X127335837Y-94810837D01*
X127366999Y-94785263D01*
X127402552Y-94766259D01*
X127441133Y-94754556D01*
X127487390Y-94750000D01*
X128137610Y-94750000D01*
X128183867Y-94754556D01*
G37*
G36*
X130058867Y-94754556D02*
G01*
X130097448Y-94766259D01*
X130133001Y-94785263D01*
X130164163Y-94810837D01*
X130189737Y-94841999D01*
X130208741Y-94877552D01*
X130220444Y-94916133D01*
X130225000Y-94962390D01*
X130225000Y-96037610D01*
X130220444Y-96083867D01*
X130208741Y-96122448D01*
X130189737Y-96158001D01*
X130164163Y-96189163D01*
X130133001Y-96214737D01*
X130097448Y-96233741D01*
X130058867Y-96245444D01*
X130012610Y-96250000D01*
X129362390Y-96250000D01*
X129316133Y-96245444D01*
X129277552Y-96233741D01*
X129241999Y-96214737D01*
X129210837Y-96189163D01*
X129185263Y-96158001D01*
X129166259Y-96122448D01*
X129154556Y-96083867D01*
X129150000Y-96037610D01*
X129150000Y-94962390D01*
X129154556Y-94916133D01*
X129166259Y-94877552D01*
X129185263Y-94841999D01*
X129210837Y-94810837D01*
X129241999Y-94785263D01*
X129277552Y-94766259D01*
X129316133Y-94754556D01*
X129362390Y-94750000D01*
X130012610Y-94750000D01*
X130058867Y-94754556D01*
G37*
G36*
X158650000Y-95700000D02*
G01*
X156050000Y-95700000D01*
X156050000Y-93300000D01*
X158650000Y-93300000D01*
X158650000Y-95700000D01*
G37*
G36*
X162950000Y-95700000D02*
G01*
X160350000Y-95700000D01*
X160350000Y-93300000D01*
X162950000Y-93300000D01*
X162950000Y-95700000D01*
G37*
G36*
X139400000Y-95450000D02*
G01*
X136800000Y-95450000D01*
X136800000Y-93050000D01*
X139400000Y-93050000D01*
X139400000Y-95450000D01*
G37*
G36*
X135100000Y-95450000D02*
G01*
X132500000Y-95450000D01*
X132500000Y-93050000D01*
X135100000Y-93050000D01*
X135100000Y-95450000D01*
G37*
G36*
X187933867Y-88004556D02*
G01*
X187972448Y-88016259D01*
X188008001Y-88035263D01*
X188039163Y-88060837D01*
X188064737Y-88091999D01*
X188083741Y-88127552D01*
X188095444Y-88166133D01*
X188100000Y-88212390D01*
X188100000Y-89287610D01*
X188095444Y-89333867D01*
X188083741Y-89372448D01*
X188064737Y-89408001D01*
X188039163Y-89439163D01*
X188008001Y-89464737D01*
X187972448Y-89483741D01*
X187933867Y-89495444D01*
X187887610Y-89500000D01*
X187237390Y-89500000D01*
X187191133Y-89495444D01*
X187152552Y-89483741D01*
X187116999Y-89464737D01*
X187085837Y-89439163D01*
X187060263Y-89408001D01*
X187041259Y-89372448D01*
X187029556Y-89333867D01*
X187025000Y-89287610D01*
X187025000Y-88212390D01*
X187029556Y-88166133D01*
X187041259Y-88127552D01*
X187060263Y-88091999D01*
X187085837Y-88060837D01*
X187116999Y-88035263D01*
X187152552Y-88016259D01*
X187191133Y-88004556D01*
X187237390Y-88000000D01*
X187887610Y-88000000D01*
X187933867Y-88004556D01*
G37*
G36*
X189808867Y-88004556D02*
G01*
X189847448Y-88016259D01*
X189883001Y-88035263D01*
X189914163Y-88060837D01*
X189939737Y-88091999D01*
X189958741Y-88127552D01*
X189970444Y-88166133D01*
X189975000Y-88212390D01*
X189975000Y-89287610D01*
X189970444Y-89333867D01*
X189958741Y-89372448D01*
X189939737Y-89408001D01*
X189914163Y-89439163D01*
X189883001Y-89464737D01*
X189847448Y-89483741D01*
X189808867Y-89495444D01*
X189762610Y-89500000D01*
X189112390Y-89500000D01*
X189066133Y-89495444D01*
X189027552Y-89483741D01*
X188991999Y-89464737D01*
X188960837Y-89439163D01*
X188935263Y-89408001D01*
X188916259Y-89372448D01*
X188904556Y-89333867D01*
X188900000Y-89287610D01*
X188900000Y-88212390D01*
X188904556Y-88166133D01*
X188916259Y-88127552D01*
X188935263Y-88091999D01*
X188960837Y-88060837D01*
X188991999Y-88035263D01*
X189027552Y-88016259D01*
X189066133Y-88004556D01*
X189112390Y-88000000D01*
X189762610Y-88000000D01*
X189808867Y-88004556D01*
G37*
G36*
X133290324Y-86328805D02*
G01*
X133321576Y-86338285D01*
X133350369Y-86353675D01*
X133375610Y-86374390D01*
X133396325Y-86399631D01*
X133411715Y-86428424D01*
X133421195Y-86459676D01*
X133425000Y-86498309D01*
X133425000Y-88801691D01*
X133421195Y-88840324D01*
X133411715Y-88871576D01*
X133396325Y-88900369D01*
X133375610Y-88925610D01*
X133350369Y-88946325D01*
X133321576Y-88961715D01*
X133290324Y-88971195D01*
X133251691Y-88975000D01*
X131423309Y-88975000D01*
X131384676Y-88971195D01*
X131353424Y-88961715D01*
X131324631Y-88946325D01*
X131299390Y-88925610D01*
X131278675Y-88900369D01*
X131263285Y-88871576D01*
X131253805Y-88840324D01*
X131250000Y-88801691D01*
X131250000Y-86498309D01*
X131253805Y-86459676D01*
X131263285Y-86428424D01*
X131278675Y-86399631D01*
X131299390Y-86374390D01*
X131324631Y-86353675D01*
X131353424Y-86338285D01*
X131384676Y-86328805D01*
X131423309Y-86325000D01*
X133251691Y-86325000D01*
X133290324Y-86328805D01*
G37*
G36*
X139515324Y-86328805D02*
G01*
X139546576Y-86338285D01*
X139575369Y-86353675D01*
X139600610Y-86374390D01*
X139621325Y-86399631D01*
X139636715Y-86428424D01*
X139646195Y-86459676D01*
X139650000Y-86498309D01*
X139650000Y-88801691D01*
X139646195Y-88840324D01*
X139636715Y-88871576D01*
X139621325Y-88900369D01*
X139600610Y-88925610D01*
X139575369Y-88946325D01*
X139546576Y-88961715D01*
X139515324Y-88971195D01*
X139476691Y-88975000D01*
X137648309Y-88975000D01*
X137609676Y-88971195D01*
X137578424Y-88961715D01*
X137549631Y-88946325D01*
X137524390Y-88925610D01*
X137503675Y-88900369D01*
X137488285Y-88871576D01*
X137478805Y-88840324D01*
X137475000Y-88801691D01*
X137475000Y-86498309D01*
X137478805Y-86459676D01*
X137488285Y-86428424D01*
X137503675Y-86399631D01*
X137524390Y-86374390D01*
X137549631Y-86353675D01*
X137578424Y-86338285D01*
X137609676Y-86328805D01*
X137648309Y-86325000D01*
X139476691Y-86325000D01*
X139515324Y-86328805D01*
G37*
G36*
X162950000Y-88700000D02*
G01*
X160350000Y-88700000D01*
X160350000Y-86300000D01*
X162950000Y-86300000D01*
X162950000Y-88700000D01*
G37*
G36*
X158650000Y-88700000D02*
G01*
X156050000Y-88700000D01*
X156050000Y-86300000D01*
X158650000Y-86300000D01*
X158650000Y-88700000D01*
G37*
G36*
X150200000Y-88300000D02*
G01*
X144700000Y-88300000D01*
X144700000Y-85300000D01*
X150200000Y-85300000D01*
X150200000Y-88300000D01*
G37*
G36*
X187933867Y-83254556D02*
G01*
X187972448Y-83266259D01*
X188008001Y-83285263D01*
X188039163Y-83310837D01*
X188064737Y-83341999D01*
X188083741Y-83377552D01*
X188095444Y-83416133D01*
X188100000Y-83462390D01*
X188100000Y-84537610D01*
X188095444Y-84583867D01*
X188083741Y-84622448D01*
X188064737Y-84658001D01*
X188039163Y-84689163D01*
X188008001Y-84714737D01*
X187972448Y-84733741D01*
X187933867Y-84745444D01*
X187887610Y-84750000D01*
X187237390Y-84750000D01*
X187191133Y-84745444D01*
X187152552Y-84733741D01*
X187116999Y-84714737D01*
X187085837Y-84689163D01*
X187060263Y-84658001D01*
X187041259Y-84622448D01*
X187029556Y-84583867D01*
X187025000Y-84537610D01*
X187025000Y-83462390D01*
X187029556Y-83416133D01*
X187041259Y-83377552D01*
X187060263Y-83341999D01*
X187085837Y-83310837D01*
X187116999Y-83285263D01*
X187152552Y-83266259D01*
X187191133Y-83254556D01*
X187237390Y-83250000D01*
X187887610Y-83250000D01*
X187933867Y-83254556D01*
G37*
G36*
X189808867Y-83254556D02*
G01*
X189847448Y-83266259D01*
X189883001Y-83285263D01*
X189914163Y-83310837D01*
X189939737Y-83341999D01*
X189958741Y-83377552D01*
X189970444Y-83416133D01*
X189975000Y-83462390D01*
X189975000Y-84537610D01*
X189970444Y-84583867D01*
X189958741Y-84622448D01*
X189939737Y-84658001D01*
X189914163Y-84689163D01*
X189883001Y-84714737D01*
X189847448Y-84733741D01*
X189808867Y-84745444D01*
X189762610Y-84750000D01*
X189112390Y-84750000D01*
X189066133Y-84745444D01*
X189027552Y-84733741D01*
X188991999Y-84714737D01*
X188960837Y-84689163D01*
X188935263Y-84658001D01*
X188916259Y-84622448D01*
X188904556Y-84583867D01*
X188900000Y-84537610D01*
X188900000Y-83462390D01*
X188904556Y-83416133D01*
X188916259Y-83377552D01*
X188935263Y-83341999D01*
X188960837Y-83310837D01*
X188991999Y-83285263D01*
X189027552Y-83266259D01*
X189066133Y-83254556D01*
X189112390Y-83250000D01*
X189762610Y-83250000D01*
X189808867Y-83254556D01*
G37*
G36*
X118922948Y-80505722D02*
G01*
X119186831Y-80615026D01*
X119186833Y-80615027D01*
X119424321Y-80773711D01*
X119626289Y-80975679D01*
X119784973Y-81213167D01*
X119784974Y-81213169D01*
X119894278Y-81477052D01*
X119950000Y-81757186D01*
X119950000Y-82042814D01*
X119894278Y-82322948D01*
X119784974Y-82586831D01*
X119784973Y-82586833D01*
X119626289Y-82824321D01*
X119424321Y-83026289D01*
X119186833Y-83184973D01*
X119186832Y-83184974D01*
X119186831Y-83184974D01*
X118922948Y-83294278D01*
X118642814Y-83350000D01*
X118357186Y-83350000D01*
X118077052Y-83294278D01*
X117813169Y-83184974D01*
X117813168Y-83184974D01*
X117813167Y-83184973D01*
X117575679Y-83026289D01*
X117373711Y-82824321D01*
X117215027Y-82586833D01*
X117215026Y-82586831D01*
X117105722Y-82322948D01*
X117050000Y-82042814D01*
X117050000Y-81757186D01*
X117105722Y-81477052D01*
X117215026Y-81213169D01*
X117215027Y-81213167D01*
X117373711Y-80975679D01*
X117575679Y-80773711D01*
X117813167Y-80615027D01*
X117813169Y-80615026D01*
X118077052Y-80505722D01*
X118357186Y-80450000D01*
X118642814Y-80450000D01*
X118922948Y-80505722D01*
G37*
G36*
X152522948Y-80505722D02*
G01*
X152786831Y-80615026D01*
X152786833Y-80615027D01*
X153024321Y-80773711D01*
X153226289Y-80975679D01*
X153384973Y-81213167D01*
X153384974Y-81213169D01*
X153494278Y-81477052D01*
X153550000Y-81757186D01*
X153550000Y-82042814D01*
X153494278Y-82322948D01*
X153384974Y-82586831D01*
X153384973Y-82586833D01*
X153226289Y-82824321D01*
X153024321Y-83026289D01*
X152786833Y-83184973D01*
X152786832Y-83184974D01*
X152786831Y-83184974D01*
X152522948Y-83294278D01*
X152242814Y-83350000D01*
X151957186Y-83350000D01*
X151677052Y-83294278D01*
X151413169Y-83184974D01*
X151413168Y-83184974D01*
X151413167Y-83184973D01*
X151175679Y-83026289D01*
X150973711Y-82824321D01*
X150815027Y-82586833D01*
X150815026Y-82586831D01*
X150705722Y-82322948D01*
X150650000Y-82042814D01*
X150650000Y-81757186D01*
X150705722Y-81477052D01*
X150815026Y-81213169D01*
X150815027Y-81213167D01*
X150973711Y-80975679D01*
X151175679Y-80773711D01*
X151413167Y-80615027D01*
X151413169Y-80615026D01*
X151677052Y-80505722D01*
X151957186Y-80450000D01*
X152242814Y-80450000D01*
X152522948Y-80505722D01*
G37*
G36*
X110522948Y-80505722D02*
G01*
X110786831Y-80615026D01*
X110786833Y-80615027D01*
X111024321Y-80773711D01*
X111226289Y-80975679D01*
X111384973Y-81213167D01*
X111384974Y-81213169D01*
X111494278Y-81477052D01*
X111550000Y-81757186D01*
X111550000Y-82042814D01*
X111494278Y-82322948D01*
X111384974Y-82586831D01*
X111384973Y-82586833D01*
X111226289Y-82824321D01*
X111024321Y-83026289D01*
X110786833Y-83184973D01*
X110786832Y-83184974D01*
X110786831Y-83184974D01*
X110522948Y-83294278D01*
X110242814Y-83350000D01*
X109957186Y-83350000D01*
X109677052Y-83294278D01*
X109413169Y-83184974D01*
X109413168Y-83184974D01*
X109413167Y-83184973D01*
X109175679Y-83026289D01*
X108973711Y-82824321D01*
X108815027Y-82586833D01*
X108815026Y-82586831D01*
X108705722Y-82322948D01*
X108650000Y-82042814D01*
X108650000Y-81757186D01*
X108705722Y-81477052D01*
X108815026Y-81213169D01*
X108815027Y-81213167D01*
X108973711Y-80975679D01*
X109175679Y-80773711D01*
X109413167Y-80615027D01*
X109413169Y-80615026D01*
X109677052Y-80505722D01*
X109957186Y-80450000D01*
X110242814Y-80450000D01*
X110522948Y-80505722D01*
G37*
G36*
X114722948Y-80505722D02*
G01*
X114986831Y-80615026D01*
X114986833Y-80615027D01*
X115224321Y-80773711D01*
X115426289Y-80975679D01*
X115584973Y-81213167D01*
X115584974Y-81213169D01*
X115694278Y-81477052D01*
X115750000Y-81757186D01*
X115750000Y-82042814D01*
X115694278Y-82322948D01*
X115584974Y-82586831D01*
X115584973Y-82586833D01*
X115426289Y-82824321D01*
X115224321Y-83026289D01*
X114986833Y-83184973D01*
X114986832Y-83184974D01*
X114986831Y-83184974D01*
X114722948Y-83294278D01*
X114442814Y-83350000D01*
X114157186Y-83350000D01*
X113877052Y-83294278D01*
X113613169Y-83184974D01*
X113613168Y-83184974D01*
X113613167Y-83184973D01*
X113375679Y-83026289D01*
X113173711Y-82824321D01*
X113015027Y-82586833D01*
X113015026Y-82586831D01*
X112905722Y-82322948D01*
X112850000Y-82042814D01*
X112850000Y-81757186D01*
X112905722Y-81477052D01*
X113015026Y-81213169D01*
X113015027Y-81213167D01*
X113173711Y-80975679D01*
X113375679Y-80773711D01*
X113613167Y-80615027D01*
X113613169Y-80615026D01*
X113877052Y-80505722D01*
X114157186Y-80450000D01*
X114442814Y-80450000D01*
X114722948Y-80505722D01*
G37*
G36*
X123122948Y-80505722D02*
G01*
X123386831Y-80615026D01*
X123386833Y-80615027D01*
X123624321Y-80773711D01*
X123826289Y-80975679D01*
X123984973Y-81213167D01*
X123984974Y-81213169D01*
X124094278Y-81477052D01*
X124150000Y-81757186D01*
X124150000Y-82042814D01*
X124094278Y-82322948D01*
X123984974Y-82586831D01*
X123984973Y-82586833D01*
X123826289Y-82824321D01*
X123624321Y-83026289D01*
X123386833Y-83184973D01*
X123386832Y-83184974D01*
X123386831Y-83184974D01*
X123122948Y-83294278D01*
X122842814Y-83350000D01*
X122557186Y-83350000D01*
X122277052Y-83294278D01*
X122013169Y-83184974D01*
X122013168Y-83184974D01*
X122013167Y-83184973D01*
X121775679Y-83026289D01*
X121573711Y-82824321D01*
X121415027Y-82586833D01*
X121415026Y-82586831D01*
X121305722Y-82322948D01*
X121250000Y-82042814D01*
X121250000Y-81757186D01*
X121305722Y-81477052D01*
X121415026Y-81213169D01*
X121415027Y-81213167D01*
X121573711Y-80975679D01*
X121775679Y-80773711D01*
X122013167Y-80615027D01*
X122013169Y-80615026D01*
X122277052Y-80505722D01*
X122557186Y-80450000D01*
X122842814Y-80450000D01*
X123122948Y-80505722D01*
G37*
G36*
X127322948Y-80505722D02*
G01*
X127586831Y-80615026D01*
X127586833Y-80615027D01*
X127824321Y-80773711D01*
X128026289Y-80975679D01*
X128184973Y-81213167D01*
X128184974Y-81213169D01*
X128294278Y-81477052D01*
X128350000Y-81757186D01*
X128350000Y-82042814D01*
X128294278Y-82322948D01*
X128184974Y-82586831D01*
X128184973Y-82586833D01*
X128026289Y-82824321D01*
X127824321Y-83026289D01*
X127586833Y-83184973D01*
X127586832Y-83184974D01*
X127586831Y-83184974D01*
X127322948Y-83294278D01*
X127042814Y-83350000D01*
X126757186Y-83350000D01*
X126477052Y-83294278D01*
X126213169Y-83184974D01*
X126213168Y-83184974D01*
X126213167Y-83184973D01*
X125975679Y-83026289D01*
X125773711Y-82824321D01*
X125615027Y-82586833D01*
X125615026Y-82586831D01*
X125505722Y-82322948D01*
X125450000Y-82042814D01*
X125450000Y-81757186D01*
X125505722Y-81477052D01*
X125615026Y-81213169D01*
X125615027Y-81213167D01*
X125773711Y-80975679D01*
X125975679Y-80773711D01*
X126213167Y-80615027D01*
X126213169Y-80615026D01*
X126477052Y-80505722D01*
X126757186Y-80450000D01*
X127042814Y-80450000D01*
X127322948Y-80505722D01*
G37*
G36*
X135722948Y-80505722D02*
G01*
X135986831Y-80615026D01*
X135986833Y-80615027D01*
X136224321Y-80773711D01*
X136426289Y-80975679D01*
X136584973Y-81213167D01*
X136584974Y-81213169D01*
X136694278Y-81477052D01*
X136750000Y-81757186D01*
X136750000Y-82042814D01*
X136694278Y-82322948D01*
X136584974Y-82586831D01*
X136584973Y-82586833D01*
X136426289Y-82824321D01*
X136224321Y-83026289D01*
X135986833Y-83184973D01*
X135986832Y-83184974D01*
X135986831Y-83184974D01*
X135722948Y-83294278D01*
X135442814Y-83350000D01*
X135157186Y-83350000D01*
X134877052Y-83294278D01*
X134613169Y-83184974D01*
X134613168Y-83184974D01*
X134613167Y-83184973D01*
X134375679Y-83026289D01*
X134173711Y-82824321D01*
X134015027Y-82586833D01*
X134015026Y-82586831D01*
X133905722Y-82322948D01*
X133850000Y-82042814D01*
X133850000Y-81757186D01*
X133905722Y-81477052D01*
X134015026Y-81213169D01*
X134015027Y-81213167D01*
X134173711Y-80975679D01*
X134375679Y-80773711D01*
X134613167Y-80615027D01*
X134613169Y-80615026D01*
X134877052Y-80505722D01*
X135157186Y-80450000D01*
X135442814Y-80450000D01*
X135722948Y-80505722D01*
G37*
G36*
X156722948Y-80505722D02*
G01*
X156986831Y-80615026D01*
X156986833Y-80615027D01*
X157224321Y-80773711D01*
X157426289Y-80975679D01*
X157584973Y-81213167D01*
X157584974Y-81213169D01*
X157694278Y-81477052D01*
X157750000Y-81757186D01*
X157750000Y-82042814D01*
X157694278Y-82322948D01*
X157584974Y-82586831D01*
X157584973Y-82586833D01*
X157426289Y-82824321D01*
X157224321Y-83026289D01*
X156986833Y-83184973D01*
X156986832Y-83184974D01*
X156986831Y-83184974D01*
X156722948Y-83294278D01*
X156442814Y-83350000D01*
X156157186Y-83350000D01*
X155877052Y-83294278D01*
X155613169Y-83184974D01*
X155613168Y-83184974D01*
X155613167Y-83184973D01*
X155375679Y-83026289D01*
X155173711Y-82824321D01*
X155015027Y-82586833D01*
X155015026Y-82586831D01*
X154905722Y-82322948D01*
X154850000Y-82042814D01*
X154850000Y-81757186D01*
X154905722Y-81477052D01*
X155015026Y-81213169D01*
X155015027Y-81213167D01*
X155173711Y-80975679D01*
X155375679Y-80773711D01*
X155613167Y-80615027D01*
X155613169Y-80615026D01*
X155877052Y-80505722D01*
X156157186Y-80450000D01*
X156442814Y-80450000D01*
X156722948Y-80505722D01*
G37*
G36*
X148322948Y-80505722D02*
G01*
X148586831Y-80615026D01*
X148586833Y-80615027D01*
X148824321Y-80773711D01*
X149026289Y-80975679D01*
X149184973Y-81213167D01*
X149184974Y-81213169D01*
X149294278Y-81477052D01*
X149350000Y-81757186D01*
X149350000Y-82042814D01*
X149294278Y-82322948D01*
X149184974Y-82586831D01*
X149184973Y-82586833D01*
X149026289Y-82824321D01*
X148824321Y-83026289D01*
X148586833Y-83184973D01*
X148586832Y-83184974D01*
X148586831Y-83184974D01*
X148322948Y-83294278D01*
X148042814Y-83350000D01*
X147757186Y-83350000D01*
X147477052Y-83294278D01*
X147213169Y-83184974D01*
X147213168Y-83184974D01*
X147213167Y-83184973D01*
X146975679Y-83026289D01*
X146773711Y-82824321D01*
X146615027Y-82586833D01*
X146615026Y-82586831D01*
X146505722Y-82322948D01*
X146450000Y-82042814D01*
X146450000Y-81757186D01*
X146505722Y-81477052D01*
X146615026Y-81213169D01*
X146615027Y-81213167D01*
X146773711Y-80975679D01*
X146975679Y-80773711D01*
X147213167Y-80615027D01*
X147213169Y-80615026D01*
X147477052Y-80505722D01*
X147757186Y-80450000D01*
X148042814Y-80450000D01*
X148322948Y-80505722D01*
G37*
G36*
X144122948Y-80505722D02*
G01*
X144386831Y-80615026D01*
X144386833Y-80615027D01*
X144624321Y-80773711D01*
X144826289Y-80975679D01*
X144984973Y-81213167D01*
X144984974Y-81213169D01*
X145094278Y-81477052D01*
X145150000Y-81757186D01*
X145150000Y-82042814D01*
X145094278Y-82322948D01*
X144984974Y-82586831D01*
X144984973Y-82586833D01*
X144826289Y-82824321D01*
X144624321Y-83026289D01*
X144386833Y-83184973D01*
X144386832Y-83184974D01*
X144386831Y-83184974D01*
X144122948Y-83294278D01*
X143842814Y-83350000D01*
X143557186Y-83350000D01*
X143277052Y-83294278D01*
X143013169Y-83184974D01*
X143013168Y-83184974D01*
X143013167Y-83184973D01*
X142775679Y-83026289D01*
X142573711Y-82824321D01*
X142415027Y-82586833D01*
X142415026Y-82586831D01*
X142305722Y-82322948D01*
X142250000Y-82042814D01*
X142250000Y-81757186D01*
X142305722Y-81477052D01*
X142415026Y-81213169D01*
X142415027Y-81213167D01*
X142573711Y-80975679D01*
X142775679Y-80773711D01*
X143013167Y-80615027D01*
X143013169Y-80615026D01*
X143277052Y-80505722D01*
X143557186Y-80450000D01*
X143842814Y-80450000D01*
X144122948Y-80505722D01*
G37*
G36*
X139922948Y-80505722D02*
G01*
X140186831Y-80615026D01*
X140186833Y-80615027D01*
X140424321Y-80773711D01*
X140626289Y-80975679D01*
X140784973Y-81213167D01*
X140784974Y-81213169D01*
X140894278Y-81477052D01*
X140950000Y-81757186D01*
X140950000Y-82042814D01*
X140894278Y-82322948D01*
X140784974Y-82586831D01*
X140784973Y-82586833D01*
X140626289Y-82824321D01*
X140424321Y-83026289D01*
X140186833Y-83184973D01*
X140186832Y-83184974D01*
X140186831Y-83184974D01*
X139922948Y-83294278D01*
X139642814Y-83350000D01*
X139357186Y-83350000D01*
X139077052Y-83294278D01*
X138813169Y-83184974D01*
X138813168Y-83184974D01*
X138813167Y-83184973D01*
X138575679Y-83026289D01*
X138373711Y-82824321D01*
X138215027Y-82586833D01*
X138215026Y-82586831D01*
X138105722Y-82322948D01*
X138050000Y-82042814D01*
X138050000Y-81757186D01*
X138105722Y-81477052D01*
X138215026Y-81213169D01*
X138215027Y-81213167D01*
X138373711Y-80975679D01*
X138575679Y-80773711D01*
X138813167Y-80615027D01*
X138813169Y-80615026D01*
X139077052Y-80505722D01*
X139357186Y-80450000D01*
X139642814Y-80450000D01*
X139922948Y-80505722D01*
G37*
G36*
X131522948Y-80505722D02*
G01*
X131786831Y-80615026D01*
X131786833Y-80615027D01*
X132024321Y-80773711D01*
X132226289Y-80975679D01*
X132384973Y-81213167D01*
X132384974Y-81213169D01*
X132494278Y-81477052D01*
X132550000Y-81757186D01*
X132550000Y-82042814D01*
X132494278Y-82322948D01*
X132384974Y-82586831D01*
X132384973Y-82586833D01*
X132226289Y-82824321D01*
X132024321Y-83026289D01*
X131786833Y-83184973D01*
X131786832Y-83184974D01*
X131786831Y-83184974D01*
X131522948Y-83294278D01*
X131242814Y-83350000D01*
X130957186Y-83350000D01*
X130677052Y-83294278D01*
X130413169Y-83184974D01*
X130413168Y-83184974D01*
X130413167Y-83184973D01*
X130175679Y-83026289D01*
X129973711Y-82824321D01*
X129815027Y-82586833D01*
X129815026Y-82586831D01*
X129705722Y-82322948D01*
X129650000Y-82042814D01*
X129650000Y-81757186D01*
X129705722Y-81477052D01*
X129815026Y-81213169D01*
X129815027Y-81213167D01*
X129973711Y-80975679D01*
X130175679Y-80773711D01*
X130413167Y-80615027D01*
X130413169Y-80615026D01*
X130677052Y-80505722D01*
X130957186Y-80450000D01*
X131242814Y-80450000D01*
X131522948Y-80505722D01*
G37*
G36*
X131522948Y-75005722D02*
G01*
X131786831Y-75115026D01*
X131786833Y-75115027D01*
X132024321Y-75273711D01*
X132226289Y-75475679D01*
X132318598Y-75613830D01*
X132384974Y-75713169D01*
X132494278Y-75977052D01*
X132550000Y-76257186D01*
X132550000Y-76542814D01*
X132494278Y-76822948D01*
X132388935Y-77077268D01*
X132384973Y-77086833D01*
X132226289Y-77324321D01*
X132024321Y-77526289D01*
X131786833Y-77684973D01*
X131786832Y-77684974D01*
X131786831Y-77684974D01*
X131522948Y-77794278D01*
X131242814Y-77850000D01*
X130957186Y-77850000D01*
X130677052Y-77794278D01*
X130413169Y-77684974D01*
X130413168Y-77684974D01*
X130413167Y-77684973D01*
X130175679Y-77526289D01*
X129973711Y-77324321D01*
X129815027Y-77086833D01*
X129811065Y-77077268D01*
X129705722Y-76822948D01*
X129650000Y-76542814D01*
X129650000Y-76257186D01*
X129705722Y-75977052D01*
X129815026Y-75713169D01*
X129881402Y-75613830D01*
X129973711Y-75475679D01*
X130175679Y-75273711D01*
X130413167Y-75115027D01*
X130413169Y-75115026D01*
X130677052Y-75005722D01*
X130957186Y-74950000D01*
X131242814Y-74950000D01*
X131522948Y-75005722D01*
G37*
G36*
X118922948Y-75005722D02*
G01*
X119186831Y-75115026D01*
X119186833Y-75115027D01*
X119424321Y-75273711D01*
X119626289Y-75475679D01*
X119718598Y-75613830D01*
X119784974Y-75713169D01*
X119894278Y-75977052D01*
X119950000Y-76257186D01*
X119950000Y-76542814D01*
X119894278Y-76822948D01*
X119788935Y-77077268D01*
X119784973Y-77086833D01*
X119626289Y-77324321D01*
X119424321Y-77526289D01*
X119186833Y-77684973D01*
X119186832Y-77684974D01*
X119186831Y-77684974D01*
X118922948Y-77794278D01*
X118642814Y-77850000D01*
X118357186Y-77850000D01*
X118077052Y-77794278D01*
X117813169Y-77684974D01*
X117813168Y-77684974D01*
X117813167Y-77684973D01*
X117575679Y-77526289D01*
X117373711Y-77324321D01*
X117215027Y-77086833D01*
X117211065Y-77077268D01*
X117105722Y-76822948D01*
X117050000Y-76542814D01*
X117050000Y-76257186D01*
X117105722Y-75977052D01*
X117215026Y-75713169D01*
X117281402Y-75613830D01*
X117373711Y-75475679D01*
X117575679Y-75273711D01*
X117813167Y-75115027D01*
X117813169Y-75115026D01*
X118077052Y-75005722D01*
X118357186Y-74950000D01*
X118642814Y-74950000D01*
X118922948Y-75005722D01*
G37*
G36*
X123122948Y-75005722D02*
G01*
X123386831Y-75115026D01*
X123386833Y-75115027D01*
X123624321Y-75273711D01*
X123826289Y-75475679D01*
X123918598Y-75613830D01*
X123984974Y-75713169D01*
X124094278Y-75977052D01*
X124150000Y-76257186D01*
X124150000Y-76542814D01*
X124094278Y-76822948D01*
X123988935Y-77077268D01*
X123984973Y-77086833D01*
X123826289Y-77324321D01*
X123624321Y-77526289D01*
X123386833Y-77684973D01*
X123386832Y-77684974D01*
X123386831Y-77684974D01*
X123122948Y-77794278D01*
X122842814Y-77850000D01*
X122557186Y-77850000D01*
X122277052Y-77794278D01*
X122013169Y-77684974D01*
X122013168Y-77684974D01*
X122013167Y-77684973D01*
X121775679Y-77526289D01*
X121573711Y-77324321D01*
X121415027Y-77086833D01*
X121411065Y-77077268D01*
X121305722Y-76822948D01*
X121250000Y-76542814D01*
X121250000Y-76257186D01*
X121305722Y-75977052D01*
X121415026Y-75713169D01*
X121481402Y-75613830D01*
X121573711Y-75475679D01*
X121775679Y-75273711D01*
X122013167Y-75115027D01*
X122013169Y-75115026D01*
X122277052Y-75005722D01*
X122557186Y-74950000D01*
X122842814Y-74950000D01*
X123122948Y-75005722D01*
G37*
G36*
X127322948Y-75005722D02*
G01*
X127586831Y-75115026D01*
X127586833Y-75115027D01*
X127824321Y-75273711D01*
X128026289Y-75475679D01*
X128118598Y-75613830D01*
X128184974Y-75713169D01*
X128294278Y-75977052D01*
X128350000Y-76257186D01*
X128350000Y-76542814D01*
X128294278Y-76822948D01*
X128188935Y-77077268D01*
X128184973Y-77086833D01*
X128026289Y-77324321D01*
X127824321Y-77526289D01*
X127586833Y-77684973D01*
X127586832Y-77684974D01*
X127586831Y-77684974D01*
X127322948Y-77794278D01*
X127042814Y-77850000D01*
X126757186Y-77850000D01*
X126477052Y-77794278D01*
X126213169Y-77684974D01*
X126213168Y-77684974D01*
X126213167Y-77684973D01*
X125975679Y-77526289D01*
X125773711Y-77324321D01*
X125615027Y-77086833D01*
X125611065Y-77077268D01*
X125505722Y-76822948D01*
X125450000Y-76542814D01*
X125450000Y-76257186D01*
X125505722Y-75977052D01*
X125615026Y-75713169D01*
X125681402Y-75613830D01*
X125773711Y-75475679D01*
X125975679Y-75273711D01*
X126213167Y-75115027D01*
X126213169Y-75115026D01*
X126477052Y-75005722D01*
X126757186Y-74950000D01*
X127042814Y-74950000D01*
X127322948Y-75005722D01*
G37*
G36*
X139922948Y-75005722D02*
G01*
X140186831Y-75115026D01*
X140186833Y-75115027D01*
X140424321Y-75273711D01*
X140626289Y-75475679D01*
X140718598Y-75613830D01*
X140784974Y-75713169D01*
X140894278Y-75977052D01*
X140950000Y-76257186D01*
X140950000Y-76542814D01*
X140894278Y-76822948D01*
X140788935Y-77077268D01*
X140784973Y-77086833D01*
X140626289Y-77324321D01*
X140424321Y-77526289D01*
X140186833Y-77684973D01*
X140186832Y-77684974D01*
X140186831Y-77684974D01*
X139922948Y-77794278D01*
X139642814Y-77850000D01*
X139357186Y-77850000D01*
X139077052Y-77794278D01*
X138813169Y-77684974D01*
X138813168Y-77684974D01*
X138813167Y-77684973D01*
X138575679Y-77526289D01*
X138373711Y-77324321D01*
X138215027Y-77086833D01*
X138211065Y-77077268D01*
X138105722Y-76822948D01*
X138050000Y-76542814D01*
X138050000Y-76257186D01*
X138105722Y-75977052D01*
X138215026Y-75713169D01*
X138281402Y-75613830D01*
X138373711Y-75475679D01*
X138575679Y-75273711D01*
X138813167Y-75115027D01*
X138813169Y-75115026D01*
X139077052Y-75005722D01*
X139357186Y-74950000D01*
X139642814Y-74950000D01*
X139922948Y-75005722D01*
G37*
G36*
X144122948Y-75005722D02*
G01*
X144386831Y-75115026D01*
X144386833Y-75115027D01*
X144624321Y-75273711D01*
X144826289Y-75475679D01*
X144918598Y-75613830D01*
X144984974Y-75713169D01*
X145094278Y-75977052D01*
X145150000Y-76257186D01*
X145150000Y-76542814D01*
X145094278Y-76822948D01*
X144988935Y-77077268D01*
X144984973Y-77086833D01*
X144826289Y-77324321D01*
X144624321Y-77526289D01*
X144386833Y-77684973D01*
X144386832Y-77684974D01*
X144386831Y-77684974D01*
X144122948Y-77794278D01*
X143842814Y-77850000D01*
X143557186Y-77850000D01*
X143277052Y-77794278D01*
X143013169Y-77684974D01*
X143013168Y-77684974D01*
X143013167Y-77684973D01*
X142775679Y-77526289D01*
X142573711Y-77324321D01*
X142415027Y-77086833D01*
X142411065Y-77077268D01*
X142305722Y-76822948D01*
X142250000Y-76542814D01*
X142250000Y-76257186D01*
X142305722Y-75977052D01*
X142415026Y-75713169D01*
X142481402Y-75613830D01*
X142573711Y-75475679D01*
X142775679Y-75273711D01*
X143013167Y-75115027D01*
X143013169Y-75115026D01*
X143277052Y-75005722D01*
X143557186Y-74950000D01*
X143842814Y-74950000D01*
X144122948Y-75005722D01*
G37*
G36*
X152522948Y-75005722D02*
G01*
X152786831Y-75115026D01*
X152786833Y-75115027D01*
X153024321Y-75273711D01*
X153226289Y-75475679D01*
X153318598Y-75613830D01*
X153384974Y-75713169D01*
X153494278Y-75977052D01*
X153550000Y-76257186D01*
X153550000Y-76542814D01*
X153494278Y-76822948D01*
X153388935Y-77077268D01*
X153384973Y-77086833D01*
X153226289Y-77324321D01*
X153024321Y-77526289D01*
X152786833Y-77684973D01*
X152786832Y-77684974D01*
X152786831Y-77684974D01*
X152522948Y-77794278D01*
X152242814Y-77850000D01*
X151957186Y-77850000D01*
X151677052Y-77794278D01*
X151413169Y-77684974D01*
X151413168Y-77684974D01*
X151413167Y-77684973D01*
X151175679Y-77526289D01*
X150973711Y-77324321D01*
X150815027Y-77086833D01*
X150811065Y-77077268D01*
X150705722Y-76822948D01*
X150650000Y-76542814D01*
X150650000Y-76257186D01*
X150705722Y-75977052D01*
X150815026Y-75713169D01*
X150881402Y-75613830D01*
X150973711Y-75475679D01*
X151175679Y-75273711D01*
X151413167Y-75115027D01*
X151413169Y-75115026D01*
X151677052Y-75005722D01*
X151957186Y-74950000D01*
X152242814Y-74950000D01*
X152522948Y-75005722D01*
G37*
G36*
X110522948Y-75005722D02*
G01*
X110786831Y-75115026D01*
X110786833Y-75115027D01*
X111024321Y-75273711D01*
X111226289Y-75475679D01*
X111318598Y-75613830D01*
X111384974Y-75713169D01*
X111494278Y-75977052D01*
X111550000Y-76257186D01*
X111550000Y-76542814D01*
X111494278Y-76822948D01*
X111388935Y-77077268D01*
X111384973Y-77086833D01*
X111226289Y-77324321D01*
X111024321Y-77526289D01*
X110786833Y-77684973D01*
X110786832Y-77684974D01*
X110786831Y-77684974D01*
X110522948Y-77794278D01*
X110242814Y-77850000D01*
X109957186Y-77850000D01*
X109677052Y-77794278D01*
X109413169Y-77684974D01*
X109413168Y-77684974D01*
X109413167Y-77684973D01*
X109175679Y-77526289D01*
X108973711Y-77324321D01*
X108815027Y-77086833D01*
X108811065Y-77077268D01*
X108705722Y-76822948D01*
X108650000Y-76542814D01*
X108650000Y-76257186D01*
X108705722Y-75977052D01*
X108815026Y-75713169D01*
X108881402Y-75613830D01*
X108973711Y-75475679D01*
X109175679Y-75273711D01*
X109413167Y-75115027D01*
X109413169Y-75115026D01*
X109677052Y-75005722D01*
X109957186Y-74950000D01*
X110242814Y-74950000D01*
X110522948Y-75005722D01*
G37*
G36*
X114722948Y-75005722D02*
G01*
X114986831Y-75115026D01*
X114986833Y-75115027D01*
X115224321Y-75273711D01*
X115426289Y-75475679D01*
X115518598Y-75613830D01*
X115584974Y-75713169D01*
X115694278Y-75977052D01*
X115750000Y-76257186D01*
X115750000Y-76542814D01*
X115694278Y-76822948D01*
X115588935Y-77077268D01*
X115584973Y-77086833D01*
X115426289Y-77324321D01*
X115224321Y-77526289D01*
X114986833Y-77684973D01*
X114986832Y-77684974D01*
X114986831Y-77684974D01*
X114722948Y-77794278D01*
X114442814Y-77850000D01*
X114157186Y-77850000D01*
X113877052Y-77794278D01*
X113613169Y-77684974D01*
X113613168Y-77684974D01*
X113613167Y-77684973D01*
X113375679Y-77526289D01*
X113173711Y-77324321D01*
X113015027Y-77086833D01*
X113011065Y-77077268D01*
X112905722Y-76822948D01*
X112850000Y-76542814D01*
X112850000Y-76257186D01*
X112905722Y-75977052D01*
X113015026Y-75713169D01*
X113081402Y-75613830D01*
X113173711Y-75475679D01*
X113375679Y-75273711D01*
X113613167Y-75115027D01*
X113613169Y-75115026D01*
X113877052Y-75005722D01*
X114157186Y-74950000D01*
X114442814Y-74950000D01*
X114722948Y-75005722D01*
G37*
G36*
X135722948Y-75005722D02*
G01*
X135986831Y-75115026D01*
X135986833Y-75115027D01*
X136224321Y-75273711D01*
X136426289Y-75475679D01*
X136518598Y-75613830D01*
X136584974Y-75713169D01*
X136694278Y-75977052D01*
X136750000Y-76257186D01*
X136750000Y-76542814D01*
X136694278Y-76822948D01*
X136588935Y-77077268D01*
X136584973Y-77086833D01*
X136426289Y-77324321D01*
X136224321Y-77526289D01*
X135986833Y-77684973D01*
X135986832Y-77684974D01*
X135986831Y-77684974D01*
X135722948Y-77794278D01*
X135442814Y-77850000D01*
X135157186Y-77850000D01*
X134877052Y-77794278D01*
X134613169Y-77684974D01*
X134613168Y-77684974D01*
X134613167Y-77684973D01*
X134375679Y-77526289D01*
X134173711Y-77324321D01*
X134015027Y-77086833D01*
X134011065Y-77077268D01*
X133905722Y-76822948D01*
X133850000Y-76542814D01*
X133850000Y-76257186D01*
X133905722Y-75977052D01*
X134015026Y-75713169D01*
X134081402Y-75613830D01*
X134173711Y-75475679D01*
X134375679Y-75273711D01*
X134613167Y-75115027D01*
X134613169Y-75115026D01*
X134877052Y-75005722D01*
X135157186Y-74950000D01*
X135442814Y-74950000D01*
X135722948Y-75005722D01*
G37*
G36*
X156722948Y-75005722D02*
G01*
X156986831Y-75115026D01*
X156986833Y-75115027D01*
X157224321Y-75273711D01*
X157426289Y-75475679D01*
X157518598Y-75613830D01*
X157584974Y-75713169D01*
X157694278Y-75977052D01*
X157750000Y-76257186D01*
X157750000Y-76542814D01*
X157694278Y-76822948D01*
X157588935Y-77077268D01*
X157584973Y-77086833D01*
X157426289Y-77324321D01*
X157224321Y-77526289D01*
X156986833Y-77684973D01*
X156986832Y-77684974D01*
X156986831Y-77684974D01*
X156722948Y-77794278D01*
X156442814Y-77850000D01*
X156157186Y-77850000D01*
X155877052Y-77794278D01*
X155613169Y-77684974D01*
X155613168Y-77684974D01*
X155613167Y-77684973D01*
X155375679Y-77526289D01*
X155173711Y-77324321D01*
X155015027Y-77086833D01*
X155011065Y-77077268D01*
X154905722Y-76822948D01*
X154850000Y-76542814D01*
X154850000Y-76257186D01*
X154905722Y-75977052D01*
X155015026Y-75713169D01*
X155081402Y-75613830D01*
X155173711Y-75475679D01*
X155375679Y-75273711D01*
X155613167Y-75115027D01*
X155613169Y-75115026D01*
X155877052Y-75005722D01*
X156157186Y-74950000D01*
X156442814Y-74950000D01*
X156722948Y-75005722D01*
G37*
G36*
X148322948Y-75005722D02*
G01*
X148586831Y-75115026D01*
X148586833Y-75115027D01*
X148824321Y-75273711D01*
X149026289Y-75475679D01*
X149118598Y-75613830D01*
X149184974Y-75713169D01*
X149294278Y-75977052D01*
X149350000Y-76257186D01*
X149350000Y-76542814D01*
X149294278Y-76822948D01*
X149188935Y-77077268D01*
X149184973Y-77086833D01*
X149026289Y-77324321D01*
X148824321Y-77526289D01*
X148586833Y-77684973D01*
X148586832Y-77684974D01*
X148586831Y-77684974D01*
X148322948Y-77794278D01*
X148042814Y-77850000D01*
X147757186Y-77850000D01*
X147477052Y-77794278D01*
X147213169Y-77684974D01*
X147213168Y-77684974D01*
X147213167Y-77684973D01*
X146975679Y-77526289D01*
X146773711Y-77324321D01*
X146615027Y-77086833D01*
X146611065Y-77077268D01*
X146505722Y-76822948D01*
X146450000Y-76542814D01*
X146450000Y-76257186D01*
X146505722Y-75977052D01*
X146615026Y-75713169D01*
X146681402Y-75613830D01*
X146773711Y-75475679D01*
X146975679Y-75273711D01*
X147213167Y-75115027D01*
X147213169Y-75115026D01*
X147477052Y-75005722D01*
X147757186Y-74950000D01*
X148042814Y-74950000D01*
X148322948Y-75005722D01*
G37*
G36*
X174878707Y-75157597D02*
G01*
X174955836Y-75165193D01*
X175153762Y-75225233D01*
X175153765Y-75225234D01*
X175336170Y-75322732D01*
X175496055Y-75453945D01*
X175627268Y-75613830D01*
X175724766Y-75796235D01*
X175724767Y-75796238D01*
X175784807Y-75994164D01*
X175805080Y-76200000D01*
X175784807Y-76405836D01*
X175743255Y-76542814D01*
X175724766Y-76603765D01*
X175627268Y-76786170D01*
X175496055Y-76946055D01*
X175336170Y-77077268D01*
X175153765Y-77174766D01*
X175153762Y-77174767D01*
X174955836Y-77234807D01*
X174878707Y-77242404D01*
X174801580Y-77250000D01*
X172198420Y-77250000D01*
X172121293Y-77242404D01*
X172044164Y-77234807D01*
X171846238Y-77174767D01*
X171846235Y-77174766D01*
X171663830Y-77077268D01*
X171503945Y-76946055D01*
X171372732Y-76786170D01*
X171275234Y-76603765D01*
X171256745Y-76542814D01*
X171215193Y-76405836D01*
X171194920Y-76200000D01*
X171215193Y-75994164D01*
X171275233Y-75796238D01*
X171275234Y-75796235D01*
X171372732Y-75613830D01*
X171503945Y-75453945D01*
X171663830Y-75322732D01*
X171846235Y-75225234D01*
X171846238Y-75225233D01*
X172044164Y-75165193D01*
X172121293Y-75157597D01*
X172198420Y-75150000D01*
X174801580Y-75150000D01*
X174878707Y-75157597D01*
G37*
G36*
X169005835Y-71165193D02*
G01*
X169161423Y-71212390D01*
X169203764Y-71225234D01*
X169285176Y-71268750D01*
X169386171Y-71322733D01*
X169427819Y-71356913D01*
X169546055Y-71453945D01*
X169677268Y-71613830D01*
X169774766Y-71796235D01*
X169774766Y-71796236D01*
X169774767Y-71796238D01*
X169834807Y-71994164D01*
X169850000Y-72148422D01*
X169850000Y-74251578D01*
X169834807Y-74405836D01*
X169774767Y-74603762D01*
X169774766Y-74603765D01*
X169677268Y-74786170D01*
X169546055Y-74946055D01*
X169386170Y-75077268D01*
X169203765Y-75174766D01*
X169203762Y-75174767D01*
X169005836Y-75234807D01*
X168800000Y-75255080D01*
X168594165Y-75234807D01*
X168396239Y-75174767D01*
X168396236Y-75174766D01*
X168213831Y-75077268D01*
X168053946Y-74946055D01*
X167922733Y-74786170D01*
X167825235Y-74603765D01*
X167825234Y-74603762D01*
X167765194Y-74405836D01*
X167750001Y-74251578D01*
X167750000Y-72148423D01*
X167765193Y-71994165D01*
X167825233Y-71796239D01*
X167825234Y-71796236D01*
X167922732Y-71613831D01*
X167922733Y-71613829D01*
X167956913Y-71572181D01*
X168053945Y-71453945D01*
X168213830Y-71322732D01*
X168396235Y-71225234D01*
X168438576Y-71212390D01*
X168594164Y-71165193D01*
X168800000Y-71144920D01*
X169005835Y-71165193D01*
G37*
G36*
X165058867Y-73504556D02*
G01*
X165097448Y-73516259D01*
X165133001Y-73535263D01*
X165164163Y-73560837D01*
X165189737Y-73591999D01*
X165208741Y-73627552D01*
X165220444Y-73666133D01*
X165225000Y-73712390D01*
X165225000Y-74787610D01*
X165220444Y-74833867D01*
X165208741Y-74872448D01*
X165189737Y-74908001D01*
X165164163Y-74939163D01*
X165133001Y-74964737D01*
X165097448Y-74983741D01*
X165058867Y-74995444D01*
X165012610Y-75000000D01*
X164362390Y-75000000D01*
X164316133Y-74995444D01*
X164277552Y-74983741D01*
X164241999Y-74964737D01*
X164210837Y-74939163D01*
X164185263Y-74908001D01*
X164166259Y-74872448D01*
X164154556Y-74833867D01*
X164150000Y-74787610D01*
X164150000Y-73712390D01*
X164154556Y-73666133D01*
X164166259Y-73627552D01*
X164185263Y-73591999D01*
X164210837Y-73560837D01*
X164241999Y-73535263D01*
X164277552Y-73516259D01*
X164316133Y-73504556D01*
X164362390Y-73500000D01*
X165012610Y-73500000D01*
X165058867Y-73504556D01*
G37*
G36*
X163183867Y-73504556D02*
G01*
X163222448Y-73516259D01*
X163258001Y-73535263D01*
X163289163Y-73560837D01*
X163314737Y-73591999D01*
X163333741Y-73627552D01*
X163345444Y-73666133D01*
X163350000Y-73712390D01*
X163350000Y-74787610D01*
X163345444Y-74833867D01*
X163333741Y-74872448D01*
X163314737Y-74908001D01*
X163289163Y-74939163D01*
X163258001Y-74964737D01*
X163222448Y-74983741D01*
X163183867Y-74995444D01*
X163137610Y-75000000D01*
X162487390Y-75000000D01*
X162441133Y-74995444D01*
X162402552Y-74983741D01*
X162366999Y-74964737D01*
X162335837Y-74939163D01*
X162310263Y-74908001D01*
X162291259Y-74872448D01*
X162279556Y-74833867D01*
X162275000Y-74787610D01*
X162275000Y-73712390D01*
X162279556Y-73666133D01*
X162291259Y-73627552D01*
X162310263Y-73591999D01*
X162335837Y-73560837D01*
X162366999Y-73535263D01*
X162402552Y-73516259D01*
X162441133Y-73504556D01*
X162487390Y-73500000D01*
X163137610Y-73500000D01*
X163183867Y-73504556D01*
G37*
G36*
X192947989Y-66874895D02*
G01*
X193539450Y-67119887D01*
X193539452Y-67119888D01*
X194071754Y-67475560D01*
X194524440Y-67928246D01*
X194816804Y-68365801D01*
X194880113Y-68460550D01*
X195125105Y-69052011D01*
X195250000Y-69679902D01*
X195250000Y-70320098D01*
X195125105Y-70947989D01*
X194992241Y-71268750D01*
X194880112Y-71539452D01*
X194524440Y-72071754D01*
X194071754Y-72524440D01*
X193539452Y-72880112D01*
X193539451Y-72880113D01*
X193539450Y-72880113D01*
X192947989Y-73125105D01*
X192320098Y-73250000D01*
X191679902Y-73250000D01*
X191052011Y-73125105D01*
X190460550Y-72880113D01*
X190460549Y-72880113D01*
X190460548Y-72880112D01*
X189928246Y-72524440D01*
X189475560Y-72071754D01*
X189119888Y-71539452D01*
X189007759Y-71268750D01*
X188874895Y-70947989D01*
X188750000Y-70320098D01*
X188750000Y-69679902D01*
X188874895Y-69052011D01*
X189119887Y-68460550D01*
X189183196Y-68365801D01*
X189475560Y-67928246D01*
X189928246Y-67475560D01*
X190460548Y-67119888D01*
X190460550Y-67119887D01*
X191052011Y-66874895D01*
X191679902Y-66750000D01*
X192320098Y-66750000D01*
X192947989Y-66874895D01*
G37*
G36*
X100947989Y-66874895D02*
G01*
X101539450Y-67119887D01*
X101539452Y-67119888D01*
X102071754Y-67475560D01*
X102524440Y-67928246D01*
X102816804Y-68365801D01*
X102880113Y-68460550D01*
X103125105Y-69052011D01*
X103250000Y-69679902D01*
X103250000Y-70320098D01*
X103125105Y-70947989D01*
X102992241Y-71268750D01*
X102880112Y-71539452D01*
X102524440Y-72071754D01*
X102071754Y-72524440D01*
X101539452Y-72880112D01*
X101539451Y-72880113D01*
X101539450Y-72880113D01*
X100947989Y-73125105D01*
X100320098Y-73250000D01*
X99679902Y-73250000D01*
X99052011Y-73125105D01*
X98460550Y-72880113D01*
X98460549Y-72880113D01*
X98460548Y-72880112D01*
X97928246Y-72524440D01*
X97475560Y-72071754D01*
X97119888Y-71539452D01*
X97007759Y-71268750D01*
X96874895Y-70947989D01*
X96750000Y-70320098D01*
X96750000Y-69679902D01*
X96874895Y-69052011D01*
X97119887Y-68460550D01*
X97183196Y-68365801D01*
X97475560Y-67928246D01*
X97928246Y-67475560D01*
X98460548Y-67119888D01*
X98460550Y-67119887D01*
X99052011Y-66874895D01*
X99679902Y-66750000D01*
X100320098Y-66750000D01*
X100947989Y-66874895D01*
G37*
G36*
X163183867Y-71004556D02*
G01*
X163222448Y-71016259D01*
X163258001Y-71035263D01*
X163289163Y-71060837D01*
X163314737Y-71091999D01*
X163333741Y-71127552D01*
X163345444Y-71166133D01*
X163350000Y-71212390D01*
X163350000Y-72287610D01*
X163345444Y-72333867D01*
X163333741Y-72372448D01*
X163314737Y-72408001D01*
X163289163Y-72439163D01*
X163258001Y-72464737D01*
X163222448Y-72483741D01*
X163183867Y-72495444D01*
X163137610Y-72500000D01*
X162487390Y-72500000D01*
X162441133Y-72495444D01*
X162402552Y-72483741D01*
X162366999Y-72464737D01*
X162335837Y-72439163D01*
X162310263Y-72408001D01*
X162291259Y-72372448D01*
X162279556Y-72333867D01*
X162275000Y-72287610D01*
X162275000Y-71212390D01*
X162279556Y-71166133D01*
X162291259Y-71127552D01*
X162310263Y-71091999D01*
X162335837Y-71060837D01*
X162366999Y-71035263D01*
X162402552Y-71016259D01*
X162441133Y-71004556D01*
X162487390Y-71000000D01*
X163137610Y-71000000D01*
X163183867Y-71004556D01*
G37*
G36*
X165058867Y-71004556D02*
G01*
X165097448Y-71016259D01*
X165133001Y-71035263D01*
X165164163Y-71060837D01*
X165189737Y-71091999D01*
X165208741Y-71127552D01*
X165220444Y-71166133D01*
X165225000Y-71212390D01*
X165225000Y-72287610D01*
X165220444Y-72333867D01*
X165208741Y-72372448D01*
X165189737Y-72408001D01*
X165164163Y-72439163D01*
X165133001Y-72464737D01*
X165097448Y-72483741D01*
X165058867Y-72495444D01*
X165012610Y-72500000D01*
X164362390Y-72500000D01*
X164316133Y-72495444D01*
X164277552Y-72483741D01*
X164241999Y-72464737D01*
X164210837Y-72439163D01*
X164185263Y-72408001D01*
X164166259Y-72372448D01*
X164154556Y-72333867D01*
X164150000Y-72287610D01*
X164150000Y-71212390D01*
X164154556Y-71166133D01*
X164166259Y-71127552D01*
X164185263Y-71091999D01*
X164210837Y-71060837D01*
X164241999Y-71035263D01*
X164277552Y-71016259D01*
X164316133Y-71004556D01*
X164362390Y-71000000D01*
X165012610Y-71000000D01*
X165058867Y-71004556D01*
G37*
G36*
X174628707Y-69157596D02*
G01*
X174705836Y-69165193D01*
X174903762Y-69225233D01*
X174903765Y-69225234D01*
X175086170Y-69322732D01*
X175246055Y-69453945D01*
X175377268Y-69613830D01*
X175474766Y-69796235D01*
X175474767Y-69796238D01*
X175534807Y-69994164D01*
X175555080Y-70200000D01*
X175534807Y-70405836D01*
X175514253Y-70473593D01*
X175474766Y-70603765D01*
X175377268Y-70786170D01*
X175246055Y-70946055D01*
X175086170Y-71077268D01*
X174903765Y-71174766D01*
X174903762Y-71174767D01*
X174705836Y-71234807D01*
X174628707Y-71242403D01*
X174551580Y-71250000D01*
X172448420Y-71250000D01*
X172371293Y-71242403D01*
X172294164Y-71234807D01*
X172096238Y-71174767D01*
X172096235Y-71174766D01*
X171913830Y-71077268D01*
X171753945Y-70946055D01*
X171622732Y-70786170D01*
X171525234Y-70603765D01*
X171485747Y-70473593D01*
X171465193Y-70405836D01*
X171444920Y-70200000D01*
X171465193Y-69994164D01*
X171525233Y-69796238D01*
X171525234Y-69796235D01*
X171622732Y-69613830D01*
X171753945Y-69453945D01*
X171913830Y-69322732D01*
X172096235Y-69225234D01*
X172096238Y-69225233D01*
X172294164Y-69165193D01*
X172371293Y-69157596D01*
X172448420Y-69150000D01*
X174551580Y-69150000D01*
X174628707Y-69157596D01*
G37*
G36*
X110402390Y-67579782D02*
G01*
X110552118Y-67609565D01*
X110668960Y-67657963D01*
X110834199Y-67726407D01*
X110834200Y-67726408D01*
X111088068Y-67896036D01*
X111303964Y-68111932D01*
X111417306Y-68281561D01*
X111473593Y-68365801D01*
X111590435Y-68647883D01*
X111650000Y-68947337D01*
X111650000Y-69252663D01*
X111590435Y-69552117D01*
X111473593Y-69834199D01*
X111473592Y-69834200D01*
X111303964Y-70088068D01*
X111088068Y-70303964D01*
X110935608Y-70405834D01*
X110834199Y-70473593D01*
X110668960Y-70542037D01*
X110552118Y-70590435D01*
X110402390Y-70620218D01*
X110252663Y-70650000D01*
X109947337Y-70650000D01*
X109797610Y-70620218D01*
X109647882Y-70590435D01*
X109531040Y-70542037D01*
X109365801Y-70473593D01*
X109264392Y-70405834D01*
X109111932Y-70303964D01*
X108896036Y-70088068D01*
X108726408Y-69834200D01*
X108726407Y-69834199D01*
X108609565Y-69552117D01*
X108550000Y-69252663D01*
X108550000Y-68947337D01*
X108609565Y-68647883D01*
X108726407Y-68365801D01*
X108782694Y-68281561D01*
X108896036Y-68111932D01*
X109111932Y-67896036D01*
X109365800Y-67726408D01*
X109365801Y-67726407D01*
X109531040Y-67657963D01*
X109647882Y-67609565D01*
X109797610Y-67579782D01*
X109947337Y-67550000D01*
X110252663Y-67550000D01*
X110402390Y-67579782D01*
G37*
G36*
X156602390Y-67579782D02*
G01*
X156752118Y-67609565D01*
X156868960Y-67657963D01*
X157034199Y-67726407D01*
X157034200Y-67726408D01*
X157288068Y-67896036D01*
X157503964Y-68111932D01*
X157617306Y-68281561D01*
X157673593Y-68365801D01*
X157790435Y-68647883D01*
X157850000Y-68947337D01*
X157850000Y-69252663D01*
X157790435Y-69552117D01*
X157673593Y-69834199D01*
X157673592Y-69834200D01*
X157503964Y-70088068D01*
X157288068Y-70303964D01*
X157135608Y-70405834D01*
X157034199Y-70473593D01*
X156868960Y-70542037D01*
X156752118Y-70590435D01*
X156602390Y-70620218D01*
X156452663Y-70650000D01*
X156147337Y-70650000D01*
X155997610Y-70620218D01*
X155847882Y-70590435D01*
X155731040Y-70542037D01*
X155565801Y-70473593D01*
X155464392Y-70405834D01*
X155311932Y-70303964D01*
X155096036Y-70088068D01*
X154926408Y-69834200D01*
X154926407Y-69834199D01*
X154809565Y-69552117D01*
X154750000Y-69252663D01*
X154750000Y-68947337D01*
X154809565Y-68647883D01*
X154926407Y-68365801D01*
X154982694Y-68281561D01*
X155096036Y-68111932D01*
X155311932Y-67896036D01*
X155565800Y-67726408D01*
X155565801Y-67726407D01*
X155731040Y-67657963D01*
X155847882Y-67609565D01*
X155997610Y-67579782D01*
X156147337Y-67550000D01*
X156452663Y-67550000D01*
X156602390Y-67579782D01*
G37*
M02*
