M48
; DRILL file {KiCad 5.1.5-52549c5~86~ubuntu18.04.1} date vie 04 sep 2020 15:05:00 -03
; FORMAT={-:-/ absolute / inch / decimal}
; #@! TF.CreationDate,2020-09-04T15:05:00-03:00
; #@! TF.GenerationSoftware,Kicad,Pcbnew,5.1.5-52549c5~86~ubuntu18.04.1
; #@! TF.FileFunction,Plated,1,2,PTH
FMAT,2
INCH
T1C0.0157
T2C0.0315
T3C0.0394
T4C0.0551
T5C0.0709
T6C0.0787
T7C0.1260
%
G90
G05
T1
X2.4311Y-2.0965
X2.4311Y-2.1457
X2.4311Y-4.3799
X2.4311Y-4.4291
X2.6476Y-1.2402
X2.6476Y-3.5236
X2.6772Y-2.126
X2.6772Y-4.4094
X2.6969Y-1.2402
X2.6969Y-3.5236
X2.7264Y-2.126
X2.7264Y-4.4094
X2.9134Y-1.6634
X2.9134Y-3.9469
X3.376Y-2.0276
X3.376Y-4.311
X3.437Y-1.622
X3.437Y-3.9055
X3.4882Y-1.622
X3.4882Y-3.9055
X3.5394Y-1.622
X3.5394Y-1.7047
X3.5394Y-1.7441
X3.5394Y-1.7835
X3.5394Y-1.878
X3.5394Y-3.9055
X3.5394Y-3.9882
X3.5394Y-4.0276
X3.5394Y-4.0669
X3.5394Y-4.1614
X3.5906Y-1.622
X3.5906Y-1.7047
X3.5906Y-1.7441
X3.5906Y-1.7835
X3.5906Y-1.878
X3.5906Y-3.9055
X3.5906Y-3.9882
X3.5906Y-4.0276
X3.5906Y-4.0669
X3.5906Y-4.1614
X3.6417Y-1.622
X3.6417Y-1.878
X3.6417Y-3.9055
X3.6417Y-4.1614
X3.689Y-1.622
X3.689Y-1.878
X3.689Y-3.9055
X3.689Y-4.1614
X3.8681Y-2.0177
X3.8681Y-4.3012
X3.9469Y-1.7126
X3.9469Y-1.8346
X3.9469Y-1.8839
X3.9469Y-3.9961
X3.9469Y-4.1181
X3.9469Y-4.1673
X4.2421Y-2.2736
X4.2421Y-4.5571
X4.2913Y-2.2736
X4.2913Y-4.5571
X6.1024Y-1.9783
X6.1024Y-4.2618
X6.1516Y-1.9783
X6.1516Y-4.2618
X6.4469Y-2.3681
X6.4469Y-2.4173
X6.4469Y-2.5394
X6.4469Y-4.6516
X6.4469Y-4.7008
X6.4469Y-4.8228
X6.5256Y-2.2343
X6.5256Y-4.5177
X6.7047Y-2.374
X6.7047Y-2.6299
X6.7047Y-4.6575
X6.7047Y-4.9134
X6.752Y-2.374
X6.752Y-2.6299
X6.752Y-4.6575
X6.752Y-4.9134
X6.8031Y-2.374
X6.8031Y-2.4685
X6.8031Y-2.5079
X6.8031Y-2.5472
X6.8031Y-2.6299
X6.8031Y-4.6575
X6.8031Y-4.752
X6.8031Y-4.7913
X6.8031Y-4.8307
X6.8031Y-4.9134
X6.8543Y-2.374
X6.8543Y-2.4685
X6.8543Y-2.5079
X6.8543Y-2.5472
X6.8543Y-2.6299
X6.8543Y-4.6575
X6.8543Y-4.752
X6.8543Y-4.7913
X6.8543Y-4.8307
X6.8543Y-4.9134
X6.9055Y-2.6299
X6.9055Y-4.9134
X6.9567Y-2.6299
X6.9567Y-4.9134
X7.0177Y-2.2244
X7.0177Y-4.5079
X7.4803Y-2.5886
X7.4803Y-4.872
X7.6673Y-2.126
X7.6673Y-4.4094
X7.6969Y-3.0118
X7.6969Y-5.2953
X7.7165Y-2.126
X7.7165Y-4.4094
X7.7461Y-3.0118
X7.7461Y-5.2953
X7.9626Y-2.1063
X7.9626Y-2.1555
X7.9626Y-4.3898
X7.9626Y-4.439
T2
X8.8386Y-4.6457
X8.8386Y-4.8425
X8.9173Y-4.6457
X8.9173Y-4.8425
X8.9961Y-4.6457
X8.9961Y-4.8425
X8.8386Y-2.3622
X8.8386Y-2.5591
X8.9173Y-2.3622
X8.9173Y-2.5591
X8.9961Y-2.3622
X8.9961Y-2.5591
X1.3976Y-3.9764
X1.3976Y-4.1732
X1.4764Y-3.9764
X1.4764Y-4.1732
X1.5551Y-3.9764
X1.5551Y-4.1732
X1.3976Y-1.6929
X1.3976Y-1.8898
X1.4764Y-1.6929
X1.4764Y-1.8898
X1.5551Y-1.6929
X1.5551Y-1.8898
T3
X8.1299Y-5.1772
X8.2283Y-5.1772
X8.3268Y-5.1772
X8.4252Y-5.1772
X1.9685Y-3.6417
X2.0669Y-3.6417
X2.1654Y-3.6417
X2.2638Y-3.6417
X8.1299Y-2.8937
X8.2283Y-2.8937
X8.3268Y-2.8937
X8.4252Y-2.8937
X1.9685Y-1.3583
X2.0669Y-1.3583
X2.1654Y-1.3583
X2.2638Y-1.3583
T4
X5.7874Y-5.1378
X5.9843Y-5.1378
X3.0709Y-3.6811
X3.2677Y-3.6811
X3.4646Y-3.6811
X5.7874Y-2.8543
X5.9843Y-2.8543
X4.4094Y-3.6811
X4.6063Y-3.6811
X6.9291Y-2.8543
X7.126Y-2.8543
X7.3228Y-2.8543
X2.5984Y-3.6811
X2.7953Y-3.6811
X2.5984Y-1.3976
X2.7953Y-1.3976
X7.5984Y-2.8543
X7.7953Y-2.8543
X3.7402Y-3.6811
X3.937Y-3.6811
X4.1339Y-3.6811
X6.9291Y-5.1378
X7.126Y-5.1378
X7.3228Y-5.1378
X7.5984Y-5.1378
X7.7953Y-5.1378
X3.7402Y-1.3976
X3.937Y-1.3976
X4.1339Y-1.3976
X4.4094Y-1.3976
X4.6063Y-1.3976
X6.2598Y-5.1378
X6.4567Y-5.1378
X6.6535Y-5.1378
X3.0709Y-1.3976
X3.2677Y-1.3976
X3.4646Y-1.3976
X6.2598Y-2.8543
X6.4567Y-2.8543
X6.6535Y-2.8543
T5
X2.7441Y-4.7677
X2.7441Y-4.9843
X2.9094Y-4.7677
X2.9094Y-4.9843
X3.0748Y-4.7677
X3.0748Y-4.9843
X3.2402Y-4.7677
X3.2402Y-4.9843
X3.4055Y-4.7677
X3.4055Y-4.9843
X3.5709Y-4.7677
X3.5709Y-4.9843
X3.7362Y-4.7677
X3.7362Y-4.9843
X3.9016Y-4.7677
X3.9016Y-4.9843
X4.0669Y-4.7677
X4.0669Y-4.9843
X4.2323Y-4.7677
X4.2323Y-4.9843
X4.3976Y-4.7677
X4.3976Y-4.9843
X4.563Y-4.7677
X4.563Y-4.9843
X5.8307Y-3.8346
X5.8307Y-4.0512
X5.9961Y-3.8346
X5.9961Y-4.0512
X6.1614Y-3.8346
X6.1614Y-4.0512
X6.3268Y-3.8346
X6.3268Y-4.0512
X6.4921Y-3.8346
X6.4921Y-4.0512
X6.6575Y-3.8346
X6.6575Y-4.0512
X6.8228Y-3.8346
X6.8228Y-4.0512
X6.9882Y-3.8346
X6.9882Y-4.0512
X7.1535Y-3.8346
X7.1535Y-4.0512
X7.3189Y-3.8346
X7.3189Y-4.0512
X7.4843Y-3.8346
X7.4843Y-4.0512
X7.6496Y-3.8346
X7.6496Y-4.0512
X2.7441Y-2.4843
X2.7441Y-2.7008
X2.9094Y-2.4843
X2.9094Y-2.7008
X3.0748Y-2.4843
X3.0748Y-2.7008
X3.2402Y-2.4843
X3.2402Y-2.7008
X3.4055Y-2.4843
X3.4055Y-2.7008
X3.5709Y-2.4843
X3.5709Y-2.7008
X3.7362Y-2.4843
X3.7362Y-2.7008
X3.9016Y-2.4843
X3.9016Y-2.7008
X4.0669Y-2.4843
X4.0669Y-2.7008
X4.2323Y-2.4843
X4.2323Y-2.7008
X4.3976Y-2.4843
X4.3976Y-2.7008
X4.563Y-2.4843
X4.563Y-2.7008
X5.8307Y-1.5512
X5.8307Y-1.7677
X5.9961Y-1.5512
X5.9961Y-1.7677
X6.1614Y-1.5512
X6.1614Y-1.7677
X6.3268Y-1.5512
X6.3268Y-1.7677
X6.4921Y-1.5512
X6.4921Y-1.7677
X6.6575Y-1.5512
X6.6575Y-1.7677
X6.8228Y-1.5512
X6.8228Y-1.7677
X6.9882Y-1.5512
X6.9882Y-1.7677
X7.1535Y-1.5512
X7.1535Y-1.7677
X7.3189Y-1.5512
X7.3189Y-1.7677
X7.4843Y-1.5512
X7.4843Y-1.7677
X7.6496Y-1.5512
X7.6496Y-1.7677
T7
X4.9606Y-3.5827
X9.0551Y-1.2992
X5.4331Y-2.9528
X9.0551Y-2.9528
X1.3386Y-3.5827
X4.9606Y-5.2362
X5.4331Y-5.2362
X1.3386Y-2.9528
X4.9606Y-1.2992
X1.3386Y-1.2992
X9.0551Y-5.2362
X4.9606Y-2.9528
X5.4331Y-1.2992
X1.3386Y-5.2362
X9.0551Y-3.5827
X5.4331Y-3.5827
T3
G00X8.1417Y-3.6693
M15
G01X8.1417Y-3.748
M16
G05
G00X8.3661Y-3.5906
M15
G01X8.2874Y-3.5906
M16
G05
G00X8.376Y-3.8268
M15
G01X8.2776Y-3.8268
M16
G05
G00X8.1417Y-1.3858
M15
G01X8.1417Y-1.4646
M16
G05
G00X8.3661Y-1.3071
M15
G01X8.2874Y-1.3071
M16
G05
G00X8.376Y-1.5433
M15
G01X8.2776Y-1.5433
M16
G05
G00X2.0177Y-2.7087
M15
G01X2.1161Y-2.7087
M16
G05
G00X2.0276Y-2.9449
M15
G01X2.1063Y-2.9449
M16
G05
G00X2.252Y-2.8661
M15
G01X2.252Y-2.7874
M16
G05
G00X2.0177Y-4.9921
M15
G01X2.1161Y-4.9921
M16
G05
G00X2.0276Y-5.2283
M15
G01X2.1063Y-5.2283
M16
G05
G00X2.252Y-5.1496
M15
G01X2.252Y-5.0709
M16
G05
T6
G00X8.0492Y-4.7047
M15
G01X8.0492Y-4.7835
M16
G05
G00X8.5059Y-4.7047
M15
G01X8.5059Y-4.7835
M16
G05
G00X1.8878Y-4.1142
M15
G01X1.8878Y-4.0354
M16
G05
G00X2.3445Y-4.1142
M15
G01X2.3445Y-4.0354
M16
G05
G00X8.0492Y-2.4213
M15
G01X8.0492Y-2.5
M16
G05
G00X8.5059Y-2.4213
M15
G01X8.5059Y-2.5
M16
G05
G00X1.8878Y-1.8307
M15
G01X1.8878Y-1.752
M16
G05
G00X2.3445Y-1.8307
M15
G01X2.3445Y-1.752
M16
G05
T0
M30
