G04 #@! TF.GenerationSoftware,KiCad,Pcbnew,5.1.5-52549c5~86~ubuntu18.04.1*
G04 #@! TF.CreationDate,2020-09-04T15:04:35-03:00*
G04 #@! TF.ProjectId,panel-tp2,70616e65-6c2d-4747-9032-2e6b69636164,v1.0*
G04 #@! TF.SameCoordinates,Original*
G04 #@! TF.FileFunction,Profile,NP*
%FSLAX46Y46*%
G04 Gerber Fmt 4.6, Leading zero omitted, Abs format (unit mm)*
G04 Created by KiCad (PCBNEW 5.1.5-52549c5~86~ubuntu18.04.1) date 2020-09-04 15:04:35*
%MOMM*%
%LPD*%
G04 APERTURE LIST*
%ADD10C,0.050000*%
G04 APERTURE END LIST*
D10*
X234000000Y-133000000D02*
G75*
G02X230000000Y-137000000I-4000000J0D01*
G01*
X234000000Y-91000000D02*
X234000000Y-133000000D01*
X230000000Y-137000000D02*
X138000000Y-137000000D01*
X134000000Y-133000000D02*
X134000000Y-91000000D01*
X134000000Y-91000000D02*
G75*
G02X138000000Y-87000000I4000000J0D01*
G01*
X230000000Y-87000000D02*
G75*
G02X234000000Y-91000000I0J-4000000D01*
G01*
X138000000Y-137000000D02*
G75*
G02X134000000Y-133000000I0J4000000D01*
G01*
X138000000Y-87000000D02*
X230000000Y-87000000D01*
X234000000Y-75000000D02*
G75*
G02X230000000Y-79000000I-4000000J0D01*
G01*
X234000000Y-33000000D02*
X234000000Y-75000000D01*
X230000000Y-79000000D02*
X138000000Y-79000000D01*
X134000000Y-75000000D02*
X134000000Y-33000000D01*
X134000000Y-33000000D02*
G75*
G02X138000000Y-29000000I4000000J0D01*
G01*
X230000000Y-29000000D02*
G75*
G02X234000000Y-33000000I0J-4000000D01*
G01*
X138000000Y-79000000D02*
G75*
G02X134000000Y-75000000I0J4000000D01*
G01*
X138000000Y-29000000D02*
X230000000Y-29000000D01*
X30000000Y-91000000D02*
G75*
G02X34000000Y-87000000I4000000J0D01*
G01*
X30000000Y-133000000D02*
X30000000Y-91000000D01*
X34000000Y-87000000D02*
X126000000Y-87000000D01*
X130000000Y-91000000D02*
X130000000Y-133000000D01*
X130000000Y-133000000D02*
G75*
G02X126000000Y-137000000I-4000000J0D01*
G01*
X34000000Y-137000000D02*
G75*
G02X30000000Y-133000000I0J4000000D01*
G01*
X126000000Y-87000000D02*
G75*
G02X130000000Y-91000000I0J-4000000D01*
G01*
X126000000Y-137000000D02*
X34000000Y-137000000D01*
X25000000Y-20500000D02*
X25000000Y-147000000D01*
X239000000Y-20500000D02*
X25000000Y-20500000D01*
X239000000Y-147000000D02*
X239000000Y-20500000D01*
X25000000Y-147000000D02*
X239000000Y-147000000D01*
X126000000Y-29000000D02*
G75*
G02X130000000Y-33000000I0J-4000000D01*
G01*
X30000000Y-33000000D02*
G75*
G02X34000000Y-29000000I4000000J0D01*
G01*
X34000000Y-79000000D02*
G75*
G02X30000000Y-75000000I0J4000000D01*
G01*
X130000000Y-75000000D02*
G75*
G02X126000000Y-79000000I-4000000J0D01*
G01*
X130000000Y-33000000D02*
X130000000Y-75000000D01*
X34000000Y-29000000D02*
X126000000Y-29000000D01*
X30000000Y-75000000D02*
X30000000Y-33000000D01*
X126000000Y-79000000D02*
X34000000Y-79000000D01*
M02*
